G04*
G04 #@! TF.GenerationSoftware,Altium Limited,Altium Designer,25.8.1 (18)*
G04*
G04 Layer_Color=16711935*
%FSLAX44Y44*%
%MOMM*%
G71*
G04*
G04 #@! TF.SameCoordinates,09908D1C-3CBA-4CA1-80F0-1CDDA561F1C0*
G04*
G04*
G04 #@! TF.FilePolarity,Negative*
G04*
G01*
G75*
%ADD45O,2.4532X4.7032*%
%ADD46O,5.2032X2.7032*%
%ADD47C,1.4000*%
%ADD48C,1.6500*%
%ADD49R,1.6500X1.6500*%
%ADD50C,1.8500*%
%ADD51R,1.8500X1.8500*%
%ADD52R,1.8532X1.8532*%
%ADD53C,1.8532*%
%ADD54C,1.8032*%
%ADD55O,3.8032X4.4032*%
%ADD56C,3.4160*%
%ADD57C,1.5280*%
%ADD58R,1.5280X1.5280*%
%ADD59C,1.1032*%
D45*
X57500Y475400D02*
D03*
D46*
X104500Y505400D02*
D03*
Y445400D02*
D03*
D47*
X154000Y83750D02*
D03*
Y109150D02*
D03*
Y58350D02*
D03*
D48*
X25400Y69550D02*
D03*
X50800Y94950D02*
D03*
X50800Y69550D02*
D03*
X25400Y94950D02*
D03*
X0Y94950D02*
D03*
X0Y69550D02*
D03*
X-25400Y94950D02*
D03*
Y69550D02*
D03*
X-50800Y94950D02*
D03*
D49*
X-50800Y69550D02*
D03*
D50*
X-241298Y304800D02*
D03*
X-266698Y406400D02*
D03*
X-241298Y406400D02*
D03*
X-266698Y381000D02*
D03*
X-241298Y381000D02*
D03*
X-266698Y355600D02*
D03*
X-241298D02*
D03*
X-266698Y330200D02*
D03*
X-241298Y330200D02*
D03*
X-266698Y304800D02*
D03*
Y279400D02*
D03*
X-241298Y279400D02*
D03*
X-266698Y254000D02*
D03*
X-241298D02*
D03*
X-266698Y228600D02*
D03*
X-241296Y50800D02*
D03*
X-266696Y152400D02*
D03*
X-241296Y152400D02*
D03*
X-266696Y127000D02*
D03*
X-241296Y127000D02*
D03*
X-266696Y101600D02*
D03*
X-241296Y101600D02*
D03*
X-266696Y76200D02*
D03*
X-241296Y76200D02*
D03*
X-266696Y50800D02*
D03*
Y25400D02*
D03*
X-241296Y25400D02*
D03*
X-266696Y0D02*
D03*
X-241296Y0D02*
D03*
X-266696Y-25400D02*
D03*
X-304800Y-50800D02*
D03*
X-330200D02*
D03*
X-304800Y-25400D02*
D03*
X-330200D02*
D03*
Y101600D02*
D03*
X-304800Y0D02*
D03*
X-330200D02*
D03*
X-304800Y25400D02*
D03*
X-330200Y25400D02*
D03*
X-304800Y50800D02*
D03*
X-330200Y50800D02*
D03*
X-304800Y76200D02*
D03*
X-330200Y76200D02*
D03*
X-304800Y101600D02*
D03*
Y127000D02*
D03*
X-330200Y127000D02*
D03*
X-304800Y152400D02*
D03*
X-330200Y152400D02*
D03*
X-304800Y177800D02*
D03*
X241300Y330200D02*
D03*
X266700Y228600D02*
D03*
X241300D02*
D03*
X266700Y254000D02*
D03*
X241300D02*
D03*
X266700Y279400D02*
D03*
X241300D02*
D03*
X266700Y304800D02*
D03*
X241300D02*
D03*
X266700Y330200D02*
D03*
Y355600D02*
D03*
X241300D02*
D03*
X266700Y381000D02*
D03*
X241300D02*
D03*
X266700Y406400D02*
D03*
X304800Y431800D02*
D03*
X330200D02*
D03*
X304800Y406400D02*
D03*
X330200D02*
D03*
Y279400D02*
D03*
X304800Y381000D02*
D03*
X330200D02*
D03*
X304800Y355600D02*
D03*
X330200D02*
D03*
X304800Y330200D02*
D03*
X330200D02*
D03*
X304800Y304800D02*
D03*
X330200D02*
D03*
X304800Y279400D02*
D03*
Y254000D02*
D03*
X330200D02*
D03*
X304800Y228600D02*
D03*
X330200D02*
D03*
X304800Y203200D02*
D03*
X241300Y76200D02*
D03*
X266700Y-25400D02*
D03*
X241300D02*
D03*
X266700Y0D02*
D03*
X241300D02*
D03*
X266700Y25400D02*
D03*
X241300D02*
D03*
X266700Y50800D02*
D03*
X241300D02*
D03*
X266700Y76200D02*
D03*
Y101600D02*
D03*
X241300D02*
D03*
X266700Y127000D02*
D03*
X241300D02*
D03*
X266700Y152400D02*
D03*
X304800Y177800D02*
D03*
X330200D02*
D03*
X304800Y152400D02*
D03*
X330200D02*
D03*
Y25400D02*
D03*
X304800Y127000D02*
D03*
X330200D02*
D03*
X304800Y101600D02*
D03*
X330200D02*
D03*
X304800Y76200D02*
D03*
X330200D02*
D03*
X304800Y50800D02*
D03*
X330200D02*
D03*
X304800Y25400D02*
D03*
Y0D02*
D03*
X330200D02*
D03*
X304800Y-25400D02*
D03*
X330200D02*
D03*
X304800Y-50800D02*
D03*
X-304800Y203200D02*
D03*
X-330200D02*
D03*
X-304800Y228600D02*
D03*
X-330200Y228600D02*
D03*
Y355600D02*
D03*
X-304800Y254000D02*
D03*
X-330200D02*
D03*
X-304800Y279400D02*
D03*
X-330200Y279400D02*
D03*
X-304800Y304800D02*
D03*
X-330200Y304800D02*
D03*
X-304800Y330200D02*
D03*
X-330200Y330200D02*
D03*
X-304800Y355600D02*
D03*
Y381000D02*
D03*
X-330200Y381000D02*
D03*
X-304800Y406400D02*
D03*
X-330200Y406400D02*
D03*
X-304800Y431800D02*
D03*
X-241296Y-203200D02*
D03*
X-266696Y-101600D02*
D03*
X-241296D02*
D03*
X-266696Y-127000D02*
D03*
X-241296Y-127000D02*
D03*
X-266696Y-152400D02*
D03*
X-241296Y-152400D02*
D03*
X-266696Y-177800D02*
D03*
X-241296Y-177800D02*
D03*
X-266696Y-203200D02*
D03*
X-266696Y-228600D02*
D03*
X-241296Y-228600D02*
D03*
X-266696Y-254000D02*
D03*
X-241296Y-254000D02*
D03*
X-266696Y-279400D02*
D03*
X-304800Y-304800D02*
D03*
X-330200D02*
D03*
X-304800Y-279400D02*
D03*
X-330200Y-279400D02*
D03*
X-330200Y-152400D02*
D03*
X-304800Y-254000D02*
D03*
X-330200Y-254000D02*
D03*
X-304800Y-228600D02*
D03*
X-330200D02*
D03*
X-304800Y-203200D02*
D03*
X-330200D02*
D03*
X-304800Y-177800D02*
D03*
X-330200Y-177800D02*
D03*
X-304800Y-152400D02*
D03*
X-304800Y-127000D02*
D03*
X-330200Y-127000D02*
D03*
X-304800Y-101600D02*
D03*
X-330200Y-101600D02*
D03*
X-304800Y-76200D02*
D03*
X241300Y-177800D02*
D03*
X266700Y-279400D02*
D03*
X241300D02*
D03*
X266700Y-254000D02*
D03*
X241300D02*
D03*
X266700Y-228600D02*
D03*
X241300D02*
D03*
X266700Y-203200D02*
D03*
X241300D02*
D03*
X266700Y-177800D02*
D03*
Y-152400D02*
D03*
X241300D02*
D03*
X266700Y-127000D02*
D03*
X241300D02*
D03*
X266700Y-101600D02*
D03*
X304800Y-76200D02*
D03*
X330200D02*
D03*
X304800Y-101600D02*
D03*
X330200D02*
D03*
Y-228600D02*
D03*
X304800Y-127000D02*
D03*
X330200D02*
D03*
X304800Y-152400D02*
D03*
X330200D02*
D03*
X304800Y-177800D02*
D03*
X330200D02*
D03*
X304800Y-203200D02*
D03*
X330200D02*
D03*
X304800Y-228600D02*
D03*
Y-254000D02*
D03*
X330200D02*
D03*
X304800Y-279400D02*
D03*
X330200D02*
D03*
X304800Y-304800D02*
D03*
D51*
X-241298Y228600D02*
D03*
X-241296Y-25400D02*
D03*
X-330200Y177800D02*
D03*
X241300Y406400D02*
D03*
X330200Y203200D02*
D03*
X241300Y152400D02*
D03*
X330200Y-50800D02*
D03*
X-330200Y431800D02*
D03*
X-241296Y-279400D02*
D03*
X-330200Y-76200D02*
D03*
X241300Y-101600D02*
D03*
X330200Y-304800D02*
D03*
D52*
X77350Y373500D02*
D03*
D53*
X102750Y373500D02*
D03*
X128150Y373500D02*
D03*
D54*
X235350Y-368150D02*
D03*
X285350D02*
D03*
X235350Y-513150D02*
D03*
X261351D02*
D03*
X285350D02*
D03*
X-285350Y-368150D02*
D03*
X-235350D02*
D03*
X-285350Y-513150D02*
D03*
X-259349D02*
D03*
X-235350D02*
D03*
D55*
X318350Y-438150D02*
D03*
X202350D02*
D03*
X-202350D02*
D03*
X-318350D02*
D03*
D56*
X-134930Y498270D02*
D03*
X-14530D02*
D03*
D57*
X-87230Y471170D02*
D03*
X-62230D02*
D03*
X-62230Y451170D02*
D03*
D58*
X-87230D02*
D03*
D59*
X-160000Y163000D02*
D03*
M02*
