G04*
G04 #@! TF.GenerationSoftware,Altium Limited,Altium Designer,25.8.1 (18)*
G04*
G04 Layer_Color=16711935*
%FSLAX44Y44*%
%MOMM*%
G71*
G04*
G04 #@! TF.SameCoordinates,09908D1C-3CBA-4CA1-80F0-1CDDA561F1C0*
G04*
G04*
G04 #@! TF.FilePolarity,Positive*
G04*
G01*
G75*
%ADD78C,0.0500*%
%ADD79C,0.1000*%
%ADD80C,0.1270*%
G36*
X-129352Y-412249D02*
X-137352D01*
Y-407748D01*
X-129352D01*
Y-412249D01*
D02*
G37*
G36*
X61148Y-412249D02*
X53148D01*
Y-407748D01*
X61148D01*
Y-412249D01*
D02*
G37*
G36*
X23048Y-412249D02*
X15048D01*
Y-407748D01*
X23048D01*
Y-412249D01*
D02*
G37*
G36*
X-135578Y82362D02*
X-140079D01*
Y90362D01*
X-135578D01*
Y82362D01*
D02*
G37*
G36*
X99249Y-412249D02*
X91249D01*
Y-407748D01*
X99249D01*
Y-412249D01*
D02*
G37*
G36*
X-91252Y-412249D02*
X-99252D01*
Y-407748D01*
X-91252D01*
Y-412249D01*
D02*
G37*
G36*
X61245Y-39261D02*
X58755D01*
Y-23261D01*
X61245D01*
Y-39261D01*
D02*
G37*
G36*
X-15052Y-412249D02*
X-23052D01*
Y-407748D01*
X-15052D01*
Y-412249D01*
D02*
G37*
G36*
X-5250Y187250D02*
X-11750D01*
Y197750D01*
X-5250D01*
Y187250D01*
D02*
G37*
G36*
X137348Y-412249D02*
X129348D01*
Y-407748D01*
X137348D01*
Y-412249D01*
D02*
G37*
G36*
X79752Y239932D02*
X75251D01*
Y247932D01*
X79752D01*
Y239932D01*
D02*
G37*
G36*
X-53152Y-412249D02*
X-61152D01*
Y-407748D01*
X-53152D01*
Y-412249D01*
D02*
G37*
G36*
X-24610Y344250D02*
X-27500D01*
Y359140D01*
X-24610D01*
Y344250D01*
D02*
G37*
G36*
X-162450Y136000D02*
X-168450D01*
Y150500D01*
X-162450D01*
Y136000D01*
D02*
G37*
%LPC*%
G36*
X-131757Y-408561D02*
D01*
X-133706Y-409829D01*
X-134946Y-408624D01*
Y-408561D01*
Y-409491D01*
X-133530Y-410793D01*
X-134946D01*
D01*
Y-411436D01*
X-131757D01*
Y-408561D01*
D02*
G37*
%LPD*%
G36*
Y-410793D02*
X-132718D01*
X-133253Y-410275D01*
X-131757Y-409394D01*
Y-410793D01*
D02*
G37*
%LPC*%
G36*
X58743Y-408561D02*
X56794Y-409829D01*
X55554Y-408624D01*
Y-408561D01*
Y-409491D01*
X56971Y-410793D01*
X55554D01*
D01*
Y-411435D01*
X58743D01*
Y-408561D01*
D02*
G37*
%LPD*%
G36*
Y-410793D02*
X57782D01*
X57247Y-410275D01*
X58743Y-409394D01*
Y-410793D01*
D02*
G37*
%LPC*%
G36*
X20642Y-408561D02*
X18694Y-409829D01*
X17454Y-408624D01*
Y-408561D01*
Y-409491D01*
X18870Y-410793D01*
X17454D01*
D01*
Y-411435D01*
X20642D01*
Y-408561D01*
D02*
G37*
%LPD*%
G36*
Y-410793D02*
X19682D01*
X19147Y-410275D01*
X20642Y-409394D01*
Y-410793D01*
D02*
G37*
%LPC*%
G36*
X-136454Y87956D02*
X-137321D01*
X-138623Y86539D01*
Y87956D01*
X-139265D01*
Y84767D01*
X-136391D01*
X-137659Y86716D01*
X-136454Y87956D01*
D02*
G37*
%LPD*%
G36*
X-137224Y84767D02*
X-138623D01*
Y85728D01*
X-138105Y86263D01*
X-137224Y84767D01*
D02*
G37*
%LPC*%
G36*
X96843Y-408561D02*
X94894Y-409829D01*
X93654Y-408624D01*
Y-408561D01*
Y-409491D01*
X95070Y-410793D01*
X93654D01*
D01*
Y-411435D01*
X96843D01*
Y-408561D01*
D02*
G37*
%LPD*%
G36*
Y-410793D02*
X95882D01*
X95347Y-410275D01*
X96843Y-409394D01*
Y-410793D01*
D02*
G37*
%LPC*%
G36*
X-93658Y-408561D02*
D01*
X-95606Y-409829D01*
X-96846Y-408624D01*
Y-409491D01*
X-95430Y-410793D01*
X-96846D01*
Y-411436D01*
X-93658D01*
Y-408561D01*
D02*
G37*
%LPD*%
G36*
Y-410793D02*
X-94618D01*
X-95153Y-410275D01*
X-93658Y-409394D01*
Y-410793D01*
D02*
G37*
%LPC*%
G36*
X60982Y-30833D02*
D01*
Y-31384D01*
X60949Y-31372D01*
X60916Y-31356D01*
X60857Y-31321D01*
X60804Y-31283D01*
X60756Y-31242D01*
X60720Y-31207D01*
X60702Y-31191D01*
X60690Y-31176D01*
X60679Y-31163D01*
X60672Y-31156D01*
X60669Y-31151D01*
X60667Y-31148D01*
X60621Y-31085D01*
X60583Y-31026D01*
X60550Y-30973D01*
X60527Y-30927D01*
X60509Y-30889D01*
X60502Y-30871D01*
X60497Y-30859D01*
X60491Y-30849D01*
X60489Y-30841D01*
X60486Y-30836D01*
Y-30833D01*
X60146D01*
X60184Y-30932D01*
X60230Y-31026D01*
X60253Y-31067D01*
X60276Y-31108D01*
X60298Y-31146D01*
X60321Y-31179D01*
X60344Y-31209D01*
X60362Y-31237D01*
X60382Y-31260D01*
X60398Y-31280D01*
X60410Y-31295D01*
X60420Y-31306D01*
X60425Y-31313D01*
X60428Y-31316D01*
X59018D01*
Y-31689D01*
X60982D01*
Y-30833D01*
D02*
G37*
G36*
X-17457Y-408561D02*
D01*
X-19406Y-409829D01*
X-20646Y-408624D01*
Y-408561D01*
Y-409491D01*
X-19230Y-410793D01*
X-20646D01*
D01*
Y-411436D01*
X-17457D01*
Y-408561D01*
D02*
G37*
%LPD*%
G36*
Y-410793D02*
X-18418D01*
X-18953Y-410275D01*
X-17457Y-409394D01*
Y-410793D01*
D02*
G37*
%LPC*%
G36*
X-7518Y192928D02*
D01*
Y192377D01*
X-7551Y192390D01*
X-7584Y192405D01*
X-7643Y192440D01*
X-7696Y192478D01*
X-7744Y192519D01*
X-7780Y192555D01*
X-7798Y192570D01*
X-7810Y192585D01*
X-7821Y192598D01*
X-7828Y192605D01*
X-7831Y192610D01*
X-7833Y192613D01*
X-7879Y192677D01*
X-7917Y192735D01*
X-7950Y192788D01*
X-7973Y192834D01*
X-7991Y192872D01*
X-7998Y192890D01*
X-8003Y192903D01*
X-8008Y192913D01*
X-8011Y192920D01*
X-8014Y192925D01*
Y192928D01*
X-8354D01*
X-8316Y192829D01*
X-8270Y192735D01*
X-8247Y192694D01*
X-8224Y192654D01*
X-8202Y192616D01*
X-8179Y192582D01*
X-8156Y192552D01*
X-8138Y192524D01*
X-8118Y192501D01*
X-8102Y192481D01*
X-8090Y192466D01*
X-8080Y192456D01*
X-8075Y192448D01*
X-8072Y192445D01*
X-9482D01*
Y192072D01*
X-7518D01*
Y192928D01*
D02*
G37*
G36*
X134943Y-408561D02*
D01*
X132994Y-409829D01*
X131754Y-408624D01*
Y-409491D01*
X133170Y-410793D01*
X131754D01*
Y-411435D01*
X134943D01*
Y-408561D01*
D02*
G37*
%LPD*%
G36*
Y-410793D02*
X133982D01*
X133447Y-410275D01*
X134943Y-409394D01*
Y-410793D01*
D02*
G37*
%LPC*%
G36*
X78939Y245526D02*
X76065D01*
Y242337D01*
X76707D01*
Y243298D01*
X77225Y243833D01*
X78106Y242337D01*
X78939D01*
X77671Y244286D01*
X78877Y245526D01*
X78939D01*
D01*
D02*
G37*
%LPD*%
G36*
X76707Y244109D02*
Y245526D01*
X78009D01*
X76707Y244109D01*
D02*
G37*
%LPC*%
G36*
X-55557Y-408561D02*
D01*
X-57506Y-409829D01*
X-58746Y-408624D01*
Y-409491D01*
X-57330Y-410793D01*
X-58746D01*
Y-411436D01*
X-55557D01*
Y-408561D01*
D02*
G37*
%LPD*%
G36*
Y-410793D02*
X-56518D01*
X-57053Y-410275D01*
X-55557Y-409394D01*
Y-410793D01*
D02*
G37*
%LPC*%
G36*
X-25568Y352123D02*
X-25909D01*
X-25871Y352024D01*
X-25825Y351930D01*
X-25802Y351889D01*
X-25779Y351849D01*
X-25756Y351810D01*
X-25733Y351777D01*
X-25711Y351747D01*
X-25693Y351719D01*
X-25673Y351696D01*
X-25657Y351676D01*
X-25645Y351661D01*
X-25635Y351651D01*
X-25629Y351643D01*
X-25627Y351640D01*
X-27036D01*
Y352123D01*
Y351267D01*
X-25073D01*
Y351572D01*
X-25106Y351584D01*
X-25139Y351600D01*
X-25198Y351635D01*
X-25251Y351673D01*
X-25299Y351714D01*
X-25335Y351749D01*
X-25352Y351765D01*
X-25365Y351780D01*
X-25375Y351793D01*
X-25383Y351800D01*
X-25385Y351805D01*
X-25388Y351808D01*
X-25434Y351871D01*
X-25472Y351930D01*
X-25505Y351983D01*
X-25528Y352029D01*
X-25546Y352067D01*
X-25553Y352085D01*
X-25558Y352098D01*
X-25563Y352108D01*
X-25566Y352115D01*
X-25568Y352120D01*
Y352123D01*
D02*
G37*
G36*
X-164468Y143678D02*
X-166432D01*
Y142822D01*
X-164468D01*
Y143678D01*
D02*
G37*
%LPD*%
G36*
Y142822D02*
X-165596D01*
X-165634Y142921D01*
X-165680Y143015D01*
X-165703Y143056D01*
X-165726Y143096D01*
X-165748Y143134D01*
X-165771Y143167D01*
X-165794Y143198D01*
X-165812Y143226D01*
X-165832Y143249D01*
X-165847Y143269D01*
X-165860Y143284D01*
X-165870Y143294D01*
X-165875Y143302D01*
X-165878Y143305D01*
X-164468D01*
Y142822D01*
D02*
G37*
G36*
X-166399Y143361D02*
X-166366Y143345D01*
X-166307Y143310D01*
X-166254Y143272D01*
X-166206Y143231D01*
X-166170Y143195D01*
X-166152Y143180D01*
X-166140Y143165D01*
X-166129Y143152D01*
X-166122Y143145D01*
X-166119Y143139D01*
X-166117Y143137D01*
X-166071Y143074D01*
X-166033Y143015D01*
X-166000Y142962D01*
X-165977Y142916D01*
X-165959Y142878D01*
X-165952Y142860D01*
X-165947Y142847D01*
X-165942Y142837D01*
X-165939Y142830D01*
X-165936Y142825D01*
Y142822D01*
X-166432D01*
Y143373D01*
X-166399Y143361D01*
D02*
G37*
D78*
X311150Y-539750D02*
G03*
X349250Y-501650I0J38100D01*
G01*
Y501650D02*
G03*
X311150Y539750I-38100J0D01*
G01*
X-311150D02*
G03*
X-349250Y501650I0J-38100D01*
G01*
Y-501650D02*
G03*
X-311150Y-539750I38100J0D01*
G01*
X202849Y-500151D02*
G03*
X207849Y-505151I4999J0D01*
G01*
X317849Y-376150D02*
G03*
X312850Y-371151I-4999J0D01*
G01*
X207850D02*
G03*
X202851Y-376150I0J-4999D01*
G01*
X312851Y-505151D02*
G03*
X317851Y-500151I0J4999D01*
G01*
X295351Y-438150D02*
G03*
X295350Y-438400I-35001J0D01*
G01*
X290352Y-438150D02*
G03*
X290352Y-438150I-30002J0D01*
G01*
X285100Y-434616D02*
G03*
X256815Y-462900I-24750J-3534D01*
G01*
X240350Y-368150D02*
G03*
X240350Y-368150I-5000J0D01*
G01*
X243350D02*
G03*
X243350Y-368150I-8000J0D01*
G01*
X290350D02*
G03*
X290350Y-368150I-5000J0D01*
G01*
X293350D02*
G03*
X293350Y-368150I-8000J0D01*
G01*
X240350Y-513150D02*
G03*
X240350Y-513150I-5000J0D01*
G01*
X243350D02*
G03*
X243350Y-513150I-8000J0D01*
G01*
X266351D02*
G03*
X266351Y-513150I-5000J0D01*
G01*
X269351D02*
G03*
X269351Y-513150I-8000J0D01*
G01*
X290350D02*
G03*
X290350Y-513150I-5000J0D01*
G01*
X293350D02*
G03*
X293350Y-513150I-8000J0D01*
G01*
X-317851Y-500151D02*
G03*
X-312851Y-505151I4999J0D01*
G01*
X-202851Y-376150D02*
G03*
X-207850Y-371151I-4999J0D01*
G01*
X-312850D02*
G03*
X-317849Y-376150I0J-4999D01*
G01*
X-207849Y-505151D02*
G03*
X-202849Y-500151I0J4999D01*
G01*
X-225349Y-438150D02*
G03*
X-225350Y-438400I-35001J0D01*
G01*
X-230348Y-438150D02*
G03*
X-230348Y-438150I-30002J0D01*
G01*
X-235600Y-434616D02*
G03*
X-263885Y-462900I-24750J-3534D01*
G01*
X-280350Y-368150D02*
G03*
X-280350Y-368150I-5000J0D01*
G01*
X-277350D02*
G03*
X-277350Y-368150I-8000J0D01*
G01*
X-230350D02*
G03*
X-230350Y-368150I-5000J0D01*
G01*
X-227350D02*
G03*
X-227350Y-368150I-8000J0D01*
G01*
X-280350Y-513150D02*
G03*
X-280350Y-513150I-5000J0D01*
G01*
X-277350D02*
G03*
X-277350Y-513150I-8000J0D01*
G01*
X-254349D02*
G03*
X-254349Y-513150I-5000J0D01*
G01*
X-251349D02*
G03*
X-251349Y-513150I-8000J0D01*
G01*
X-230350D02*
G03*
X-230350Y-513150I-5000J0D01*
G01*
X-227350D02*
G03*
X-227350Y-513150I-8000J0D01*
G01*
X-85230Y451170D02*
G03*
X-85230Y451170I-2000J0D01*
G01*
X155050Y-37700D02*
X164950Y-37700D01*
X155991Y-33001D02*
X155991Y-49001D01*
X164011D01*
X155050Y-44300D02*
X155050Y-51500D01*
X155050Y-30500D02*
X155050Y-37700D01*
X164950Y-44300D02*
X164950Y-51500D01*
X155050Y-51500D02*
X164950Y-51500D01*
X155050Y-30500D02*
X164950Y-30500D01*
X164011Y-33001D02*
X164011Y-49001D01*
X164950Y-30500D02*
X164950Y-37700D01*
X155991Y-33001D02*
X164011D01*
X155050Y-44300D02*
X164950Y-44300D01*
X139050Y-37700D02*
X148950Y-37700D01*
X139991Y-33001D02*
X139991Y-49001D01*
X148011D01*
X139050Y-44300D02*
X139050Y-51500D01*
X139050Y-30500D02*
X139050Y-37700D01*
X148950Y-44300D02*
X148950Y-51500D01*
X139050Y-51500D02*
X148950Y-51500D01*
X139050Y-30500D02*
X148950Y-30500D01*
X148011Y-49001D02*
Y-33001D01*
X148950Y-30500D02*
X148950Y-37700D01*
X139991Y-33001D02*
X148011D01*
X139050Y-44300D02*
X148950Y-44300D01*
X69000Y-49195D02*
X85000Y-49195D01*
X69000Y-99195D02*
X85000Y-99195D01*
X69000Y-76705D02*
X85000Y-76705D01*
X69000Y-129195D02*
X85000D01*
X69000Y-144195D02*
X85000D01*
X75000Y-182950D02*
X85000D01*
X-58755Y-38950D02*
X-58755Y-22950D01*
X-43755Y-38950D02*
Y-22950D01*
X-6245Y-38950D02*
Y-22950D01*
X-21245Y-38950D02*
X-21245Y-22950D01*
X8755Y-38950D02*
X8755Y-22950D01*
X61245Y-38950D02*
Y-22950D01*
X41245Y-38950D02*
Y-22950D01*
X56245Y-38950D02*
X56245Y-22950D01*
X-58755Y-192950D02*
X-58755Y-176950D01*
X-18755Y-176950D02*
X-18755Y-192950D01*
X8755Y-176950D02*
X8755Y-192950D01*
X23755Y-192950D02*
Y-176950D01*
X-31245Y-176950D02*
X-31245Y-192950D01*
X69000Y-54195D02*
X69000Y-51705D01*
X85000Y-69195D02*
Y-66705D01*
X85000Y-111705D02*
X85000Y-114195D01*
X69000Y-104195D02*
Y-101705D01*
X69000Y-134195D02*
X69000Y-131705D01*
X69000Y-149195D02*
Y-146705D01*
X-51245Y-22950D02*
X-48755Y-22950D01*
X-11245Y-38950D02*
X-8755Y-38950D01*
X3755Y-38950D02*
X6245Y-38950D01*
X18755Y-38950D02*
X21245D01*
X-36245Y-22950D02*
X-33755D01*
X-85000Y-64195D02*
X-69000D01*
X-85000Y-79195D02*
X-69000D01*
X-85000Y-109195D02*
X-69000D01*
X-85000Y-141705D02*
X-69000D01*
X-85000Y-124195D02*
X-69000Y-124195D01*
X-85000Y-161705D02*
X-69000Y-161705D01*
X33755Y-22950D02*
X36245Y-22950D01*
X48755Y-22950D02*
X51245D01*
X-56245Y-176950D02*
X-53755Y-176950D01*
X-41245Y-192950D02*
X-38755Y-192950D01*
X-26245Y-192950D02*
X-23755Y-192950D01*
X-16245Y-176950D02*
X-13755D01*
X-1245Y-192950D02*
X1245D01*
X13755Y-192950D02*
X16245Y-192950D01*
X53755Y-176950D02*
X56245Y-176950D01*
X33755Y-192950D02*
X36245D01*
X-85000Y-59195D02*
Y-56705D01*
X-69000Y-89195D02*
Y-86705D01*
X-85000Y-101705D02*
X-85000Y-104195D01*
X-85000Y-74195D02*
X-85000Y-71705D01*
X-85000Y-119195D02*
X-85000Y-116705D01*
X-69000Y-159195D02*
X-69000Y-156705D01*
X-69000Y-151705D02*
X-69000Y-154195D01*
X69000Y-61705D02*
X85000Y-61705D01*
X69000Y-84195D02*
X85000D01*
X69000Y-111705D02*
X85000Y-111705D01*
X69000Y-69195D02*
X85000D01*
X69000Y-96705D02*
X85000Y-96705D01*
X69000Y-114195D02*
X85000D01*
X69000Y-156705D02*
X85000Y-156705D01*
X69000Y-141705D02*
X85000D01*
X-41245Y-22950D02*
X-41245Y-38950D01*
X-3755Y-22950D02*
X-3755Y-38950D01*
X-36245Y-38950D02*
Y-22950D01*
X11245D02*
X11245Y-38950D01*
X26245Y-38950D02*
Y-22950D01*
X43755Y-38950D02*
Y-22950D01*
X-43755Y-192950D02*
Y-176950D01*
X-3755Y-176950D02*
X-3755Y-192950D01*
X-28755Y-192950D02*
Y-176950D01*
X11245Y-192950D02*
X11245Y-176950D01*
X58755Y-192950D02*
X58755Y-176950D01*
X43755Y-192950D02*
Y-176950D01*
X69000Y-89195D02*
Y-86705D01*
Y-74195D02*
Y-71705D01*
X85000Y-104195D02*
Y-101705D01*
X69000Y-119195D02*
X69000Y-116705D01*
X85000Y-164195D02*
Y-161705D01*
X85000Y-149195D02*
X85000Y-146705D01*
X-46245Y-38950D02*
X-43755Y-38950D01*
X-11245Y-22950D02*
X-8755Y-22950D01*
X3755Y-22950D02*
X6245Y-22950D01*
X18755Y-22950D02*
X21245Y-22950D01*
X-26245Y-38950D02*
X-23755Y-38950D01*
X-85000Y-46705D02*
X-69000D01*
X-85000Y-61705D02*
X-69000D01*
X-85000Y-91705D02*
X-69000Y-91705D01*
X-85000Y-106705D02*
X-69000D01*
X-85000Y-139195D02*
X-69000Y-139195D01*
X-85000Y-159195D02*
X-69000Y-159195D01*
X53755Y-38950D02*
X56245Y-38950D01*
X-41245Y-176950D02*
X-38755D01*
X-26245D02*
X-23755Y-176950D01*
X-1245Y-176950D02*
X1245Y-176950D01*
X13755Y-176950D02*
X16245Y-176950D01*
X28755Y-192950D02*
X31245D01*
X48755Y-192950D02*
X51245Y-192950D01*
X-69000Y-59195D02*
Y-56705D01*
X-69000Y-101705D02*
X-69000Y-104195D01*
Y-74195D02*
Y-71705D01*
X-69000Y-116705D02*
X-69000Y-119195D01*
X-85000Y-134195D02*
Y-131705D01*
Y-149195D02*
Y-146705D01*
Y-169195D02*
Y-166705D01*
X69000Y-81705D02*
X85000Y-81705D01*
X69000Y-104195D02*
X85000Y-104195D01*
X69000Y-126705D02*
X85000Y-126705D01*
X69000Y-164195D02*
X85000Y-164195D01*
X69000Y-149195D02*
X85000D01*
X-56245Y-38950D02*
Y-22950D01*
X28755Y-38950D02*
Y-22950D01*
X-38755Y-38950D02*
Y-22950D01*
X-33755Y-38950D02*
Y-22950D01*
X-18755Y-22950D02*
X-18755Y-38950D01*
X13755D02*
Y-22950D01*
X-51245Y-176950D02*
X-51245Y-192950D01*
X-36245Y-192950D02*
Y-176950D01*
X-11245Y-176950D02*
X-11245Y-192950D01*
X3755Y-176950D02*
X3755Y-192950D01*
X26245Y-176950D02*
X26245Y-192950D01*
X46245D02*
X46245Y-176950D01*
X61245D02*
X61245Y-192950D01*
X85000Y-54195D02*
Y-51705D01*
X85000Y-89195D02*
X85000Y-86705D01*
Y-74195D02*
Y-71705D01*
X69000Y-109195D02*
X69000Y-106705D01*
X85000Y-119195D02*
Y-116705D01*
X85000Y-134195D02*
X85000Y-131705D01*
X69000Y-154195D02*
Y-151705D01*
X-61245Y-38950D02*
X-58755D01*
X23755Y-38950D02*
X26245Y-38950D01*
X-26245Y-22950D02*
X-23755D01*
X-85000Y-59195D02*
X-69000Y-59195D01*
X-85000Y-76705D02*
X-69000Y-76705D01*
X-85000Y-104195D02*
X-69000Y-104195D01*
X-85000Y-89195D02*
X-69000Y-89195D01*
X-85000Y-136705D02*
X-69000Y-136705D01*
X-85000Y-121705D02*
X-69000D01*
X-85000Y-156705D02*
X-69000Y-156705D01*
X38755Y-38950D02*
X41245D01*
X58755Y-38950D02*
X61245Y-38950D01*
X53755Y-22950D02*
X56245D01*
X-61245Y-192950D02*
X-58755Y-192950D01*
X-46245Y-192950D02*
X-43755D01*
X-21245Y-192950D02*
X-18755Y-192950D01*
X-6245Y-192950D02*
X-3755Y-192950D01*
X28755Y-176950D02*
X31245D01*
X33755Y-176950D02*
X36245D01*
X48755D02*
X51245Y-176950D01*
X-85000Y-32950D02*
X-85000Y-22950D01*
X-85000Y-54195D02*
Y-51705D01*
Y-99195D02*
Y-96705D01*
X-69000Y-134195D02*
X-69000Y-131705D01*
X-69000Y-149195D02*
Y-146705D01*
X69000Y-54195D02*
X85000Y-54195D01*
X69000Y-66705D02*
X85000Y-66705D01*
X69000Y-89195D02*
X85000Y-89195D01*
X69000Y-119195D02*
X85000Y-119195D01*
X69000Y-134195D02*
X85000D01*
X69000Y-161705D02*
X85000D01*
X-75000Y-32950D02*
Y-22950D01*
X-53755D02*
X-53755Y-38950D01*
X-31245Y-38950D02*
X-31245Y-22950D01*
X-1245Y-38950D02*
Y-22950D01*
X-16245Y-38950D02*
X-16245Y-22950D01*
X31245Y-22950D02*
X31245Y-38950D01*
X46245Y-38950D02*
Y-22950D01*
X-48755Y-192950D02*
X-48755Y-176950D01*
X18755D02*
X18755Y-192950D01*
X-8755Y-192950D02*
X-8755Y-176950D01*
X38755Y-192950D02*
Y-176950D01*
X33755Y-192950D02*
Y-176950D01*
X69000Y-59195D02*
X69000Y-56705D01*
X69000Y-91705D02*
X69000Y-94195D01*
Y-124195D02*
Y-121705D01*
X85000Y-166705D02*
X85000Y-169195D01*
X69000Y-136705D02*
X69000Y-139195D01*
X-61245Y-22950D02*
X-58755D01*
X-46245D02*
X-43755D01*
X-6245Y-38950D02*
X-3755D01*
X23755Y-22950D02*
X26245Y-22950D01*
X-21245Y-38950D02*
X-18755D01*
X8755D02*
X11245Y-38950D01*
X-85000Y-86705D02*
X-69000D01*
X-85000Y-74195D02*
X-69000D01*
X-85000Y-119195D02*
X-69000Y-119195D01*
X-85000Y-134195D02*
X-69000Y-134195D01*
X38755Y-22950D02*
X41245Y-22950D01*
X58755Y-22950D02*
X61245Y-22950D01*
X-61245Y-176950D02*
X-58755Y-176950D01*
X-46245Y-176950D02*
X-43755D01*
X-21245Y-176950D02*
X-18755D01*
X-6245Y-176950D02*
X-3755Y-176950D01*
X8755Y-192950D02*
X11245Y-192950D01*
X23755Y-192950D02*
X26245D01*
X-31245D02*
X-28755Y-192950D01*
X43755Y-192950D02*
X46245D01*
X-69000Y-54195D02*
X-69000Y-51705D01*
X-85000Y-69195D02*
X-85000Y-66705D01*
X-85000Y-84195D02*
X-85000Y-81705D01*
X-69000Y-99195D02*
X-69000Y-96705D01*
X-85000Y-114195D02*
Y-111705D01*
Y-129195D02*
X-85000Y-126705D01*
X-69000Y-169195D02*
Y-166705D01*
X69000Y-51705D02*
X85000D01*
X69000Y-74195D02*
X85000D01*
X69000Y-101705D02*
X85000D01*
X69000Y-131705D02*
X85000D01*
X69000Y-169195D02*
X85000D01*
X69000Y-146705D02*
X85000Y-146705D01*
X-51245Y-38950D02*
X-51245Y-22950D01*
X-13755Y-38950D02*
Y-22950D01*
X1245Y-38950D02*
Y-22950D01*
X16245Y-22950D02*
X16245Y-38950D01*
X33755D02*
Y-22950D01*
X48755Y-38950D02*
X48755Y-22950D01*
X-56245Y-192950D02*
X-56245Y-176950D01*
X-16245Y-176950D02*
X-16245Y-192950D01*
X-33755D02*
Y-176950D01*
X6245Y-192950D02*
Y-176950D01*
X21245Y-192950D02*
X21245Y-176950D01*
X53755D02*
X53755Y-192950D01*
X41245Y-176950D02*
X41245Y-192950D01*
X75000D02*
Y-182950D01*
X85000Y-56705D02*
X85000Y-59195D01*
X69000Y-61705D02*
X69000Y-64195D01*
X85000Y-91705D02*
X85000Y-94195D01*
X85000Y-109195D02*
Y-106705D01*
X69000Y-79195D02*
Y-76705D01*
X85000Y-154195D02*
Y-151705D01*
Y-139195D02*
X85000Y-136705D01*
X-85000Y-32950D02*
X-75000D01*
X-56245Y-38950D02*
X-53755Y-38950D01*
X-41245D02*
X-38755D01*
X-6245Y-22950D02*
X-3755D01*
X-21245D02*
X-18755Y-22950D01*
X8755Y-22950D02*
X11245D01*
X-85000Y-56705D02*
X-69000Y-56705D01*
X-85000Y-101705D02*
X-69000D01*
X-85000Y-71705D02*
X-69000D01*
X-85000Y-116705D02*
X-69000Y-116705D01*
X-85000Y-154195D02*
X-69000Y-154195D01*
X-85000Y-149195D02*
X-69000Y-149195D01*
X-85000Y-169195D02*
X-69000Y-169195D01*
X43755Y-38950D02*
X46245D01*
X8755Y-176950D02*
X11245Y-176950D01*
X23755Y-176950D02*
X26245Y-176950D01*
X-31245Y-176950D02*
X-28755Y-176950D01*
X58755Y-192950D02*
X61245D01*
X-69000Y-69195D02*
Y-66705D01*
X-69000Y-84195D02*
X-69000Y-81705D01*
X-69000Y-114195D02*
Y-111705D01*
X-69000Y-129195D02*
Y-126705D01*
X-85000Y-144195D02*
Y-141705D01*
Y-164195D02*
Y-161705D01*
X69000Y-46705D02*
X85000Y-46705D01*
X69000Y-59195D02*
X85000Y-59195D01*
X69000Y-71705D02*
X85000D01*
X69000Y-94195D02*
X85000D01*
X69000Y-86705D02*
X85000Y-86705D01*
X69000Y-109195D02*
X85000D01*
X69000Y-116705D02*
X85000Y-116705D01*
X69000Y-154195D02*
X85000D01*
X69000Y-139195D02*
X85000Y-139195D01*
X-48755Y-22950D02*
X-48755Y-38950D01*
X-28755Y-38950D02*
X-28755Y-22950D01*
X-11245Y-38950D02*
X-11245Y-22950D01*
X3755Y-22950D02*
X3755Y-38950D01*
X18755Y-22950D02*
X18755Y-38950D01*
X51245Y-22950D02*
X51245Y-38950D01*
X-41245Y-192950D02*
Y-176950D01*
X-26245Y-192950D02*
Y-176950D01*
X-1245Y-192950D02*
Y-176950D01*
X13755Y-192950D02*
Y-176950D01*
X36245Y-192950D02*
Y-176950D01*
X56245Y-192950D02*
Y-176950D01*
X85000Y-64195D02*
Y-61705D01*
X69000Y-96705D02*
X69000Y-99195D01*
X85000Y-79195D02*
Y-76705D01*
Y-124195D02*
Y-121705D01*
X69000Y-144195D02*
Y-141705D01*
Y-159195D02*
Y-156705D01*
X85000Y-192950D02*
X85000Y-182950D01*
X-41245Y-22950D02*
X-38755D01*
X-1245Y-38950D02*
X1245Y-38950D01*
X28755D02*
X31245Y-38950D01*
X13755Y-38950D02*
X16245D01*
X-85000Y-54195D02*
X-69000D01*
X-85000Y-69195D02*
X-69000Y-69195D01*
X-85000Y-99195D02*
X-69000Y-99195D01*
X-85000Y-114195D02*
X-69000D01*
X-85000Y-131705D02*
X-69000D01*
X-85000Y-151705D02*
X-69000D01*
X-85000Y-146705D02*
X-69000D01*
X-85000Y-166705D02*
X-69000Y-166705D01*
X43755Y-22950D02*
X46245D01*
X-51245Y-192950D02*
X-48755D01*
X-36245Y-192950D02*
X-33755Y-192950D01*
X-11245D02*
X-8755D01*
X3755D02*
X6245D01*
X58755Y-176950D02*
X61245D01*
X43755Y-176950D02*
X46245Y-176950D01*
X-85000Y-46705D02*
X-85000Y-49195D01*
X-85000Y-64195D02*
Y-61705D01*
Y-94195D02*
Y-91705D01*
X-85000Y-109195D02*
Y-106705D01*
X-69000Y-144195D02*
Y-141705D01*
X-69000Y-164195D02*
X-69000Y-161705D01*
X69000Y-79195D02*
X85000Y-79195D01*
X69000Y-106705D02*
X85000D01*
X69000Y-124195D02*
X85000Y-124195D01*
X69000Y-166705D02*
X85000Y-166705D01*
X69000Y-151705D02*
X85000D01*
X21245Y-38950D02*
Y-22950D01*
X-26245Y-22950D02*
X-26245Y-38950D01*
X36245D02*
Y-22950D01*
X53755Y-38950D02*
Y-22950D01*
X-53755Y-192950D02*
Y-176950D01*
X-38755Y-176950D02*
X-38755Y-192950D01*
X-13755D02*
Y-176950D01*
X1245Y-192950D02*
Y-176950D01*
X28755Y-192950D02*
X28755Y-176950D01*
X48755Y-176950D02*
X48755Y-192950D01*
X69000Y-49195D02*
Y-46705D01*
X69000Y-84195D02*
X69000Y-81705D01*
Y-111705D02*
X69000Y-114195D01*
X69000Y-129195D02*
Y-126705D01*
X85000Y-159195D02*
Y-156705D01*
X-85000Y-22950D02*
X-75000D01*
X-56245D02*
X-53755D01*
X-31245Y-38950D02*
X-28755D01*
X-1245Y-22950D02*
X1245D01*
X28755D02*
X31245Y-22950D01*
X-36245Y-38950D02*
X-33755D01*
X-16245Y-38950D02*
X-13755Y-38950D01*
X13755Y-22950D02*
X16245D01*
X-85000Y-51705D02*
X-69000Y-51705D01*
X-85000Y-84195D02*
X-69000D01*
X-85000Y-96705D02*
X-69000Y-96705D01*
X-85000Y-129195D02*
X-69000Y-129195D01*
X-85000Y-144195D02*
X-69000D01*
X-51245Y-176950D02*
X-48755D01*
X-36245D02*
X-33755D01*
X-11245Y-176950D02*
X-8755Y-176950D01*
X18755Y-192950D02*
X21245Y-192950D01*
X3755Y-176950D02*
X6245D01*
X38755Y-192950D02*
X41245D01*
X53755D02*
X56245D01*
X-69000Y-49195D02*
X-69000Y-46705D01*
X-69000Y-64195D02*
Y-61705D01*
X-85000Y-79195D02*
X-85000Y-76705D01*
X-69000Y-94195D02*
Y-91705D01*
X-69000Y-109195D02*
X-69000Y-106705D01*
X-85000Y-139195D02*
Y-136705D01*
Y-121705D02*
X-85000Y-124195D01*
X-85000Y-156705D02*
X-85000Y-159195D01*
X69000Y-56705D02*
X85000Y-56705D01*
X69000Y-64195D02*
X85000D01*
X69000Y-91705D02*
X85000Y-91705D01*
X69000Y-121705D02*
X85000D01*
X69000Y-136705D02*
X85000D01*
X69000Y-159195D02*
X85000Y-159195D01*
X-61245Y-22950D02*
X-61245Y-38950D01*
X-46245D02*
X-46245Y-22950D01*
X-8755Y-22950D02*
X-8755Y-38950D01*
X6245Y-38950D02*
Y-22950D01*
X23755Y-38950D02*
Y-22950D01*
X-23755Y-38950D02*
Y-22950D01*
X38755D02*
X38755Y-38950D01*
X58755Y-38950D02*
X58755Y-22950D01*
X-61245Y-192950D02*
Y-176950D01*
X-46245Y-192950D02*
Y-176950D01*
X16245Y-192950D02*
X16245Y-176950D01*
X-23755Y-192950D02*
Y-176950D01*
X-21245Y-192950D02*
Y-176950D01*
X-6245Y-192950D02*
Y-176950D01*
X51245Y-192950D02*
X51245Y-176950D01*
X31245Y-192950D02*
X31245Y-176950D01*
X85000Y-49195D02*
Y-46705D01*
X69000Y-69195D02*
Y-66705D01*
X85000Y-84195D02*
Y-81705D01*
X85000Y-99195D02*
X85000Y-96705D01*
X85000Y-126705D02*
X85000Y-129195D01*
X69000Y-164195D02*
X69000Y-161705D01*
X69000Y-169195D02*
X69000Y-166705D01*
X85000Y-144195D02*
X85000Y-141705D01*
X-51245Y-38950D02*
X-48755Y-38950D01*
X-31245Y-22950D02*
X-28755D01*
X-16245Y-22950D02*
X-13755Y-22950D01*
X-85000Y-66705D02*
X-69000D01*
X-85000Y-49195D02*
X-69000Y-49195D01*
X-85000Y-94195D02*
X-69000D01*
X-85000Y-81705D02*
X-69000D01*
X-85000Y-111705D02*
X-69000Y-111705D01*
X-85000Y-126705D02*
X-69000Y-126705D01*
X-85000Y-164195D02*
X-69000D01*
X33755Y-38950D02*
X36245D01*
X48755D02*
X51245D01*
X-56245Y-192950D02*
X-53755D01*
X-16245D02*
X-13755D01*
X18755Y-176950D02*
X21245D01*
X38755D02*
X41245D01*
X75000Y-192950D02*
X85000D01*
X-69000Y-76705D02*
X-69000Y-79195D01*
X-85000Y-86705D02*
X-85000Y-89195D01*
X-69000Y-139195D02*
Y-136705D01*
X-69000Y-121705D02*
X-69000Y-124195D01*
X-85000Y-154195D02*
Y-151705D01*
X177300Y-332950D02*
X177300Y-323050D01*
X165999Y-323991D02*
X181999Y-323991D01*
X165999Y-332011D02*
Y-323991D01*
X163500Y-323050D02*
X170700Y-323050D01*
X177300Y-323050D02*
X184500Y-323050D01*
X163500Y-332950D02*
X170700Y-332950D01*
X163500Y-323050D02*
X163500Y-332950D01*
X184500Y-323050D02*
X184500Y-332950D01*
X165999Y-332011D02*
X181999Y-332011D01*
X177300Y-332950D02*
X184500Y-332950D01*
X181999Y-332011D02*
Y-323991D01*
X170700Y-332950D02*
X170700Y-323050D01*
X-169300Y-290550D02*
X-169300Y-300450D01*
X-173999Y-299509D02*
X-157999Y-299509D01*
Y-291489D01*
X-162700Y-300450D02*
X-155500Y-300450D01*
X-176500Y-300450D02*
X-169300Y-300450D01*
X-162700Y-290550D02*
X-155500Y-290550D01*
Y-300450D02*
Y-290550D01*
X-176500Y-300450D02*
Y-290550D01*
X-173999Y-291489D02*
X-157999Y-291489D01*
X-176500Y-290550D02*
X-169300Y-290550D01*
X-173999Y-291489D02*
X-173999Y-299509D01*
X-162700Y-290550D02*
X-162700Y-300450D01*
X-169300Y-332950D02*
X-169300Y-323050D01*
X-173999Y-332009D02*
X-157999Y-332009D01*
Y-323989D01*
X-162700Y-332950D02*
X-155500Y-332950D01*
X-176500Y-332950D02*
X-169300Y-332950D01*
X-162700Y-323050D02*
X-155500Y-323050D01*
X-155500Y-332950D01*
X-176500Y-323050D02*
X-176500Y-332950D01*
X-173999Y-323989D02*
X-157999D01*
X-176500Y-323050D02*
X-169300Y-323050D01*
X-173999Y-332009D02*
Y-323989D01*
X-162700Y-332950D02*
X-162700Y-323050D01*
X128550Y-371180D02*
X138450D01*
X137509Y-375879D02*
Y-359879D01*
X129489D02*
X137509D01*
X138450Y-364580D02*
Y-357380D01*
Y-378380D02*
Y-371180D01*
X128550Y-364580D02*
Y-357380D01*
X138450D01*
X128550Y-378380D02*
X138450D01*
X129489Y-375879D02*
Y-359879D01*
X128550Y-378380D02*
Y-371180D01*
X129489Y-375879D02*
X137509D01*
X128550Y-364580D02*
X138450D01*
X90300Y-371180D02*
X100200D01*
X99259Y-375879D02*
Y-359879D01*
X91239D02*
X99259D01*
X100200Y-364580D02*
Y-357380D01*
Y-378380D02*
Y-371180D01*
X90300Y-364580D02*
Y-357380D01*
X100200D01*
X90300Y-378380D02*
X100200D01*
X91239Y-375879D02*
Y-359879D01*
X90300Y-378380D02*
Y-371180D01*
X91239Y-375879D02*
X99259D01*
X90300Y-364580D02*
X100200D01*
X52300Y-371180D02*
X62200D01*
X61259Y-375879D02*
Y-359879D01*
X53239D02*
X61259D01*
X62200Y-364580D02*
Y-357380D01*
Y-378380D02*
Y-371180D01*
X52300Y-364580D02*
Y-357380D01*
X62200D01*
X52300Y-378380D02*
X62200D01*
X53239Y-375879D02*
Y-359879D01*
X52300Y-378380D02*
Y-371180D01*
X53239Y-375879D02*
X61259D01*
X52300Y-364580D02*
X62200D01*
X14050Y-371180D02*
X23950D01*
X23009Y-375879D02*
Y-359879D01*
X14989D02*
X23009D01*
X23950Y-364580D02*
Y-357380D01*
Y-378380D02*
Y-371180D01*
X14050Y-364580D02*
Y-357380D01*
X23950D01*
X14050Y-378380D02*
X23950D01*
X14989Y-375879D02*
Y-359879D01*
X14050Y-378380D02*
Y-371180D01*
X14989Y-375879D02*
X23009D01*
X14050Y-364580D02*
X23950D01*
X-24065Y-371180D02*
X-14165D01*
X-15106Y-375879D02*
Y-359879D01*
X-23126D02*
X-15106D01*
X-14165Y-364580D02*
Y-357380D01*
Y-378380D02*
Y-371180D01*
X-24065Y-364580D02*
Y-357380D01*
X-14165D01*
X-24065Y-378380D02*
X-14165D01*
X-23126Y-375879D02*
Y-359879D01*
X-24065Y-378380D02*
Y-371180D01*
X-23126Y-375879D02*
X-15106D01*
X-24065Y-364580D02*
X-14165D01*
X-62200Y-371180D02*
X-52300D01*
X-53241Y-375879D02*
Y-359879D01*
X-61261D02*
X-53241D01*
X-52300Y-364580D02*
Y-357380D01*
Y-378380D02*
Y-371180D01*
X-62200Y-364580D02*
Y-357380D01*
X-52300D01*
X-62200Y-378380D02*
X-52300D01*
X-61261Y-375879D02*
Y-359879D01*
X-62200Y-378380D02*
Y-371180D01*
X-61261Y-375879D02*
X-53241D01*
X-62200Y-364580D02*
X-52300D01*
X-100200Y-371180D02*
X-90300D01*
X-91241Y-375879D02*
Y-359879D01*
X-99261D02*
X-91241D01*
X-90300Y-364580D02*
Y-357380D01*
Y-378380D02*
Y-371180D01*
X-100200Y-364580D02*
Y-357380D01*
X-90300D01*
X-100200Y-378380D02*
X-90300D01*
X-99261Y-375879D02*
Y-359879D01*
X-100200Y-378380D02*
Y-371180D01*
X-99261Y-375879D02*
X-91241D01*
X-100200Y-364580D02*
X-90300D01*
X-138200Y-371180D02*
X-128300D01*
X-129241Y-375879D02*
Y-359879D01*
X-137261D02*
X-129241D01*
X-128300Y-364580D02*
Y-357380D01*
Y-378380D02*
Y-371180D01*
X-138200Y-364580D02*
Y-357380D01*
X-128300D01*
X-138200Y-378380D02*
X-128300D01*
X-137261Y-375879D02*
Y-359879D01*
X-138200Y-378380D02*
Y-371180D01*
X-137261Y-375879D02*
X-129241D01*
X-138200Y-364580D02*
X-128300D01*
X141500Y33750D02*
X166500D01*
X141500Y133750D02*
X166500D01*
X141500Y33750D02*
Y133750D01*
X166500Y33750D02*
Y133750D01*
X-11750Y187250D02*
Y197750D01*
X-5250Y187250D02*
X-5250Y197750D01*
X-11750Y187250D02*
X-5250Y187250D01*
X-11750Y197750D02*
X-5250D01*
X-21250Y187250D02*
Y197750D01*
X-14750Y187250D02*
X-14750Y197750D01*
X-21250Y187250D02*
X-14750Y187250D01*
X-21250Y197750D02*
X-14750D01*
X-30750Y187250D02*
Y197750D01*
X-24250Y187250D02*
Y197750D01*
X-30750Y187250D02*
X-24250D01*
X-30750Y197750D02*
X-24250Y197750D01*
X-30750Y162250D02*
Y172750D01*
X-24250D02*
X-24250Y162250D01*
X-30750Y162250D02*
X-24250Y162250D01*
X-30750Y172750D02*
X-24250D01*
X-21250D02*
X-21250Y162250D01*
X-14750Y172750D02*
X-14750Y162250D01*
X-21250Y162250D02*
X-14750Y162250D01*
X-21250Y172750D02*
X-14750D01*
X-11750Y162250D02*
Y172750D01*
X-5250Y162250D02*
X-5250Y172750D01*
X-11750Y162250D02*
X-5250D01*
X-11750Y172750D02*
X-5250Y172750D01*
X-3499Y194000D02*
X-3499Y166000D01*
X-32499Y166000D02*
Y194000D01*
Y166000D02*
X-3499Y166000D01*
X-32499Y194000D02*
X-3499Y194000D01*
X-108950Y410400D02*
Y417600D01*
Y396500D02*
X-99050D01*
X-108950Y403700D02*
X-99050D01*
X-108001Y399001D02*
X-100002D01*
X-108950Y396500D02*
Y403700D01*
X-108001Y415002D02*
X-100002D01*
X-99050Y396500D02*
Y403700D01*
Y410400D02*
Y417600D01*
X-108950Y410400D02*
X-99050D01*
X-100002Y399001D02*
Y415002D01*
X-108001Y399001D02*
Y415002D01*
X-108950Y417600D02*
X-99050D01*
X-76851Y372651D02*
X-68652D01*
X-76851Y388852D02*
X-68652D01*
X-68652Y372651D01*
X-76851D02*
Y388852D01*
X-77700Y384050D02*
X-67800Y384050D01*
X-77700Y391250D02*
X-67800D01*
X-77700D02*
X-77700Y384050D01*
X-67800Y391250D02*
X-67800Y384050D01*
X-77700Y370250D02*
X-67800D01*
X-77700Y377450D02*
X-67800Y377450D01*
X-77700Y377450D02*
X-77700Y370250D01*
X-67800Y377450D02*
X-67800Y370250D01*
X-92351Y372651D02*
X-84152D01*
X-92351Y388852D02*
X-84152D01*
Y372651D02*
Y388852D01*
X-92351Y372651D02*
Y388852D01*
X-93200Y384050D02*
X-83300D01*
X-93200Y391250D02*
X-83300D01*
X-93200Y384050D02*
Y391250D01*
X-83300Y384050D02*
Y391250D01*
X-93200Y370250D02*
X-83300D01*
X-93200Y377450D02*
X-83300D01*
X-93200Y370250D02*
Y377450D01*
X-83300Y370250D02*
Y377450D01*
X-35700Y415400D02*
Y422600D01*
Y401500D02*
X-25800D01*
X-35700Y408700D02*
X-25800D01*
X-34751Y404001D02*
X-26752D01*
X-35700Y401500D02*
Y408700D01*
X-34751Y420002D02*
X-26752D01*
X-25800Y401500D02*
Y408700D01*
Y415400D02*
Y422600D01*
X-35700Y415400D02*
X-25800D01*
X-26752Y404001D02*
Y420002D01*
X-34751Y404001D02*
Y420002D01*
X-35700Y422600D02*
X-25800D01*
X-35601Y372651D02*
X-27402D01*
X-35601Y388852D02*
X-27402D01*
Y372651D02*
Y388852D01*
X-35601Y372651D02*
Y388852D01*
X-36450Y384050D02*
X-26550D01*
X-36450Y391250D02*
X-26550D01*
X-36450Y384050D02*
Y391250D01*
X-26550Y384050D02*
Y391250D01*
X-36450Y370250D02*
X-26550D01*
X-36450Y377450D02*
X-26550D01*
X-36450Y370250D02*
Y377450D01*
X-26550Y370250D02*
Y377450D01*
X-19851Y372651D02*
X-11652D01*
X-19851Y388852D02*
X-11652D01*
Y372651D02*
Y388852D01*
X-19851Y372651D02*
Y388852D01*
X-20700Y384050D02*
X-10800D01*
X-20700Y391250D02*
X-10800D01*
X-20700Y384050D02*
Y391250D01*
X-10800Y384050D02*
Y391250D01*
X-20700Y370250D02*
X-10800D01*
X-20700Y377450D02*
X-10800D01*
X-20700Y370250D02*
Y377450D01*
X-10800Y370250D02*
Y377450D01*
X-52200Y377450D02*
X-42300Y377450D01*
X-43241Y388751D02*
X-43241Y372751D01*
X-51261Y388751D02*
X-43241D01*
X-42300Y391250D02*
X-42300Y384050D01*
X-42300Y370250D02*
X-42300Y377450D01*
X-52200Y384050D02*
X-52200Y391250D01*
X-42300D01*
X-52200Y370250D02*
X-42300D01*
X-51261Y388751D02*
X-51261Y372751D01*
X-52200Y377450D02*
X-52200Y370250D01*
X-51261Y372751D02*
X-43241D01*
X-52200Y384050D02*
X-42300Y384050D01*
X-131099Y222101D02*
X-131099Y213902D01*
X-114898D02*
Y222101D01*
X-131099Y213902D02*
X-114898D01*
X-131099Y222101D02*
X-114898Y222101D01*
X-119700Y222950D02*
X-119700Y213050D01*
X-112500Y213050D02*
Y222950D01*
X-119700Y222950D02*
X-112500Y222950D01*
X-119700Y213050D02*
X-112500Y213050D01*
X-133500Y213050D02*
Y222950D01*
X-126300Y222950D02*
X-126300Y213050D01*
X-133500Y222950D02*
X-126300Y222950D01*
X-133500Y213050D02*
X-126300Y213050D01*
X-86250Y136000D02*
X-86250Y150500D01*
X-168450Y136000D02*
Y150500D01*
X-92250Y190500D02*
X-92250Y205000D01*
X-137050Y205000D02*
X-137050Y190500D01*
X-79550Y150500D02*
X-73550D01*
X-117650Y150500D02*
X-111650Y150500D01*
X-79550Y190500D02*
X-73550D01*
X-117650D02*
X-111650Y190500D01*
X-171500Y139500D02*
X-171500Y199500D01*
X-92250Y136000D02*
X-92250Y150500D01*
X-130350Y136000D02*
X-130350Y150500D01*
X-98950Y205000D02*
X-98950Y190500D01*
X-117650Y136000D02*
X-111650Y136000D01*
X-155750Y136000D02*
X-149750Y136000D01*
X-92250Y205000D02*
X-86250Y205000D01*
X-130350D02*
X-124350D01*
X-98950Y150500D02*
X-98950Y136000D01*
X-137050Y136000D02*
X-137050Y150500D01*
X-104950Y190500D02*
X-104950Y205000D01*
X-143050Y190500D02*
X-143050Y205000D01*
X-79550Y136000D02*
X-73550Y136000D01*
X-168450Y150500D02*
X-162450Y150500D01*
X-130350D02*
X-124350Y150500D01*
X-130350Y190500D02*
X-124350Y190500D01*
X-168450D02*
X-162450D01*
X-70500Y139500D02*
X-70500Y199500D01*
X-143050Y136000D02*
X-143050Y150500D01*
X-111650Y190500D02*
X-111650Y205000D01*
X-149750Y190500D02*
X-149750Y205000D01*
X-162450Y190500D02*
Y205000D01*
X-92250Y150500D02*
X-86250Y150500D01*
X-168450Y136000D02*
X-162450D01*
X-92250Y190500D02*
X-86250Y190500D01*
X-143050Y205000D02*
X-137050Y205000D01*
X-171500Y199500D02*
X-70500Y199500D01*
X-104950Y150500D02*
X-104950Y136000D01*
X-149750Y136000D02*
X-149750Y150500D01*
X-73550Y190500D02*
X-73550Y205000D01*
X-155750Y205000D02*
X-155750Y190500D01*
X-168450D02*
Y205000D01*
X-92250Y136000D02*
X-86250Y136000D01*
X-130350D02*
X-124350D01*
X-104950Y205000D02*
X-98950D01*
X-73550Y150500D02*
X-73550Y136000D01*
X-111650Y150500D02*
X-111650Y136000D01*
X-79550Y190500D02*
Y205000D01*
X-117650Y190500D02*
X-117650Y205000D01*
X-104950Y150500D02*
X-98950Y150500D01*
X-143050Y150500D02*
X-137050Y150500D01*
X-104950Y190500D02*
X-98950Y190500D01*
X-143050Y190500D02*
X-137050D01*
X-171500Y139500D02*
X-70500Y139500D01*
X-117650Y150500D02*
X-117650Y136000D01*
X-155750Y136000D02*
Y150500D01*
X-86250Y190500D02*
X-86250Y205000D01*
X-124350D02*
X-124350Y190500D01*
X-143050Y136000D02*
X-137050Y136000D01*
X-117650Y205000D02*
X-111650D01*
X-155750Y205000D02*
X-149750Y205000D01*
X-168450Y205000D02*
X-162450Y205000D01*
X-79550Y136000D02*
Y150500D01*
X-124350Y150500D02*
X-124350Y136000D01*
X-162450D02*
Y150500D01*
X-130350Y190500D02*
Y205000D01*
X-104950Y136000D02*
X-98950Y136000D01*
X-155750Y150500D02*
X-149750Y150500D01*
X-79550Y205000D02*
X-73550D01*
X-155750Y190500D02*
X-149750D01*
X-279498Y215850D02*
Y419100D01*
Y215850D02*
X-228498D01*
X-228598Y228600D02*
X-218438Y233680D01*
X-218438Y223520D01*
X-228598Y228600D02*
X-218438Y223520D01*
X-228498Y215850D02*
Y419100D01*
X-279498Y419100D02*
X-228498Y419100D01*
X-105700Y-157950D02*
X-105700Y-148050D01*
X-117001Y-148991D02*
X-101001Y-148991D01*
X-117001Y-157011D02*
Y-148991D01*
X-119500Y-148050D02*
X-112300Y-148050D01*
X-105700Y-148050D02*
X-98500Y-148050D01*
X-119500Y-157950D02*
X-112300Y-157950D01*
X-119500Y-148050D02*
X-119500Y-157950D01*
X-98500Y-148050D02*
X-98500Y-157950D01*
X-117001Y-157011D02*
X-101001Y-157011D01*
X-105700Y-157950D02*
X-98500Y-157950D01*
X-101001Y-157011D02*
Y-148991D01*
X-112300Y-157950D02*
X-112300Y-148050D01*
X-105700Y-141950D02*
X-105700Y-132050D01*
X-117001Y-132991D02*
X-101001Y-132991D01*
X-117001Y-141011D02*
Y-132991D01*
X-119500Y-132050D02*
X-112300Y-132050D01*
X-105700Y-132050D02*
X-98500Y-132050D01*
X-119500Y-141950D02*
X-112300Y-141950D01*
X-119500Y-132050D02*
X-119500Y-141950D01*
X-98500Y-132050D02*
X-98500Y-141950D01*
X-117001Y-141011D02*
X-101001Y-141011D01*
X-105700Y-141950D02*
X-98500Y-141950D01*
X-101001Y-141011D02*
Y-132991D01*
X-112300Y-141950D02*
X-112300Y-132050D01*
X-67950Y-2700D02*
X-58050Y-2700D01*
X-67009Y1999D02*
X-67009Y-14001D01*
X-58989D01*
X-67950Y-9300D02*
X-67950Y-16500D01*
X-67950Y4500D02*
X-67950Y-2700D01*
X-58050Y-9300D02*
X-58050Y-16500D01*
X-67950Y-16500D02*
X-58050Y-16500D01*
X-67950Y4500D02*
X-58050Y4500D01*
X-58989Y1999D02*
X-58989Y-14001D01*
X-58050Y4500D02*
X-58050Y-2700D01*
X-67009Y1999D02*
X-58989D01*
X-67950Y-9300D02*
X-58050Y-9300D01*
X-35950Y-2700D02*
X-26050Y-2700D01*
X-35009Y1999D02*
X-35009Y-14001D01*
X-26989D01*
X-35950Y-9300D02*
X-35950Y-16500D01*
X-35950Y4500D02*
X-35950Y-2700D01*
X-26050Y-9300D02*
X-26050Y-16500D01*
X-35950Y-16500D02*
X-26050Y-16500D01*
X-35950Y4500D02*
X-26050Y4500D01*
X-26989Y1999D02*
X-26989Y-14001D01*
X-26050Y4500D02*
X-26050Y-2700D01*
X-35009Y1999D02*
X-26989D01*
X-35950Y-9300D02*
X-26050Y-9300D01*
X-83950Y-2700D02*
X-74050Y-2700D01*
X-83009Y1999D02*
X-83009Y-14001D01*
X-74989D01*
X-83950Y-9300D02*
X-83950Y-16500D01*
X-83950Y4500D02*
X-83950Y-2700D01*
X-74050Y-9300D02*
X-74050Y-16500D01*
X-83950Y-16500D02*
X-74050Y-16500D01*
X-83950Y4500D02*
X-74050Y4500D01*
X-74989Y1999D02*
X-74989Y-14001D01*
X-74050Y4500D02*
X-74050Y-2700D01*
X-83009Y1999D02*
X-74989D01*
X-83950Y-9300D02*
X-74050Y-9300D01*
X-51950Y-2700D02*
X-42050Y-2700D01*
X-51009Y1999D02*
X-51009Y-14001D01*
X-42989D01*
X-51950Y-9300D02*
X-51950Y-16500D01*
X-51950Y4500D02*
X-51950Y-2700D01*
X-42050Y-9300D02*
X-42050Y-16500D01*
X-51950Y-16500D02*
X-42050Y-16500D01*
X-51950Y4500D02*
X-42050Y4500D01*
X-42989Y1999D02*
X-42989Y-14001D01*
X-42050Y4500D02*
X-42050Y-2700D01*
X-51009Y1999D02*
X-42989D01*
X-51950Y-9300D02*
X-42050Y-9300D01*
X-149700Y252950D02*
X-149700Y243050D01*
X-161001Y252009D02*
X-145001Y252009D01*
X-161001Y243989D02*
Y252009D01*
X-163500Y252950D02*
X-156300Y252950D01*
X-149700Y252950D02*
X-142500Y252950D01*
X-163500Y243050D02*
X-156300Y243050D01*
X-163500Y243050D02*
X-163500Y252950D01*
X-142500Y243050D02*
X-142500Y252950D01*
X-161001Y243989D02*
X-145001Y243989D01*
X-149700Y243050D02*
X-142500Y243050D01*
X-145001Y252009D02*
X-145001Y243989D01*
X-156300Y252950D02*
X-156300Y243050D01*
X-149700Y380950D02*
X-149700Y371050D01*
X-161001Y380009D02*
X-145001Y380009D01*
X-161001Y371989D02*
X-161001Y380009D01*
X-163500Y380950D02*
X-156300D01*
X-149700D02*
X-142500Y380950D01*
X-163500Y371050D02*
X-156300Y371050D01*
X-163500Y380950D02*
X-163500Y371050D01*
X-142500Y380950D02*
X-142500Y371050D01*
X-161001Y371989D02*
X-145001D01*
X-149700Y371050D02*
X-142500D01*
X-145001Y380009D02*
X-145001Y371989D01*
X-156300Y380950D02*
X-156300Y371050D01*
X-128000Y315640D02*
Y318640D01*
X-32500Y230140D02*
X-29500Y230140D01*
X-47500Y230140D02*
X-44500Y230140D01*
X-67500D02*
X-64500D01*
X-82500D02*
X-79500Y230140D01*
X-102500Y230140D02*
X-99500D01*
X-37500Y359140D02*
X-34500Y359140D01*
X-52500D02*
X-49500Y359140D01*
X-128000Y258640D02*
X-113000Y258640D01*
X-113000Y273640D02*
X-113000Y270640D01*
X-128000Y275640D02*
X-113000D01*
X-113000Y285640D02*
Y288640D01*
X-128000Y290640D02*
X-113000D01*
X-128000Y325640D02*
X-113000Y325640D01*
X-67500Y359140D02*
X-64500Y359140D01*
X-37500Y230140D02*
X-37500Y245140D01*
X-52500Y230140D02*
X-52500Y245140D01*
X-57500Y230140D02*
X-57500Y245140D01*
X-72500Y230140D02*
Y245140D01*
X-92500Y230140D02*
X-92500Y245140D01*
X1000Y280640D02*
X1000Y283640D01*
X-29500Y344140D02*
X-29500Y359140D01*
X-44500Y344140D02*
Y359140D01*
X-59500Y359140D02*
X-59500Y344140D01*
X-97500Y344140D02*
X-94500D01*
X-74500D02*
Y359140D01*
X-14000Y283640D02*
X1000Y283640D01*
X-14000Y270640D02*
Y273640D01*
Y308640D02*
X1000D01*
X-14000Y310640D02*
Y313640D01*
Y323640D02*
X1000D01*
X-14000Y325640D02*
Y328640D01*
X-128000Y265640D02*
X-128000Y268640D01*
X-128000Y283640D02*
X-128000Y280640D01*
X-128000Y330640D02*
Y333640D01*
X-27500Y359140D02*
X-24500D01*
X-128000Y273640D02*
X-113000Y273640D01*
X-128000Y288640D02*
X-113000Y288640D01*
X-113000Y303640D02*
X-113000Y300640D01*
X-128000Y305640D02*
X-113000Y305640D01*
X-128000Y323640D02*
X-113000Y323640D01*
X-34500Y230140D02*
X-34500Y245140D01*
X-54500Y230140D02*
Y245140D01*
X-47500Y245140D02*
X-44500Y245140D01*
X-89500Y230140D02*
Y245140D01*
X-67500D02*
X-64500Y245140D01*
X-87500Y245140D02*
X-84500Y245140D01*
X-32500Y245140D02*
X-29500D01*
X1000Y315640D02*
Y318640D01*
X-47500Y344140D02*
X-47500Y359140D01*
X-52500Y344140D02*
X-49500Y344140D01*
X-62500Y344140D02*
Y359140D01*
X-67500Y344140D02*
X-64500D01*
X-82500D02*
X-79500D01*
X-92500D02*
Y359140D01*
X-77500Y344140D02*
Y359140D01*
X-14000Y258640D02*
X1000Y258640D01*
X-14000Y268640D02*
X1000Y268640D01*
X-14000Y280640D02*
X-14000Y283640D01*
Y293640D02*
X1000D01*
X-14000Y295640D02*
Y298640D01*
Y310640D02*
X1000D01*
X-14000Y325640D02*
X1000Y325640D01*
X-128000Y295640D02*
Y298640D01*
Y313640D02*
X-128000Y310640D01*
X-27500Y230140D02*
X-24500Y230140D01*
X-62500Y230140D02*
X-59500Y230140D01*
X-57500Y359140D02*
X-54500D01*
X-128000Y255640D02*
X-113000D01*
Y268640D02*
X-113000Y265640D01*
X-128000Y270640D02*
X-113000Y270640D01*
X-128000Y303640D02*
X-113000D01*
X-113000Y315640D02*
X-113000Y318640D01*
X-113000Y333640D02*
X-113000Y330640D01*
X-128000Y320640D02*
X-113000D01*
X-72500Y359140D02*
X-69500Y359140D01*
X-87500D02*
X-84500D01*
X-32500Y230140D02*
X-32500Y245140D01*
X-49500Y230140D02*
X-49500Y245140D01*
X-69500Y230140D02*
X-69500Y245140D01*
X-87500Y230140D02*
X-87500Y245140D01*
X-82500D02*
X-79500Y245140D01*
X-102500Y245140D02*
X-99500Y245140D01*
X1000Y260640D02*
Y263640D01*
X1000Y278640D02*
X1000Y275640D01*
X1000Y285640D02*
Y288640D01*
X1000Y303640D02*
X1000Y300640D01*
Y330640D02*
Y333640D01*
X-27500Y344140D02*
X-24500Y344140D01*
X-37500Y344140D02*
X-34500Y344140D01*
X-32500Y344140D02*
X-32500Y359140D01*
X-49500Y344140D02*
X-49500Y359140D01*
X-79500Y344140D02*
Y359140D01*
X-94500Y344140D02*
X-94500Y359140D01*
X-14000Y280640D02*
X1000Y280640D01*
X-14000Y270640D02*
X1000Y270640D01*
X-14000Y295640D02*
X1000Y295640D01*
X-14000Y328640D02*
X1000D01*
X-128000Y260640D02*
X-128000Y263640D01*
X-128000Y325640D02*
Y328640D01*
X-42500Y230140D02*
X-39500Y230140D01*
X-57500Y230140D02*
X-54500Y230140D01*
X-77500Y230140D02*
X-74500Y230140D01*
X-97500Y230140D02*
X-94500D01*
X-42500Y359140D02*
X-39500Y359140D01*
X-128000Y268640D02*
X-113000Y268640D01*
X-113000Y283640D02*
X-113000Y280640D01*
X-128000Y285640D02*
X-113000D01*
X-113000Y295640D02*
X-113000Y298640D01*
X-128000Y300640D02*
X-113000Y300640D01*
X-128000Y318640D02*
X-113000Y318640D01*
X-47500Y230140D02*
X-47500Y245140D01*
X-27500D02*
X-24500D01*
X-67500D02*
X-67500Y230140D01*
X-102500Y230140D02*
Y245140D01*
X-82500Y230140D02*
Y245140D01*
X-24500Y344140D02*
X-24500Y359140D01*
X-34500Y359140D02*
X-34500Y344140D01*
X-64500Y359140D02*
X-64500Y344140D01*
X-87500D02*
X-84500Y344140D01*
X-102500Y344140D02*
X-99500Y344140D01*
X-97500Y344140D02*
Y359140D01*
X-14000Y273640D02*
X1000D01*
X-14000Y263640D02*
X-14000Y260640D01*
X-14000Y275640D02*
X-14000Y278640D01*
X-14000Y298640D02*
X1000Y298640D01*
X-14000Y300640D02*
X-14000Y303640D01*
Y313640D02*
X1000D01*
X-14000Y318640D02*
X-14000Y315640D01*
Y330640D02*
X1000Y330640D01*
X-113500Y344640D02*
X-13500Y344640D01*
X-128000Y293640D02*
X-128000Y290640D01*
X-128000Y275640D02*
X-128000Y278640D01*
X-128000Y283640D02*
X-113000Y283640D01*
X-128000Y298640D02*
X-113000Y298640D01*
Y313640D02*
X-113000Y310640D01*
X-128000Y333640D02*
X-113000D01*
X-92500Y359140D02*
X-89500Y359140D01*
X-29500Y230140D02*
X-29500Y245140D01*
X-44500Y230140D02*
Y245140D01*
X-42500D02*
X-39500Y245140D01*
X-57500D02*
X-54500D01*
X-62500Y245140D02*
X-59500Y245140D01*
X-64500Y245140D02*
X-64500Y230140D01*
X-84500Y230140D02*
Y245140D01*
X-99500Y230140D02*
Y245140D01*
X-77500D02*
X-74500D01*
X-97500Y245140D02*
X-94500Y245140D01*
X1000Y305640D02*
X1000Y308640D01*
Y323640D02*
X1000Y320640D01*
X-42500Y344140D02*
X-39500D01*
X-37500Y359140D02*
X-37500Y344140D01*
X-52500Y359140D02*
X-52500Y344140D01*
X-57500Y344140D02*
X-54500D01*
X-72500Y344140D02*
X-69500Y344140D01*
X-67500Y359140D02*
X-67500Y344140D01*
X-99500Y344140D02*
X-99500Y359140D01*
X-82500Y344140D02*
Y359140D01*
X-14000Y275640D02*
X1000D01*
X-14000Y285640D02*
Y288640D01*
Y300640D02*
X1000Y300640D01*
X-14000Y315640D02*
X1000D01*
X-128000Y308640D02*
X-128000Y305640D01*
X-37500Y230140D02*
X-34500Y230140D01*
X-72500D02*
X-69500D01*
X-92500Y230140D02*
X-89500Y230140D01*
X-47500Y359140D02*
X-44500Y359140D01*
X-62500Y359140D02*
X-59500Y359140D01*
X-113000Y260640D02*
Y263640D01*
X-128000Y265640D02*
X-113000Y265640D01*
X-113000Y275640D02*
X-113000Y278640D01*
X-128000Y280640D02*
X-113000Y280640D01*
X-113000Y325640D02*
X-113000Y328640D01*
X-128000Y315640D02*
X-113000D01*
X-128000Y313640D02*
X-113000D01*
X-128000Y330640D02*
X-113000D01*
X-77500Y359140D02*
X-74500Y359140D01*
X-27500Y245140D02*
X-27500Y230140D01*
X-42500Y245140D02*
X-42500Y230140D01*
X-62500Y230140D02*
X-62500Y245140D01*
X-79500Y230140D02*
X-79500Y245140D01*
X-97500Y245140D02*
X-97500Y230140D01*
X1000Y255640D02*
Y258640D01*
X1000Y268640D02*
X1000Y265640D01*
X1000Y290640D02*
X1000Y293640D01*
X-27500Y344140D02*
X-27500Y359140D01*
X-39500Y344140D02*
X-39500Y359140D01*
X-54500Y344140D02*
X-54500Y359140D01*
X-69500D02*
X-69500Y344140D01*
X-84500Y344140D02*
Y359140D01*
X-113500Y244640D02*
X-13500Y244640D01*
X-14000Y260640D02*
X1000Y260640D01*
X-14000Y318640D02*
X1000D01*
X-14000Y285640D02*
X1000Y285640D01*
X-14000Y320640D02*
Y323640D01*
Y333640D02*
X1000Y333640D01*
X-128000Y255640D02*
X-128000Y258640D01*
X-128000Y273640D02*
X-128000Y270640D01*
Y323640D02*
X-128000Y320640D01*
X-52500Y230140D02*
X-49500Y230140D01*
X-87500Y230140D02*
X-84500D01*
X-32500Y359140D02*
X-29500D01*
X-128000Y263640D02*
X-113000Y263640D01*
X-113000Y293640D02*
X-113000Y290640D01*
X-128000Y295640D02*
X-113000Y295640D01*
X-113000Y305640D02*
Y308640D01*
X-128000Y278640D02*
X-113000Y278640D01*
X-128000Y310640D02*
X-113000Y310640D01*
X-128000Y328640D02*
X-113000Y328640D01*
X-102500Y359140D02*
X-99500D01*
X-24500Y230140D02*
Y245140D01*
X-37500D02*
X-34500Y245140D01*
X-77500Y230140D02*
Y245140D01*
X1000Y325640D02*
X1000Y328640D01*
X-57500Y344140D02*
Y359140D01*
X-113500Y244640D02*
Y344640D01*
X-92500Y344140D02*
X-89500D01*
X-77500D02*
X-74500D01*
X-87500D02*
Y359140D01*
X-102500D02*
X-102500Y344140D01*
X-14000Y263640D02*
X1000Y263640D01*
X-14000Y278640D02*
X1000Y278640D01*
X-14000Y288640D02*
X1000D01*
X-14000Y258640D02*
X-14000Y255640D01*
X-14000Y265640D02*
X-14000Y268640D01*
X-14000Y290640D02*
X-14000Y293640D01*
Y303640D02*
X1000Y303640D01*
X-14000Y305640D02*
Y308640D01*
Y320640D02*
X1000Y320640D01*
X-128000Y288640D02*
X-128000Y285640D01*
X-128000Y300640D02*
Y303640D01*
X-113000Y255640D02*
Y258640D01*
X-128000Y260640D02*
X-113000Y260640D01*
X-128000Y293640D02*
X-113000Y293640D01*
X-128000Y308640D02*
X-113000D01*
Y320640D02*
X-113000Y323640D01*
X-97500Y359140D02*
X-94500Y359140D01*
X-82500Y359140D02*
X-79500Y359140D01*
X-39500Y245140D02*
X-39500Y230140D01*
X-59500D02*
Y245140D01*
X-52500Y245140D02*
X-49500Y245140D01*
X-74500D02*
X-74500Y230140D01*
X-94500Y245140D02*
X-94500Y230140D01*
X-72500Y245140D02*
X-69500Y245140D01*
X-92500Y245140D02*
X-89500Y245140D01*
X1000Y273640D02*
X1000Y270640D01*
X1000Y295640D02*
X1000Y298640D01*
Y310640D02*
X1000Y313640D01*
X-32500Y344140D02*
X-29500Y344140D01*
X-47500D02*
X-44500Y344140D01*
X-42500D02*
Y359140D01*
X-62500Y344140D02*
X-59500Y344140D01*
X-89500Y359140D02*
X-89500Y344140D01*
X-72500D02*
X-72500Y359140D01*
X-14000Y255640D02*
X1000Y255640D01*
X-14000Y265640D02*
X1000Y265640D01*
X-14000Y290640D02*
X1000Y290640D01*
X-14000Y305640D02*
X1000D01*
X-14000Y333640D02*
X-14000Y330640D01*
X-13500Y344640D02*
X-13500Y244640D01*
X6350Y-539750D02*
X311150D01*
X349250Y-501650D02*
Y501650D01*
X-311150Y539750D02*
X311150D01*
X-349250Y-501650D02*
Y501650D01*
X-311150Y-539750D02*
X6350D01*
X79950Y259300D02*
Y269200D01*
X75251Y260241D02*
X91251Y260241D01*
Y268261D01*
X86550Y259300D02*
X93750D01*
X72750Y259300D02*
X79950D01*
X86550Y269200D02*
X93750Y269200D01*
X93750Y259300D02*
X93750Y269200D01*
X72750Y259300D02*
X72750Y269200D01*
X75251Y268261D02*
X91251Y268261D01*
X72750Y269200D02*
X79950Y269200D01*
X75251Y268261D02*
X75251Y260241D01*
X86550Y269200D02*
X86550Y259300D01*
X-279496Y165100D02*
X-279496Y-38150D01*
X-228496Y-38150D01*
X-228596Y-25400D02*
X-218436Y-20320D01*
X-218436Y-30480D01*
X-228596Y-25400D02*
X-218436Y-30480D01*
X-228496Y165100D02*
X-228496Y-38150D01*
X-279496Y165100D02*
X-228496Y165100D01*
X279500Y215900D02*
Y419150D01*
X228500D02*
X279500D01*
X218440Y401320D02*
X228600Y406400D01*
X218440Y401320D02*
Y411480D01*
X228600Y406400D01*
X228500Y215900D02*
Y419150D01*
Y215900D02*
X279500D01*
Y-38100D02*
Y165150D01*
X228500D02*
X279500D01*
X218440Y147320D02*
X228600Y152400D01*
X218440Y147320D02*
Y157480D01*
X228600Y152400D01*
X228500Y-38100D02*
Y165150D01*
Y-38100D02*
X279500D01*
X-279496Y-292150D02*
Y-88900D01*
Y-292150D02*
X-228496Y-292150D01*
X-228596Y-279400D02*
X-218436Y-274320D01*
X-218436Y-284480D01*
X-228596Y-279400D02*
X-218436Y-284480D01*
X-228496Y-292150D02*
X-228496Y-88900D01*
X-279496D02*
X-228496D01*
X279500Y-292100D02*
Y-88850D01*
X228500D02*
X279500D01*
X218440Y-106680D02*
X228600Y-101600D01*
X218440Y-106680D02*
Y-96520D01*
X228600Y-101600D01*
X228500Y-292100D02*
Y-88850D01*
Y-292100D02*
X279500D01*
X-149700Y364950D02*
X-149700Y355050D01*
X-161001Y364009D02*
X-145001Y364009D01*
X-161001Y355989D02*
X-161001Y364009D01*
X-163500Y364950D02*
X-156300Y364950D01*
X-149700Y364950D02*
X-142500Y364950D01*
X-163500Y355050D02*
X-156300Y355050D01*
X-163500Y355050D02*
X-163500Y364950D01*
X-142500Y355050D02*
X-142500Y364950D01*
X-161001Y355989D02*
X-145001Y355989D01*
X-149700Y355050D02*
X-142500Y355050D01*
X-145001Y364009D02*
X-145001Y355989D01*
X-156300Y364950D02*
X-156300Y355050D01*
X-149700Y339050D02*
X-149700Y348950D01*
X-161001Y348009D02*
X-145001Y348009D01*
X-161001Y339989D02*
Y348009D01*
X-163500Y348950D02*
X-156300Y348950D01*
X-149700Y348950D02*
X-142500Y348950D01*
X-163500Y339050D02*
X-156300Y339050D01*
X-163500Y348950D02*
X-163500Y339050D01*
X-142500Y348950D02*
X-142500Y339050D01*
X-161001Y339989D02*
X-145001Y339989D01*
X-149700Y339050D02*
X-142500Y339050D01*
X-145001Y339989D02*
Y348009D01*
X-156300Y339050D02*
X-156300Y348950D01*
X-149700Y323050D02*
X-149700Y332950D01*
X-161001Y332009D02*
X-145001Y332009D01*
X-161001Y323989D02*
Y332009D01*
X-163500Y332950D02*
X-156300Y332950D01*
X-149700Y332950D02*
X-142500Y332950D01*
X-163500Y323050D02*
X-156300Y323050D01*
X-163500Y332950D02*
X-163500Y323050D01*
X-142500Y332950D02*
X-142500Y323050D01*
X-161001Y323989D02*
X-145001Y323989D01*
X-149700Y323050D02*
X-142500Y323050D01*
X-145001Y323989D02*
Y332009D01*
X-156300Y323050D02*
X-156300Y332950D01*
X-149700Y291050D02*
X-149700Y300950D01*
X-161001Y300009D02*
X-145001Y300009D01*
X-161001Y291989D02*
Y300009D01*
X-163500Y300950D02*
X-156300Y300950D01*
X-149700Y300950D02*
X-142500Y300950D01*
X-163500Y291050D02*
X-156300Y291050D01*
X-163500Y300950D02*
X-163500Y291050D01*
X-142500Y300950D02*
X-142500Y291050D01*
X-161001Y291989D02*
X-145001Y291989D01*
X-149700Y291050D02*
X-142500Y291050D01*
X-145001Y291989D02*
Y300009D01*
X-156300Y291050D02*
X-156300Y300950D01*
X-149700Y275050D02*
X-149700Y284950D01*
X-161001Y284009D02*
X-145001Y284009D01*
X-161001Y275989D02*
Y284009D01*
X-163500Y284950D02*
X-156300Y284950D01*
X-149700Y284950D02*
X-142500Y284950D01*
X-163500Y275050D02*
X-156300Y275050D01*
X-163500Y284950D02*
X-163500Y275050D01*
X-142500Y284950D02*
X-142500Y275050D01*
X-161001Y275989D02*
X-145001Y275989D01*
X-149700Y275050D02*
X-142500Y275050D01*
X-145001Y275989D02*
Y284009D01*
X-156300Y275050D02*
X-156300Y284950D01*
X-149700Y259050D02*
X-149700Y268950D01*
X-161001Y268009D02*
X-145001Y268009D01*
X-161001Y259989D02*
Y268009D01*
X-163500Y268950D02*
X-156300Y268950D01*
X-149700Y268950D02*
X-142500Y268950D01*
X-163500Y259050D02*
X-156300Y259050D01*
X-163500Y268950D02*
X-163500Y259050D01*
X-142500Y268950D02*
X-142500Y259050D01*
X-161001Y259989D02*
X-145001Y259989D01*
X-149700Y259050D02*
X-142500Y259050D01*
X-145001Y259989D02*
Y268009D01*
X-156300Y259050D02*
X-156300Y268950D01*
X77050Y360500D02*
X141258Y360500D01*
X143351Y386500D02*
X143351Y360500D01*
X77050Y386500D02*
X141258D01*
X77050Y360500D02*
X111132D01*
X77050Y386500D02*
X143351Y386500D01*
X93098Y360500D02*
X143351Y360500D01*
X62250Y360500D02*
X141350Y360500D01*
X143351Y377999D02*
X143351Y369001D01*
X62250Y386500D02*
X141350Y386500D01*
X62250Y360500D02*
X62250Y386500D01*
X177300Y-348959D02*
X177300Y-339059D01*
X165999Y-340000D02*
X181999Y-340000D01*
X165999Y-348020D02*
Y-340000D01*
X163500Y-339059D02*
X170700Y-339059D01*
X177300Y-339059D02*
X184500Y-339059D01*
X163500Y-348959D02*
X170700Y-348959D01*
X163500Y-339059D02*
X163500Y-348959D01*
X184500Y-339059D02*
X184500Y-348959D01*
X165999Y-348020D02*
X181999Y-348020D01*
X177300Y-348959D02*
X184500Y-348959D01*
X181999Y-348020D02*
Y-340000D01*
X170700Y-348959D02*
X170700Y-339059D01*
X-169300Y-316450D02*
X-169300Y-306550D01*
X-173999Y-315509D02*
X-157999Y-315509D01*
Y-307489D01*
X-162700Y-316450D02*
X-155500Y-316450D01*
X-176500D02*
X-169300Y-316450D01*
X-162700Y-306550D02*
X-155500Y-306550D01*
X-155500Y-316450D01*
X-176500Y-306550D02*
X-176500Y-316450D01*
X-173999Y-307489D02*
X-157999D01*
X-176500Y-306550D02*
X-169300Y-306550D01*
X-173999Y-315509D02*
Y-307489D01*
X-162700Y-316450D02*
X-162700Y-306550D01*
X-169300Y-364950D02*
Y-355050D01*
X-173999Y-364009D02*
X-157999D01*
Y-355989D01*
X-162700Y-364950D02*
X-155500D01*
X-176500D02*
X-169300D01*
X-162700Y-355050D02*
X-155500D01*
Y-364950D02*
Y-355050D01*
X-176500Y-364950D02*
Y-355050D01*
X-173999Y-355989D02*
X-157999D01*
X-176500Y-355050D02*
X-169300D01*
X-173999Y-364009D02*
Y-355989D01*
X-162700Y-364950D02*
Y-355050D01*
X-169300Y-348950D02*
X-169300Y-339050D01*
X-173999Y-348009D02*
X-157999Y-348009D01*
Y-339989D01*
X-162700Y-348950D02*
X-155500Y-348950D01*
X-176500D02*
X-169300Y-348950D01*
X-162700Y-339050D02*
X-155500Y-339050D01*
X-155500Y-348950D01*
X-176500Y-339050D02*
X-176500Y-348950D01*
X-173999Y-339989D02*
X-157999D01*
X-176500Y-339050D02*
X-169300Y-339050D01*
X-173999Y-348009D02*
Y-339989D01*
X-162700Y-348950D02*
X-162700Y-339050D01*
X177300Y-396959D02*
X177300Y-387059D01*
X165999Y-388000D02*
X181999Y-388000D01*
X165999Y-396020D02*
Y-388000D01*
X163500Y-387059D02*
X170700Y-387059D01*
X177300Y-387059D02*
X184500Y-387059D01*
X163500Y-396959D02*
X170700Y-396959D01*
X163500Y-387059D02*
X163500Y-396959D01*
X184500Y-387059D02*
X184500Y-396959D01*
X165999Y-396020D02*
X181999Y-396020D01*
X177300Y-396959D02*
X184500Y-396959D01*
X181999Y-396020D02*
Y-388000D01*
X170700Y-396959D02*
X170700Y-387059D01*
X-47950Y169700D02*
X-38050D01*
X-38991Y165001D02*
Y181001D01*
X-47011D02*
X-38991D01*
X-38050Y176300D02*
Y183500D01*
Y162500D02*
Y169700D01*
X-47950Y176300D02*
Y183500D01*
X-38050D01*
X-47950Y162500D02*
X-38050D01*
X-47011Y165001D02*
Y181001D01*
X-47950Y162500D02*
Y169700D01*
X-47011Y165001D02*
X-38991D01*
X-47950Y176300D02*
X-38050D01*
X165901Y-380107D02*
Y-371908D01*
X182102Y-380107D02*
X182102Y-371908D01*
X165901Y-380107D02*
X182102Y-380107D01*
X165901Y-371908D02*
X182102D01*
X177300Y-380959D02*
X177300Y-371059D01*
X184500Y-371059D02*
X184500Y-380959D01*
X177300Y-371059D02*
X184500Y-371059D01*
X177300Y-380959D02*
X184500Y-380959D01*
X163500Y-371059D02*
X163500Y-380959D01*
X170700Y-380959D02*
X170700Y-371059D01*
X163500Y-371059D02*
X170700Y-371059D01*
X163500Y-380959D02*
X170700Y-380959D01*
X-157901Y-380101D02*
Y-371902D01*
X-174102Y-380101D02*
X-174102Y-371902D01*
X-157901Y-371902D01*
X-174102Y-380101D02*
X-157901D01*
X-169300Y-380950D02*
X-169300Y-371050D01*
X-176500Y-380950D02*
X-176500Y-371050D01*
X-176500Y-380950D02*
X-169300Y-380950D01*
X-176500Y-371050D02*
X-169300Y-371050D01*
X-155500Y-380950D02*
X-155500Y-371050D01*
X-162700Y-380950D02*
X-162700Y-371050D01*
X-162700Y-380950D02*
X-155500Y-380950D01*
X-162700Y-371050D02*
X-155500Y-371050D01*
X29050Y-463450D02*
Y-458200D01*
X9050Y-463450D02*
X29050D01*
X9050D02*
Y-452950D01*
X29050D01*
Y-458200D02*
Y-452950D01*
X33550Y-504950D02*
Y-455950D01*
X4550Y-504950D02*
X33550D01*
X4550D02*
Y-455950D01*
X33550D01*
X29050Y-507950D02*
Y-502700D01*
X9050Y-507950D02*
X29050D01*
X9050D02*
Y-497450D01*
X29050D01*
Y-504950D02*
Y-497450D01*
X-29050Y-502700D02*
X-29050Y-497450D01*
X-9050Y-497450D01*
X-9050Y-507950D02*
X-9050Y-497450D01*
X-29050Y-507950D02*
X-9050Y-507950D01*
X-29050Y-502700D02*
X-29050Y-507950D01*
X-33550Y-504950D02*
Y-455950D01*
X-4550D01*
Y-504950D02*
Y-455950D01*
X-33550Y-504950D02*
X-4550D01*
X-29050Y-458200D02*
Y-452950D01*
X-9050Y-452950D01*
Y-463450D02*
Y-452950D01*
X-29050Y-463450D02*
X-9050Y-463450D01*
X-29050Y-455950D02*
X-29050Y-463450D01*
X67150D02*
Y-458200D01*
X47150Y-463450D02*
X67150D01*
X47150D02*
Y-452950D01*
X67150D01*
Y-458200D02*
Y-452950D01*
X71650Y-504950D02*
Y-455950D01*
X42650Y-504950D02*
X71650D01*
X42650D02*
Y-455950D01*
X71650D01*
X67150Y-507950D02*
Y-502700D01*
X47150Y-507950D02*
X67150D01*
X47150D02*
Y-497450D01*
X67150D01*
Y-504950D02*
Y-497450D01*
X-47150Y-463450D02*
Y-458200D01*
X-67150Y-463450D02*
X-47150D01*
X-67150D02*
Y-452950D01*
X-47150D01*
Y-458200D02*
Y-452950D01*
X-42650Y-504950D02*
Y-455950D01*
X-71650Y-504950D02*
X-42650D01*
X-71650D02*
Y-455950D01*
X-42650D01*
X-47150Y-507950D02*
Y-502700D01*
X-67150Y-507950D02*
X-47150D01*
X-67150D02*
Y-497450D01*
X-47150D01*
Y-504950D02*
Y-497450D01*
X177300Y-364959D02*
X177300Y-355059D01*
X165999Y-356000D02*
X181999Y-356000D01*
X165999Y-364020D02*
Y-356000D01*
X163500Y-355059D02*
X170700Y-355059D01*
X177300Y-355059D02*
X184500Y-355059D01*
X163500Y-364959D02*
X170700Y-364959D01*
X163500Y-355059D02*
X163500Y-364959D01*
X184500Y-355059D02*
X184500Y-364959D01*
X165999Y-364020D02*
X181999Y-364020D01*
X177300Y-364959D02*
X184500Y-364959D01*
X181999Y-364020D02*
Y-356000D01*
X170700Y-364959D02*
X170700Y-355059D01*
X-169300Y-396950D02*
X-169300Y-387050D01*
X-173999Y-396009D02*
X-157999Y-396009D01*
X-157999Y-387989D02*
X-157999Y-396009D01*
X-162700Y-396950D02*
X-155500Y-396950D01*
X-176500Y-396950D02*
X-169300D01*
X-162700Y-387050D02*
X-155500D01*
X-155500Y-396950D02*
X-155500Y-387050D01*
X-176500Y-396950D02*
X-176500Y-387050D01*
X-173999Y-387989D02*
X-157999Y-387989D01*
X-176500Y-387050D02*
X-169300Y-387050D01*
X-173999Y-396009D02*
Y-387989D01*
X-162700Y-396950D02*
X-162700Y-387050D01*
X105250Y-463450D02*
Y-458200D01*
X85250Y-463450D02*
X105250D01*
X85250D02*
Y-452950D01*
X105250D01*
Y-458200D02*
Y-452950D01*
X109750Y-504950D02*
Y-455950D01*
X80750Y-504950D02*
X109750D01*
X80750D02*
Y-455950D01*
X109750D01*
X105250Y-507950D02*
Y-502700D01*
X85250Y-507950D02*
X105250D01*
X85250D02*
Y-497450D01*
X105250D01*
Y-504950D02*
Y-497450D01*
X-85250Y-463450D02*
Y-458200D01*
X-105250Y-463450D02*
X-85250D01*
X-105250D02*
Y-452950D01*
X-85250D01*
Y-458200D02*
Y-452950D01*
X-80750Y-504950D02*
Y-455950D01*
X-109750Y-504950D02*
X-80750D01*
X-109750D02*
Y-455950D01*
X-80750D01*
X-85250Y-507950D02*
Y-502700D01*
X-105250Y-507950D02*
X-85250D01*
X-105250D02*
Y-497450D01*
X-85250D01*
Y-504950D02*
Y-497450D01*
X-123350Y-463450D02*
Y-458200D01*
X-143350Y-463450D02*
X-123350D01*
X-143350D02*
Y-452950D01*
X-123350D01*
Y-458200D02*
Y-452950D01*
X-118850Y-504950D02*
Y-455950D01*
X-147850Y-504950D02*
X-118850D01*
X-147850D02*
Y-455950D01*
X-118850D01*
X-123350Y-507950D02*
Y-502700D01*
X-143350Y-507950D02*
X-123350D01*
X-143350D02*
Y-497450D01*
X-123350D01*
Y-504950D02*
Y-497450D01*
X6300Y384050D02*
X16200Y384050D01*
X7241Y388749D02*
X7241Y372749D01*
X15261D01*
X6300Y377450D02*
X6300Y370250D01*
X6300Y391250D02*
X6300Y384050D01*
X16200Y377450D02*
X16200Y370250D01*
X6300Y370250D02*
X16200Y370250D01*
X6300Y391250D02*
X16200Y391250D01*
X15261Y372749D02*
Y388749D01*
X16200Y391250D02*
X16200Y384050D01*
X7241Y388749D02*
X15261D01*
X6300Y377450D02*
X16200Y377450D01*
X317849Y-386151D02*
X322849D01*
X317849D02*
Y-376150D01*
X202849Y-500151D02*
Y-490150D01*
X197849D02*
X202849D01*
X197851Y-386151D02*
X202851D01*
Y-376150D01*
X207850Y-371151D02*
X312850D01*
X197849Y-386151D02*
X197851D01*
X197849Y-490150D02*
Y-386151D01*
X317851Y-500151D02*
Y-490150D01*
X322851D01*
Y-386151D01*
X207849Y-505151D02*
X312851D01*
X252585Y-467129D02*
X289328Y-430387D01*
X-202851Y-386151D02*
X-197851D01*
X-202851D02*
Y-376150D01*
X-317851Y-500151D02*
Y-490150D01*
X-322851D02*
X-317851D01*
X-322849Y-386151D02*
X-317849D01*
Y-376150D01*
X-312850Y-371151D02*
X-207850D01*
X-322851Y-386151D02*
X-322849D01*
X-322851Y-490150D02*
Y-386151D01*
X-202849Y-500151D02*
Y-490150D01*
X-197849D01*
Y-386151D01*
X-312851Y-505151D02*
X-207849D01*
X-268115Y-467129D02*
X-231372Y-430387D01*
X-52300Y196050D02*
Y205950D01*
X-56999Y196991D02*
X-40999D01*
Y205011D01*
X-45700Y196050D02*
X-38500D01*
X-59500D02*
X-52300D01*
X-45700Y205950D02*
X-38500D01*
Y196050D02*
Y205950D01*
X-59500Y196050D02*
Y205950D01*
X-56999Y205011D02*
X-40999D01*
X-59500Y205950D02*
X-52300D01*
X-56999Y196991D02*
Y205011D01*
X-45700Y196050D02*
Y205950D01*
X-135380Y101730D02*
Y111630D01*
X-140079Y102671D02*
X-124079D01*
Y110691D01*
X-128780Y101730D02*
X-121580D01*
X-142580D02*
X-135380D01*
X-128780Y111630D02*
X-121580D01*
Y101730D02*
Y111630D01*
X-142580Y101730D02*
Y111630D01*
X-140079Y110691D02*
X-124079D01*
X-142580Y111630D02*
X-135380D01*
X-140079Y102671D02*
Y110691D01*
X-128780Y101730D02*
Y111630D01*
X105650Y-154099D02*
X105650Y-145900D01*
X121851Y-145900D02*
X121851Y-154099D01*
X105650D02*
X121851D01*
X105650Y-145900D02*
X121851Y-145900D01*
X117049Y-154951D02*
Y-145051D01*
X124249Y-154951D02*
X124249Y-145051D01*
X117049Y-145051D02*
X124249Y-145051D01*
X117049Y-154951D02*
X124249Y-154951D01*
X103249Y-145051D02*
X103249Y-154951D01*
X110449Y-154951D02*
Y-145051D01*
X103249D02*
X110449D01*
X103249Y-154951D02*
X110449Y-154951D01*
X-93501Y-46702D02*
X-93501Y-54901D01*
X-109702Y-46702D02*
X-109702Y-54901D01*
X-109702Y-46702D02*
X-93501D01*
X-109702Y-54901D02*
X-93501D01*
X-104900Y-55750D02*
Y-45850D01*
X-112100Y-55750D02*
Y-45850D01*
Y-55750D02*
X-104900Y-55750D01*
X-112100Y-45850D02*
X-104900Y-45850D01*
X-91100Y-55750D02*
Y-45850D01*
X-98300Y-55750D02*
Y-45850D01*
Y-55750D02*
X-91100Y-55750D01*
X-98300Y-45850D02*
X-91100Y-45850D01*
X99901Y-76098D02*
Y-67899D01*
X116102D02*
X116102Y-76098D01*
X99901Y-76098D02*
X116102Y-76098D01*
X99901Y-67899D02*
X116102D01*
X111300Y-67050D02*
X111300Y-76950D01*
X118500D02*
Y-67050D01*
X111300Y-67050D02*
X118500Y-67050D01*
X111300Y-76950D02*
X118500D01*
X97500Y-76950D02*
Y-67050D01*
X104700D02*
X104700Y-76950D01*
X97500Y-67050D02*
X104700D01*
X97500Y-76950D02*
X104700Y-76950D01*
X155151Y376402D02*
Y384601D01*
X171352D02*
X171352Y376402D01*
X155151Y376402D02*
X171352Y376402D01*
X155151Y384601D02*
X171352D01*
X166550Y385450D02*
X166550Y375550D01*
X173750D02*
Y385450D01*
X166550Y385450D02*
X173750Y385450D01*
X166550Y375550D02*
X173750D01*
X152750Y375550D02*
Y385450D01*
X159950D02*
X159950Y375550D01*
X152750Y385450D02*
X159950D01*
X152750Y375550D02*
X159950Y375550D01*
X-24098Y-201401D02*
X-15899D01*
X-24098Y-217602D02*
X-15899D01*
X-24098D02*
X-24098Y-201401D01*
X-15899Y-217602D02*
Y-201401D01*
X-24950Y-212800D02*
X-15050D01*
X-24950Y-220000D02*
X-15050Y-220000D01*
X-15050Y-212800D01*
X-24950D02*
X-24950Y-220000D01*
X-24950Y-199000D02*
X-15050D01*
X-24950Y-206200D02*
X-15050Y-206200D01*
Y-199000D01*
X-24950D02*
X-24950Y-206200D01*
X-117099Y-173098D02*
X-117099Y-164899D01*
X-100898Y-164899D02*
X-100898Y-173098D01*
X-117099D02*
X-100898D01*
X-117099Y-164899D02*
X-100898Y-164899D01*
X-105700Y-173950D02*
Y-164050D01*
X-98500Y-173950D02*
Y-164050D01*
X-105700D02*
X-98500D01*
X-105700Y-173950D02*
X-98500Y-173950D01*
X-119500Y-173950D02*
Y-164050D01*
X-112300Y-173950D02*
X-112300Y-164050D01*
X-119500Y-164050D02*
X-112300Y-164050D01*
X-119500Y-173950D02*
X-112300D01*
X-93501Y-65752D02*
X-93501Y-73951D01*
X-109702Y-65752D02*
X-109702Y-73951D01*
X-109702Y-65752D02*
X-93501D01*
X-109702Y-73951D02*
X-93501Y-73951D01*
X-104900Y-74800D02*
Y-64900D01*
X-112100Y-74800D02*
Y-64900D01*
Y-74800D02*
X-104900D01*
X-112100Y-64900D02*
X-104900Y-64900D01*
X-91100Y-74800D02*
Y-64900D01*
X-98300Y-74800D02*
Y-64900D01*
Y-74800D02*
X-91100D01*
X-98300Y-64900D02*
X-91100Y-64900D01*
X105650Y-161650D02*
X105651Y-169849D01*
X121851Y-161650D02*
X121851Y-169849D01*
X105651D02*
X121851D01*
X105650Y-161650D02*
X121851Y-161650D01*
X117049Y-170701D02*
Y-160801D01*
X124249Y-160801D02*
X124249Y-170701D01*
X117049Y-160801D02*
X124249Y-160801D01*
X117049Y-170701D02*
X124249Y-170701D01*
X103249Y-160801D02*
X103249Y-170701D01*
X110449Y-170701D02*
Y-160801D01*
X103249D02*
X110449D01*
X103249Y-170701D02*
X110449Y-170701D01*
X8152Y-201401D02*
X16351D01*
X8152Y-217602D02*
X16351Y-217602D01*
X8152Y-201401D02*
X8152Y-217602D01*
X16351Y-217602D02*
Y-201401D01*
X7300Y-212800D02*
X17200Y-212800D01*
X7300Y-220000D02*
X17200Y-220000D01*
X17200Y-212800D02*
X17200Y-220000D01*
X7300Y-212800D02*
X7300Y-220000D01*
X7300Y-199000D02*
X17200Y-199000D01*
X7300Y-206200D02*
X17200Y-206200D01*
X17200Y-199000D02*
X17200Y-206200D01*
X7300Y-199000D02*
X7300Y-206200D01*
X15899Y-14099D02*
X24098Y-14099D01*
X15899Y2102D02*
X24098Y2102D01*
X24098Y-14099D02*
X24098Y2102D01*
X15899Y-14099D02*
X15899Y2102D01*
X15050Y-2700D02*
X24950Y-2700D01*
X15050Y4500D02*
X24950D01*
X15050Y-2700D02*
Y4500D01*
X24950D02*
X24950Y-2700D01*
X15050Y-16500D02*
X24950D01*
X15050Y-9300D02*
X24950Y-9300D01*
X15050Y-9300D02*
X15050Y-16500D01*
X24950D02*
Y-9300D01*
X-19101Y-14099D02*
X-10902Y-14099D01*
X-19101Y2102D02*
X-10902Y2102D01*
X-10902Y-14099D02*
X-10902Y2102D01*
X-19101Y-14099D02*
X-19101Y2102D01*
X-19950Y-2700D02*
X-10050Y-2700D01*
X-19950Y4500D02*
X-10050D01*
X-19950Y-2700D02*
Y4500D01*
X-10050D02*
X-10050Y-2700D01*
X-19950Y-16500D02*
X-10050D01*
X-19950Y-9300D02*
X-10050Y-9300D01*
X-19950Y-9300D02*
X-19950Y-16500D01*
X-10050D02*
Y-9300D01*
X-3101Y-14099D02*
X5098D01*
X-3101Y2102D02*
X5098D01*
Y-14099D02*
Y2102D01*
X-3101Y-14099D02*
Y2102D01*
X-3950Y-2700D02*
X5950D01*
X-3950Y4500D02*
X5950D01*
X-3950Y-2700D02*
Y4500D01*
X5950Y-2700D02*
Y4500D01*
X-3950Y-16500D02*
X5950D01*
X-3950Y-9300D02*
X5950D01*
X-3950Y-16500D02*
Y-9300D01*
X5950Y-16500D02*
Y-9300D01*
X143350Y-458200D02*
X143350Y-463450D01*
X123350Y-463450D02*
X143350Y-463450D01*
X123350Y-463450D02*
Y-452950D01*
X143350Y-452950D01*
Y-458200D02*
Y-452950D01*
X147850Y-504950D02*
Y-455950D01*
X118850Y-504950D02*
X147850D01*
X118850D02*
Y-455950D01*
X147850D01*
X143350Y-507950D02*
Y-502700D01*
X123350Y-507950D02*
X143350Y-507950D01*
X123350Y-497450D02*
X123350Y-507950D01*
X123350Y-497450D02*
X143350Y-497450D01*
Y-504950D02*
Y-497450D01*
X-135730Y434870D02*
Y599870D01*
X-13730D01*
X-135730Y434870D02*
X-13730D01*
Y599870D01*
X-108101Y372651D02*
X-99902Y372651D01*
X-108101Y388852D02*
X-99902Y388852D01*
X-99902Y372651D01*
X-108101Y372651D02*
X-108101Y388852D01*
X-108950Y384050D02*
X-99050D01*
X-108950Y391250D02*
X-99050D01*
X-108950Y384050D02*
Y391250D01*
X-99050D02*
X-99050Y384050D01*
X-108950Y370250D02*
X-99050Y370250D01*
X-108950Y377450D02*
X-99050Y377450D01*
X-108950Y377450D02*
X-108950Y370250D01*
X-99050Y370250D02*
Y377450D01*
X-38950Y142700D02*
X-29050Y142700D01*
X-29991Y138001D02*
X-29991Y154001D01*
X-38011D02*
X-29991D01*
X-29050Y156500D02*
X-29050Y149300D01*
X-29050Y135500D02*
Y142700D01*
X-38950Y149300D02*
Y156500D01*
X-29050D01*
X-38950Y135500D02*
X-29050D01*
X-38011Y138001D02*
Y154001D01*
X-38950Y142700D02*
X-38950Y135500D01*
X-38011Y138001D02*
X-29991D01*
X-38950Y149300D02*
X-29050Y149300D01*
X53099Y384598D02*
X53099Y376399D01*
X36898Y384598D02*
X36898Y376399D01*
X36898Y384598D02*
X53099D01*
X36898Y376399D02*
X53099D01*
X41700Y375550D02*
Y385450D01*
X34500Y375550D02*
Y385450D01*
Y375550D02*
X41700Y375550D01*
X34500Y385450D02*
X41700Y385450D01*
X55500Y375550D02*
Y385450D01*
X48300Y375550D02*
Y385450D01*
Y375550D02*
X55500Y375550D01*
X48300Y385450D02*
X55500Y385450D01*
X58899Y344458D02*
X58899Y336259D01*
X42698Y344458D02*
X42698Y336259D01*
X42698Y344458D02*
X58899Y344458D01*
X42698Y336259D02*
X58899Y336259D01*
X47500Y335410D02*
X47500Y345310D01*
X40300Y335410D02*
Y345310D01*
Y335410D02*
X47500D01*
X40300Y345310D02*
X47500Y345310D01*
X61300Y335410D02*
Y345310D01*
X54100Y335410D02*
X54100Y345310D01*
X54100Y335410D02*
X61300Y335410D01*
X54100Y345310D02*
X61300D01*
X3050Y169700D02*
X12950D01*
X12009Y165001D02*
X12009Y181001D01*
X3989D02*
X12009D01*
X12950Y183500D02*
X12950Y176300D01*
X12950Y162500D02*
X12950Y169700D01*
X3050Y176300D02*
X3050Y183500D01*
X12950D01*
X3050Y162500D02*
X12950D01*
X3989Y165001D02*
Y181001D01*
X3050Y169700D02*
X3050Y162500D01*
X3989Y165001D02*
X12009D01*
X3050Y176300D02*
X12950D01*
X-81150Y-407550D02*
X-71250D01*
X-80209Y-396249D02*
X-80209Y-412249D01*
X-80209Y-396249D02*
X-72189D01*
X-81150Y-400950D02*
X-81150Y-393750D01*
X-81150Y-407550D02*
X-81150Y-414750D01*
X-71250Y-400950D02*
Y-393750D01*
X-81150Y-393750D02*
X-71250Y-393750D01*
X-81150Y-414750D02*
X-71250Y-414750D01*
X-72189Y-412249D02*
Y-396249D01*
X-71250Y-414750D02*
X-71250Y-407550D01*
X-80209Y-412249D02*
X-72189D01*
X-81150Y-400950D02*
X-71250D01*
X58899Y283498D02*
X58899Y275299D01*
X42698Y283498D02*
X42698Y275299D01*
X42698Y283498D02*
X58899D01*
X42698Y275299D02*
X58899D01*
X47500Y274450D02*
Y284350D01*
X40300Y274450D02*
Y284350D01*
Y274450D02*
X47500Y274450D01*
X40300Y284350D02*
X47500Y284350D01*
X61300Y274450D02*
Y284350D01*
X54100Y274450D02*
Y284350D01*
Y274450D02*
X61300Y274450D01*
X54100Y284350D02*
X61300Y284350D01*
X-119250Y-407550D02*
X-109350D01*
X-118309Y-412249D02*
Y-396249D01*
X-110289D01*
X-119250Y-400950D02*
Y-393750D01*
Y-414750D02*
Y-407550D01*
X-109350Y-400950D02*
X-109350Y-393750D01*
X-119250D02*
X-109350D01*
X-119250Y-414750D02*
X-109350D01*
X-110289Y-396249D02*
X-110289Y-412249D01*
X-109350Y-407550D02*
X-109350Y-414750D01*
X-118309Y-412249D02*
X-110289D01*
X-119250Y-400950D02*
X-109350D01*
X7402Y293099D02*
X15601Y293099D01*
X7402Y276898D02*
X15601Y276898D01*
X7402Y293099D02*
X7402Y276898D01*
X15601Y276898D02*
X15601Y293099D01*
X6550Y281700D02*
X16450Y281700D01*
X6550Y274500D02*
X16450D01*
Y281700D01*
X6550Y281700D02*
X6550Y274500D01*
X6550Y295500D02*
X16450D01*
X6550Y288300D02*
X16450Y288300D01*
X16450Y295500D02*
X16450Y288300D01*
X6550Y288300D02*
Y295500D01*
X7399Y325901D02*
X15598D01*
X7399Y342102D02*
X15598D01*
Y325901D02*
Y342102D01*
X7399Y325901D02*
Y342102D01*
X6550Y337300D02*
X16450D01*
X6550Y344500D02*
X16450D01*
X6550Y337300D02*
Y344500D01*
X16450Y337300D02*
Y344500D01*
X6550Y323500D02*
X16450D01*
X6550Y330700D02*
X16450D01*
X6550Y323500D02*
Y330700D01*
X16450Y323500D02*
Y330700D01*
X-93250Y414750D02*
X-83250Y414750D01*
X-93250Y408750D02*
X-83250Y408750D01*
X-93250Y414750D02*
X-93250Y408750D01*
X-83250Y414750D02*
X-83250Y408750D01*
X-70250Y424250D02*
X-60250Y424250D01*
X-70250Y418250D02*
X-60250D01*
X-70250D02*
X-70250Y424250D01*
X-60250Y418250D02*
X-60250Y424250D01*
X-70250Y405250D02*
X-60250D01*
X-70250Y399250D02*
X-60250Y399250D01*
X-70250Y405250D02*
X-70250Y399250D01*
X-60250Y399250D02*
X-60250Y405250D01*
X-90748Y397252D02*
X-62748Y397252D01*
X-90748Y426252D02*
X-62748Y426252D01*
X-90748Y397252D02*
X-90748Y426252D01*
X-62748Y426252D02*
X-62748Y397252D01*
X-43050Y-407550D02*
X-33150D01*
X-42109Y-396249D02*
X-42109Y-412249D01*
X-42109Y-396249D02*
X-34089D01*
X-43050Y-400950D02*
X-43050Y-393750D01*
X-43050Y-407550D02*
X-43050Y-414750D01*
X-33150Y-393750D02*
X-33150Y-400950D01*
X-43050Y-393750D02*
X-33150D01*
X-43050Y-414750D02*
X-33150D01*
X-34089Y-396249D02*
X-34089Y-412249D01*
X-33150Y-414750D02*
Y-407550D01*
X-42109Y-412249D02*
X-34089D01*
X-43050Y-400950D02*
X-33150D01*
X53100Y368599D02*
X53100Y360400D01*
X36899Y368599D02*
X36899Y360400D01*
X36899Y368599D02*
X53100D01*
X36899Y360400D02*
X53100D01*
X41701Y359551D02*
Y369451D01*
X34501Y359551D02*
Y369451D01*
Y359551D02*
X41701Y359551D01*
X34501Y369451D02*
X41701Y369451D01*
X55501Y359551D02*
Y369451D01*
X48301Y359551D02*
Y369451D01*
Y359551D02*
X55501Y359551D01*
X48301Y369451D02*
X55501Y369451D01*
X58899Y176818D02*
X58899Y168619D01*
X42698Y176818D02*
X42698Y168619D01*
X42698Y176818D02*
X58899D01*
X42698Y168619D02*
X58899D01*
X47500Y167770D02*
Y177670D01*
X40300Y167770D02*
Y177670D01*
Y167770D02*
X47500Y167770D01*
X40300Y177670D02*
X47500Y177670D01*
X61300Y167770D02*
Y177670D01*
X54100Y167770D02*
Y177670D01*
Y167770D02*
X61300Y167770D01*
X54100Y177670D02*
X61300Y177670D01*
X58899Y222538D02*
X58899Y214339D01*
X42698Y214339D02*
X42698Y222538D01*
X58899D01*
X42698Y214339D02*
X58899Y214339D01*
X47500Y223390D02*
X47500Y213490D01*
X40300Y213490D02*
Y223390D01*
Y213490D02*
X47500Y213490D01*
X40300Y223390D02*
X47500Y223390D01*
X61300Y213490D02*
Y223390D01*
X54100Y213490D02*
Y223390D01*
Y213490D02*
X61300D01*
X54100Y223390D02*
X61300Y223390D01*
X-7848Y-201401D02*
X351D01*
X-7848Y-217602D02*
X351Y-217602D01*
X-7848Y-201401D02*
X-7848Y-217602D01*
X351Y-217602D02*
Y-201401D01*
X-8700Y-212800D02*
X1200Y-212800D01*
X-8700Y-220000D02*
X1200Y-220000D01*
X1200Y-212800D02*
X1200Y-220000D01*
X-8700Y-212800D02*
X-8700Y-220000D01*
X-8700Y-199000D02*
X1200Y-199000D01*
X-8700Y-206200D02*
X1200Y-206200D01*
X1200Y-199000D02*
X1200Y-206200D01*
X-8700Y-199000D02*
X-8700Y-206200D01*
X22251Y-426551D02*
X22251Y-436451D01*
X10950Y-435510D02*
X26950Y-435510D01*
X10950Y-435510D02*
Y-427490D01*
X8451Y-436451D02*
X15651Y-436451D01*
X22251Y-436451D02*
X29451D01*
X8451Y-426551D02*
X15651D01*
X8451Y-436451D02*
Y-426551D01*
X29451Y-436451D02*
Y-426551D01*
X10950Y-427490D02*
X26950D01*
X22251Y-426551D02*
X29451Y-426551D01*
X26950Y-435510D02*
Y-427490D01*
X15651Y-426551D02*
X15651Y-436451D01*
X-124950Y384300D02*
X-115050D01*
X-124009Y372999D02*
X-124009Y388999D01*
X-124009Y372999D02*
X-115989D01*
X-124950Y377700D02*
X-124950Y370500D01*
X-124950Y384300D02*
X-124950Y391500D01*
X-115050Y370500D02*
X-115050Y377700D01*
X-124950Y370500D02*
X-115050D01*
X-124950Y391500D02*
X-115050D01*
X-115989Y372999D02*
Y388999D01*
X-115050Y391500D02*
X-115050Y384300D01*
X-124009Y388999D02*
X-115989D01*
X-124950Y377700D02*
X-115050D01*
X155151Y360402D02*
Y368601D01*
X171352Y360402D02*
X171352Y368601D01*
X155151Y360402D02*
X171352Y360402D01*
X155151Y368601D02*
X171352D01*
X166550Y359550D02*
X166550Y369450D01*
X173750Y369450D02*
X173750Y359550D01*
X166550Y369450D02*
X173750Y369450D01*
X166550Y359550D02*
X173750Y359550D01*
X152750Y369450D02*
X152750Y359550D01*
X159950Y359550D02*
X159950Y369450D01*
X152750Y369450D02*
X159950Y369450D01*
X152750Y359550D02*
X159950Y359550D01*
X58899Y313978D02*
X58899Y305779D01*
X42698Y313978D02*
X42698Y305779D01*
X42698Y313978D02*
X58899Y313978D01*
X42698Y305779D02*
X58899Y305779D01*
X47500Y304930D02*
X47500Y314830D01*
X40300Y304930D02*
Y314830D01*
Y304930D02*
X47500Y304930D01*
X40300Y314830D02*
X47500Y314830D01*
X61300Y304930D02*
Y314830D01*
X54100Y304930D02*
Y314830D01*
Y304930D02*
X61300Y304930D01*
X54100Y314830D02*
X61300D01*
X6899Y434401D02*
X15098D01*
X6899Y450602D02*
X15098D01*
Y434401D02*
Y450602D01*
X6899Y434401D02*
Y450602D01*
X6050Y445800D02*
X15950D01*
X6050Y453000D02*
X15950D01*
X6050Y445800D02*
Y453000D01*
X15950Y445800D02*
Y453000D01*
X6050Y432000D02*
X15950D01*
X6050Y439200D02*
X15950D01*
X6050Y432000D02*
Y439200D01*
X15950Y432000D02*
Y439200D01*
X58899Y268258D02*
X58899Y260059D01*
X42698Y268258D02*
X42698Y260059D01*
X42698Y268258D02*
X58899Y268258D01*
X42698Y260059D02*
X58899Y260059D01*
X47500Y259210D02*
X47500Y269110D01*
X40300Y259210D02*
Y269110D01*
Y259210D02*
X47500D01*
X40300Y269110D02*
X47500Y269110D01*
X61300Y259210D02*
Y269110D01*
X54100Y259210D02*
X54100Y269110D01*
X54100Y259210D02*
X61300Y259210D01*
X54100Y269110D02*
X61300D01*
X58899Y290539D02*
Y298738D01*
X42698Y298738D02*
X42698Y290539D01*
X42698Y298738D02*
X58899Y298738D01*
X42698Y290539D02*
X58899D01*
X47500Y289690D02*
Y299590D01*
X40300Y289690D02*
Y299590D01*
Y289690D02*
X47500Y289690D01*
X40300Y299590D02*
X47500Y299590D01*
X61300Y289690D02*
Y299590D01*
X54100Y289690D02*
Y299590D01*
Y289690D02*
X61300Y289690D01*
X54100Y299590D02*
X61300Y299590D01*
X-6098Y154099D02*
X2101Y154099D01*
X-6098Y137898D02*
X2101Y137898D01*
X-6098Y137898D02*
Y154099D01*
X2101Y137898D02*
Y154099D01*
X-6950Y142700D02*
X2950Y142700D01*
X-6950Y135500D02*
X2950D01*
X2950Y142700D01*
X-6950Y142700D02*
X-6950Y135500D01*
Y156500D02*
X2950D01*
X-6950Y149300D02*
X2950Y149300D01*
X2950Y156500D02*
X2950Y149300D01*
X-6950Y149300D02*
X-6950Y156500D01*
X33150Y-407550D02*
X43050Y-407550D01*
X34091Y-396249D02*
X34091Y-412249D01*
X34091Y-396249D02*
X42111D01*
X33150Y-400950D02*
X33150Y-393750D01*
X33150Y-414750D02*
Y-407550D01*
X43050Y-400950D02*
Y-393750D01*
X33150D02*
X43050D01*
X33150Y-414750D02*
X43050D01*
X42111Y-412249D02*
X42111Y-396249D01*
X43050Y-414750D02*
X43050Y-407550D01*
X34091Y-412249D02*
X42111D01*
X33150Y-400950D02*
X43050Y-400950D01*
X58899Y192058D02*
X58899Y183859D01*
X42698Y192058D02*
X42698Y183859D01*
X42698Y192058D02*
X58899D01*
X42698Y183859D02*
X58899D01*
X47500Y183010D02*
Y192910D01*
X40300Y183010D02*
Y192910D01*
Y183010D02*
X47500Y183010D01*
X40300Y192910D02*
X47500Y192910D01*
X61300Y183010D02*
Y192910D01*
X54100Y183010D02*
Y192910D01*
Y183010D02*
X61300Y183010D01*
X54100Y192910D02*
X61300Y192910D01*
X-144901Y236098D02*
X-144901Y227899D01*
X-161102Y236098D02*
X-161102Y227899D01*
X-161102Y236098D02*
X-144901D01*
X-161102Y227899D02*
X-144901D01*
X-156300Y227050D02*
X-156300Y236950D01*
X-163500Y227050D02*
Y236950D01*
Y227050D02*
X-156300Y227050D01*
X-163500Y236950D02*
X-156300Y236950D01*
X-142500Y227050D02*
Y236950D01*
X-149700Y227050D02*
X-149700Y236950D01*
X-149700Y227050D02*
X-142500Y227050D01*
X-149700Y236950D02*
X-142500Y236950D01*
X71250Y-407550D02*
X81150D01*
X72191Y-412249D02*
X72191Y-396249D01*
X80211D01*
X71250Y-400950D02*
X71250Y-393750D01*
X71250Y-414750D02*
Y-407550D01*
X81150Y-393750D02*
X81150Y-400950D01*
X71250Y-393750D02*
X81150Y-393750D01*
X71250Y-414750D02*
X81150D01*
X80211Y-412249D02*
Y-396249D01*
X81150Y-414750D02*
Y-407550D01*
X72191Y-412249D02*
X80211Y-412249D01*
X71250Y-400950D02*
X81150D01*
X-4950Y-407550D02*
X4950D01*
X-4009Y-412249D02*
Y-396249D01*
X4011Y-396249D01*
X-4950Y-400950D02*
Y-393750D01*
X-4950Y-407550D02*
X-4950Y-414750D01*
X4950Y-393750D02*
X4950Y-400950D01*
X-4950Y-393750D02*
X4950D01*
X-4950Y-414750D02*
X4950D01*
X4011Y-412249D02*
Y-396249D01*
X4950Y-414750D02*
X4950Y-407550D01*
X-4009Y-412249D02*
X4011D01*
X-4950Y-400950D02*
X4950Y-400950D01*
X-144901Y316098D02*
X-144901Y307899D01*
X-161102Y316098D02*
X-161102Y307899D01*
X-161102Y316098D02*
X-144901Y316098D01*
X-161102Y307899D02*
X-144901Y307899D01*
X-156300Y307050D02*
X-156300Y316950D01*
X-163500Y307050D02*
Y316950D01*
Y307050D02*
X-156300Y307050D01*
X-163500Y316950D02*
X-156300Y316950D01*
X-142500Y307050D02*
Y316950D01*
X-149700Y307050D02*
X-149700Y316950D01*
X-149700Y307050D02*
X-142500Y307050D01*
X-149700Y316950D02*
X-142500Y316950D01*
X98451Y-436451D02*
Y-426551D01*
X87150Y-435510D02*
X103150Y-435510D01*
X87150Y-435510D02*
Y-427490D01*
X84651Y-436451D02*
X91851Y-436451D01*
X98451D02*
X105651Y-436451D01*
X84651Y-426551D02*
X91851Y-426551D01*
X84651Y-436451D02*
Y-426551D01*
X105651Y-436451D02*
Y-426551D01*
X87150Y-427490D02*
X103150D01*
X98451Y-426551D02*
X105651Y-426551D01*
X103150Y-435510D02*
Y-427490D01*
X91851Y-436451D02*
Y-426551D01*
X-15849Y-426551D02*
X-15849Y-436451D01*
X-27150Y-435510D02*
X-11150Y-435510D01*
X-27150Y-435510D02*
Y-427490D01*
X-29649Y-436451D02*
X-22449Y-436451D01*
X-15849Y-436451D02*
X-8649D01*
X-29649Y-426551D02*
X-22449D01*
X-29649Y-436451D02*
Y-426551D01*
X-8649Y-436451D02*
Y-426551D01*
X-27150Y-427490D02*
X-11150Y-427490D01*
X-15849Y-426551D02*
X-8649Y-426551D01*
X-11150Y-435510D02*
Y-427490D01*
X-22449Y-426551D02*
X-22449Y-436451D01*
X147450Y-407550D02*
X157350Y-407550D01*
X148391Y-412249D02*
X148391Y-396249D01*
X156411Y-396249D01*
X147450Y-400950D02*
X147450Y-393750D01*
X147450Y-414750D02*
X147450Y-407550D01*
X157350Y-400950D02*
X157350Y-393750D01*
X147450D02*
X157350D01*
X147450Y-414750D02*
X157350D01*
X156411Y-412249D02*
X156411Y-396249D01*
X157350Y-414750D02*
X157350Y-407550D01*
X148391Y-412249D02*
X156411D01*
X147450Y-400950D02*
X157350D01*
X-53949Y-426551D02*
X-53949Y-436451D01*
X-65250Y-435510D02*
X-49250Y-435510D01*
X-65250Y-435510D02*
Y-427490D01*
X-67749Y-436451D02*
X-60549Y-436451D01*
X-53949Y-436451D02*
X-46749D01*
X-67749Y-426551D02*
X-60549D01*
X-67749Y-436451D02*
Y-426551D01*
X-46749Y-436451D02*
Y-426551D01*
X-65250Y-427490D02*
X-49250Y-427490D01*
X-53949Y-426551D02*
X-46749Y-426551D01*
X-49250Y-435510D02*
Y-427490D01*
X-60549Y-426551D02*
X-60549Y-436451D01*
X58899Y161578D02*
X58899Y153379D01*
X42698Y161578D02*
X42698Y153379D01*
X42698Y161578D02*
X58899Y161578D01*
X42698Y153379D02*
X58899Y153379D01*
X47500Y152530D02*
X47500Y162430D01*
X40300Y152530D02*
Y162430D01*
Y152530D02*
X47500Y152530D01*
X40300Y162430D02*
X47500Y162430D01*
X61300Y152530D02*
Y162430D01*
X54100Y152530D02*
X54100Y162430D01*
X54100Y152530D02*
X61300Y152530D01*
X54100Y162430D02*
X61300Y162430D01*
X58899Y329218D02*
X58899Y321019D01*
X42698Y329218D02*
X42698Y321019D01*
X42698Y329218D02*
X58899Y329218D01*
X42698Y321019D02*
X58899Y321019D01*
X47500Y320170D02*
X47500Y330070D01*
X40300Y320170D02*
Y330070D01*
Y320170D02*
X47500D01*
X40300Y330070D02*
X47500Y330070D01*
X61300Y320170D02*
Y330070D01*
X54100Y320170D02*
X54100Y330070D01*
X54100Y320170D02*
X61300Y320170D01*
X54100Y330070D02*
X61300D01*
X-22950Y142700D02*
X-13050Y142700D01*
X-13991Y138001D02*
X-13991Y154001D01*
X-22011D02*
X-13991D01*
X-13050Y156500D02*
X-13050Y149300D01*
X-13050Y135500D02*
Y142700D01*
X-22950Y149300D02*
Y156500D01*
X-13050D01*
X-22950Y135500D02*
X-13050D01*
X-22011Y138001D02*
Y154001D01*
X-22950Y142700D02*
X-22950Y135500D01*
X-22011Y138001D02*
X-13991D01*
X-22950Y149300D02*
X-13050Y149300D01*
X136551Y-436451D02*
Y-426551D01*
X125250Y-435510D02*
X141250D01*
X125250D02*
Y-427490D01*
X122751Y-436451D02*
X129951D01*
X136551D02*
X143751D01*
X122751Y-426551D02*
X129951D01*
X122751Y-436451D02*
Y-426551D01*
X143751Y-436451D02*
Y-426551D01*
X125250Y-427490D02*
X141250D01*
X136551Y-426551D02*
X143751D01*
X141250Y-435510D02*
Y-427490D01*
X129951Y-436451D02*
Y-426551D01*
X-92049Y-426551D02*
X-92049Y-436451D01*
X-103350Y-435510D02*
X-87350Y-435510D01*
X-103350Y-435510D02*
Y-427490D01*
X-105849Y-436451D02*
X-98649Y-436451D01*
X-92049Y-436451D02*
X-84849D01*
X-105849Y-426551D02*
X-98649D01*
X-105849Y-436451D02*
Y-426551D01*
X-84849Y-436451D02*
Y-426551D01*
X-103350Y-427490D02*
X-87350Y-427490D01*
X-92049Y-426551D02*
X-84849Y-426551D01*
X-87350Y-435510D02*
Y-427490D01*
X-98649Y-426551D02*
X-98649Y-436451D01*
X109350Y-407550D02*
X119250D01*
X110291Y-396249D02*
X110291Y-412249D01*
X110291Y-396249D02*
X118311Y-396249D01*
X109350Y-400950D02*
X109350Y-393750D01*
X109350Y-407550D02*
X109350Y-414750D01*
X119250Y-400950D02*
Y-393750D01*
X109350D02*
X119250D01*
X109350Y-414750D02*
X119250D01*
X118311Y-412249D02*
Y-396249D01*
X119250Y-414750D02*
Y-407550D01*
X110291Y-412249D02*
X118311D01*
X109350Y-400950D02*
X119250D01*
X-79901Y222098D02*
X-79901Y213899D01*
X-96102Y222098D02*
X-96102Y213899D01*
X-96102Y222098D02*
X-79901Y222098D01*
X-96102Y213899D02*
X-79901Y213899D01*
X-91300Y213050D02*
Y222950D01*
X-98500Y213050D02*
Y222950D01*
Y213050D02*
X-91300D01*
X-98500Y222950D02*
X-91300Y222950D01*
X-77500Y213050D02*
Y222950D01*
X-84700Y213050D02*
X-84700Y222950D01*
X-84700Y213050D02*
X-77500Y213050D01*
X-84700Y222950D02*
X-77500Y222950D01*
X58899Y229579D02*
Y237778D01*
X42698Y237778D02*
X42698Y229579D01*
X42698Y237778D02*
X58899Y237778D01*
X42698Y229579D02*
X58899D01*
X47500Y238630D02*
X47500Y228730D01*
X40300Y228730D02*
Y238630D01*
Y228730D02*
X47500Y228730D01*
X40300Y238630D02*
X47500D01*
X61300Y228730D02*
Y238630D01*
X54100Y238630D02*
X54100Y228730D01*
X61300D01*
X54100Y238630D02*
X61300Y238630D01*
X60351Y-426551D02*
X60351Y-436451D01*
X49050Y-435510D02*
X65050Y-435510D01*
X49050Y-435510D02*
Y-427490D01*
X46551Y-436451D02*
X53751Y-436451D01*
X60351Y-436451D02*
X67551D01*
X46551Y-426551D02*
X53751D01*
X46551Y-436451D02*
Y-426551D01*
X67551Y-436451D02*
Y-426551D01*
X49050Y-427490D02*
X65050Y-427490D01*
X60351Y-426551D02*
X67551Y-426551D01*
X65050Y-435510D02*
Y-427490D01*
X53751Y-426551D02*
X53751Y-436451D01*
X-130149Y-436451D02*
Y-426551D01*
X-141450Y-435510D02*
X-125450Y-435510D01*
X-141450Y-435510D02*
Y-427490D01*
X-143949Y-436451D02*
X-136749Y-436451D01*
X-130149D02*
X-122949Y-436451D01*
X-143949Y-426551D02*
X-136749Y-426551D01*
X-143949Y-436451D02*
Y-426551D01*
X-122949Y-436451D02*
Y-426551D01*
X-141450Y-427490D02*
X-125450D01*
X-130149Y-426551D02*
X-122949Y-426551D01*
X-125450Y-435510D02*
Y-427490D01*
X-136749Y-436451D02*
Y-426551D01*
X58899Y207298D02*
X58899Y199099D01*
X42698Y207298D02*
X42698Y199099D01*
X42698Y207298D02*
X58899Y207298D01*
X42698Y199099D02*
X58899Y199099D01*
X47500Y198250D02*
X47500Y208150D01*
X40300Y198250D02*
Y208150D01*
Y198250D02*
X47500D01*
X40300Y208150D02*
X47500Y208150D01*
X61300Y198250D02*
Y208150D01*
X54100Y198250D02*
X54100Y208150D01*
X54100Y198250D02*
X61300Y198250D01*
X54100Y208150D02*
X61300D01*
X-57099Y213902D02*
Y222101D01*
X-40898D02*
X-40898Y213902D01*
X-57099Y213902D02*
X-40898Y213902D01*
X-57099Y222101D02*
X-40898D01*
X-45700Y213050D02*
X-45700Y222950D01*
X-38500Y213050D02*
Y222950D01*
X-45700Y222950D02*
X-38500Y222950D01*
X-45700Y213050D02*
X-38500Y213050D01*
X-59500D02*
Y222950D01*
X-52300Y213050D02*
X-52300Y222950D01*
X-59500Y222950D02*
X-52300Y222950D01*
X-59500Y213050D02*
X-52300Y213050D01*
D79*
X54950Y438650D02*
Y582650D01*
Y438650D02*
X148950D01*
Y582650D01*
X54950D02*
X148950D01*
X80000Y-187700D02*
Y-27700D01*
X-80000Y-27700D02*
X80000Y-27700D01*
X-80000Y-187700D02*
X80000Y-187700D01*
X-80000Y-187700D02*
Y-27700D01*
X15049Y-396249D02*
X23049Y-396249D01*
X15049Y-396249D02*
X15049Y-412249D01*
X23049Y-412249D01*
X23049Y-396249D02*
X23049Y-412249D01*
X91251Y239931D02*
Y247931D01*
X75251D02*
X91251D01*
X75251Y239931D02*
Y247931D01*
Y239931D02*
X91251Y239931D01*
X-137351Y-396249D02*
X-129351Y-396249D01*
X-137351Y-412249D02*
Y-396249D01*
Y-412249D02*
X-129351D01*
Y-396249D01*
X-99251Y-396249D02*
X-91251Y-396249D01*
X-99251Y-412249D02*
Y-396249D01*
Y-412249D02*
X-91251D01*
Y-396249D01*
X-61151Y-396249D02*
X-53151Y-396249D01*
X-61151Y-412249D02*
Y-396249D01*
Y-412249D02*
X-53151D01*
Y-396249D01*
X-23051Y-396249D02*
X-15051Y-396249D01*
X-23051Y-396249D02*
X-23051Y-412249D01*
X-15051Y-412249D01*
X-15051Y-396249D02*
X-15051Y-412249D01*
X-124079Y82361D02*
Y90361D01*
X-140079D02*
X-124079D01*
X-140079Y82361D02*
Y90361D01*
Y82361D02*
X-124079D01*
X53149Y-396249D02*
X61149Y-396249D01*
X53149Y-396249D02*
X53149Y-412249D01*
X61149Y-412249D01*
X61149Y-396249D02*
X61149Y-412249D01*
X129349Y-396249D02*
X137349Y-396249D01*
X129349Y-412249D02*
Y-396249D01*
Y-412249D02*
X137349Y-412249D01*
X137349Y-396249D02*
X137349Y-412249D01*
X91249Y-396249D02*
X99249Y-396249D01*
X91249Y-412249D02*
Y-396249D01*
Y-412249D02*
X99249Y-412249D01*
X99249Y-396249D02*
X99249Y-412249D01*
D80*
X-18000Y424500D02*
X14000D01*
X-18000Y399500D02*
X-18000Y424500D01*
X-18000Y399500D02*
X14000D01*
X14000Y424500D01*
M02*
