M48
;Layer_Color=9474304
;FILE_FORMAT=4:4
METRIC,LZ
;TYPE=PLATED
T01F00S00C0.5000
T02F00S00C0.8000
T03F00S00C0.9200
T04F00S00C1.0000
T06F00S00C2.3000
T07F00S00C2.6000
%
T01
X-001337Y-0049
X-001265Y-0044475
X-000884
X-000503
X-000122
X000259
X00064
X001021
X001143Y-003874
X000762
X000381
X-0
X-000381
X-000762
X-001143Y-003874
X-00159Y-00404
X-00149Y-00344
X-00184
Y-00311
X-00149Y-00296
X-00128Y-00169
X-00092
X-00061Y-0017
Y-00159
Y-0014
X-00015Y-00165
X00013
X0006Y-00166
Y-00155
Y-00144
X0010675Y-0017825
X00106Y-0022
X00086
X00066
X00076Y-0023
X00096
X00117
X00052
X00037
X00023
X00011
X-00003
X-0002
X-00032
X00025Y-002165
X0012075Y-0017825
X00151369Y-00166
X00161205Y-00155
X00170014Y-00144
X00176Y-0023
X00139Y-00265
Y-00293
X00195Y-0032
X00209
X00192Y-00344
Y-00376
X00181Y-00405
X0015225Y-0038725
X001402Y-0044475
X00133Y-0049
X00179Y-00133
X00126Y-00072
X00138Y-0001
X0013Y00002
X00117Y-00034
Y-00045
X00115Y-00059
X00103Y-00034
X00089
X00077Y-00025
X0006Y-00013
Y0
Y00015
X0003Y00013
X00016
X00003
X-0001
X-00023
X-00047
X-00066Y00022
X-00084
X-00102
X-001041Y00041693
X-00115Y00071
X-00113Y00107
X-001016Y0012755
X-00108Y00158
X-00123
X-0014Y00168
Y0018
X-00153Y00173
X-0016Y00163
Y00219
X-00171Y00248
X-0013Y00232
X-00106Y00218
X-0007
X-00029Y00219
Y00208
X-00012
Y00219
X-00018Y0018182
X-00048Y00154
Y00139
X-00034Y00118
X00012Y00139
Y00154
X00033Y00157
X00025Y00134
X00053Y00143
X00071Y00231
X00083
X00061Y00249
X-00048Y00255
X-00061
X-00102Y0018
X-00089Y00158
X-00098Y-00008
X-00108Y-0002
Y-00037
X-00095
X-00056Y-00046
Y-00058
Y-00069
Y-0008
X-00036Y-00074
X-00022
X-00007
X00008
X0Y-00087
X-00015
X-00029
X00027
X0002Y-00099
X00034Y-00075
X0004Y-00062
X00056Y-00056
X00062Y-00083
X0006Y-00122
Y-00133
X00039Y-00136
X00015Y-00058
Y-00046
X00082Y0
X00073Y00041732
X-00014Y0004
X-00254Y-000635
X-00171Y00264
Y0028
Y00296
X-00171Y00312
X-00171Y00328
Y00344
X-00171Y0036
X-00171Y00376
X-00132Y00374
Y00388
X-0012Y00399
Y00414
X-00088138Y00426252
X-00042Y00419
X-00032Y00431
X-00002
X00011Y00461
X000115Y0035178
X-00015Y00357
X-00046Y00336
X-00071Y0033575
X-00096Y0033584
X-00089Y003
X-00075
Y00284
X-00062
X-00048
X-00075Y00269
X-00104Y0029984
X-00181Y0032
X000115Y0031622
Y0030278
Y0026722
X0006826Y002794
X00069Y00346
X-00047Y004
T02
X00154Y0005835
Y0008375
Y0010915
T03
X-0008723Y0045117
Y0047117
X-0006223
X-0006223Y0045117
T04
X-0028535Y-0051315
Y-0036815
X-003048Y-003048
X-003302
X-003302Y-002794
X-003048Y-002794
X-003048Y-00254
X-003302Y-00254
X-003302Y-002286
X-003048
X-003048Y-002032
X-003302
X-003302Y-001778
X-003302Y-001524
X-003048Y-001524
X-003048Y-001778
X-00266696Y-001778
X-00266696Y-002032
X-00266696Y-002286
Y-00254
X-00266696Y-002794
X-00241296Y-002794
X-00241296Y-00254
X-00241296Y-002286
X-00241296Y-002032
Y-001778
X-00241296Y-001524
X-00266696Y-001524
X-0023535Y-0036815
Y-0051315
X-00259349
X0023535
X00261351
X0028535
Y-0036815
X0023535
X002413Y-002794
X002667
Y-00254
X002413
Y-002286
X002667
Y-002032
X002413
Y-001778
X002667
Y-001524
X002413
X003048
X003302
Y-001778
X003048
Y-002032
X003302
Y-002286
X003048
Y-00254
X003302
Y-002794
X003048
Y-003048
X003302
Y-00127
Y-001016
Y-000762
Y-000508
Y-000254
Y0
Y000254
Y000508
Y000762
Y001016
Y00127
Y001524
Y001778
Y002032
Y002286
Y00254
X003048
Y002286
Y002032
Y001778
Y001524
Y00127
Y001016
Y000762
Y000508
Y000254
Y0
Y-000254
Y-000508
Y-000762
Y-001016
Y-00127
X002667
X002413
Y-001016
X002667
Y-000254
X002413
Y0
X002667
Y000254
X002413
Y000508
Y000762
X002667
Y000508
Y001016
X002413
Y00127
X002667
Y001524
X002413
Y002286
X002667
Y00254
X002413
X000508Y0009495
X000508Y0006955
X000254
Y0009495
X0Y0009495
X0Y0006955
X-000254Y0006955
Y0009495
X-000508Y0009495
X-000508Y0006955
X-00241296Y000762
X-00241296Y001016
Y00127
Y001524
X-00266696Y001524
X-00266696Y00127
X-00266696Y001016
X-00266696Y000762
X-00266696Y000508
Y000254
X-00241296Y000254
X-00241296Y000508
X-00241296Y0
X-00241296Y-000254
X-00266696Y-000254
X-00266696Y0
X-00266696Y-001016
X-00241296
X-00241296Y-00127
X-00266696Y-00127
X-00266698Y002286
X-00266698Y00254
X-00241298
Y002286
X-003048Y002286
X-003048Y002032
X-003302
Y002286
X-003302Y00254
X-003048
X-003048Y001778
X-003048Y001524
X-003048Y00127
Y001016
X-003048Y000762
X-003302Y000762
Y001016
Y00127
Y001524
X-003302Y001778
X-003302Y000508
Y000254
Y0
Y-000254
X-003048
X-003048Y0
X-003048Y000254
X-003048Y000508
X-003048Y-000508
X-003302
X-003302Y-000762
X-003048Y-000762
X-003048Y-001016
X-003302Y-001016
X-003302Y-00127
X-003048Y-00127
X-003048Y002794
Y003048
X-003302Y003048
X-003302Y003302
Y003556
X-003048Y003556
Y003302
Y00381
X-003048Y004064
X-003302Y004064
X-003302Y00381
X-003302Y004318
X-003048
X-003302Y002794
X-00266698Y002794
Y003048
X-00241298
Y002794
X-00241298Y003302
X-00241298Y003556
X-00266698
X-00266698Y00381
Y004064
X-00241298Y004064
Y00381
X-00266698Y003302
X0007735Y003735
X0010275Y003735
X0012815Y003735
X002413Y00381
Y003556
Y003302
Y003048
Y002794
X002667
Y003048
Y003302
Y003556
Y00381
Y004064
X002413
X003048
Y004318
X003302
Y004064
Y00381
X003048
Y003556
X003302
Y003302
X003048
Y003048
X003302
Y002794
X003048
T06
X-0013493Y0049827
X-0001453
T07
X-0031835Y-0043815
X-0020235
X0020235
X0031835
M30
