G04*
G04 #@! TF.GenerationSoftware,Altium Limited,Altium Designer,25.8.1 (18)*
G04*
G04 Layer_Color=32768*
%FSLAX44Y44*%
%MOMM*%
G71*
G04*
G04 #@! TF.SameCoordinates,F06DF03C-5C5C-4556-82C7-8571A15AA075*
G04*
G04*
G04 #@! TF.FilePolarity,Positive*
G04*
G01*
G75*
%ADD10C,0.2000*%
%ADD78C,0.0500*%
D10*
X-337700Y424300D02*
X-322700Y439300D01*
X322700Y-312300D02*
X337700Y-297300D01*
X-337700Y424300D02*
X-322700Y439300D01*
D78*
X6350Y0D02*
G03*
X6350Y0I-6350J0D01*
G01*
X152500Y-28000D02*
X167500D01*
X160000Y-46000D02*
X160000Y-41000D01*
X152500Y-54000D02*
X152500Y-28000D01*
X160000Y-41000D02*
X165000Y-41000D01*
X152500Y-54000D02*
X167500D01*
X160000Y-41000D02*
X160000Y-36000D01*
X155000Y-41000D02*
X160000Y-41000D01*
X167500Y-54000D02*
X167500Y-28000D01*
X136500Y-28000D02*
X151500Y-28000D01*
X144000Y-46000D02*
X144000Y-41000D01*
X136500Y-54000D02*
X136500Y-28000D01*
X144000Y-41000D02*
X149000Y-41000D01*
X136500Y-54000D02*
X151500Y-54000D01*
X144000Y-41000D02*
X144000Y-36000D01*
X139000Y-41000D02*
X144000Y-41000D01*
X151500Y-54000D02*
X151500Y-28000D01*
X151500Y430400D02*
Y585150D01*
X43750Y430400D02*
X151500D01*
X43750D02*
Y585150D01*
X151500D01*
X0Y-107950D02*
Y-102950D01*
Y-112950D02*
Y-107950D01*
X-5000D02*
X0D01*
X5000D01*
X87500Y-195450D02*
X87500Y-20450D01*
X-87500Y-195450D02*
X-87500Y-20450D01*
X-87500Y-195450D02*
X87500Y-195450D01*
X-87500Y-20450D02*
X87500Y-20450D01*
X187000Y-335500D02*
Y-320500D01*
X169000Y-328000D02*
X174000Y-328000D01*
X161000Y-320500D02*
X187000Y-320500D01*
X174000Y-333000D02*
X174000Y-328000D01*
X161000Y-335500D02*
Y-320500D01*
X174000Y-328000D02*
X179000Y-328000D01*
X174000Y-328000D02*
X174000Y-323000D01*
X161000Y-335500D02*
X187000Y-335500D01*
X-179000Y-303000D02*
Y-288000D01*
X-166000Y-295500D02*
X-161000D01*
X-179000Y-303000D02*
X-153000Y-303000D01*
X-166000Y-295500D02*
Y-290500D01*
X-153000Y-303000D02*
Y-288000D01*
X-171000Y-295500D02*
X-166000D01*
Y-300500D02*
Y-295500D01*
X-179000Y-288000D02*
X-153000Y-288000D01*
X-179000Y-320500D02*
X-179000Y-335500D01*
X-166000Y-328000D02*
X-161000Y-328000D01*
X-179000Y-335500D02*
X-153000Y-335500D01*
X-166000Y-328000D02*
X-166000Y-323000D01*
X-153000Y-320500D02*
X-153000Y-335500D01*
X-171000Y-328000D02*
X-166000Y-328000D01*
X-166000Y-333000D02*
X-166000Y-328000D01*
X-179000Y-320500D02*
X-153000Y-320500D01*
X126000Y-380880D02*
X141000D01*
X133500Y-367880D02*
Y-362880D01*
X141000Y-380880D02*
Y-354880D01*
X128500Y-367880D02*
X133500D01*
X126000Y-354880D02*
X141000D01*
X133500Y-372880D02*
Y-367880D01*
X138500D01*
X126000Y-380880D02*
Y-354880D01*
X87750Y-380880D02*
X102750D01*
X95250Y-367880D02*
Y-362880D01*
X102750Y-380880D02*
Y-354880D01*
X90250Y-367880D02*
X95250D01*
X87750Y-354880D02*
X102750D01*
X95250Y-372880D02*
Y-367880D01*
X100250D01*
X87750Y-380880D02*
Y-354880D01*
X49750Y-380880D02*
X64750D01*
X57250Y-367880D02*
Y-362880D01*
X64750Y-380880D02*
Y-354880D01*
X52250Y-367880D02*
X57250D01*
X49750Y-354880D02*
X64750D01*
X57250Y-372880D02*
Y-367880D01*
X62250D01*
X49750Y-380880D02*
Y-354880D01*
X11500Y-380880D02*
X26500D01*
X19000Y-367880D02*
Y-362880D01*
X26500Y-380880D02*
Y-354880D01*
X14000Y-367880D02*
X19000D01*
X11500Y-354880D02*
X26500D01*
X19000Y-372880D02*
Y-367880D01*
X24000D01*
X11500Y-380880D02*
Y-354880D01*
X-26615Y-380880D02*
X-11615D01*
X-19115Y-367880D02*
Y-362880D01*
X-11615Y-380880D02*
Y-354880D01*
X-24115Y-367880D02*
X-19115D01*
X-26615Y-354880D02*
X-11615D01*
X-19115Y-372880D02*
Y-367880D01*
X-14115D01*
X-26615Y-380880D02*
Y-354880D01*
X-64750Y-380880D02*
X-49750D01*
X-57250Y-367880D02*
Y-362880D01*
X-49750Y-380880D02*
Y-354880D01*
X-62250Y-367880D02*
X-57250D01*
X-64750Y-354880D02*
X-49750D01*
X-57250Y-372880D02*
Y-367880D01*
X-52250D01*
X-64750Y-380880D02*
Y-354880D01*
X-102750Y-380880D02*
X-87750D01*
X-95250Y-367880D02*
Y-362880D01*
X-87750Y-380880D02*
Y-354880D01*
X-100250Y-367880D02*
X-95250D01*
X-102750Y-354880D02*
X-87750D01*
X-95250Y-372880D02*
Y-367880D01*
X-90250D01*
X-102750Y-380880D02*
Y-354880D01*
X-140750Y-380880D02*
X-125750D01*
X-133250Y-367880D02*
Y-362880D01*
X-125750Y-380880D02*
Y-354880D01*
X-138250Y-367880D02*
X-133250D01*
X-140750Y-354880D02*
X-125750D01*
X-133250Y-372880D02*
Y-367880D01*
X-128250D01*
X-140750Y-380880D02*
Y-354880D01*
X139500Y31750D02*
Y135750D01*
Y31750D02*
X168500Y31750D01*
X139500Y135750D02*
X168500Y135750D01*
Y31750D02*
Y135750D01*
X-12500Y200250D02*
X-8500Y198500D01*
X-4500Y200250D01*
X-750Y159750D02*
X-750Y200250D01*
X-35000Y159750D02*
Y200250D01*
Y159750D02*
X-750D01*
X-35000Y200250D02*
X-750Y200250D01*
X-18000Y180000D02*
X-13000D01*
X-23000D02*
X-18000D01*
Y175000D02*
Y180000D01*
Y185000D01*
X-97250Y394750D02*
Y419500D01*
X-110750Y394750D02*
Y419500D01*
Y394750D02*
X-97250D01*
X-110750Y419500D02*
X-97250D01*
X-104000Y407000D02*
Y412000D01*
Y407000D02*
X-99000D01*
X-109000D02*
X-104000D01*
Y402000D02*
Y407000D01*
X-72750Y375750D02*
Y380750D01*
Y385750D01*
Y380750D02*
X-67750D01*
X-77750D02*
X-72750D01*
X-80250Y367750D02*
X-65250D01*
X-80250Y393750D02*
X-65250D01*
X-65250Y367750D02*
X-65250Y393750D01*
X-80250Y367750D02*
X-80250Y393750D01*
X-88250Y375750D02*
Y380750D01*
Y385750D01*
Y380750D02*
X-83250D01*
X-93250D02*
X-88250D01*
X-95750Y367750D02*
X-80750D01*
X-95750Y393750D02*
X-80750D01*
Y367750D02*
Y393750D01*
X-95750Y367750D02*
Y393750D01*
X-24000Y399750D02*
Y424500D01*
X-37500Y399750D02*
Y424500D01*
Y399750D02*
X-24000D01*
X-37500Y424500D02*
X-24000D01*
X-30750Y412000D02*
Y417000D01*
Y412000D02*
X-25750D01*
X-35750D02*
X-30750D01*
Y407000D02*
Y412000D01*
X-31500Y375750D02*
Y380750D01*
Y385750D01*
Y380750D02*
X-26500D01*
X-36500D02*
X-31500D01*
X-39000Y367750D02*
X-24000D01*
X-39000Y393750D02*
X-24000D01*
Y367750D02*
Y393750D01*
X-39000Y367750D02*
Y393750D01*
X-15750Y375750D02*
Y380750D01*
Y385750D01*
Y380750D02*
X-10750D01*
X-20750D02*
X-15750D01*
X-23250Y367750D02*
X-8250D01*
X-23250Y393750D02*
X-8250D01*
Y367750D02*
Y393750D01*
X-23250Y367750D02*
Y393750D01*
X-54750Y367750D02*
X-39750Y367750D01*
X-47250Y380750D02*
X-47250Y385750D01*
X-39750Y367750D02*
X-39750Y393750D01*
X-52250Y380750D02*
X-47250Y380750D01*
X-54750Y393750D02*
X-39750Y393750D01*
X-47250Y375750D02*
X-47250Y380750D01*
X-42250Y380750D01*
X-54750Y367750D02*
X-54750Y393750D01*
X-128000Y218000D02*
X-123000D01*
X-118000D01*
X-123000Y213000D02*
Y218000D01*
Y223000D01*
X-136000Y210500D02*
Y225500D01*
X-110000Y210500D02*
Y225500D01*
X-136000Y210500D02*
X-110000Y210500D01*
X-136000Y225500D02*
X-110000Y225500D01*
X-174000Y133500D02*
Y207500D01*
X-68000Y207500D02*
X-68000Y133500D01*
X-174000Y207500D02*
X-68000Y207500D01*
X-174000Y133500D02*
X-68000D01*
X19049Y-406749D02*
X19049Y-401749D01*
X12548Y-390248D02*
X25548Y-390248D01*
X25548Y-418248D01*
X12548Y-390248D02*
X12548Y-418248D01*
X25548D01*
X16549Y-404249D02*
X21549D01*
X-281998Y421700D02*
X-225998Y421700D01*
X-281998Y421700D02*
X-281998Y213350D01*
X-225998Y421700D02*
X-225998Y231100D01*
X-281998Y213350D02*
X-225998Y213350D01*
X-225998Y231100D01*
X-258881Y317436D02*
X-248881Y317436D01*
X-253878Y322432D02*
X-253878Y312432D01*
X-96000Y-160500D02*
Y-145500D01*
X-114000Y-153000D02*
X-109000Y-153000D01*
X-122000Y-145500D02*
X-96000Y-145500D01*
X-109000Y-158000D02*
X-109000Y-153000D01*
X-122000Y-160500D02*
Y-145500D01*
X-109000Y-153000D02*
X-104000Y-153000D01*
X-109000Y-153000D02*
X-109000Y-148000D01*
X-122000Y-160500D02*
X-96000Y-160500D01*
Y-144500D02*
Y-129500D01*
X-114000Y-137000D02*
X-109000Y-137000D01*
X-122000Y-129500D02*
X-96000Y-129500D01*
X-109000Y-142000D02*
X-109000Y-137000D01*
X-122000Y-144500D02*
Y-129500D01*
X-109000Y-137000D02*
X-104000Y-137000D01*
X-109000Y-137000D02*
X-109000Y-132000D01*
X-122000Y-144500D02*
X-96000Y-144500D01*
X-70500Y7000D02*
X-55500D01*
X-63000Y-11000D02*
X-63000Y-6000D01*
X-70500Y-19000D02*
X-70500Y7000D01*
X-63000Y-6000D02*
X-58000Y-6000D01*
X-70500Y-19000D02*
X-55500D01*
X-63000Y-6000D02*
X-63000Y-1000D01*
X-68000Y-6000D02*
X-63000Y-6000D01*
X-55500Y-19000D02*
X-55500Y7000D01*
X-38500D02*
X-23500D01*
X-31000Y-11000D02*
X-31000Y-6000D01*
X-38500Y-19000D02*
X-38500Y7000D01*
X-31000Y-6000D02*
X-26000Y-6000D01*
X-38500Y-19000D02*
X-23500D01*
X-31000Y-6000D02*
X-31000Y-1000D01*
X-36000Y-6000D02*
X-31000Y-6000D01*
X-23500Y-19000D02*
X-23500Y7000D01*
X-86500D02*
X-71500D01*
X-79000Y-11000D02*
X-79000Y-6000D01*
X-86500Y-19000D02*
X-86500Y7000D01*
X-79000Y-6000D02*
X-74000Y-6000D01*
X-86500Y-19000D02*
X-71500D01*
X-79000Y-6000D02*
X-79000Y-1000D01*
X-84000Y-6000D02*
X-79000Y-6000D01*
X-71500Y-19000D02*
X-71500Y7000D01*
X-54500D02*
X-39500D01*
X-47000Y-11000D02*
X-47000Y-6000D01*
X-54500Y-19000D02*
X-54500Y7000D01*
X-47000Y-6000D02*
X-42000Y-6000D01*
X-54500Y-19000D02*
X-39500D01*
X-47000Y-6000D02*
X-47000Y-1000D01*
X-52000Y-6000D02*
X-47000Y-6000D01*
X-39500Y-19000D02*
X-39500Y7000D01*
X-140000Y240500D02*
Y255500D01*
X-158000Y248000D02*
X-153000Y248000D01*
X-166000Y255500D02*
X-140000Y255500D01*
X-153000Y248000D02*
X-153000Y243000D01*
X-166000Y240500D02*
Y255500D01*
X-153000Y248000D02*
X-148000Y248000D01*
X-153000Y253000D02*
X-153000Y248000D01*
X-166000Y240500D02*
X-140000Y240500D01*
X-140000Y383500D02*
X-140000Y368500D01*
X-158000Y376000D02*
X-153000Y376000D01*
X-166000Y383500D02*
X-140000Y383500D01*
X-153000Y371000D02*
X-153000Y376000D01*
X-166000Y383500D02*
X-166000Y368500D01*
X-153000Y376000D02*
X-148000Y376000D01*
X-153000Y376000D02*
X-153000Y381000D01*
X-166000Y368500D02*
X-140000Y368500D01*
X3500Y227640D02*
Y361640D01*
X-26000Y359140D02*
X-24500Y361640D01*
X-27500D02*
X-26000Y359140D01*
X-130500Y361640D02*
X3500D01*
X-130500Y227640D02*
X3500D01*
X-130500D02*
Y361640D01*
X0Y-6350D02*
Y0D01*
X-6350D02*
X0D01*
Y6350D01*
Y0D02*
X6350D01*
X70250Y256750D02*
X70250Y271750D01*
X83250Y264250D02*
X88250Y264250D01*
X70250Y256750D02*
X96250D01*
X83250Y264250D02*
X83250Y269250D01*
X96250Y256750D02*
Y271750D01*
X78250Y264250D02*
X83250D01*
X83250Y259250D01*
X70250Y271750D02*
X96250Y271750D01*
X80751Y243931D02*
X85751Y243931D01*
X97252Y237432D02*
Y250432D01*
X69252Y237432D02*
X97252D01*
X69252Y250432D02*
X97252D01*
X69252Y237432D02*
X69252Y250432D01*
X83251Y246431D02*
X83251Y241431D01*
X-281996Y167700D02*
X-225996Y167700D01*
X-281996Y167700D02*
X-281996Y-40650D01*
X-225996Y-22900D02*
X-225996Y167700D01*
X-281996Y-40650D02*
X-225996D01*
X-225996Y-22900D02*
X-225996Y-40650D01*
X-258879Y63436D02*
X-248879Y63436D01*
X-253876Y68432D02*
X-253876Y58432D01*
X-345500Y-65950D02*
X-289500D01*
X-289500Y193050D01*
X-345500Y-65950D02*
Y175300D01*
Y193050D02*
X-289500Y193050D01*
X-345500Y175300D02*
Y193050D01*
X-322662Y63379D02*
X-312663Y63379D01*
X-317660Y68381D02*
X-317660Y58381D01*
X226000Y213300D02*
X282000D01*
Y421650D01*
X226000Y213300D02*
Y403900D01*
Y421650D02*
X282000D01*
X226000Y403900D02*
Y421650D01*
X248883Y317564D02*
X258883D01*
X253880Y312568D02*
Y322568D01*
X289500Y446950D02*
X345500D01*
X289500Y187950D02*
Y446950D01*
X345500Y205700D02*
Y446950D01*
X289500Y187950D02*
X345500D01*
Y205700D01*
X312663Y317621D02*
X322663D01*
X317661Y312619D02*
Y322619D01*
X226000Y-40700D02*
X282000D01*
Y167650D01*
X226000Y-40700D02*
Y149900D01*
Y167650D02*
X282000D01*
X226000Y149900D02*
Y167650D01*
X248883Y63564D02*
X258883D01*
X253880Y58568D02*
Y68568D01*
X289500Y192950D02*
X345500D01*
X289500Y-66050D02*
Y192950D01*
X345500Y-48300D02*
Y192950D01*
X289500Y-66050D02*
X345500D01*
Y-48300D01*
X312663Y63621D02*
X322663D01*
X317661Y58619D02*
Y68619D01*
X-345500Y188050D02*
X-289500Y188050D01*
X-289500Y447050D01*
X-345500Y429300D02*
X-345500Y188050D01*
X-345500Y447050D02*
X-289500Y447050D01*
X-345500Y447050D02*
X-345500Y429300D01*
X-322662Y317379D02*
X-312663Y317379D01*
X-317661Y322381D02*
X-317660Y312381D01*
X-281996Y-86300D02*
X-225996Y-86300D01*
X-281996Y-294650D02*
Y-86300D01*
X-225996Y-276900D02*
X-225996Y-86300D01*
X-281996Y-294650D02*
X-225996Y-294650D01*
X-225996Y-276900D02*
X-225996Y-294650D01*
X-258879Y-190564D02*
X-248879Y-190564D01*
X-253876Y-195568D02*
X-253876Y-185568D01*
X-345500Y-319950D02*
X-289500D01*
X-289500Y-60950D02*
X-289500Y-319950D01*
X-345500D02*
X-345500Y-78700D01*
X-345500Y-60950D02*
X-289500Y-60950D01*
X-345500Y-60950D02*
X-345500Y-78700D01*
X-322663Y-190621D02*
X-312663Y-190621D01*
X-317660Y-195619D02*
X-317660Y-185619D01*
X226000Y-294700D02*
X282000D01*
Y-86350D01*
X226000Y-294700D02*
Y-104100D01*
Y-86350D02*
X282000D01*
X226000Y-104100D02*
Y-86350D01*
X248883Y-190436D02*
X258883D01*
X253880Y-195432D02*
Y-185432D01*
X289500Y-61050D02*
X345500D01*
X289500Y-320050D02*
Y-61050D01*
X345500Y-302300D02*
Y-61050D01*
X289500Y-320050D02*
X345500D01*
Y-302300D01*
X312663Y-190379D02*
X322663D01*
X317661Y-195381D02*
Y-185381D01*
X-140000Y352500D02*
X-140000Y367500D01*
X-158000Y360000D02*
X-153000D01*
X-166000Y367500D02*
X-140000Y367500D01*
X-153000Y355000D02*
Y360000D01*
X-166000Y352500D02*
X-166000Y367500D01*
X-153000Y360000D02*
X-148000D01*
X-153000D02*
Y365000D01*
X-166000Y352500D02*
X-140000Y352500D01*
X-140000Y336500D02*
Y351500D01*
X-158000Y344000D02*
X-153000Y344000D01*
X-166000Y351500D02*
X-140000D01*
X-153000Y339000D02*
X-153000Y344000D01*
X-166000Y336500D02*
Y351500D01*
X-153000Y344000D02*
X-148000Y344000D01*
X-153000Y344000D02*
X-153000Y349000D01*
X-166000Y336500D02*
X-140000D01*
X-140000Y320500D02*
Y335500D01*
X-158000Y328000D02*
X-153000Y328000D01*
X-166000Y335500D02*
X-140000Y335500D01*
X-153000Y323000D02*
X-153000Y328000D01*
X-166000Y320500D02*
Y335500D01*
X-153000Y328000D02*
X-148000Y328000D01*
X-153000Y328000D02*
X-153000Y333000D01*
X-166000Y320500D02*
X-140000Y320500D01*
Y288500D02*
Y303500D01*
X-158000Y296000D02*
X-153000Y296000D01*
X-166000Y303500D02*
X-140000Y303500D01*
X-153000Y291000D02*
X-153000Y296000D01*
X-166000Y288500D02*
Y303500D01*
X-153000Y296000D02*
X-148000Y296000D01*
X-153000Y296000D02*
X-153000Y301000D01*
X-166000Y288500D02*
X-140000Y288500D01*
Y272500D02*
Y287500D01*
X-158000Y280000D02*
X-153000Y280000D01*
X-166000Y287500D02*
X-140000Y287500D01*
X-153000Y275000D02*
X-153000Y280000D01*
X-166000Y272500D02*
Y287500D01*
X-153000Y280000D02*
X-148000Y280000D01*
X-153000Y280000D02*
X-153000Y285000D01*
X-166000Y272500D02*
X-140000Y272500D01*
Y256500D02*
Y271500D01*
X-158000Y264000D02*
X-153000Y264000D01*
X-166000Y271500D02*
X-140000Y271500D01*
X-153000Y259000D02*
X-153000Y264000D01*
X-166000Y256500D02*
Y271500D01*
X-153000Y264000D02*
X-148000Y264000D01*
X-153000Y264000D02*
X-153000Y269000D01*
X-166000Y256500D02*
X-140000Y256500D01*
X102750Y373500D02*
Y378580D01*
X97670Y373500D02*
X102750D01*
Y368420D02*
Y373500D01*
X107830D01*
X59750Y358250D02*
Y388750D01*
X145750D01*
Y358250D02*
Y388750D01*
X59750Y358250D02*
X145750D01*
X-133351Y-406749D02*
X-133351Y-401749D01*
X-139852Y-390248D02*
X-126852Y-390248D01*
X-126852Y-418248D01*
X-139852Y-390248D02*
X-139852Y-418248D01*
X-126852D01*
X-135851Y-404249D02*
X-130851D01*
X-95251Y-406749D02*
X-95251Y-401749D01*
X-101752Y-390248D02*
X-88752Y-390248D01*
X-88752Y-418248D01*
X-101752Y-390248D02*
X-101752Y-418248D01*
X-88752D01*
X-97751Y-404249D02*
X-92751D01*
X-57151Y-406749D02*
X-57151Y-401749D01*
X-63652Y-390248D02*
X-50652Y-390248D01*
X-50652Y-418248D01*
X-63652Y-390248D02*
X-63652Y-418248D01*
X-50652D01*
X-59651Y-404249D02*
X-54651D01*
X-19051Y-406749D02*
Y-401749D01*
X-25552Y-390248D02*
X-12552Y-390248D01*
X-12552Y-418248D01*
X-25552D02*
X-25552Y-390248D01*
X-25552Y-418248D02*
X-12552D01*
X-21551Y-404249D02*
X-16551Y-404249D01*
X187000Y-351509D02*
Y-336509D01*
X169000Y-344009D02*
X174000Y-344009D01*
X161000Y-336509D02*
X187000Y-336509D01*
X174000Y-349009D02*
X174000Y-344009D01*
X161000Y-351509D02*
Y-336509D01*
X174000Y-344009D02*
X179000Y-344009D01*
X174000Y-344009D02*
X174000Y-339009D01*
X161000Y-351509D02*
X187000Y-351509D01*
X-179000Y-304000D02*
X-179000Y-319000D01*
X-166000Y-311500D02*
X-161000Y-311500D01*
X-179000Y-319000D02*
X-153000Y-319000D01*
X-166000Y-311500D02*
X-166000Y-306500D01*
X-153000Y-304000D02*
X-153000Y-319000D01*
X-171000Y-311500D02*
X-166000Y-311500D01*
X-166000Y-316500D02*
X-166000Y-311500D01*
X-179000Y-304000D02*
X-153000Y-304000D01*
X-179000Y-367500D02*
Y-352500D01*
X-166000Y-360000D02*
X-161000D01*
X-179000Y-367500D02*
X-153000D01*
X-166000Y-360000D02*
Y-355000D01*
X-153000Y-367500D02*
Y-352500D01*
X-171000Y-360000D02*
X-166000D01*
Y-365000D02*
Y-360000D01*
X-179000Y-352500D02*
X-153000D01*
X-179000Y-336500D02*
X-179000Y-351500D01*
X-166000Y-344000D02*
X-161000Y-344000D01*
X-179000Y-351500D02*
X-153000Y-351500D01*
X-166000Y-344000D02*
X-166000Y-339000D01*
X-153000Y-336500D02*
X-153000Y-351500D01*
X-171000Y-344000D02*
X-166000Y-344000D01*
X-166000Y-349000D02*
X-166000Y-344000D01*
X-179000Y-336500D02*
X-153000Y-336500D01*
X187000Y-399509D02*
Y-384509D01*
X169000Y-392009D02*
X174000Y-392009D01*
X161000Y-384509D02*
X187000Y-384509D01*
X174000Y-397009D02*
X174000Y-392009D01*
X161000Y-399509D02*
Y-384509D01*
X174000Y-392009D02*
X179000Y-392009D01*
X174000Y-392009D02*
X174000Y-387009D01*
X161000Y-399509D02*
X187000Y-399509D01*
X-50500Y160000D02*
X-35500D01*
X-43000Y173000D02*
Y178000D01*
X-35500Y160000D02*
Y186000D01*
X-48000Y173000D02*
X-43000D01*
X-50500Y186000D02*
X-35500D01*
X-43000Y168000D02*
Y173000D01*
X-38000D01*
X-50500Y160000D02*
Y186000D01*
X169000Y-376009D02*
X174000Y-376009D01*
X179000Y-376009D01*
X174000Y-381009D02*
X174000Y-376009D01*
X174000Y-371009D01*
X161000Y-368509D02*
X161000Y-383509D01*
X187000Y-368509D02*
X187000Y-383509D01*
X161000Y-383509D02*
X187000Y-383509D01*
X161000Y-368509D02*
X187000Y-368509D01*
X-166000Y-376000D02*
X-161000Y-376000D01*
X-171000Y-376000D02*
X-166000Y-376000D01*
X-166000Y-371000D01*
X-166000Y-381000D02*
X-166000Y-376000D01*
X-153000Y-383500D02*
Y-368500D01*
X-179000Y-383500D02*
Y-368500D01*
X-153000Y-368500D01*
X-179000Y-383500D02*
X-153000Y-383500D01*
X2050Y-450450D02*
X36050D01*
X2050Y-510450D02*
Y-475855D01*
Y-510450D02*
X36050D01*
Y-450450D01*
X2050Y-454700D02*
Y-450450D01*
Y-475855D02*
Y-454700D01*
X19050Y-480450D02*
Y-477950D01*
Y-480450D02*
X21550Y-480450D01*
X19050Y-482950D02*
Y-480450D01*
X16550Y-480450D02*
X19050Y-480450D01*
X-36050Y-510450D02*
X-2050Y-510450D01*
X-2050Y-450450D02*
X-2050Y-485045D01*
X-36050Y-450450D02*
X-2050Y-450450D01*
X-36050Y-510450D02*
X-36050Y-450450D01*
X-2050Y-510450D02*
Y-506200D01*
X-2050Y-485045D01*
X-19050Y-480450D02*
X-19050Y-482950D01*
X-21550Y-480450D02*
X-19050Y-480450D01*
X-19050Y-477950D02*
X-19050Y-480450D01*
X-16550Y-480450D01*
X40150Y-450450D02*
X74150D01*
X40150Y-510450D02*
Y-475855D01*
Y-510450D02*
X74150D01*
Y-450450D01*
X40150Y-454700D02*
Y-450450D01*
Y-475855D02*
Y-454700D01*
X57150Y-480450D02*
Y-477950D01*
Y-480450D02*
X59650Y-480450D01*
X57150Y-482950D02*
Y-480450D01*
X54650Y-480450D02*
X57150Y-480450D01*
X-74150Y-450450D02*
X-40150D01*
X-74150Y-510450D02*
Y-475855D01*
Y-510450D02*
X-40150D01*
Y-450450D01*
X-74150Y-454700D02*
Y-450450D01*
Y-475855D02*
Y-454700D01*
X-57150Y-480450D02*
Y-477950D01*
Y-480450D02*
X-54650Y-480450D01*
X-57150Y-482950D02*
Y-480450D01*
X-59650Y-480450D02*
X-57150Y-480450D01*
X187000Y-367509D02*
Y-352509D01*
X169000Y-360009D02*
X174000Y-360009D01*
X161000Y-352509D02*
X187000Y-352509D01*
X174000Y-365009D02*
X174000Y-360009D01*
X161000Y-367509D02*
Y-352509D01*
X174000Y-360009D02*
X179000Y-360009D01*
X174000Y-360009D02*
X174000Y-355009D01*
X161000Y-367509D02*
X187000Y-367509D01*
X-179000Y-399500D02*
Y-384500D01*
X-166000Y-392000D02*
X-161000Y-392000D01*
X-179000Y-399500D02*
X-153000Y-399500D01*
X-166000Y-387000D02*
X-166000Y-392000D01*
X-153000Y-399500D02*
Y-384500D01*
X-171000Y-392000D02*
X-166000Y-392000D01*
X-166000Y-397000D01*
X-179000Y-384500D02*
X-153000Y-384500D01*
X78250Y-450450D02*
X112250D01*
X78250Y-510450D02*
Y-475855D01*
Y-510450D02*
X112250D01*
Y-450450D01*
X78250Y-454700D02*
Y-450450D01*
Y-475855D02*
Y-454700D01*
X95250Y-480450D02*
Y-477950D01*
Y-480450D02*
X97750Y-480450D01*
X95250Y-482950D02*
Y-480450D01*
X92750Y-480450D02*
X95250Y-480450D01*
X-112250Y-450450D02*
X-78250D01*
X-112250Y-510450D02*
Y-475855D01*
Y-510450D02*
X-78250D01*
Y-450450D01*
X-112250Y-454700D02*
Y-450450D01*
Y-475855D02*
Y-454700D01*
X-95250Y-480450D02*
Y-477950D01*
Y-480450D02*
X-92750Y-480450D01*
X-95250Y-482950D02*
Y-480450D01*
X-97750Y-480450D02*
X-95250Y-480450D01*
X18500Y395500D02*
X18500Y428500D01*
X-22500Y395500D02*
X18500Y395500D01*
X-22500Y395500D02*
X-22500Y428500D01*
X18500Y428500D01*
X-150350Y-450450D02*
X-116350D01*
X-150350Y-510450D02*
Y-475855D01*
Y-510450D02*
X-116350D01*
Y-450450D01*
X-150350Y-454700D02*
Y-450450D01*
Y-475855D02*
Y-454700D01*
X-133350Y-480450D02*
Y-477950D01*
Y-480450D02*
X-130850Y-480450D01*
X-133350Y-482950D02*
Y-480450D01*
X-135850Y-480450D02*
X-133350Y-480450D01*
X3750Y393750D02*
X18750Y393750D01*
X11250Y375750D02*
X11250Y380750D01*
X3750Y367750D02*
X3750Y393750D01*
X11250Y380750D02*
X16250Y380750D01*
X3750Y367750D02*
X18750Y367750D01*
X11250Y380750D02*
X11250Y385750D01*
X6250Y380750D02*
X11250Y380750D01*
X18750Y367750D02*
X18750Y393750D01*
X195350Y-523650D02*
X235350D01*
X195350D02*
Y-490150D01*
Y-357650D01*
X325350D01*
Y-523650D02*
Y-357650D01*
X235350Y-523650D02*
X325350D01*
X-325350D02*
X-285350D01*
X-325350D02*
Y-490150D01*
Y-357650D01*
X-195350D01*
Y-523650D02*
Y-357650D01*
X-285350Y-523650D02*
X-195350D01*
X-62000Y193500D02*
Y208500D01*
X-49000Y201000D02*
X-44000D01*
X-62000Y193500D02*
X-36000D01*
X-49000Y201000D02*
Y206000D01*
X-36000Y193500D02*
Y208500D01*
X-54000Y201000D02*
X-49000D01*
Y196000D02*
Y201000D01*
X-62000Y208500D02*
X-36000D01*
X-145080Y99180D02*
Y114180D01*
X-132080Y106680D02*
X-127080D01*
X-145080Y99180D02*
X-119080D01*
X-132080Y106680D02*
Y111680D01*
X-119080Y99180D02*
Y114180D01*
X-137080Y106680D02*
X-132080D01*
Y101680D02*
Y106680D01*
X-145080Y114180D02*
X-119080D01*
X-134579Y86361D02*
X-129579D01*
X-118078Y79862D02*
Y92862D01*
X-146078Y79862D02*
X-118078D01*
X-146078Y92862D02*
X-118078D01*
X-146078Y79862D02*
Y92862D01*
X-132079Y83861D02*
Y88861D01*
X57149Y-406749D02*
Y-401749D01*
X50648Y-390248D02*
X63648Y-390248D01*
X63648Y-418248D01*
X50648D02*
X50648Y-390248D01*
X50648Y-418248D02*
X63648D01*
X54649Y-404249D02*
X59649Y-404249D01*
X133349Y-406749D02*
Y-401749D01*
X126848Y-390248D02*
X139848Y-390248D01*
X139848Y-418248D01*
X126848D02*
X126848Y-390248D01*
X126848Y-418248D02*
X139848D01*
X130849Y-404249D02*
X135849Y-404249D01*
X95249Y-406749D02*
Y-401749D01*
X88748Y-390248D02*
X101748Y-390248D01*
Y-418248D02*
Y-390248D01*
X88748Y-418248D02*
X88748Y-390248D01*
X88748Y-418248D02*
X101748D01*
X92749Y-404249D02*
X97749Y-404249D01*
X108749Y-150001D02*
X113749Y-150001D01*
X118749Y-150001D01*
X113749Y-155001D02*
Y-150001D01*
X113749Y-145001D02*
X113749Y-150001D01*
X100749Y-142501D02*
X100749Y-157501D01*
X126749Y-142501D02*
X126749Y-157501D01*
X100749Y-157501D02*
X126749Y-157501D01*
X100749Y-142501D02*
X126749Y-142501D01*
X-101600Y-50800D02*
X-96600D01*
X-106600D02*
X-101600D01*
Y-45800D01*
Y-55800D02*
Y-50800D01*
X-88600Y-58300D02*
Y-43300D01*
X-114600Y-58300D02*
Y-43300D01*
X-88600D01*
X-114600Y-58300D02*
X-88600D01*
X103000Y-72000D02*
X108000D01*
X113000D01*
X108000Y-77000D02*
Y-72000D01*
Y-67000D01*
X95000Y-79500D02*
Y-64500D01*
X121000Y-79500D02*
Y-64500D01*
X95000Y-79500D02*
X121000Y-79500D01*
X95000Y-64500D02*
X121000Y-64500D01*
X158250Y380500D02*
X163250D01*
X168250D01*
X163250Y375500D02*
Y380500D01*
Y385500D01*
X150250Y373000D02*
Y388000D01*
X176250Y373000D02*
Y388000D01*
X150250Y373000D02*
X176250Y373000D01*
X150250Y388000D02*
X176250Y388000D01*
X-20000Y-209500D02*
X-20000Y-204500D01*
X-20000Y-214500D02*
X-20000Y-209500D01*
X-25000Y-209500D02*
X-20000Y-209500D01*
X-15000Y-209500D01*
X-27500Y-196500D02*
X-12500Y-196500D01*
X-27500Y-222500D02*
X-12500D01*
X-27500Y-196500D02*
X-27500Y-222500D01*
X-12500Y-196500D02*
X-12500Y-222500D01*
X-114000Y-169000D02*
X-109000Y-169000D01*
X-104000Y-169000D01*
X-109000Y-174000D02*
Y-169000D01*
X-109000Y-164000D01*
X-122000Y-176500D02*
Y-161500D01*
X-96000Y-176500D02*
Y-161500D01*
X-122000Y-176500D02*
X-96000Y-176500D01*
X-122000Y-161500D02*
X-96000Y-161500D01*
X-101600Y-69850D02*
X-96600Y-69850D01*
X-106600Y-69850D02*
X-101600Y-69850D01*
X-101600Y-64850D02*
X-101600Y-69850D01*
Y-74850D02*
Y-69850D01*
X-88600Y-62350D02*
X-88600Y-77350D01*
X-114600Y-62350D02*
X-114600Y-77350D01*
X-114600Y-62350D02*
X-88600D01*
X-114600Y-77350D02*
X-88600D01*
X108749Y-165751D02*
X113749D01*
X118749Y-165751D01*
X113749Y-170751D02*
Y-165751D01*
Y-160751D01*
X100749Y-173251D02*
X100749Y-158251D01*
X126749Y-173251D02*
X126749Y-158251D01*
X100749Y-173251D02*
X126749Y-173251D01*
X100749Y-158251D02*
X126749Y-158251D01*
X12250Y-209500D02*
X12250Y-204500D01*
X12250Y-214500D02*
X12250Y-209500D01*
X7250Y-209500D02*
X12250Y-209500D01*
X17250Y-209500D01*
X4750Y-196500D02*
X19750D01*
X4750Y-222500D02*
X19750D01*
X4750D02*
X4750Y-196500D01*
X19750Y-222500D02*
X19750Y-196500D01*
X20000Y-11000D02*
X20000Y-6000D01*
X20000Y-1000D01*
X20000Y-6000D02*
X25000Y-6000D01*
X15000Y-6000D02*
X20000Y-6000D01*
X12500Y-19000D02*
X27500D01*
X12500Y7000D02*
X27500D01*
X27500Y-19000D02*
X27500Y7000D01*
X12500Y-19000D02*
X12500Y7000D01*
X-15000Y-11000D02*
X-15000Y-6000D01*
X-15000Y-1000D01*
X-15000Y-6000D02*
X-10000Y-6000D01*
X-20000Y-6000D02*
X-15000Y-6000D01*
X-22500Y-19000D02*
X-7500D01*
X-22500Y7000D02*
X-7500D01*
X-7500Y-19000D02*
X-7500Y7000D01*
X-22500Y-19000D02*
X-22500Y7000D01*
X1000Y-11000D02*
Y-6000D01*
Y-1000D01*
Y-6000D02*
X6000D01*
X-4000D02*
X1000D01*
X-6500Y-19000D02*
X8500D01*
X-6500Y7000D02*
X8500D01*
Y-19000D02*
Y7000D01*
X-6500Y-19000D02*
Y7000D01*
X116350Y-450450D02*
X150350Y-450450D01*
X116350Y-510450D02*
Y-475855D01*
Y-510450D02*
X150350Y-510450D01*
X150350Y-450450D02*
X150350Y-510450D01*
X116350Y-454700D02*
Y-450450D01*
Y-454700D02*
X116350Y-475855D01*
X133350Y-480450D02*
X133350Y-477950D01*
X133350Y-480450D02*
X135850D01*
X133350Y-482950D02*
X133350Y-480450D01*
X130850D02*
X133350D01*
X-104000Y375750D02*
X-104000Y380750D01*
X-104000Y385750D01*
X-104000Y380750D02*
X-99000Y380750D01*
X-109000Y380750D02*
X-104000Y380750D01*
X-111500Y367750D02*
X-96500Y367750D01*
X-111500Y393750D02*
X-96500Y393750D01*
X-96500Y367750D01*
X-111500Y367750D02*
X-111500Y393750D01*
X-41500Y133000D02*
X-26500Y133000D01*
X-34000Y146000D02*
X-34000Y151000D01*
X-26500Y133000D02*
X-26500Y159000D01*
X-39000Y146000D02*
X-34000Y146000D01*
X-41500Y159000D02*
X-26500Y159000D01*
X-34000Y141000D02*
X-34000Y146000D01*
X-29000Y146000D01*
X-41500Y133000D02*
X-41500Y159000D01*
X45000Y380500D02*
X50000D01*
X40000D02*
X45000D01*
Y385500D01*
Y375500D02*
Y380500D01*
X58000Y373000D02*
Y388000D01*
X32000Y373000D02*
Y388000D01*
X58000D01*
X32000Y373000D02*
X58000D01*
X50800Y340360D02*
X55800D01*
X45800D02*
X50800D01*
Y345360D01*
Y335360D02*
Y340360D01*
X63800Y332860D02*
Y347860D01*
X37800Y332860D02*
Y347860D01*
X63800Y347860D01*
X37800Y332860D02*
X63800Y332860D01*
X500Y160000D02*
X15500D01*
X8000Y173000D02*
Y178000D01*
X15500Y160000D02*
Y186000D01*
X3000Y173000D02*
X8000D01*
X500Y186000D02*
X15500D01*
X8000Y168000D02*
Y173000D01*
X13000D01*
X500Y160000D02*
Y186000D01*
X-83700Y-417250D02*
X-68700Y-417250D01*
X-76200Y-404250D02*
Y-399250D01*
X-83700Y-417250D02*
Y-391250D01*
X-76200Y-404250D02*
X-71200D01*
X-83700Y-391250D02*
X-68700Y-391250D01*
X-76200Y-409250D02*
Y-404250D01*
X-81200D02*
X-76200D01*
X-68700Y-417250D02*
Y-391250D01*
X50800Y279400D02*
X55800D01*
X45800D02*
X50800D01*
Y284400D01*
Y274400D02*
Y279400D01*
X63800Y271900D02*
Y286900D01*
X37800Y271900D02*
Y286900D01*
X63800D01*
X37800Y271900D02*
X63800D01*
X-121800Y-417250D02*
X-106800D01*
X-114300Y-404250D02*
Y-399250D01*
X-121800Y-417250D02*
Y-391250D01*
X-114300Y-404250D02*
X-109300D01*
X-121800Y-391250D02*
X-106800D01*
X-114300Y-409250D02*
Y-404250D01*
X-119300D02*
X-114300D01*
X-106800Y-417250D02*
Y-391250D01*
X11500Y285000D02*
X11500Y290000D01*
X11500Y280000D02*
X11500Y285000D01*
X6500Y285000D02*
X11500Y285000D01*
X16500Y285000D01*
X4000Y298000D02*
X19000Y298000D01*
X4000Y272000D02*
X19000Y272000D01*
X4000Y272000D02*
X4000Y298000D01*
X19000Y272000D02*
X19000Y298000D01*
X11500Y329000D02*
Y334000D01*
Y339000D01*
Y334000D02*
X16500D01*
X6500D02*
X11500D01*
X4000Y321000D02*
X19000D01*
X4000Y347000D02*
X19000D01*
Y321000D02*
Y347000D01*
X4000Y321000D02*
Y347000D01*
X-59500Y402250D02*
X-57750Y406000D01*
X-59500Y402250D02*
X-57750Y398500D01*
X-95750Y394750D02*
X-57750D01*
X-95750Y429000D02*
X-57750D01*
X-95750D02*
X-95750Y394750D01*
X-57750D02*
X-57750Y429000D01*
X-76750Y406750D02*
X-76750Y411750D01*
X-76750Y416750D01*
X-81750Y411750D02*
X-76750Y411750D01*
X-71750Y411750D01*
X-45600Y-417250D02*
X-30600D01*
X-38100Y-404250D02*
Y-399250D01*
X-45600Y-417250D02*
Y-391250D01*
X-38100Y-404250D02*
X-33100D01*
X-45600Y-391250D02*
X-30600D01*
X-38100Y-409250D02*
Y-404250D01*
X-43100D02*
X-38100D01*
X-30600Y-417250D02*
Y-391250D01*
X45001Y364501D02*
X50001D01*
X40001D02*
X45001D01*
Y369501D01*
Y359501D02*
Y364501D01*
X58001Y357001D02*
Y372001D01*
X32001Y357001D02*
Y372001D01*
X58001D01*
X32001Y357001D02*
X58001D01*
X50800Y172720D02*
X55800D01*
X45800D02*
X50800D01*
Y177720D01*
Y167720D02*
Y172720D01*
X63800Y165220D02*
Y180220D01*
X37800Y165220D02*
Y180220D01*
X63800D01*
X37800Y165220D02*
X63800D01*
X50800Y218440D02*
X55800Y218440D01*
X45800Y218440D02*
X50800Y218440D01*
X50800Y223440D02*
X50800Y218440D01*
X50800Y213440D01*
X63800Y210940D02*
Y225940D01*
X37800Y210940D02*
Y225940D01*
X63800Y225940D01*
X37800Y210940D02*
X63800Y210940D01*
X-3750Y-209500D02*
X-3750Y-204500D01*
X-3750Y-214500D02*
X-3750Y-209500D01*
X-8750Y-209500D02*
X-3750Y-209500D01*
X1250Y-209500D01*
X-11250Y-196500D02*
X3750D01*
X-11250Y-222500D02*
X3750D01*
X-11250D02*
X-11250Y-196500D01*
X3750Y-222500D02*
X3750Y-196500D01*
X31951Y-439001D02*
X31951Y-424001D01*
X13951Y-431501D02*
X18951Y-431501D01*
X5951Y-439001D02*
X31951Y-439001D01*
X18951Y-426501D02*
X18951Y-431501D01*
X5951Y-439001D02*
X5951Y-424001D01*
X18951Y-431501D02*
X23951Y-431501D01*
X18951Y-431501D02*
X18951Y-436501D01*
X5951Y-424001D02*
X31951Y-424001D01*
X-127500Y394000D02*
X-112500D01*
X-120000Y376000D02*
Y381000D01*
X-127500Y368000D02*
Y394000D01*
X-120000Y381000D02*
X-115000D01*
X-127500Y368000D02*
X-112500D01*
X-120000Y381000D02*
Y386000D01*
X-125000Y381000D02*
X-120000D01*
X-112500Y368000D02*
Y394000D01*
X158250Y364500D02*
X163250Y364500D01*
X168250Y364500D01*
X163250Y359500D02*
Y364500D01*
X163250Y369500D01*
X150250Y372000D02*
X150250Y357000D01*
X176250Y372000D02*
X176250Y357000D01*
X150250Y357000D02*
X176250Y357000D01*
X150250Y372000D02*
X176250Y372000D01*
X50800Y309880D02*
X55800D01*
X45800D02*
X50800D01*
Y314880D01*
Y304880D02*
Y309880D01*
X63800Y302380D02*
X63800Y317380D01*
X37800Y317380D02*
X37800Y302380D01*
X37800Y317380D02*
X63800Y317380D01*
X37800Y302380D02*
X63800Y302380D01*
X11000Y437500D02*
Y442500D01*
Y447500D01*
Y442500D02*
X16000D01*
X6000D02*
X11000D01*
X3500Y429500D02*
X18500D01*
X3500Y455500D02*
X18500D01*
Y429500D02*
Y455500D01*
X3500Y429500D02*
Y455500D01*
X50800Y264160D02*
X55800D01*
X45800D02*
X50800D01*
Y269160D01*
Y259160D02*
Y264160D01*
X63800Y256660D02*
Y271660D01*
X37800Y256660D02*
Y271660D01*
X63800Y271660D01*
X37800Y256660D02*
X63800Y256660D01*
X50800Y294640D02*
X55800Y294640D01*
X45800Y294640D02*
X50800Y294640D01*
X50800Y299640D02*
X50800Y294640D01*
X50800Y289640D01*
X63800Y287140D02*
Y302140D01*
X37800Y287140D02*
Y302140D01*
X63800Y302140D01*
X37800Y287140D02*
X63800Y287140D01*
X-2000Y151000D02*
X-2000Y146000D01*
X-2000Y141000D01*
X-7000Y146000D02*
X-2000Y146000D01*
X3000Y146000D01*
X-9500Y159000D02*
X5500Y159000D01*
X-9500Y133000D02*
X5500Y133000D01*
X-9500Y133000D02*
X-9500Y159000D01*
X5500Y133000D02*
X5500Y159000D01*
X30600Y-417250D02*
X45600D01*
X38100Y-399250D02*
X38100Y-404250D01*
X30600Y-391250D02*
X30600Y-417250D01*
X38100Y-404250D02*
X43100Y-404250D01*
X30600Y-391250D02*
X45600D01*
X38100Y-404250D02*
X38100Y-409250D01*
X33100Y-404250D02*
X38100Y-404250D01*
X45600Y-391250D02*
X45600Y-417250D01*
X50800Y187960D02*
X55800D01*
X45800D02*
X50800D01*
Y192960D01*
Y182960D02*
Y187960D01*
X63800Y180460D02*
Y195460D01*
X37800Y180460D02*
Y195460D01*
X63800D01*
X37800Y180460D02*
X63800D01*
X-153000Y232000D02*
X-148000Y232000D01*
X-158000Y232000D02*
X-153000Y232000D01*
X-153000Y237000D01*
X-153000Y227000D02*
X-153000Y232000D01*
X-140000Y224500D02*
X-140000Y239500D01*
X-166000Y224500D02*
X-166000Y239500D01*
X-140000D01*
X-166000Y224500D02*
X-140000D01*
X68700Y-417250D02*
X83700Y-417250D01*
X76200Y-399250D02*
X76200Y-404250D01*
X68700Y-391250D02*
X68700Y-417250D01*
X76200Y-404250D02*
X81200Y-404250D01*
X68700Y-391250D02*
X83700Y-391250D01*
X76200Y-404250D02*
X76200Y-409250D01*
X71200Y-404250D02*
X76200Y-404250D01*
X83700Y-391250D02*
X83700Y-417250D01*
X-7500Y-417250D02*
X7500D01*
X-0Y-404250D02*
Y-399250D01*
X-7500Y-417250D02*
Y-391250D01*
X-0Y-404250D02*
X5000D01*
X-7500Y-391250D02*
X7500D01*
X-0Y-409250D02*
Y-404250D01*
X-5000D02*
X-0D01*
X7500Y-417250D02*
Y-391250D01*
X-153000Y312000D02*
X-148000Y312000D01*
X-158000Y312000D02*
X-153000Y312000D01*
X-153000Y317000D01*
X-153000Y307000D02*
X-153000Y312000D01*
X-140000Y304500D02*
Y319500D01*
X-166000Y304500D02*
Y319500D01*
X-140000Y319500D01*
X-166000Y304500D02*
X-140000Y304500D01*
X108151Y-439001D02*
Y-424001D01*
X90151Y-431501D02*
X95151D01*
X82151Y-439001D02*
X108151D01*
X95151Y-431501D02*
Y-426501D01*
X82151Y-439001D02*
Y-424001D01*
X95151Y-431501D02*
X100151D01*
X95151Y-436501D02*
Y-431501D01*
X82151Y-424001D02*
X108151D01*
X-6149Y-439001D02*
Y-424001D01*
X-24149Y-431501D02*
X-19149D01*
X-32149Y-439001D02*
X-6149Y-439001D01*
X-19149Y-431501D02*
Y-426501D01*
X-32149Y-439001D02*
Y-424001D01*
X-19149Y-431501D02*
X-14149D01*
X-19149Y-436501D02*
Y-431501D01*
X-32149Y-424001D02*
X-6149Y-424001D01*
X144900Y-417250D02*
X159900Y-417250D01*
X152400Y-404250D02*
Y-399250D01*
X144900Y-417250D02*
X144900Y-391250D01*
X152400Y-404250D02*
X157400D01*
X144900Y-391250D02*
X159900Y-391250D01*
X152400Y-409250D02*
Y-404250D01*
X147400D02*
X152400D01*
X159900Y-391250D02*
X159900Y-417250D01*
X-44249Y-439001D02*
Y-424001D01*
X-62249Y-431501D02*
X-57249D01*
X-70249Y-439001D02*
X-44249Y-439001D01*
X-57249Y-431501D02*
Y-426501D01*
X-70249Y-439001D02*
Y-424001D01*
X-57249Y-431501D02*
X-52249D01*
X-57249Y-436501D02*
Y-431501D01*
X-70249Y-424001D02*
X-44249Y-424001D01*
X50800Y157480D02*
X55800Y157480D01*
X45800Y157480D02*
X50800Y157480D01*
X50800Y162480D01*
X50800Y152480D02*
X50800Y157480D01*
X63800Y149980D02*
Y164980D01*
X37800Y149980D02*
Y164980D01*
X63800Y164980D01*
X37800Y149980D02*
X63800Y149980D01*
X50800Y325120D02*
X55800Y325120D01*
X45800Y325120D02*
X50800Y325120D01*
X50800Y330120D01*
X50800Y320120D02*
X50800Y325120D01*
X63800Y317620D02*
Y332620D01*
X37800Y317620D02*
Y332620D01*
X63800Y332620D01*
X37800Y317620D02*
X63800Y317620D01*
X-25500Y133000D02*
X-10500Y133000D01*
X-18000Y146000D02*
X-18000Y151000D01*
X-10500Y133000D02*
X-10500Y159000D01*
X-23000Y146000D02*
X-18000Y146000D01*
X-25500Y159000D02*
X-10500Y159000D01*
X-18000Y141000D02*
X-18000Y146000D01*
X-13000Y146000D01*
X-25500Y133000D02*
X-25500Y159000D01*
X146251Y-439001D02*
Y-424001D01*
X128251Y-431501D02*
X133251D01*
X120251Y-439001D02*
X146251D01*
X133251Y-431501D02*
Y-426501D01*
X120251Y-439001D02*
Y-424001D01*
X133251Y-431501D02*
X138251D01*
X133251Y-436501D02*
Y-431501D01*
X120251Y-424001D02*
X146251D01*
X-82349Y-439001D02*
Y-424001D01*
X-100349Y-431501D02*
X-95349Y-431501D01*
X-108349Y-439001D02*
X-82349Y-439001D01*
X-95349Y-426501D02*
X-95349Y-431501D01*
X-108349Y-439001D02*
Y-424001D01*
X-95349Y-431501D02*
X-90349Y-431501D01*
X-95349Y-431501D02*
X-95349Y-436501D01*
X-108349Y-424001D02*
X-82349Y-424001D01*
X106800Y-417250D02*
X121800Y-417250D01*
X114300Y-404250D02*
Y-399250D01*
X106800Y-391250D02*
X106800Y-417250D01*
X114300Y-404250D02*
X119300D01*
X106800Y-391250D02*
X121800Y-391250D01*
X114300Y-409250D02*
Y-404250D01*
X109300D02*
X114300D01*
X121800Y-417250D02*
X121800Y-391250D01*
X-88000Y218000D02*
X-83000Y218000D01*
X-93000Y218000D02*
X-88000Y218000D01*
X-88000Y223000D01*
X-88000Y213000D02*
X-88000Y218000D01*
X-75000Y210500D02*
Y225500D01*
X-101000Y210500D02*
Y225500D01*
X-75000Y225500D01*
X-101000Y210500D02*
X-75000Y210500D01*
X50800Y233680D02*
X55800D01*
X45800D02*
X50800D01*
Y238680D01*
Y228680D02*
Y233680D01*
X63800Y226180D02*
Y241180D01*
X37800Y226180D02*
Y241180D01*
X63800Y241180D01*
X37800Y226180D02*
X63800Y226180D01*
X70051Y-439001D02*
Y-424001D01*
X52051Y-431501D02*
X57051D01*
X44051Y-439001D02*
X70051Y-439001D01*
X57051Y-431501D02*
Y-426501D01*
X44051Y-439001D02*
Y-424001D01*
X57051Y-431501D02*
X62051D01*
X57051Y-436501D02*
Y-431501D01*
X44051Y-424001D02*
X70051Y-424001D01*
X-120449Y-439001D02*
Y-424001D01*
X-138449Y-431501D02*
X-133449D01*
X-146449Y-439001D02*
X-120449D01*
X-133449Y-431501D02*
Y-426501D01*
X-146449Y-439001D02*
Y-424001D01*
X-133449Y-431501D02*
X-128449D01*
X-133449Y-436501D02*
Y-431501D01*
X-146449Y-424001D02*
X-120449D01*
X50800Y203200D02*
X55800Y203200D01*
X45800Y203200D02*
X50800Y203200D01*
X50800Y208200D01*
X50800Y198200D02*
X50800Y203200D01*
X63800Y210700D02*
X63800Y195700D01*
X37800Y210700D02*
X37800Y195700D01*
X37800Y210700D02*
X63800Y210700D01*
X37800Y195700D02*
X63800Y195700D01*
X-54000Y218000D02*
X-49000Y218000D01*
X-44000Y218000D01*
X-49000Y213000D02*
X-49000Y218000D01*
X-49000Y223000D01*
X-62000Y225500D02*
X-62000Y210500D01*
X-36000Y225500D02*
X-36000Y210500D01*
X-62000Y210500D02*
X-36000Y210500D01*
X-62000Y225500D02*
X-36000Y225500D01*
M02*
