G04*
G04 #@! TF.GenerationSoftware,Altium Limited,Altium Designer,25.8.1 (18)*
G04*
G04 Layer_Color=8388736*
%FSLAX44Y44*%
%MOMM*%
G71*
G04*
G04 #@! TF.SameCoordinates,1DD17807-008B-40D4-811F-6DFA0BD173B0*
G04*
G04*
G04 #@! TF.FilePolarity,Negative*
G04*
G01*
G75*
G04:AMPARAMS|DCode=45|XSize=0.87mm|YSize=1.14mm|CornerRadius=0.165mm|HoleSize=0mm|Usage=FLASHONLY|Rotation=0.000|XOffset=0mm|YOffset=0mm|HoleType=Round|Shape=RoundedRectangle|*
%AMROUNDEDRECTD45*
21,1,0.8700,0.8100,0,0,0.0*
21,1,0.5400,1.1400,0,0,0.0*
1,1,0.3300,0.2700,-0.4050*
1,1,0.3300,-0.2700,-0.4050*
1,1,0.3300,-0.2700,0.4050*
1,1,0.3300,0.2700,0.4050*
%
%ADD45ROUNDEDRECTD45*%
G04:AMPARAMS|DCode=46|XSize=0.87mm|YSize=1.14mm|CornerRadius=0.165mm|HoleSize=0mm|Usage=FLASHONLY|Rotation=90.000|XOffset=0mm|YOffset=0mm|HoleType=Round|Shape=RoundedRectangle|*
%AMROUNDEDRECTD46*
21,1,0.8700,0.8100,0,0,90.0*
21,1,0.5400,1.1400,0,0,90.0*
1,1,0.3300,0.4050,0.2700*
1,1,0.3300,0.4050,-0.2700*
1,1,0.3300,-0.4050,-0.2700*
1,1,0.3300,-0.4050,0.2700*
%
%ADD46ROUNDEDRECTD46*%
G04:AMPARAMS|DCode=47|XSize=1.15mm|YSize=0.75mm|CornerRadius=0.15mm|HoleSize=0mm|Usage=FLASHONLY|Rotation=270.000|XOffset=0mm|YOffset=0mm|HoleType=Round|Shape=RoundedRectangle|*
%AMROUNDEDRECTD47*
21,1,1.1500,0.4500,0,0,270.0*
21,1,0.8500,0.7500,0,0,270.0*
1,1,0.3000,-0.2250,-0.4250*
1,1,0.3000,-0.2250,0.4250*
1,1,0.3000,0.2250,0.4250*
1,1,0.3000,0.2250,-0.4250*
%
%ADD47ROUNDEDRECTD47*%
G04:AMPARAMS|DCode=48|XSize=1.34mm|YSize=1.04mm|CornerRadius=0.1825mm|HoleSize=0mm|Usage=FLASHONLY|Rotation=0.000|XOffset=0mm|YOffset=0mm|HoleType=Round|Shape=RoundedRectangle|*
%AMROUNDEDRECTD48*
21,1,1.3400,0.6750,0,0,0.0*
21,1,0.9750,1.0400,0,0,0.0*
1,1,0.3650,0.4875,-0.3375*
1,1,0.3650,-0.4875,-0.3375*
1,1,0.3650,-0.4875,0.3375*
1,1,0.3650,0.4875,0.3375*
%
%ADD48ROUNDEDRECTD48*%
G04:AMPARAMS|DCode=49|XSize=0.4mm|YSize=1.6mm|CornerRadius=0.0875mm|HoleSize=0mm|Usage=FLASHONLY|Rotation=315.000|XOffset=0mm|YOffset=0mm|HoleType=Round|Shape=RoundedRectangle|*
%AMROUNDEDRECTD49*
21,1,0.4000,1.4250,0,0,315.0*
21,1,0.2250,1.6000,0,0,315.0*
1,1,0.1750,-0.4243,-0.5834*
1,1,0.1750,-0.5834,-0.4243*
1,1,0.1750,0.4243,0.5834*
1,1,0.1750,0.5834,0.4243*
%
%ADD49ROUNDEDRECTD49*%
G04:AMPARAMS|DCode=50|XSize=0.4mm|YSize=1.6mm|CornerRadius=0.0875mm|HoleSize=0mm|Usage=FLASHONLY|Rotation=45.000|XOffset=0mm|YOffset=0mm|HoleType=Round|Shape=RoundedRectangle|*
%AMROUNDEDRECTD50*
21,1,0.4000,1.4250,0,0,45.0*
21,1,0.2250,1.6000,0,0,45.0*
1,1,0.1750,0.5834,-0.4243*
1,1,0.1750,0.4243,-0.5834*
1,1,0.1750,-0.5834,0.4243*
1,1,0.1750,-0.4243,0.5834*
%
%ADD50ROUNDEDRECTD50*%
G04:AMPARAMS|DCode=51|XSize=1.15mm|YSize=0.65mm|CornerRadius=0.1188mm|HoleSize=0mm|Usage=FLASHONLY|Rotation=0.000|XOffset=0mm|YOffset=0mm|HoleType=Round|Shape=RoundedRectangle|*
%AMROUNDEDRECTD51*
21,1,1.1500,0.4125,0,0,0.0*
21,1,0.9125,0.6500,0,0,0.0*
1,1,0.2375,0.4563,-0.2063*
1,1,0.2375,-0.4563,-0.2063*
1,1,0.2375,-0.4563,0.2063*
1,1,0.2375,0.4563,0.2063*
%
%ADD51ROUNDEDRECTD51*%
G04:AMPARAMS|DCode=52|XSize=1.15mm|YSize=0.75mm|CornerRadius=0.15mm|HoleSize=0mm|Usage=FLASHONLY|Rotation=0.000|XOffset=0mm|YOffset=0mm|HoleType=Round|Shape=RoundedRectangle|*
%AMROUNDEDRECTD52*
21,1,1.1500,0.4500,0,0,0.0*
21,1,0.8500,0.7500,0,0,0.0*
1,1,0.3000,0.4250,-0.2250*
1,1,0.3000,-0.4250,-0.2250*
1,1,0.3000,-0.4250,0.2250*
1,1,0.3000,0.4250,0.2250*
%
%ADD52ROUNDEDRECTD52*%
G04:AMPARAMS|DCode=53|XSize=2.1mm|YSize=1.15mm|CornerRadius=0.1mm|HoleSize=0mm|Usage=FLASHONLY|Rotation=90.000|XOffset=0mm|YOffset=0mm|HoleType=Round|Shape=RoundedRectangle|*
%AMROUNDEDRECTD53*
21,1,2.1000,0.9500,0,0,90.0*
21,1,1.9000,1.1500,0,0,90.0*
1,1,0.2000,0.4750,0.9500*
1,1,0.2000,0.4750,-0.9500*
1,1,0.2000,-0.4750,-0.9500*
1,1,0.2000,-0.4750,0.9500*
%
%ADD53ROUNDEDRECTD53*%
G04:AMPARAMS|DCode=54|XSize=1.6mm|YSize=0.546mm|CornerRadius=0.1245mm|HoleSize=0mm|Usage=FLASHONLY|Rotation=270.000|XOffset=0mm|YOffset=0mm|HoleType=Round|Shape=RoundedRectangle|*
%AMROUNDEDRECTD54*
21,1,1.6000,0.2970,0,0,270.0*
21,1,1.3510,0.5460,0,0,270.0*
1,1,0.2490,-0.1485,-0.6755*
1,1,0.2490,-0.1485,0.6755*
1,1,0.2490,0.1485,0.6755*
1,1,0.2490,0.1485,-0.6755*
%
%ADD54ROUNDEDRECTD54*%
G04:AMPARAMS|DCode=55|XSize=2.3mm|YSize=1.2mm|CornerRadius=0.325mm|HoleSize=0mm|Usage=FLASHONLY|Rotation=0.000|XOffset=0mm|YOffset=0mm|HoleType=Round|Shape=RoundedRectangle|*
%AMROUNDEDRECTD55*
21,1,2.3000,0.5500,0,0,0.0*
21,1,1.6500,1.2000,0,0,0.0*
1,1,0.6500,0.8250,-0.2750*
1,1,0.6500,-0.8250,-0.2750*
1,1,0.6500,-0.8250,0.2750*
1,1,0.6500,0.8250,0.2750*
%
%ADD55ROUNDEDRECTD55*%
G04:AMPARAMS|DCode=56|XSize=0.9mm|YSize=0.9mm|CornerRadius=0.1mm|HoleSize=0mm|Usage=FLASHONLY|Rotation=180.000|XOffset=0mm|YOffset=0mm|HoleType=Round|Shape=RoundedRectangle|*
%AMROUNDEDRECTD56*
21,1,0.9000,0.7000,0,0,180.0*
21,1,0.7000,0.9000,0,0,180.0*
1,1,0.2000,-0.3500,0.3500*
1,1,0.2000,0.3500,0.3500*
1,1,0.2000,0.3500,-0.3500*
1,1,0.2000,-0.3500,-0.3500*
%
%ADD56ROUNDEDRECTD56*%
G04:AMPARAMS|DCode=57|XSize=0.87mm|YSize=1.14mm|CornerRadius=0.165mm|HoleSize=0mm|Usage=FLASHONLY|Rotation=225.000|XOffset=0mm|YOffset=0mm|HoleType=Round|Shape=RoundedRectangle|*
%AMROUNDEDRECTD57*
21,1,0.8700,0.8100,0,0,225.0*
21,1,0.5400,1.1400,0,0,225.0*
1,1,0.3300,-0.4773,0.0955*
1,1,0.3300,-0.0955,0.4773*
1,1,0.3300,0.4773,-0.0955*
1,1,0.3300,0.0955,-0.4773*
%
%ADD57ROUNDEDRECTD57*%
G04:AMPARAMS|DCode=58|XSize=0.87mm|YSize=1.14mm|CornerRadius=0.165mm|HoleSize=0mm|Usage=FLASHONLY|Rotation=135.000|XOffset=0mm|YOffset=0mm|HoleType=Round|Shape=RoundedRectangle|*
%AMROUNDEDRECTD58*
21,1,0.8700,0.8100,0,0,135.0*
21,1,0.5400,1.1400,0,0,135.0*
1,1,0.3300,0.0955,0.4773*
1,1,0.3300,0.4773,0.0955*
1,1,0.3300,-0.0955,-0.4773*
1,1,0.3300,-0.4773,-0.0955*
%
%ADD58ROUNDEDRECTD58*%
G04:AMPARAMS|DCode=59|XSize=0.75mm|YSize=1.6mm|CornerRadius=0.15mm|HoleSize=0mm|Usage=FLASHONLY|Rotation=90.000|XOffset=0mm|YOffset=0mm|HoleType=Round|Shape=RoundedRectangle|*
%AMROUNDEDRECTD59*
21,1,0.7500,1.3000,0,0,90.0*
21,1,0.4500,1.6000,0,0,90.0*
1,1,0.3000,0.6500,0.2250*
1,1,0.3000,0.6500,-0.2250*
1,1,0.3000,-0.6500,-0.2250*
1,1,0.3000,-0.6500,0.2250*
%
%ADD59ROUNDEDRECTD59*%
G04:AMPARAMS|DCode=60|XSize=1.15mm|YSize=0.65mm|CornerRadius=0.1188mm|HoleSize=0mm|Usage=FLASHONLY|Rotation=90.000|XOffset=0mm|YOffset=0mm|HoleType=Round|Shape=RoundedRectangle|*
%AMROUNDEDRECTD60*
21,1,1.1500,0.4125,0,0,90.0*
21,1,0.9125,0.6500,0,0,90.0*
1,1,0.2375,0.2063,0.4563*
1,1,0.2375,0.2063,-0.4563*
1,1,0.2375,-0.2063,-0.4563*
1,1,0.2375,-0.2063,0.4563*
%
%ADD60ROUNDEDRECTD60*%
G04:AMPARAMS|DCode=61|XSize=0.75mm|YSize=1.6mm|CornerRadius=0.15mm|HoleSize=0mm|Usage=FLASHONLY|Rotation=0.000|XOffset=0mm|YOffset=0mm|HoleType=Round|Shape=RoundedRectangle|*
%AMROUNDEDRECTD61*
21,1,0.7500,1.3000,0,0,0.0*
21,1,0.4500,1.6000,0,0,0.0*
1,1,0.3000,0.2250,-0.6500*
1,1,0.3000,-0.2250,-0.6500*
1,1,0.3000,-0.2250,0.6500*
1,1,0.3000,0.2250,0.6500*
%
%ADD61ROUNDEDRECTD61*%
G04:AMPARAMS|DCode=62|XSize=1.6mm|YSize=0.545mm|CornerRadius=0.1244mm|HoleSize=0mm|Usage=FLASHONLY|Rotation=90.000|XOffset=0mm|YOffset=0mm|HoleType=Round|Shape=RoundedRectangle|*
%AMROUNDEDRECTD62*
21,1,1.6000,0.2963,0,0,90.0*
21,1,1.3513,0.5450,0,0,90.0*
1,1,0.2487,0.1481,0.6756*
1,1,0.2487,0.1481,-0.6756*
1,1,0.2487,-0.1481,-0.6756*
1,1,0.2487,-0.1481,0.6756*
%
%ADD62ROUNDEDRECTD62*%
%ADD63O,5.2032X2.7032*%
%ADD64O,4.7032X2.4532*%
%ADD65O,2.4532X4.7032*%
%ADD66C,1.8500*%
%ADD67R,1.8500X1.8500*%
%ADD68R,1.6500X1.6500*%
%ADD69C,1.6500*%
%ADD70C,3.7032*%
%ADD71C,1.8032*%
%ADD72O,3.8032X4.4032*%
%ADD73R,1.8532X1.8532*%
%ADD74C,1.8532*%
%ADD75R,1.8500X1.8500*%
%ADD76C,3.4160*%
%ADD77C,1.5280*%
%ADD78R,1.5280X1.5280*%
D45*
X376650Y-603000D02*
D03*
X362850D02*
D03*
X376900Y-553250D02*
D03*
X363100D02*
D03*
X352850Y17750D02*
D03*
X366650D02*
D03*
X352850Y33500D02*
D03*
X366650D02*
D03*
X343350Y-39750D02*
D03*
X357150D02*
D03*
X339900Y49500D02*
D03*
X326100D02*
D03*
X394150Y49250D02*
D03*
X380350D02*
D03*
X407350D02*
D03*
X421150D02*
D03*
X461600Y-870500D02*
D03*
X475400D02*
D03*
X461600Y-885500D02*
D03*
X475400D02*
D03*
X461600Y-900500D02*
D03*
X475400D02*
D03*
X314240Y-647700D02*
D03*
X300440D02*
D03*
X677630Y163630D02*
D03*
X691430D02*
D03*
X663490D02*
D03*
X649690D02*
D03*
X1039069Y-1165260D02*
D03*
X1052869D02*
D03*
X1039069Y-1184310D02*
D03*
X1052869Y-1184310D02*
D03*
X963969Y-1184310D02*
D03*
X950169D02*
D03*
X963969Y-1165260D02*
D03*
X950169D02*
D03*
X963969Y-923960D02*
D03*
X950169D02*
D03*
X963969Y-904910D02*
D03*
X950169D02*
D03*
X1039069D02*
D03*
X1052869D02*
D03*
X1039069Y-923960D02*
D03*
X1052869D02*
D03*
X684568Y-1158911D02*
D03*
X670768D02*
D03*
X685118Y-1120811D02*
D03*
X671318Y-1120811D02*
D03*
X685668Y-1082711D02*
D03*
X671868D02*
D03*
X685118Y-1044611D02*
D03*
X671318D02*
D03*
X684568Y-1006511D02*
D03*
X670768D02*
D03*
X685118Y-968411D02*
D03*
X671318D02*
D03*
X685118Y-930311D02*
D03*
X671318D02*
D03*
X685118Y-892211D02*
D03*
X671318Y-892211D02*
D03*
X-202611Y-919480D02*
D03*
X-216411D02*
D03*
X-202611Y-900430D02*
D03*
X-216411Y-900430D02*
D03*
X-127511D02*
D03*
X-113711D02*
D03*
X-127511Y-919480D02*
D03*
X-113711D02*
D03*
X-127511Y-1160780D02*
D03*
X-113711Y-1160780D02*
D03*
X-127511Y-1179830D02*
D03*
X-113711D02*
D03*
X-202611D02*
D03*
X-216411D02*
D03*
X-202611Y-1160780D02*
D03*
X-216411Y-1160780D02*
D03*
X151890Y-925829D02*
D03*
X165690D02*
D03*
X151340Y-963929D02*
D03*
X165140D02*
D03*
X150790Y-1002029D02*
D03*
X164590D02*
D03*
X151340Y-1040129D02*
D03*
X165140D02*
D03*
X151890Y-1078229D02*
D03*
X165690D02*
D03*
X151340Y-1116329D02*
D03*
X165140Y-1116329D02*
D03*
X151340Y-1154429D02*
D03*
X165140D02*
D03*
X151340Y-1192529D02*
D03*
X165140D02*
D03*
X151460Y75051D02*
D03*
X165260D02*
D03*
X151460Y151251D02*
D03*
X165260Y151251D02*
D03*
X152010Y341751D02*
D03*
X165810D02*
D03*
X151460Y303651D02*
D03*
X165260D02*
D03*
X151460Y227451D02*
D03*
X165260D02*
D03*
X151460Y113151D02*
D03*
X165260D02*
D03*
X152010Y189351D02*
D03*
X165810D02*
D03*
X150910Y265551D02*
D03*
X164710D02*
D03*
X152049Y-290709D02*
D03*
X165849D02*
D03*
X-202491Y50920D02*
D03*
X-216291D02*
D03*
X152010Y-126879D02*
D03*
X165810D02*
D03*
X-202491Y348100D02*
D03*
X-216291Y348100D02*
D03*
X152010Y25521D02*
D03*
X165810D02*
D03*
X150949Y-366909D02*
D03*
X164749D02*
D03*
X-127391Y-209430D02*
D03*
X-113591D02*
D03*
X151460Y-203079D02*
D03*
X165260D02*
D03*
X151499Y-557409D02*
D03*
X165299D02*
D03*
X-127391Y106800D02*
D03*
X-113591D02*
D03*
X151499Y-328809D02*
D03*
X165299D02*
D03*
X151460Y-12579D02*
D03*
X165260Y-12579D02*
D03*
X-127391Y367150D02*
D03*
X-113591D02*
D03*
X151499Y-481209D02*
D03*
X165299D02*
D03*
X-202491Y-209430D02*
D03*
X-216291D02*
D03*
X-202452Y-525660D02*
D03*
X-216252D02*
D03*
X151460Y-164979D02*
D03*
X165260D02*
D03*
X151499Y-519309D02*
D03*
X165299D02*
D03*
X151460Y-88779D02*
D03*
X165260D02*
D03*
X-127391Y50920D02*
D03*
X-113591D02*
D03*
X150910Y-50679D02*
D03*
X164710D02*
D03*
X151499Y-405009D02*
D03*
X165299D02*
D03*
X-202452Y-544710D02*
D03*
X-216252D02*
D03*
X-127391Y-228480D02*
D03*
X-113591D02*
D03*
X-202491D02*
D03*
X-216291D02*
D03*
X-127391Y348100D02*
D03*
X-113591D02*
D03*
X-202491Y106800D02*
D03*
X-216291Y106800D02*
D03*
X-202491Y31870D02*
D03*
X-216291Y31870D02*
D03*
X-202491Y87750D02*
D03*
X-216291D02*
D03*
X152049Y-443109D02*
D03*
X165849Y-443109D02*
D03*
X151460Y-241179D02*
D03*
X165260D02*
D03*
X-202491Y367150D02*
D03*
X-216291D02*
D03*
X-127391Y87750D02*
D03*
X-113591D02*
D03*
X-127391Y31870D02*
D03*
X-113591D02*
D03*
X-202491Y-600590D02*
D03*
X-216291Y-600590D02*
D03*
X-127391Y-841890D02*
D03*
X-113591D02*
D03*
X-127391Y-600590D02*
D03*
X-113591D02*
D03*
X-202491Y-860940D02*
D03*
X-216291D02*
D03*
X685118Y-689611D02*
D03*
X671318D02*
D03*
X685668Y-651511D02*
D03*
X671868D02*
D03*
X-202491Y-841890D02*
D03*
X-216291D02*
D03*
X685668Y-727711D02*
D03*
X671868D02*
D03*
X-127391Y-860940D02*
D03*
X-113591D02*
D03*
X685668Y-803911D02*
D03*
X671868D02*
D03*
X685118Y-842011D02*
D03*
X671318D02*
D03*
X-202491Y-581540D02*
D03*
X-216291D02*
D03*
X685668Y-613411D02*
D03*
X671868D02*
D03*
X685668Y-575311D02*
D03*
X671868D02*
D03*
X-127391Y-581540D02*
D03*
X-113591D02*
D03*
X686218Y-765811D02*
D03*
X672418D02*
D03*
X677630Y145850D02*
D03*
X691430D02*
D03*
X635720Y99060D02*
D03*
X649520D02*
D03*
X343350Y-55750D02*
D03*
X357150D02*
D03*
X635720Y82550D02*
D03*
X649520D02*
D03*
X419820Y234950D02*
D03*
X433620D02*
D03*
X1054820Y327660D02*
D03*
X1068620D02*
D03*
X512530Y-915379D02*
D03*
X526330D02*
D03*
X1054820Y344170D02*
D03*
X1068620D02*
D03*
Y361950D02*
D03*
X1054820D02*
D03*
X331210Y-840810D02*
D03*
X317410D02*
D03*
X433400Y172500D02*
D03*
X419600D02*
D03*
X1068620Y379730D02*
D03*
X1054820D02*
D03*
X352850Y49250D02*
D03*
X366650D02*
D03*
X331210Y-825570D02*
D03*
X317410D02*
D03*
X663490Y145850D02*
D03*
X649690D02*
D03*
X433650Y189000D02*
D03*
X419850D02*
D03*
X1039619Y-532130D02*
D03*
X1053419D02*
D03*
X1039619Y-551180D02*
D03*
X1053419D02*
D03*
X685668Y-487681D02*
D03*
X671868D02*
D03*
X964519Y-290830D02*
D03*
X950719D02*
D03*
X964519Y-234950D02*
D03*
X950719D02*
D03*
X685118Y-209551D02*
D03*
X671318D02*
D03*
X964519Y-215900D02*
D03*
X950719D02*
D03*
X964519Y-551180D02*
D03*
X950719D02*
D03*
X1039619Y-290830D02*
D03*
X1053419D02*
D03*
X964519Y25400D02*
D03*
X950719D02*
D03*
X1039619Y44450D02*
D03*
X1053419D02*
D03*
X1039619Y-215900D02*
D03*
X1053419D02*
D03*
X685118Y-525781D02*
D03*
X671318D02*
D03*
X685668Y-411481D02*
D03*
X671868D02*
D03*
X1039619Y-271780D02*
D03*
X1053419D02*
D03*
X685668Y-297181D02*
D03*
X671868D02*
D03*
X964519Y-588010D02*
D03*
X950719D02*
D03*
X1039619Y-867410D02*
D03*
X1053419D02*
D03*
X1039619Y-848360D02*
D03*
X1053419D02*
D03*
X685668Y-19051D02*
D03*
X671868D02*
D03*
X685668Y-95251D02*
D03*
X671868D02*
D03*
X1039619Y-588010D02*
D03*
X1053419D02*
D03*
X686218Y-133351D02*
D03*
X672418D02*
D03*
X685668Y19049D02*
D03*
X671868D02*
D03*
X686218Y-449581D02*
D03*
X672418D02*
D03*
X1039619Y-607060D02*
D03*
X1053419D02*
D03*
X685118Y-57151D02*
D03*
X671318D02*
D03*
X964519Y44450D02*
D03*
X950719D02*
D03*
X685118Y-373381D02*
D03*
X671318D02*
D03*
X964519Y-867410D02*
D03*
X950719D02*
D03*
X964519Y-532130D02*
D03*
X950719D02*
D03*
X1039619Y-234950D02*
D03*
X1053419D02*
D03*
X964519Y-607060D02*
D03*
X950719D02*
D03*
X964519Y-271780D02*
D03*
X950719D02*
D03*
X685668Y-335281D02*
D03*
X671868D02*
D03*
X964519Y-848360D02*
D03*
X950719D02*
D03*
X685668Y57149D02*
D03*
X671868D02*
D03*
X685668Y-171451D02*
D03*
X671868D02*
D03*
X685668Y-259081D02*
D03*
X671868D02*
D03*
X1039619Y25400D02*
D03*
X1053419D02*
D03*
X-127352Y-544710D02*
D03*
X-113552D02*
D03*
X152010Y-759339D02*
D03*
X165810D02*
D03*
X150910Y-683139D02*
D03*
X164710D02*
D03*
X152010Y-606939D02*
D03*
X165810D02*
D03*
X-202452Y-284360D02*
D03*
X-216252D02*
D03*
X151460Y-721239D02*
D03*
X165260D02*
D03*
X-202452Y-265310D02*
D03*
X-216252D02*
D03*
X151460Y-835539D02*
D03*
X165260D02*
D03*
X-127352Y-265310D02*
D03*
X-113552D02*
D03*
X151460Y-797439D02*
D03*
X165260D02*
D03*
X151460Y-645039D02*
D03*
X165260Y-645039D02*
D03*
X-127352Y-284360D02*
D03*
X-113552D02*
D03*
X-127352Y-525660D02*
D03*
X-113552D02*
D03*
X151460Y-873639D02*
D03*
X165260D02*
D03*
D46*
X383000Y-19600D02*
D03*
Y-33400D02*
D03*
Y-60400D02*
D03*
Y-46600D02*
D03*
X331500Y3150D02*
D03*
Y-10650D02*
D03*
X446000Y329900D02*
D03*
Y316100D02*
D03*
X588500Y331150D02*
D03*
Y317350D02*
D03*
X1054250Y128850D02*
D03*
Y142650D02*
D03*
X273050Y-770340D02*
D03*
Y-784140D02*
D03*
X398780Y-784140D02*
D03*
Y-770340D02*
D03*
X328930Y-654600D02*
D03*
Y-640800D02*
D03*
X285750Y-640800D02*
D03*
Y-654600D02*
D03*
X549910Y-898610D02*
D03*
Y-912410D02*
D03*
X327590Y-167150D02*
D03*
Y-153350D02*
D03*
X394900Y-71520D02*
D03*
Y-85320D02*
D03*
X294640Y240580D02*
D03*
Y226780D02*
D03*
X707390Y161640D02*
D03*
Y147840D02*
D03*
X529250Y-427350D02*
D03*
Y-441150D02*
D03*
X519430Y-849080D02*
D03*
Y-862880D02*
D03*
X648970Y128620D02*
D03*
X648970Y114820D02*
D03*
X483870Y-1041950D02*
D03*
Y-1028150D02*
D03*
X340360Y-1004020D02*
D03*
Y-1017820D02*
D03*
X1191260Y163110D02*
D03*
Y149310D02*
D03*
X494030Y-862880D02*
D03*
Y-849080D02*
D03*
X544790Y-427370D02*
D03*
Y-441170D02*
D03*
X391160Y281220D02*
D03*
Y267420D02*
D03*
X323500Y-71350D02*
D03*
Y-85150D02*
D03*
X427990Y-1157520D02*
D03*
Y-1143720D02*
D03*
X411480Y-1157520D02*
D03*
Y-1143720D02*
D03*
X702310Y128620D02*
D03*
Y114820D02*
D03*
X301750Y-65900D02*
D03*
Y-52100D02*
D03*
X393429Y-169650D02*
D03*
Y-155850D02*
D03*
X302250Y-811850D02*
D03*
Y-825650D02*
D03*
X375649Y-169650D02*
D03*
Y-155850D02*
D03*
X544830Y-862880D02*
D03*
Y-849080D02*
D03*
X467320Y-1041950D02*
D03*
Y-1028150D02*
D03*
X1191260Y178520D02*
D03*
Y192320D02*
D03*
X388620Y-818430D02*
D03*
Y-804630D02*
D03*
D47*
X428000Y27000D02*
D03*
X409000D02*
D03*
X418500Y4000D02*
D03*
X409000Y-35750D02*
D03*
X428000D02*
D03*
X418500Y-12750D02*
D03*
X339720Y-124210D02*
D03*
X358720D02*
D03*
X349220Y-101210D02*
D03*
D48*
X386500Y-5350D02*
D03*
Y27350D02*
D03*
D49*
X427848Y-330688D02*
D03*
X431383Y-334224D02*
D03*
X434919Y-337760D02*
D03*
X438454Y-341295D02*
D03*
X441990Y-344831D02*
D03*
X445525Y-348366D02*
D03*
X449061Y-351902D02*
D03*
X452596Y-355437D02*
D03*
X456132Y-358973D02*
D03*
X459667Y-362508D02*
D03*
X463203Y-366044D02*
D03*
X466738Y-369579D02*
D03*
X470274Y-373115D02*
D03*
X473810Y-376650D02*
D03*
X477345Y-380186D02*
D03*
X480881Y-383722D02*
D03*
X400270Y-464332D02*
D03*
X396735Y-460796D02*
D03*
X393199Y-457261D02*
D03*
X389664Y-453725D02*
D03*
X386128Y-450190D02*
D03*
X382593Y-446654D02*
D03*
X379057Y-443118D02*
D03*
X375522Y-439583D02*
D03*
X371986Y-436047D02*
D03*
X368451Y-432512D02*
D03*
X364915Y-428976D02*
D03*
X361380Y-425441D02*
D03*
X357844Y-421905D02*
D03*
X354308Y-418370D02*
D03*
X350773Y-414834D02*
D03*
X347237Y-411299D02*
D03*
D50*
X480881Y-411298D02*
D03*
X477345Y-414834D02*
D03*
X473810Y-418370D02*
D03*
X470274Y-421905D02*
D03*
X466738Y-425441D02*
D03*
X463203Y-428976D02*
D03*
X459667Y-432512D02*
D03*
X456132Y-436047D02*
D03*
X452596Y-439583D02*
D03*
X449061Y-443118D02*
D03*
X445525Y-446654D02*
D03*
X441990Y-450189D02*
D03*
X438454Y-453725D02*
D03*
X434919Y-457261D02*
D03*
X431383Y-460796D02*
D03*
X427848Y-464332D02*
D03*
X347237Y-383721D02*
D03*
X350773Y-380186D02*
D03*
X354308Y-376650D02*
D03*
X357844Y-373115D02*
D03*
X361380Y-369579D02*
D03*
X364915Y-366044D02*
D03*
X368451Y-362508D02*
D03*
X371986Y-358973D02*
D03*
X375522Y-355437D02*
D03*
X379057Y-351902D02*
D03*
X382593Y-348366D02*
D03*
X386128Y-344831D02*
D03*
X389664Y-341295D02*
D03*
X393199Y-337760D02*
D03*
X396735Y-334224D02*
D03*
X400270Y-330688D02*
D03*
D51*
X347000Y-784750D02*
D03*
Y-794250D02*
D03*
Y-803750D02*
D03*
X322000D02*
D03*
Y-794250D02*
D03*
Y-784750D02*
D03*
X531930Y-879500D02*
D03*
Y-889000D02*
D03*
Y-898500D02*
D03*
X506930D02*
D03*
Y-889000D02*
D03*
Y-879500D02*
D03*
D52*
X345370Y-638240D02*
D03*
Y-657240D02*
D03*
X368370Y-647740D02*
D03*
X556330Y-832460D02*
D03*
Y-813460D02*
D03*
X533330Y-822960D02*
D03*
X351720Y288900D02*
D03*
Y269900D02*
D03*
X374720Y279400D02*
D03*
D53*
X570750Y-468750D02*
D03*
X526250D02*
D03*
X1074519Y-1063660D02*
D03*
X1119019D02*
D03*
X1119019Y-1025560D02*
D03*
X1074519Y-1025560D02*
D03*
X1074519Y-1101760D02*
D03*
X1119019D02*
D03*
X1119019Y-987460D02*
D03*
X1074519Y-987460D02*
D03*
X1074519Y-1139860D02*
D03*
X1119019D02*
D03*
X1119019Y-949360D02*
D03*
X1074519D02*
D03*
X1074519Y-1177960D02*
D03*
X1119019D02*
D03*
X1119019Y-911260D02*
D03*
X1074519D02*
D03*
X-238061Y-1021080D02*
D03*
X-282561Y-1021080D02*
D03*
X-282561Y-1059180D02*
D03*
X-238061D02*
D03*
X-238061Y-982980D02*
D03*
X-282561Y-982980D02*
D03*
X-282561Y-1097280D02*
D03*
X-238061Y-1097280D02*
D03*
X-238061Y-944880D02*
D03*
X-282561D02*
D03*
X-282561Y-1135380D02*
D03*
X-238061Y-1135380D02*
D03*
X-238061Y-906780D02*
D03*
X-282561D02*
D03*
X-282561Y-1173480D02*
D03*
X-238061D02*
D03*
X1075069Y-228600D02*
D03*
X1119569D02*
D03*
X1075069Y-544830D02*
D03*
X1119569D02*
D03*
X1075069Y-861060D02*
D03*
X1119569D02*
D03*
X-237941Y-587890D02*
D03*
X-282441D02*
D03*
X-237902Y-271660D02*
D03*
X-282402D02*
D03*
X-237941Y44570D02*
D03*
X-282441D02*
D03*
X-237941Y360800D02*
D03*
X-282441D02*
D03*
X1119569Y38100D02*
D03*
X1075069D02*
D03*
X1119569Y-278130D02*
D03*
X1075069D02*
D03*
X1119569Y-594360D02*
D03*
X1075069D02*
D03*
X-282441Y-854590D02*
D03*
X-237941D02*
D03*
X-282402Y-538360D02*
D03*
X-237902D02*
D03*
X-282441Y-222130D02*
D03*
X-237941D02*
D03*
X-282441Y94100D02*
D03*
X-237941D02*
D03*
X1075069Y-190500D02*
D03*
X1119569D02*
D03*
X1075069Y-506730D02*
D03*
X1119569D02*
D03*
X1075069Y-822960D02*
D03*
X1119569D02*
D03*
X-237941Y-625990D02*
D03*
X-282441D02*
D03*
X-237902Y-309760D02*
D03*
X-282402D02*
D03*
X-237941Y6470D02*
D03*
X-282441D02*
D03*
X-237941Y322700D02*
D03*
X-282441D02*
D03*
X1119569Y0D02*
D03*
X1075069D02*
D03*
X1119569Y-316230D02*
D03*
X1075069D02*
D03*
X1119569Y-632460D02*
D03*
X1075069D02*
D03*
X-282441Y-816490D02*
D03*
X-237941Y-816490D02*
D03*
X-282402Y-500260D02*
D03*
X-237902D02*
D03*
X-282441Y-184030D02*
D03*
X-237941Y-184030D02*
D03*
X-282441Y132200D02*
D03*
X-237941Y132200D02*
D03*
X1075069Y-152400D02*
D03*
X1119569D02*
D03*
X1075069Y-468630D02*
D03*
X1119569D02*
D03*
X1075069Y-784860D02*
D03*
X1119569D02*
D03*
X-237941Y-664090D02*
D03*
X-282441D02*
D03*
X-237902Y-347860D02*
D03*
X-282402D02*
D03*
X-237941Y-31630D02*
D03*
X-282441D02*
D03*
X-237941Y284600D02*
D03*
X-282441D02*
D03*
X1119569Y-38100D02*
D03*
X1075069D02*
D03*
X1119569Y-354330D02*
D03*
X1075069D02*
D03*
X1119569Y-670560D02*
D03*
X1075069D02*
D03*
X-282441Y-778390D02*
D03*
X-237941Y-778390D02*
D03*
X-282402Y-462160D02*
D03*
X-237902D02*
D03*
X-282441Y-145930D02*
D03*
X-237941Y-145930D02*
D03*
X-282441Y170300D02*
D03*
X-237941Y170300D02*
D03*
X1075069Y-114300D02*
D03*
X1119569D02*
D03*
X1075069Y-430530D02*
D03*
X1119569D02*
D03*
X1075069Y-746760D02*
D03*
X1119569D02*
D03*
X-237941Y-702190D02*
D03*
X-282441D02*
D03*
X-237902Y-385960D02*
D03*
X-282402D02*
D03*
X-237941Y-69730D02*
D03*
X-282441D02*
D03*
X-237941Y246500D02*
D03*
X-282441D02*
D03*
X1119569Y-76200D02*
D03*
X1075069D02*
D03*
X1119569Y-392430D02*
D03*
X1075069D02*
D03*
X1119569Y-708660D02*
D03*
X1075069D02*
D03*
X-282441Y-740290D02*
D03*
X-237941D02*
D03*
X-282402Y-424060D02*
D03*
X-237902D02*
D03*
X-282441Y-107830D02*
D03*
X-237941D02*
D03*
X-282441Y208400D02*
D03*
X-237941D02*
D03*
D54*
X449809Y-1028490D02*
D03*
X443309D02*
D03*
X436809D02*
D03*
X430309D02*
D03*
X423809D02*
D03*
X417309D02*
D03*
X410809D02*
D03*
X404309D02*
D03*
X397809D02*
D03*
X391309D02*
D03*
X384809D02*
D03*
X378309D02*
D03*
Y-970490D02*
D03*
X384809D02*
D03*
X391309D02*
D03*
X397809D02*
D03*
X404309D02*
D03*
X410809D02*
D03*
X417309D02*
D03*
X423809D02*
D03*
X430309D02*
D03*
X436809D02*
D03*
X443309D02*
D03*
X449809D02*
D03*
D55*
X1045519Y-955585D02*
D03*
Y-980985D02*
D03*
Y-1006385D02*
D03*
Y-1031785D02*
D03*
Y-1057185D02*
D03*
Y-1082585D02*
D03*
Y-1107985D02*
D03*
Y-1133385D02*
D03*
X957519Y-1133635D02*
D03*
Y-1108235D02*
D03*
Y-1082835D02*
D03*
Y-1057435D02*
D03*
Y-1032035D02*
D03*
Y-1006635D02*
D03*
Y-981235D02*
D03*
Y-955835D02*
D03*
X804219Y-955585D02*
D03*
Y-980985D02*
D03*
Y-1006385D02*
D03*
Y-1031785D02*
D03*
Y-1057185D02*
D03*
Y-1082585D02*
D03*
Y-1107985D02*
D03*
X804219Y-1133385D02*
D03*
X716219Y-1133635D02*
D03*
Y-1108235D02*
D03*
X716219Y-1082835D02*
D03*
X716219Y-1057435D02*
D03*
Y-1032035D02*
D03*
Y-1006635D02*
D03*
Y-981235D02*
D03*
Y-955835D02*
D03*
X-209061Y-1129155D02*
D03*
X-209061Y-1103755D02*
D03*
X-209061Y-1078355D02*
D03*
Y-1052955D02*
D03*
Y-1027555D02*
D03*
Y-1002155D02*
D03*
Y-976755D02*
D03*
X-209061Y-951355D02*
D03*
X-121061Y-951105D02*
D03*
Y-976505D02*
D03*
Y-1001905D02*
D03*
Y-1027305D02*
D03*
Y-1052705D02*
D03*
Y-1078105D02*
D03*
Y-1103505D02*
D03*
Y-1128905D02*
D03*
X32239Y-1129155D02*
D03*
X32239Y-1103755D02*
D03*
Y-1078355D02*
D03*
X32239Y-1052955D02*
D03*
X32239Y-1027555D02*
D03*
X32239Y-1002155D02*
D03*
X32239Y-976755D02*
D03*
Y-951355D02*
D03*
X120239Y-951105D02*
D03*
Y-976505D02*
D03*
X120239Y-1001905D02*
D03*
X120239Y-1027305D02*
D03*
Y-1052705D02*
D03*
Y-1078105D02*
D03*
Y-1103505D02*
D03*
Y-1128905D02*
D03*
X120359Y138675D02*
D03*
Y214875D02*
D03*
Y240275D02*
D03*
Y189475D02*
D03*
Y265675D02*
D03*
Y291075D02*
D03*
Y164075D02*
D03*
Y316475D02*
D03*
X-208941Y-810265D02*
D03*
X-208941Y-784865D02*
D03*
X-208941Y-759465D02*
D03*
Y-734065D02*
D03*
Y-708665D02*
D03*
Y-683265D02*
D03*
X-208941Y-657865D02*
D03*
X-208941Y-632465D02*
D03*
X-120941Y-632215D02*
D03*
Y-657615D02*
D03*
Y-683015D02*
D03*
Y-708415D02*
D03*
Y-733815D02*
D03*
Y-759215D02*
D03*
Y-784615D02*
D03*
Y-810015D02*
D03*
X-208941Y138425D02*
D03*
X-208941Y163825D02*
D03*
X-208941Y189225D02*
D03*
Y214625D02*
D03*
Y240025D02*
D03*
Y265425D02*
D03*
X-208941Y290825D02*
D03*
X-208941Y316225D02*
D03*
X-120941Y316475D02*
D03*
Y291075D02*
D03*
Y265675D02*
D03*
Y240275D02*
D03*
Y214875D02*
D03*
Y189475D02*
D03*
Y164075D02*
D03*
Y138675D02*
D03*
X32359Y-177805D02*
D03*
Y-152405D02*
D03*
Y-127005D02*
D03*
Y-101605D02*
D03*
Y-76205D02*
D03*
Y-50805D02*
D03*
Y-25405D02*
D03*
Y-5D02*
D03*
X120359Y245D02*
D03*
Y-25155D02*
D03*
Y-50555D02*
D03*
Y-75955D02*
D03*
Y-101355D02*
D03*
Y-126755D02*
D03*
Y-152155D02*
D03*
Y-177555D02*
D03*
X-208902Y-494035D02*
D03*
X-208902Y-468635D02*
D03*
Y-443235D02*
D03*
X-208902Y-417835D02*
D03*
Y-392435D02*
D03*
Y-367035D02*
D03*
X-208902Y-341635D02*
D03*
X-208902Y-316235D02*
D03*
X-120902Y-315985D02*
D03*
Y-341385D02*
D03*
Y-366785D02*
D03*
Y-392185D02*
D03*
Y-417585D02*
D03*
Y-442985D02*
D03*
Y-468385D02*
D03*
Y-493785D02*
D03*
X804769Y-638685D02*
D03*
Y-664085D02*
D03*
Y-689485D02*
D03*
Y-714885D02*
D03*
Y-740285D02*
D03*
Y-765685D02*
D03*
Y-791085D02*
D03*
Y-816485D02*
D03*
X716769Y-816735D02*
D03*
Y-791335D02*
D03*
Y-765935D02*
D03*
Y-740535D02*
D03*
Y-715135D02*
D03*
Y-689735D02*
D03*
Y-664335D02*
D03*
Y-638935D02*
D03*
X1046069Y-638685D02*
D03*
Y-664085D02*
D03*
Y-689485D02*
D03*
Y-714885D02*
D03*
Y-740285D02*
D03*
Y-765685D02*
D03*
Y-791085D02*
D03*
Y-816485D02*
D03*
X958069Y-816735D02*
D03*
Y-791335D02*
D03*
Y-765935D02*
D03*
Y-740535D02*
D03*
Y-715135D02*
D03*
Y-689735D02*
D03*
Y-664335D02*
D03*
Y-638935D02*
D03*
X804769Y-322455D02*
D03*
Y-347855D02*
D03*
Y-373255D02*
D03*
Y-398655D02*
D03*
Y-424055D02*
D03*
Y-449455D02*
D03*
Y-474855D02*
D03*
Y-500255D02*
D03*
X716769Y-500505D02*
D03*
Y-475105D02*
D03*
Y-449705D02*
D03*
Y-424305D02*
D03*
Y-398905D02*
D03*
Y-373505D02*
D03*
Y-348105D02*
D03*
Y-322705D02*
D03*
X1046069Y-322455D02*
D03*
Y-347855D02*
D03*
Y-373255D02*
D03*
Y-398655D02*
D03*
Y-424055D02*
D03*
Y-449455D02*
D03*
Y-474855D02*
D03*
Y-500255D02*
D03*
X958069Y-500505D02*
D03*
Y-475105D02*
D03*
Y-449705D02*
D03*
Y-424305D02*
D03*
Y-398905D02*
D03*
Y-373505D02*
D03*
Y-348105D02*
D03*
Y-322705D02*
D03*
X-208941Y-177805D02*
D03*
X-208941Y-152405D02*
D03*
X-208941Y-127005D02*
D03*
Y-101605D02*
D03*
Y-76205D02*
D03*
Y-50805D02*
D03*
X-208941Y-25405D02*
D03*
X-208941Y-5D02*
D03*
X-120941Y245D02*
D03*
Y-25155D02*
D03*
Y-50555D02*
D03*
Y-75955D02*
D03*
Y-101355D02*
D03*
Y-126755D02*
D03*
Y-152155D02*
D03*
Y-177555D02*
D03*
X32398Y-494035D02*
D03*
Y-468635D02*
D03*
Y-443235D02*
D03*
Y-417835D02*
D03*
Y-392435D02*
D03*
Y-367035D02*
D03*
Y-341635D02*
D03*
Y-316235D02*
D03*
X120398Y-315985D02*
D03*
X120398Y-341385D02*
D03*
X120398Y-366785D02*
D03*
Y-392185D02*
D03*
Y-417585D02*
D03*
X120398Y-442985D02*
D03*
X120398Y-468385D02*
D03*
Y-493785D02*
D03*
X32359Y-810265D02*
D03*
Y-784865D02*
D03*
Y-759465D02*
D03*
Y-734065D02*
D03*
Y-708665D02*
D03*
Y-683265D02*
D03*
Y-657865D02*
D03*
Y-632465D02*
D03*
X120359Y-632215D02*
D03*
Y-657615D02*
D03*
Y-683015D02*
D03*
Y-708415D02*
D03*
Y-733815D02*
D03*
Y-759215D02*
D03*
Y-784615D02*
D03*
Y-810015D02*
D03*
X1046069Y-6225D02*
D03*
Y-31625D02*
D03*
Y-57025D02*
D03*
Y-82425D02*
D03*
Y-107825D02*
D03*
Y-133225D02*
D03*
Y-158625D02*
D03*
Y-184025D02*
D03*
X958069Y-184275D02*
D03*
Y-158875D02*
D03*
Y-133475D02*
D03*
Y-108075D02*
D03*
Y-82675D02*
D03*
Y-57275D02*
D03*
Y-31875D02*
D03*
Y-6475D02*
D03*
X804769Y-6225D02*
D03*
Y-31625D02*
D03*
Y-57025D02*
D03*
Y-82425D02*
D03*
Y-107825D02*
D03*
Y-133225D02*
D03*
Y-158625D02*
D03*
Y-184025D02*
D03*
X716769Y-184275D02*
D03*
Y-158875D02*
D03*
Y-133475D02*
D03*
Y-108075D02*
D03*
Y-82675D02*
D03*
Y-57275D02*
D03*
Y-31875D02*
D03*
Y-6475D02*
D03*
X32359Y138425D02*
D03*
Y163825D02*
D03*
Y189225D02*
D03*
Y214625D02*
D03*
Y240025D02*
D03*
Y265425D02*
D03*
Y290825D02*
D03*
Y316225D02*
D03*
D56*
X685169Y-1177960D02*
D03*
X670169D02*
D03*
X685719Y-1139860D02*
D03*
X670719D02*
D03*
X686269Y-1101760D02*
D03*
X671269Y-1101760D02*
D03*
X685719Y-1063660D02*
D03*
X670719Y-1063660D02*
D03*
X685169Y-1025560D02*
D03*
X670169D02*
D03*
X685719Y-987460D02*
D03*
X670719Y-987460D02*
D03*
X685719Y-949360D02*
D03*
X670719D02*
D03*
X685719Y-911260D02*
D03*
X670719D02*
D03*
X151289Y-906780D02*
D03*
X166289Y-906780D02*
D03*
X150739Y-944880D02*
D03*
X165739Y-944880D02*
D03*
X150189Y-982980D02*
D03*
X165189Y-982980D02*
D03*
X150739Y-1021080D02*
D03*
X165739D02*
D03*
X151289Y-1059180D02*
D03*
X166289D02*
D03*
X150739Y-1097280D02*
D03*
X165739D02*
D03*
X150739Y-1135380D02*
D03*
X165739Y-1135380D02*
D03*
X150739Y-1173480D02*
D03*
X165739Y-1173480D02*
D03*
X419219Y209549D02*
D03*
X434219Y209549D02*
D03*
X150309Y284600D02*
D03*
X150859Y94100D02*
D03*
Y132200D02*
D03*
X151409Y360800D02*
D03*
X150859Y322700D02*
D03*
X150859Y246500D02*
D03*
X150859Y170300D02*
D03*
X151409Y208400D02*
D03*
X685719Y-228600D02*
D03*
X670719D02*
D03*
X685719Y-544830D02*
D03*
X670719D02*
D03*
X685719Y-861060D02*
D03*
X670719D02*
D03*
X151409Y-587890D02*
D03*
X166409D02*
D03*
X151448Y-271660D02*
D03*
X166448D02*
D03*
X151409Y44570D02*
D03*
X166409D02*
D03*
Y360800D02*
D03*
X686269Y-190500D02*
D03*
X671269D02*
D03*
X686269Y-506730D02*
D03*
X671269D02*
D03*
X686269Y-822960D02*
D03*
X671269D02*
D03*
X150859Y-625990D02*
D03*
X165859Y-625990D02*
D03*
X150898Y-309760D02*
D03*
X165898D02*
D03*
X150859Y6470D02*
D03*
X165859Y6470D02*
D03*
Y322700D02*
D03*
X686819Y-152400D02*
D03*
X671819D02*
D03*
X686819Y-468630D02*
D03*
X671819D02*
D03*
X686819Y-784860D02*
D03*
X671819D02*
D03*
X150309Y-664090D02*
D03*
X165309Y-664090D02*
D03*
X150348Y-347860D02*
D03*
X165348Y-347860D02*
D03*
X150309Y-31630D02*
D03*
X165309Y-31630D02*
D03*
Y284600D02*
D03*
X686269Y-114300D02*
D03*
X671269D02*
D03*
X686269Y-430530D02*
D03*
X671269D02*
D03*
X686269Y-746760D02*
D03*
X671269D02*
D03*
X150859Y-702190D02*
D03*
X165859Y-702190D02*
D03*
X150898Y-385960D02*
D03*
X165898Y-385960D02*
D03*
X150859Y-69730D02*
D03*
X165859Y-69730D02*
D03*
Y246500D02*
D03*
X685719Y-76200D02*
D03*
X670719D02*
D03*
X685719Y-392430D02*
D03*
X670719D02*
D03*
X685719Y-708660D02*
D03*
X670719D02*
D03*
X151409Y-740290D02*
D03*
X166409D02*
D03*
X151448Y-424060D02*
D03*
X166448D02*
D03*
X151409Y-107830D02*
D03*
X166409D02*
D03*
Y208400D02*
D03*
X686269Y-38100D02*
D03*
X671269D02*
D03*
X686269Y-354330D02*
D03*
X671269D02*
D03*
X686269Y-670560D02*
D03*
X671269D02*
D03*
X150859Y-778390D02*
D03*
X165859D02*
D03*
X150898Y-462160D02*
D03*
X165898D02*
D03*
X150859Y-145930D02*
D03*
X165859D02*
D03*
Y170300D02*
D03*
X686269Y-0D02*
D03*
X671269D02*
D03*
X686269Y-316230D02*
D03*
X671269D02*
D03*
X686269Y-632460D02*
D03*
X671269D02*
D03*
X150859Y-816490D02*
D03*
X165859D02*
D03*
X150898Y-500260D02*
D03*
X165898D02*
D03*
X150859Y-184030D02*
D03*
X165859D02*
D03*
Y132200D02*
D03*
X686269Y38100D02*
D03*
X671269D02*
D03*
X686269Y-278130D02*
D03*
X671269D02*
D03*
X686269Y-594360D02*
D03*
X671269D02*
D03*
X150859Y-854590D02*
D03*
X165859D02*
D03*
X150898Y-538360D02*
D03*
X165898D02*
D03*
X150859Y-222130D02*
D03*
X165859D02*
D03*
Y94100D02*
D03*
D57*
X423111Y-495099D02*
D03*
X432869Y-485341D02*
D03*
X434541Y-506529D02*
D03*
X444299Y-496771D02*
D03*
X491289Y-324051D02*
D03*
X481531Y-333809D02*
D03*
X325321Y-451919D02*
D03*
X335079Y-442161D02*
D03*
D58*
X351991Y-317701D02*
D03*
X361749Y-327459D02*
D03*
D59*
X342210Y-1069340D02*
D03*
Y-1056640D02*
D03*
Y-1043940D02*
D03*
Y-1031240D02*
D03*
X287710Y-1069340D02*
D03*
Y-1056640D02*
D03*
Y-1043940D02*
D03*
Y-1031240D02*
D03*
D60*
X375280Y-100210D02*
D03*
X384780Y-100210D02*
D03*
X394280D02*
D03*
Y-125210D02*
D03*
X384780D02*
D03*
X375280Y-125210D02*
D03*
X366500Y-23500D02*
D03*
X357000Y-23500D02*
D03*
X347500D02*
D03*
Y1500D02*
D03*
X357000D02*
D03*
X366500Y1500D02*
D03*
X304160Y-100210D02*
D03*
X313660Y-100210D02*
D03*
X323160D02*
D03*
Y-125210D02*
D03*
X313660D02*
D03*
X304160Y-125210D02*
D03*
X685140Y101800D02*
D03*
X675640Y101800D02*
D03*
X666140D02*
D03*
Y126800D02*
D03*
X675640D02*
D03*
X685140Y126800D02*
D03*
D61*
X313690Y182300D02*
D03*
X326390Y182300D02*
D03*
X339090Y182300D02*
D03*
X351790D02*
D03*
X364490D02*
D03*
X377190D02*
D03*
X389890Y182300D02*
D03*
X402590Y182300D02*
D03*
X313690Y236800D02*
D03*
X326390D02*
D03*
X339090D02*
D03*
X351790D02*
D03*
X364490D02*
D03*
X377190D02*
D03*
X389890D02*
D03*
X402590D02*
D03*
D62*
X405540Y-860200D02*
D03*
X412040D02*
D03*
X418540D02*
D03*
X425040D02*
D03*
Y-816200D02*
D03*
X418540D02*
D03*
X412040D02*
D03*
X405540D02*
D03*
D63*
X517250Y324750D02*
D03*
D64*
Y384750D02*
D03*
D65*
X470250Y354750D02*
D03*
D66*
X1140500Y219700D02*
D03*
X1115100Y321300D02*
D03*
X1140500D02*
D03*
X1115100Y295900D02*
D03*
X1140500D02*
D03*
X1115100Y270500D02*
D03*
X1140500D02*
D03*
X1115100Y245100D02*
D03*
X1140500D02*
D03*
X1115100Y219700D02*
D03*
Y194300D02*
D03*
X1140500D02*
D03*
X1115100Y168900D02*
D03*
X1140500D02*
D03*
X1115100Y143500D02*
D03*
X272841Y-721331D02*
D03*
X298241D02*
D03*
X272841Y-746731D02*
D03*
X398571Y-721331D02*
D03*
X423971D02*
D03*
X398571Y-746731D02*
D03*
X449454Y-191677D02*
D03*
X424054Y-217077D02*
D03*
X424083Y-191699D02*
D03*
X449454Y-217077D02*
D03*
X474854D02*
D03*
Y-191677D02*
D03*
X500254Y-217077D02*
D03*
Y-191677D02*
D03*
X525654Y-217077D02*
D03*
X899801Y-1133444D02*
D03*
X925201Y-1108044D02*
D03*
X899801Y-1108044D02*
D03*
X925201Y-1082644D02*
D03*
X899801D02*
D03*
Y-1057244D02*
D03*
X925201Y-1031844D02*
D03*
X899801D02*
D03*
X925201Y-1006444D02*
D03*
X899801Y-1006444D02*
D03*
X925201Y-981044D02*
D03*
X899801Y-981044D02*
D03*
X925201Y-955644D02*
D03*
X899801D02*
D03*
X925201Y-1057244D02*
D03*
X861978Y-930190D02*
D03*
X836578Y-955590D02*
D03*
X861978Y-955590D02*
D03*
X836578Y-980990D02*
D03*
X861978D02*
D03*
Y-1006390D02*
D03*
X836578Y-1031790D02*
D03*
X861978Y-1031790D02*
D03*
X836578Y-1057190D02*
D03*
X861978D02*
D03*
X836578Y-1082590D02*
D03*
X861978Y-1082590D02*
D03*
X836578Y-1107990D02*
D03*
X861978D02*
D03*
X836578Y-1006390D02*
D03*
Y-1133390D02*
D03*
X861978Y-1133390D02*
D03*
X836578Y-1158790D02*
D03*
X861978D02*
D03*
X-63343Y-951296D02*
D03*
X-88743Y-976696D02*
D03*
X-63343Y-976696D02*
D03*
X-88743Y-1002096D02*
D03*
X-63343D02*
D03*
X-63343Y-1027496D02*
D03*
X-88743Y-1052896D02*
D03*
X-63343D02*
D03*
X-88743Y-1078296D02*
D03*
X-63343Y-1078296D02*
D03*
X-88743Y-1103696D02*
D03*
X-63343Y-1103696D02*
D03*
X-88743Y-1129096D02*
D03*
X-63343D02*
D03*
X-88743Y-1027496D02*
D03*
X-25520Y-1154550D02*
D03*
X-120Y-1129150D02*
D03*
X-25520D02*
D03*
X-120Y-1103750D02*
D03*
X-25520Y-1103750D02*
D03*
Y-1078350D02*
D03*
X-120Y-1052950D02*
D03*
X-25520Y-1052950D02*
D03*
X-120Y-1027550D02*
D03*
X-25520D02*
D03*
X-120Y-1002150D02*
D03*
X-25520Y-1002150D02*
D03*
X-120Y-976750D02*
D03*
X-25520Y-976750D02*
D03*
X-120Y-1078350D02*
D03*
Y-951350D02*
D03*
X-25520D02*
D03*
X-120Y-925950D02*
D03*
X-25520D02*
D03*
X900351Y-816544D02*
D03*
X925751Y-791144D02*
D03*
X900351D02*
D03*
X925751Y-765744D02*
D03*
X900351D02*
D03*
Y-740344D02*
D03*
X925751Y-714944D02*
D03*
X900351D02*
D03*
X925751Y-689544D02*
D03*
X900351D02*
D03*
X925751Y-664144D02*
D03*
X900351D02*
D03*
X925751Y-638744D02*
D03*
X900351D02*
D03*
X925751Y-740344D02*
D03*
X900351Y-184084D02*
D03*
X925751Y-158684D02*
D03*
X900351D02*
D03*
X925751Y-133284D02*
D03*
X900351D02*
D03*
Y-107884D02*
D03*
X925751Y-82484D02*
D03*
X900351D02*
D03*
X925751Y-57084D02*
D03*
X900351D02*
D03*
X925751Y-31684D02*
D03*
X900351D02*
D03*
X925751Y-6284D02*
D03*
X900351D02*
D03*
X925751Y-107884D02*
D03*
X-63223Y54D02*
D03*
X-88623Y-25346D02*
D03*
X-63223Y-25346D02*
D03*
X-88623Y-50746D02*
D03*
X-63223D02*
D03*
X-63223Y-76146D02*
D03*
X-88623Y-101546D02*
D03*
X-63223D02*
D03*
X-88623Y-126946D02*
D03*
X-63223Y-126946D02*
D03*
X-88623Y-152346D02*
D03*
X-63223Y-152346D02*
D03*
X-88623Y-177746D02*
D03*
X-63223Y-177746D02*
D03*
X-88623Y-76146D02*
D03*
X452076Y-1128921D02*
D03*
X477476Y-1154321D02*
D03*
Y-1128921D02*
D03*
X502876Y-1154321D02*
D03*
Y-1128921D02*
D03*
X528276Y-1128921D02*
D03*
Y-1154321D02*
D03*
X-25400Y-835660D02*
D03*
X0Y-810260D02*
D03*
X-25400D02*
D03*
X0Y-784860D02*
D03*
X-25400D02*
D03*
Y-759460D02*
D03*
X0Y-734060D02*
D03*
X-25400Y-734060D02*
D03*
X0Y-708660D02*
D03*
X-25400D02*
D03*
X0Y-683260D02*
D03*
X-25400D02*
D03*
X0Y-657860D02*
D03*
X-25400Y-657860D02*
D03*
X0Y-759460D02*
D03*
Y-632460D02*
D03*
X-25400D02*
D03*
X0Y-607060D02*
D03*
X-25400D02*
D03*
X-63223Y316284D02*
D03*
X-88623Y290884D02*
D03*
X-63223Y290884D02*
D03*
X-88623Y265484D02*
D03*
X-63223D02*
D03*
X-63223Y240084D02*
D03*
X-88623Y214684D02*
D03*
X-63223D02*
D03*
X-88623Y189284D02*
D03*
X-63223Y189284D02*
D03*
X-88623Y163884D02*
D03*
X-63223Y163884D02*
D03*
X-88623Y138484D02*
D03*
X-63223Y138484D02*
D03*
X-88623Y240084D02*
D03*
X-63223Y-632406D02*
D03*
X-88623Y-657806D02*
D03*
X-63223Y-657806D02*
D03*
X-88623Y-683206D02*
D03*
X-63223D02*
D03*
X-63223Y-708606D02*
D03*
X-88623Y-734006D02*
D03*
X-63223D02*
D03*
X-88623Y-759406D02*
D03*
X-63223Y-759406D02*
D03*
X-88623Y-784806D02*
D03*
X-63223Y-784806D02*
D03*
X-88623Y-810206D02*
D03*
X-63223Y-810206D02*
D03*
X-88623Y-708606D02*
D03*
X302216Y-1128921D02*
D03*
X327616Y-1154321D02*
D03*
Y-1128921D02*
D03*
X353016Y-1154321D02*
D03*
Y-1128921D02*
D03*
X378416Y-1128921D02*
D03*
Y-1154321D02*
D03*
X-25400Y113030D02*
D03*
X0Y138430D02*
D03*
X-25400D02*
D03*
X0Y163830D02*
D03*
X-25400Y163830D02*
D03*
X-25400Y189230D02*
D03*
X0Y214630D02*
D03*
X-25400Y214630D02*
D03*
X0Y240030D02*
D03*
X-25400D02*
D03*
X0Y265430D02*
D03*
X-25400D02*
D03*
X0Y290830D02*
D03*
X-25400Y290830D02*
D03*
X0Y189230D02*
D03*
Y316230D02*
D03*
X-25400D02*
D03*
X0Y341630D02*
D03*
X-25400D02*
D03*
X-63184Y-316176D02*
D03*
X-88584Y-341576D02*
D03*
X-63184Y-341576D02*
D03*
X-88584Y-366976D02*
D03*
X-63184Y-366976D02*
D03*
Y-392376D02*
D03*
X-88584Y-417776D02*
D03*
X-63184D02*
D03*
X-88584Y-443176D02*
D03*
X-63184D02*
D03*
X-88584Y-468576D02*
D03*
X-63184D02*
D03*
X-88584Y-493976D02*
D03*
X-63184Y-493976D02*
D03*
X-88584Y-392376D02*
D03*
X-25361Y-519430D02*
D03*
X39Y-494030D02*
D03*
X-25361D02*
D03*
X39Y-468630D02*
D03*
X-25361Y-468630D02*
D03*
Y-443230D02*
D03*
X39Y-417830D02*
D03*
X-25361Y-417830D02*
D03*
X39Y-392430D02*
D03*
X-25361D02*
D03*
X39Y-367030D02*
D03*
X-25361D02*
D03*
X39Y-341630D02*
D03*
X-25361Y-341630D02*
D03*
X39Y-443230D02*
D03*
Y-316230D02*
D03*
X-25361D02*
D03*
X39Y-290830D02*
D03*
X-25361D02*
D03*
X-25400Y-203200D02*
D03*
X0Y-177800D02*
D03*
X-25400D02*
D03*
X0Y-152400D02*
D03*
X-25400D02*
D03*
Y-127000D02*
D03*
X0Y-101600D02*
D03*
X-25400Y-101600D02*
D03*
X0Y-76200D02*
D03*
X-25400D02*
D03*
X0Y-50800D02*
D03*
X-25400D02*
D03*
X0Y-25400D02*
D03*
X-25400Y-25400D02*
D03*
X0Y-127000D02*
D03*
Y0D02*
D03*
X-25400D02*
D03*
X0Y25400D02*
D03*
X-25400D02*
D03*
X900351Y-500314D02*
D03*
X925751Y-474914D02*
D03*
X900351D02*
D03*
X925751Y-449514D02*
D03*
X900351D02*
D03*
Y-424114D02*
D03*
X925751Y-398714D02*
D03*
X900351D02*
D03*
X925751Y-373314D02*
D03*
X900351D02*
D03*
X925751Y-347914D02*
D03*
X900351D02*
D03*
X925751Y-322514D02*
D03*
X900351D02*
D03*
X925751Y-424114D02*
D03*
X862528Y-297060D02*
D03*
X837128Y-322460D02*
D03*
X862528D02*
D03*
X837128Y-347860D02*
D03*
X862528D02*
D03*
Y-373260D02*
D03*
X837128Y-398660D02*
D03*
X862528D02*
D03*
X837128Y-424060D02*
D03*
X862528D02*
D03*
X837128Y-449460D02*
D03*
X862528D02*
D03*
X837128Y-474860D02*
D03*
X862528D02*
D03*
X837128Y-373260D02*
D03*
Y-500260D02*
D03*
X862528D02*
D03*
X837128Y-525660D02*
D03*
X862528D02*
D03*
Y19170D02*
D03*
X837128Y-6230D02*
D03*
X862528D02*
D03*
X837128Y-31630D02*
D03*
X862528D02*
D03*
Y-57030D02*
D03*
X837128Y-82430D02*
D03*
X862528D02*
D03*
X837128Y-107830D02*
D03*
X862528D02*
D03*
X837128Y-133230D02*
D03*
X862528D02*
D03*
X837128Y-158630D02*
D03*
X862528D02*
D03*
X837128Y-57030D02*
D03*
Y-184030D02*
D03*
X862528D02*
D03*
X837128Y-209430D02*
D03*
X862528D02*
D03*
Y-613290D02*
D03*
X837128Y-638690D02*
D03*
X862528D02*
D03*
X837128Y-664090D02*
D03*
X862528D02*
D03*
Y-689490D02*
D03*
X837128Y-714890D02*
D03*
X862528D02*
D03*
X837128Y-740290D02*
D03*
X862528D02*
D03*
X837128Y-765690D02*
D03*
X862528D02*
D03*
X837128Y-791090D02*
D03*
X862528D02*
D03*
X837128Y-689490D02*
D03*
Y-816490D02*
D03*
X862528D02*
D03*
X837128Y-841890D02*
D03*
X862528D02*
D03*
D67*
X1140500Y143500D02*
D03*
X298241Y-746731D02*
D03*
X423971D02*
D03*
X925201Y-1133444D02*
D03*
X836578Y-930190D02*
D03*
X-88743Y-951296D02*
D03*
X-120Y-1154550D02*
D03*
X925751Y-816544D02*
D03*
Y-184084D02*
D03*
X-88623Y54D02*
D03*
X0Y-835660D02*
D03*
X-88623Y316284D02*
D03*
Y-632406D02*
D03*
X0Y113030D02*
D03*
X-88584Y-316176D02*
D03*
X39Y-519430D02*
D03*
X0Y-203200D02*
D03*
X925751Y-500314D02*
D03*
X837128Y-297060D02*
D03*
Y19170D02*
D03*
Y-613290D02*
D03*
D68*
X998400Y123550D02*
D03*
D69*
X973000D02*
D03*
X998400Y148950D02*
D03*
X973000Y148950D02*
D03*
X998400Y174350D02*
D03*
X973000D02*
D03*
Y199750D02*
D03*
X998400Y225150D02*
D03*
X973000D02*
D03*
X998400Y250550D02*
D03*
X973000Y250550D02*
D03*
X998400Y275950D02*
D03*
X973000D02*
D03*
X998400Y199750D02*
D03*
X973000Y352150D02*
D03*
X998400Y352150D02*
D03*
X973000Y326750D02*
D03*
X998400D02*
D03*
X973000Y301350D02*
D03*
X998400Y301350D02*
D03*
D70*
X567431Y-679449D02*
D03*
X471431D02*
D03*
D71*
X494431Y-749449D02*
D03*
X544431D02*
D03*
X519431D02*
D03*
X650640Y331620D02*
D03*
X700640D02*
D03*
X650640Y186620D02*
D03*
X676641D02*
D03*
X700640D02*
D03*
D72*
X733640Y261620D02*
D03*
X617640D02*
D03*
D73*
X494030Y-788670D02*
D03*
X544830Y-938239D02*
D03*
D74*
X519430Y-788670D02*
D03*
X544830D02*
D03*
X519430Y-938239D02*
D03*
X494030D02*
D03*
D75*
X525654Y-191677D02*
D03*
X452076Y-1154321D02*
D03*
X302216D02*
D03*
D76*
X277820Y377620D02*
D03*
X398220D02*
D03*
D77*
X325520Y350520D02*
D03*
X350520D02*
D03*
X350520Y330520D02*
D03*
D78*
X325520D02*
D03*
M02*
