M48
;Layer_Color=9474304
;FILE_FORMAT=4:4
METRIC,LZ
;TYPE=PLATED
T01F00S00C0.5000
T02F00S00C0.9200
T03F00S00C1.0000
T05F00S00C1.1000
T06F00S00C2.3000
T07F00S00C2.6000
;TYPE=NON_PLATED
T08F00S00C2.3000
%
T01
X-00260311Y-0117348
X00069Y-01171
X0006425Y-0118475
X000855Y-011535
X0009625Y-0116025
X0023876Y-0115443
X0023864Y-0112915
Y-0110375
X00597818Y-0110799
X00597818Y-0113339
X0059817Y-0117856
X01096769Y-0117796
Y-0091126
X01097319Y-0086106
X0059817Y-0085979
X00598368Y-0081649
X00598368Y-0079109
Y-0076569
Y-0074029
Y-0071489
X0059817Y-0091059
X00597818Y-0095559
X00597818Y-0098099
X00597818Y-0100639
Y-0103179
Y-0105719
Y-0108259
X0048387Y-0105537
X00467322
X0043942Y-0106299
X0041656
X0040894Y-0104775
X0036195Y-0097028
X0034036Y-00991802
X0023864Y-0100215
Y-0097675
X0023864Y-0095135
X0023864Y-0102755
Y-0105295
Y-0107835
X0023876Y-0081026
Y-0078486
Y-0075946
Y-0073406
Y-0070866
X0028702Y-0078359
X003375Y-00771
X0036075Y-00785
X0041275Y-0078359
X0042545Y-0084074
X0039241Y-0085984
X0040386Y-00889
X004191
X004485Y-0093075
X004572Y-0094488
X0050038Y-0091567
X0049149Y-00889
X0051943Y-0083693
X0034841Y-0085934
X0013323Y-0089293
X-00260311Y-0090678
X-00260191Y-0085459
Y-0058789
X-00260152Y-0053836
X0013335Y-0057404
X0023876Y-0063246
X0023876Y-0065786
X0023876Y-0068326
X0032893Y-0066929
X0034544
X0042418Y-0051689
X0041275Y-0050546
X004445Y-0047625
X0038608Y-004191
X0038862Y-0037338
X004318Y-0036576
X0043561Y-0031242
X0045466Y-0030734
X0046482Y-0029972
X0050038Y-0031496
X003429Y-0030861
X00238799Y-0031623
X00238799Y-0034163
Y-0036703
Y-0039243
Y-0041783
Y-0044323
Y-0046863
Y-0049403
X003175Y-0045974
X0056621Y-0044571
X00598368Y-0044946
Y-0042406
Y-0039866
Y-0037326
X00598368Y-0034786
X00598368Y-0032246
X00535Y-003435
X0053175Y-0035925
X0054525Y-0041375
X0059817Y-0052705
X00598368Y-0063869
X00598368Y-0066409
X00598368Y-0068949
X01097319Y-0059436
Y-0054483
Y-0027813
Y-002286
Y000381
X007747Y-0000508
Y-0003175
X00774696Y-0005706
X00598499Y-0005703
Y-0008243
Y-0010783
Y-0013323
Y-0015863
X00598499Y-0018403
X0062738Y-00254
X00598499Y-0003163
X00598499Y-0000623
X00623502Y0009906
X0066548Y0008636
X006858
X003405Y000335
Y0001775
X003569Y-00011
X00331Y-0003975
X00327Y-000585
X003015Y-000785
X00334721Y-00100951
X00363722Y-00100394
X0038474Y-0013811
X0031362
X0023876Y-00127
Y-001524
Y-001778
Y-001016
Y-000762
Y-000508
Y-000254
X0023876Y0
X0039494Y-0006064
X0041455Y-00074784
X0042975Y-000875
X0033274Y-0023368
X0032639Y-0028702
X00133389Y-0025781
X0013335Y0005842
X-00260191Y0004457
Y000941
Y-0022213
X-00260152Y-0027166
X-00260191Y003608
X0013335Y0037465
X0023876Y0031623
Y0029083
Y0026543
Y0024003
Y0021463
Y0018923
X002785Y0021675
X0029125Y002065
X0038475Y00204
X0040386Y0021971
X004191Y0025273
X0044704Y0020955
X0044682Y001725
X0026543Y0031369
X0063125Y00164
X0067564Y001143
X00727Y0013375
Y00147
X0072725Y00161
X007005Y002165
X01041229Y0032766
X0104013Y0037973
T02
X0032552Y0033052
Y0035052
X0035052
X0035052Y0033052
T03
X-00088743Y-01129096
X-00088743Y-01103696
X-00063343Y-01103696
Y-01129096
X-0002552Y-0112915
X-0002552Y-0115455
X-0000012Y-0115455
Y-0112915
Y-0110375
X-0002552Y-0110375
X00302216Y-01128921
Y-01154321
X00327616
Y-01128921
X00353016Y-01128921
Y-01154321
X00378416
Y-01128921
X00452076
Y-01154321
X00477476
Y-01128921
X00502876Y-01128921
Y-01154321
X00528276
Y-01128921
X00836578Y-0113339
Y-0115879
X00861978
Y-0113339
Y-0110799
X00836578
X00899801Y-01108044
Y-01133444
X00925201Y-01133444
Y-01108044
X00925201Y-01082644
X00899801
Y-01057244
Y-01031844
X00925201
X00925201Y-01006444
X00899801Y-01006444
Y-00981044
Y-00955644
X00925201
X00925201Y-00981044
X00861978Y-0098099
X00836578
Y-0100639
X00861978Y-0100639
Y-0103179
Y-0105719
Y-0108259
X00836578Y-0108259
Y-0105719
Y-0103179
Y-0095559
Y-0093019
X00861978
X00861978Y-0095559
X00862528Y-0084189
Y-0081649
Y-0079109
Y-0076569
Y-0074029
Y-0071489
X00837128
Y-0074029
Y-0076569
Y-0079109
Y-0081649
Y-0084189
X00900351Y-00816544
X00925751
Y-00791144
X00900351
Y-00765744
X00925751
Y-00740344
X00900351
Y-00714944
X00925751
X00925201Y-01057244
X0054483Y-00938239
Y-0078867
X0051943
X0049403
X00423971Y-00746731
X00398571
Y-00721331
X00423971
X00298241
X00272841
Y-00746731
X00298241
X0049403Y-00938239
X0051943
X-0000012Y-0092595
X-0000012Y-0095135
X-0002552
Y-0097675
Y-0100215
Y-0102755
X-0000012
Y-0100215
Y-0097675
X-00063343Y-00976696
Y-00951296
X-00088743
X-00088743Y-00976696
X-00088743Y-01002096
X-00063343
X-00063343Y-01027496
X-00063343Y-01052896
X-00088743
X-00088743Y-01078296
X-00063343Y-01078296
X-0002552Y-0107835
X-0002552Y-0105295
X-0000012Y-0105295
Y-0107835
X-00088743Y-01027496
X-0002552Y-0092595
X-000254Y-0083566
X0
Y-0081026
X-000254
Y-0078486
Y-0075946
Y-0073406
X0Y-0073406
X0Y-0070866
X-000254
X-00063223Y-00708606
X-00063223Y-00734006
X-00088623
X-00088623Y-00759406
X-00063223Y-00759406
Y-00784806
Y-00810206
X-00088623Y-00810206
X-00088623Y-00784806
X-00088623Y-00708606
X0Y-0075946
X0Y-0078486
X0Y-0068326
X-000254
Y-0065786
Y-0063246
X0
X0Y-0060706
X-000254
X-00063223Y-00632406
Y-00657806
Y-00683206
X-00088623
X-00088623Y-00657806
Y-00632406
X0Y-0065786
X00000039Y-0051943
X-00025361
Y-0049403
X00000039
X00000039Y-0046863
Y-0044323
X-00025361Y-0044323
Y-0046863
X-00063184Y-00468576
X-00063184Y-00443176
Y-00417776
X-00088584
Y-00443176
Y-00468576
Y-00493976
X-00063184Y-00493976
Y-00392376
Y-00366976
Y-00341576
X-00063184Y-00316176
X-00088584
Y-00341576
Y-00366976
Y-00392376
X-00025361Y-0039243
Y-0041783
X00000039Y-0041783
X00000039Y-0039243
X00000039Y-0036703
X-00025361
Y-0034163
Y-0031623
X00000039
X00000039Y-0034163
X00837128Y-0034786
Y-0032246
Y-0029706
X00862528
Y-0032246
Y-0034786
Y-0037326
Y-0039866
X00837128
Y-0042406
X00862528
Y-0044946
X00837128
Y-0047486
X00862528
Y-0050026
X00837128
Y-0052566
X00862528
X00900351Y-00500314
X00925751
Y-00474914
X00900351
Y-00449514
X00925751
Y-00424114
X00900351
Y-00398714
X00925751
Y-00373314
X00900351
Y-00347914
X00925751
Y-00322514
X00900351
X00837128Y-0037326
Y-0061329
X00862528
Y-0063869
X00837128
Y-0066409
X00862528
Y-0068949
X00837128
X00900351Y-00689544
X00925751
Y-00664144
X00900351
Y-00638744
X00925751
Y-00184084
X00900351
Y-00158684
X00925751
Y-00133284
X00900351
Y-00107884
Y-00082484
X00925751
Y-00057084
X00900351
Y-00031684
X00925751
Y-00006284
X00900351
X00862528Y-0000623
Y0001917
X00837128
Y-0000623
Y-0003163
X00862528
Y-0005703
Y-0008243
X00837128
Y-0010783
X00862528
Y-0013323
X00837128
Y-0015863
X00862528
Y-0018403
X00837128
Y-0020943
X00862528
X00925751Y-00107884
X00837128Y-0005703
X00525654Y-00191677
X00500254
X00474854
X00449454
X00424083Y-00191699
X00424054Y-00217077
X00449454
X00474854
X00500254
X00525654
X0Y-002032
X-000254
Y-001778
X0
X0Y-001524
X-000254
Y-00127
Y-001016
X0Y-001016
X0Y-000762
X-000254
Y-000508
X0
X0Y-000254
X-000254Y-000254
Y0
X0
X0Y000254
X-000254
X-00063223Y00000054
Y-00025346
Y-00050746
X-00088623
X-00088623Y-00025346
Y00000054
X-00088623Y-00076146
Y-00101546
X-00063223
Y-00126946
Y-00152346
Y-00177746
X-00088623Y-00177746
X-00088623Y-00152346
Y-00126946
X-00063223Y-00076146
X0Y-00127
X00000039Y-0029083
X-00025361
X-000254Y0011303
X0
Y0013843
X-000254
Y0016383
X-000254Y0018923
X-000254Y0021463
X0Y0021463
X0Y0024003
X-000254
Y0026543
X0
X0Y0029083
X-000254Y0029083
X-000254Y0031623
X0
X0Y0034163
X-000254
X-00063223Y00316284
Y00290884
Y00265484
X-00088623
X-00088623Y00290884
Y00316284
X-00088623Y00240084
Y00214684
X-00063223
Y00189284
Y00163884
Y00138484
X-00088623Y00138484
X-00088623Y00163884
Y00189284
X-00063223Y00240084
X0Y0018923
X0Y0016383
X0065064Y0018662
X00676641
X0070064
Y0033162
X0065064
X00973Y0032675
Y0035215
X009984Y0035215
X009984Y0032675
Y0030135
Y0027595
X00973
Y0025055
X009984Y0025055
X009984Y0022515
Y0019975
Y0017435
X009984Y0014895
X00973Y0014895
Y0012355
X009984
X00973Y0017435
Y0019975
X00973Y0022515
X00973Y0030135
X011151Y002959
Y003213
X011405
Y002959
Y002705
X011151
Y002451
X011405
Y002197
X011151
Y001943
X011405
Y001689
X011151
Y001435
X011405
T05
X00544431Y-00749449
X00519431
X00494431
T06
X0027782Y0037762
X0039822
T07
X0061764Y0026162
X0073364
T08
X00471431Y-00679449
X00567431
M30
