G04*
G04 #@! TF.GenerationSoftware,Altium Limited,Altium Designer,25.8.1 (18)*
G04*
G04 Layer_Color=32768*
%FSLAX44Y44*%
%MOMM*%
G71*
G04*
G04 #@! TF.SameCoordinates,1DD17807-008B-40D4-811F-6DFA0BD173B0*
G04*
G04*
G04 #@! TF.FilePolarity,Positive*
G04*
G01*
G75*
%ADD11C,0.1500*%
%ADD103C,0.0500*%
D11*
X944019Y-935610D02*
X952019D01*
X944019Y-1153610D02*
Y-935610D01*
Y-1153610D02*
X1059019D01*
Y-935610D01*
X952019D02*
X1059019D01*
X702719D02*
X710719D01*
X702719Y-1153610D02*
Y-935610D01*
Y-1153610D02*
X817719Y-1153610D01*
Y-935610D01*
X710719D02*
X817719D01*
X-115561Y-1149130D02*
X-107561D01*
Y-931130D01*
X-222561Y-931130D02*
X-107561Y-931130D01*
X-222561Y-1149130D02*
X-222561Y-931130D01*
X-222561Y-1149130D02*
X-115561Y-1149130D01*
X125739D02*
X133739D01*
Y-931130D01*
X18739Y-931130D02*
X133739Y-931130D01*
X18739Y-1149130D02*
Y-931130D01*
Y-1149130D02*
X125739D01*
X-115441Y-830240D02*
X-107441D01*
Y-612240D01*
X-222441Y-612240D02*
X-107441Y-612240D01*
X-222441Y-830240D02*
X-222441Y-612240D01*
X-222441Y-830240D02*
X-115441D01*
Y118450D02*
X-107441D01*
Y336450D01*
X-222441Y336450D02*
X-107441Y336450D01*
X-222441Y118450D02*
X-222441Y336450D01*
X-222441Y118450D02*
X-115441D01*
X125859Y-197780D02*
X133859D01*
Y20220D01*
X18859D02*
X133859D01*
X18859Y-197780D02*
Y20220D01*
Y-197780D02*
X125859D01*
X-115402Y-514010D02*
X-107402D01*
Y-296010D01*
X-222402Y-296010D02*
X-107402Y-296010D01*
X-222402Y-514010D02*
X-222402Y-296010D01*
X-222402Y-514010D02*
X-115402D01*
X703269Y-618710D02*
X711269D01*
X703269Y-836710D02*
Y-618710D01*
Y-836710D02*
X818269D01*
Y-618710D01*
X711269D02*
X818269D01*
X944569D02*
X952569D01*
X944569Y-836710D02*
Y-618710D01*
Y-836710D02*
X1059569D01*
Y-618710D01*
X952569D02*
X1059569D01*
X703269Y-302480D02*
X711269D01*
X703269Y-520480D02*
Y-302480D01*
Y-520480D02*
X818269D01*
Y-302480D01*
X711269D02*
X818269D01*
X944569D02*
X952569D01*
X944569Y-520480D02*
Y-302480D01*
Y-520480D02*
X1059569D01*
Y-302480D01*
X952569D02*
X1059569D01*
X-115441Y-197780D02*
X-107441D01*
Y20220D01*
X-222441Y20220D02*
X-107441Y20220D01*
X-222441Y-197780D02*
X-222441Y20220D01*
X-222441Y-197780D02*
X-115441D01*
X125898Y-514010D02*
X133898D01*
Y-296010D01*
X18898D02*
X133898D01*
X18898Y-514010D02*
Y-296010D01*
Y-514010D02*
X125898D01*
X125859Y-830240D02*
X133859D01*
Y-612240D01*
X18859D02*
X133859D01*
X18859Y-830240D02*
Y-612240D01*
Y-830240D02*
X125859D01*
X944569Y13750D02*
X952569D01*
X944569Y-204250D02*
Y13750D01*
Y-204250D02*
X1059569D01*
Y13750D01*
X952569D02*
X1059569D01*
X703269D02*
X711269D01*
X703269Y-204250D02*
Y13750D01*
Y-204250D02*
X818269D01*
Y13750D01*
X711269D02*
X818269D01*
X125859Y118450D02*
X133859D01*
Y336450D01*
X18859D02*
X133859D01*
X18859Y118450D02*
Y336450D01*
Y118450D02*
X125859D01*
D103*
X356750Y-610500D02*
Y-595500D01*
X369750Y-603000D02*
X374750D01*
X356750Y-610500D02*
X382750D01*
X369750Y-603000D02*
Y-598000D01*
X382750Y-610500D02*
Y-595500D01*
X364750Y-603000D02*
X369750D01*
Y-608000D02*
Y-603000D01*
X356750Y-595500D02*
X382750D01*
X357000Y-560750D02*
Y-545750D01*
X370000Y-553250D02*
X375000D01*
X357000Y-560750D02*
X383000D01*
X370000Y-553250D02*
Y-548250D01*
X383000Y-560750D02*
Y-545750D01*
X365000Y-553250D02*
X370000D01*
Y-558250D02*
Y-553250D01*
X357000Y-545750D02*
X383000D01*
Y-31500D02*
Y-26500D01*
Y-21500D01*
Y-26500D02*
X388000D01*
X378000D02*
X383000D01*
X375500Y-39500D02*
X390500D01*
X375500Y-13500D02*
X390500D01*
Y-39500D02*
Y-13500D01*
X375500Y-39500D02*
Y-13500D01*
X359750Y17750D02*
X364750D01*
X354750D02*
X359750D01*
Y22750D01*
Y12750D02*
Y17750D01*
X372750Y10250D02*
Y25250D01*
X346750Y10250D02*
Y25250D01*
X372750D01*
X346750Y10250D02*
X372750D01*
X359750Y33500D02*
X364750D01*
X354750D02*
X359750D01*
Y38500D01*
Y28500D02*
Y33500D01*
X372750Y26000D02*
Y41000D01*
X346750Y26000D02*
Y41000D01*
X372750D01*
X346750Y26000D02*
X372750D01*
X350250Y-39750D02*
X355250D01*
X345250D02*
X350250D01*
Y-34750D01*
Y-44750D02*
Y-39750D01*
X363250Y-47250D02*
Y-32250D01*
X337250Y-47250D02*
Y-32250D01*
X363250D01*
X337250Y-47250D02*
X363250D01*
X383000Y-53500D02*
Y-48500D01*
Y-58500D02*
Y-53500D01*
X378000D02*
X383000D01*
X388000D01*
X375500Y-40500D02*
X390500D01*
X375500Y-66500D02*
X390500D01*
X375500D02*
Y-40500D01*
X390500Y-66500D02*
Y-40500D01*
X320000Y42000D02*
Y57000D01*
X333000Y49500D02*
X338000D01*
X320000Y42000D02*
X346000D01*
X333000Y49500D02*
Y54500D01*
X346000Y42000D02*
Y57000D01*
X328000Y49500D02*
X333000D01*
Y44500D02*
Y49500D01*
X320000Y57000D02*
X346000D01*
X374250Y41750D02*
Y56750D01*
X387250Y49250D02*
X392250D01*
X374250Y41750D02*
X400250D01*
X387250Y49250D02*
Y54250D01*
X400250Y41750D02*
Y56750D01*
X382250Y49250D02*
X387250D01*
Y44250D02*
Y49250D01*
X374250Y56750D02*
X400250D01*
X324000Y-16750D02*
X339000D01*
X331500Y-3750D02*
Y1250D01*
X339000Y-16750D02*
Y9250D01*
X326500Y-3750D02*
X331500D01*
X324000Y9250D02*
X339000D01*
X331500Y-8750D02*
Y-3750D01*
X336500D01*
X324000Y-16750D02*
Y9250D01*
X414250Y49250D02*
X419250D01*
X409250D02*
X414250D01*
Y54250D01*
Y44250D02*
Y49250D01*
X427250Y41750D02*
Y56750D01*
X401250Y41750D02*
Y56750D01*
X427250D01*
X401250Y41750D02*
X427250D01*
X424250Y34500D02*
X428000Y32750D01*
X431750Y34500D01*
X435500Y-3500D02*
Y34500D01*
X401250Y-3500D02*
Y34500D01*
Y-3500D02*
X435500D01*
X401250Y34500D02*
X435500D01*
X418500Y15500D02*
X423500D01*
X413500D02*
X418500D01*
Y10500D02*
Y15500D01*
Y20500D01*
X409000Y-41500D02*
X412750Y-43250D01*
X405250D02*
X409000Y-41500D01*
X401500Y-43250D02*
Y-5250D01*
X435750Y-43250D02*
Y-5250D01*
X401500D02*
X435750D01*
X401500Y-43250D02*
X435750D01*
X413500Y-24250D02*
X418500D01*
X423500D01*
X418500D02*
Y-19250D01*
Y-29250D02*
Y-24250D01*
X381500Y11000D02*
X386500D01*
Y6000D02*
Y11000D01*
X375500Y36000D02*
X375500Y-12250D01*
X375500Y36000D02*
X397500D01*
X386500Y11000D02*
X391500D01*
X386500D02*
Y16000D01*
X375500Y-12250D02*
X397500D01*
X397500Y36000D01*
X414059Y-302758D02*
X508811Y-397510D01*
X394260Y-322557D02*
X394967Y-325385D01*
X392139Y-324678D02*
X394967Y-325385D01*
X319307Y-397510D02*
X414059Y-302758D01*
Y-492262D02*
X508811Y-397510D01*
X319307D02*
X414059Y-492262D01*
X456500Y464500D02*
X564250D01*
X456500Y309750D02*
Y464500D01*
Y309750D02*
X564250D01*
X564250Y464500D02*
X564250Y309750D01*
X446000Y318000D02*
Y323000D01*
Y328000D01*
Y323000D02*
X451000D01*
X441000D02*
X446000D01*
X438500Y310000D02*
X453500D01*
X438500Y336000D02*
X453500D01*
Y310000D02*
Y336000D01*
X438500Y310000D02*
Y336000D01*
X588500Y319250D02*
Y324250D01*
Y329250D01*
Y324250D02*
X593500D01*
X583500D02*
X588500D01*
X581000Y311250D02*
X596000D01*
X581000Y337250D02*
X596000D01*
Y311250D02*
Y337250D01*
X581000Y311250D02*
Y337250D01*
X468500Y-870500D02*
X473500D01*
X463500D02*
X468500D01*
Y-865500D01*
Y-875500D02*
Y-870500D01*
X481500Y-878000D02*
Y-863000D01*
X455500Y-878000D02*
Y-863000D01*
X481500D01*
X455500Y-878000D02*
X481500D01*
X468500Y-885500D02*
X473500D01*
X463500D02*
X468500D01*
Y-880500D01*
Y-890500D02*
Y-885500D01*
X481500Y-893000D02*
Y-878000D01*
X455500Y-893000D02*
Y-878000D01*
X481500D01*
X455500Y-893000D02*
X481500D01*
X468500Y-900500D02*
X473500D01*
X463500D02*
X468500D01*
Y-895500D01*
Y-905500D02*
Y-900500D01*
X481500Y-908000D02*
Y-893000D01*
X455500Y-908000D02*
Y-893000D01*
X481500D01*
X455500Y-908000D02*
X481500D01*
X1054250Y135750D02*
Y140750D01*
Y130750D02*
Y135750D01*
X1049250D02*
X1054250D01*
X1059250D01*
X1046750Y148750D02*
X1061750D01*
X1046750Y122750D02*
X1061750D01*
X1046750D02*
Y148750D01*
X1061750Y122750D02*
Y148750D01*
X1078418Y373834D02*
X1174418D01*
X1078418Y90584D02*
Y373834D01*
X1174418Y164618D02*
Y373834D01*
X1078418Y90584D02*
X1174418D01*
Y164618D01*
X1122917Y232336D02*
X1132917D01*
X1127920Y227332D02*
Y237332D01*
X314250Y-788750D02*
X316000Y-784750D01*
X314250Y-780750D02*
X316000Y-784750D01*
X314250Y-777000D02*
X354750D01*
X314250Y-811250D02*
X354750D01*
Y-777000D01*
X314250Y-811250D02*
Y-777000D01*
X334500Y-794250D02*
Y-789250D01*
Y-799250D02*
Y-794250D01*
X339500D01*
X329500D02*
X334500D01*
X273050Y-782240D02*
Y-777240D01*
Y-772240D01*
Y-777240D02*
X278050D01*
X268050D02*
X273050D01*
X265550Y-790240D02*
X280550D01*
X265550Y-764240D02*
X280550D01*
Y-790240D02*
Y-764240D01*
X265550Y-790240D02*
Y-764240D01*
X398780Y-777240D02*
Y-772240D01*
Y-782240D02*
Y-777240D01*
X393780D02*
X398780D01*
X403780D01*
X391280Y-764240D02*
X406280D01*
X391280Y-790240D02*
X406280D01*
X391280D02*
Y-764240D01*
X406280Y-790240D02*
Y-764240D01*
X294340Y-655200D02*
Y-640200D01*
X307340Y-647700D02*
X312340D01*
X294340Y-655200D02*
X320340D01*
X307340Y-647700D02*
Y-642700D01*
X320340Y-655200D02*
Y-640200D01*
X302340Y-647700D02*
X307340D01*
Y-652700D02*
Y-647700D01*
X294340Y-640200D02*
X320340D01*
X328930Y-647700D02*
Y-642700D01*
Y-652700D02*
Y-647700D01*
X323930D02*
X328930D01*
X333930D01*
X321430Y-634700D02*
X336430D01*
X321430Y-660700D02*
X336430D01*
X321430D02*
Y-634700D01*
X336430Y-660700D02*
Y-634700D01*
X285750Y-652700D02*
Y-647700D01*
Y-642700D01*
Y-647700D02*
X290750D01*
X280750D02*
X285750D01*
X278250Y-660700D02*
X293250D01*
X278250Y-634700D02*
X293250D01*
Y-660700D02*
Y-634700D01*
X278250Y-660700D02*
Y-634700D01*
X337870Y-641990D02*
X339620Y-638240D01*
X337870Y-634490D02*
X339620Y-638240D01*
X337870Y-630740D02*
X375870D01*
X337870Y-664990D02*
X375870D01*
Y-630740D01*
X337870Y-664990D02*
Y-630740D01*
X356870Y-647740D02*
Y-642740D01*
Y-652740D02*
Y-647740D01*
X361870D01*
X351870D02*
X356870D01*
X542410Y-918510D02*
X557410D01*
X549910Y-905510D02*
Y-900510D01*
X557410Y-918510D02*
Y-892510D01*
X544910Y-905510D02*
X549910D01*
X542410Y-892510D02*
X557410D01*
X549910Y-910510D02*
Y-905510D01*
X554910D01*
X542410Y-918510D02*
Y-892510D01*
X459931Y-621949D02*
X578931D01*
X459931Y-759949D02*
X578931D01*
X459931D02*
Y-621949D01*
X578931Y-759949D02*
Y-621949D01*
X519430Y-679450D02*
X524430D01*
X514430D02*
X519430D01*
X519430Y-674450D02*
X519430Y-679450D01*
X519430Y-684450D01*
X697530Y156130D02*
Y171130D01*
X679530Y163630D02*
X684530D01*
X671530Y171130D02*
X697530D01*
X684530Y158630D02*
Y163630D01*
X671530Y156130D02*
Y171130D01*
X684530Y163630D02*
X689530D01*
X684530D02*
Y168630D01*
X671530Y156130D02*
X697530D01*
X643590D02*
Y171130D01*
X656590Y163630D02*
X661590D01*
X643590Y156130D02*
X669590D01*
X656590Y163630D02*
Y168630D01*
X669590Y156130D02*
Y171130D01*
X651590Y163630D02*
X656590D01*
Y158630D02*
Y163630D01*
X643590Y171130D02*
X669590Y171130D01*
X610640Y176120D02*
X650640D01*
X610640D02*
Y209620D01*
Y342120D01*
X740640D01*
Y176120D02*
Y342120D01*
X650640Y176120D02*
X740640D01*
X562080Y-832460D02*
X563830Y-828710D01*
X562080Y-832460D02*
X563830Y-836210D01*
X525830Y-839960D02*
X563830D01*
X525830Y-805710D02*
X563830D01*
X525830Y-839960D02*
Y-805710D01*
X563830Y-839960D02*
Y-805710D01*
X544830Y-827960D02*
Y-822960D01*
Y-817960D01*
X539830Y-822960D02*
X544830D01*
X549830D01*
X339720Y-129960D02*
X343470Y-131710D01*
X335970D02*
X339720Y-129960D01*
X332220Y-131710D02*
Y-93710D01*
X366470Y-131710D02*
Y-93710D01*
X332220D02*
X366470D01*
X332220Y-131710D02*
X366470D01*
X344220Y-112710D02*
X349220D01*
X354220D01*
X349220D02*
Y-107710D01*
Y-117710D02*
Y-112710D01*
X257541Y-706113D02*
X313541D01*
X257541Y-761981D02*
Y-706113D01*
X313541Y-744231D02*
Y-706113D01*
X257541Y-761981D02*
X313541D01*
Y-744231D01*
X383271Y-706113D02*
X439271D01*
X383271Y-761981D02*
Y-706113D01*
X439271Y-744231D02*
Y-706113D01*
X383271Y-761981D02*
X439271D01*
Y-744231D01*
X519430Y-788670D02*
Y-783590D01*
X514350Y-788670D02*
X519430D01*
Y-793750D02*
Y-788670D01*
X524510D01*
X476430Y-803920D02*
Y-773420D01*
X562430D01*
Y-803920D02*
Y-773420D01*
X476430Y-803920D02*
X562430D01*
X519430Y-943319D02*
Y-938239D01*
X524510D01*
X519430D02*
Y-933159D01*
X514350Y-938239D02*
X519430D01*
X562430Y-953489D02*
Y-922989D01*
X476430Y-953489D02*
X562430D01*
X476430D02*
Y-922989D01*
X562430D01*
X518500Y-485750D02*
Y-451750D01*
X543905D02*
X578500D01*
Y-485750D02*
Y-451750D01*
X518500Y-485750D02*
X578500D01*
X518500Y-451750D02*
X522750D01*
X543905D01*
X546000Y-468750D02*
X548500D01*
X548500Y-471250D02*
X548500Y-468750D01*
X551000D01*
X548500D02*
X548500Y-466250D01*
X1058969Y-1172760D02*
Y-1157760D01*
X1040969Y-1165260D02*
X1045969D01*
X1032969Y-1157760D02*
X1058969D01*
X1045969Y-1170260D02*
Y-1165260D01*
X1032969Y-1172760D02*
Y-1157760D01*
X1045969Y-1165260D02*
X1050969D01*
X1045969D02*
Y-1160260D01*
X1032969Y-1172760D02*
X1058969D01*
X1058969Y-1191810D02*
Y-1176810D01*
X1040969Y-1184310D02*
X1045969D01*
X1032969Y-1176810D02*
X1058969D01*
X1045969Y-1189310D02*
Y-1184310D01*
X1032969Y-1191810D02*
Y-1176810D01*
X1045969Y-1184310D02*
X1050969D01*
X1045969D02*
Y-1179310D01*
X1032969Y-1191810D02*
X1058969Y-1191810D01*
X944069D02*
Y-1176810D01*
X957069Y-1184310D02*
X962069D01*
X944069Y-1191810D02*
X970069D01*
X957069Y-1184310D02*
Y-1179310D01*
X970069Y-1191810D02*
Y-1176810D01*
X952069Y-1184310D02*
X957069D01*
Y-1189310D02*
Y-1184310D01*
X944069Y-1176810D02*
X970069D01*
X944069Y-1172760D02*
Y-1157760D01*
X957069Y-1165260D02*
X962069D01*
X944069Y-1172760D02*
X970069D01*
X957069Y-1165260D02*
Y-1160260D01*
X970069Y-1172760D02*
Y-1157760D01*
X952069Y-1165260D02*
X957069D01*
Y-1170260D02*
Y-1165260D01*
X944069Y-1157760D02*
X970069D01*
X944069Y-931460D02*
Y-916460D01*
X957069Y-923960D02*
X962069D01*
X944069Y-931460D02*
X970069D01*
X957069Y-923960D02*
Y-918960D01*
X970069Y-931460D02*
Y-916460D01*
X952069Y-923960D02*
X957069D01*
Y-928960D02*
Y-923960D01*
X944069Y-916460D02*
X970069D01*
X944069Y-912410D02*
Y-897410D01*
X957069Y-904910D02*
X962069D01*
X944069Y-912410D02*
X970069D01*
X957069Y-904910D02*
Y-899910D01*
X970069Y-912410D02*
Y-897410D01*
X952069Y-904910D02*
X957069D01*
Y-909910D02*
Y-904910D01*
X944069Y-897410D02*
X970069D01*
X1058969Y-912410D02*
Y-897410D01*
X1040969Y-904910D02*
X1045969Y-904910D01*
X1032969Y-897410D02*
X1058969D01*
X1045969Y-909910D02*
Y-904910D01*
X1032969Y-912410D02*
Y-897410D01*
X1045969Y-904910D02*
X1050969D01*
X1045969D02*
X1045969Y-899910D01*
X1032969Y-912410D02*
X1058969D01*
X1058969Y-931460D02*
Y-916460D01*
X1040969Y-923960D02*
X1045969D01*
X1032969Y-916460D02*
X1058969D01*
X1045969Y-928960D02*
Y-923960D01*
X1032969Y-931460D02*
Y-916460D01*
X1045969Y-923960D02*
X1050969D01*
X1045969D02*
Y-918960D01*
X1032969Y-931460D02*
X1058969D01*
X1126769Y-1080660D02*
Y-1046660D01*
X1066769Y-1080660D02*
X1101364D01*
X1066769D02*
Y-1046660D01*
X1126769D01*
X1122519Y-1080660D02*
X1126769Y-1080660D01*
X1101364D02*
X1122519Y-1080660D01*
X1096769Y-1063660D02*
X1099269D01*
X1096769D02*
X1096769Y-1061160D01*
X1094269Y-1063660D02*
X1096769D01*
X1096769Y-1066160D02*
X1096769Y-1063660D01*
X1066769Y-1042560D02*
Y-1008560D01*
X1092174Y-1008560D02*
X1126769Y-1008560D01*
Y-1042560D02*
Y-1008560D01*
X1066769Y-1042560D02*
X1126769D01*
X1066769Y-1008560D02*
X1071019Y-1008560D01*
X1092174Y-1008560D01*
X1094269Y-1025560D02*
X1096769D01*
X1096769Y-1028060D02*
X1096769Y-1025560D01*
X1099269D01*
X1096769D02*
X1096769Y-1023060D01*
X1126769Y-1118760D02*
Y-1084760D01*
X1066769Y-1118760D02*
X1101364D01*
X1066769D02*
Y-1084760D01*
X1126769D01*
X1122519Y-1118760D02*
X1126769Y-1118760D01*
X1101364D02*
X1122519Y-1118760D01*
X1096769Y-1101760D02*
X1099269D01*
X1096769D02*
X1096769Y-1099260D01*
X1094269Y-1101760D02*
X1096769D01*
X1096769Y-1104260D02*
X1096769Y-1101760D01*
X1066769Y-1004460D02*
Y-970460D01*
X1092174D02*
X1126769D01*
Y-1004460D02*
Y-970460D01*
X1066769Y-1004460D02*
X1126769D01*
X1066769Y-970460D02*
X1071019D01*
X1092174D01*
X1094269Y-987460D02*
X1096769D01*
X1096769Y-989960D02*
X1096769Y-987460D01*
X1099269D01*
X1096769D02*
X1096769Y-984960D01*
X1126769Y-1156860D02*
Y-1122860D01*
X1066769Y-1156860D02*
X1101364D01*
X1066769D02*
Y-1122860D01*
X1126769D01*
X1122519Y-1156860D02*
X1126769D01*
X1101364D02*
X1122519D01*
X1096769Y-1139860D02*
X1099269D01*
X1096769D02*
X1096769Y-1137360D01*
X1094269Y-1139860D02*
X1096769D01*
X1096769Y-1142360D02*
X1096769Y-1139860D01*
X1066769Y-966360D02*
Y-932360D01*
X1092174D02*
X1126769D01*
Y-966360D02*
Y-932360D01*
X1066769Y-966360D02*
X1126769D01*
X1066769Y-932360D02*
X1071019Y-932360D01*
X1092174Y-932360D01*
X1094269Y-949360D02*
X1096769D01*
X1096769Y-951860D02*
X1096769Y-949360D01*
X1099269D01*
X1096769D02*
X1096769Y-946860D01*
X1126769Y-1194960D02*
Y-1160960D01*
X1066769Y-1194960D02*
X1101364D01*
X1066769D02*
Y-1160960D01*
X1126769D01*
X1122519Y-1194960D02*
X1126769Y-1194960D01*
X1101364D02*
X1122519Y-1194960D01*
X1096769Y-1177960D02*
X1099269D01*
X1096769D02*
X1096769Y-1175460D01*
X1094269Y-1177960D02*
X1096769D01*
X1096769Y-1180460D02*
X1096769Y-1177960D01*
X1066769Y-928260D02*
Y-894260D01*
X1092174D02*
X1126769D01*
Y-928260D02*
Y-894260D01*
X1066769Y-928260D02*
X1126769D01*
X1066769Y-894260D02*
X1071019Y-894260D01*
X1092174Y-894260D01*
X1094269Y-911260D02*
X1096769D01*
X1096769Y-913760D02*
X1096769Y-911260D01*
X1099269D01*
X1096769D02*
X1096769Y-908760D01*
X912621Y-1039612D02*
X912621Y-1049612D01*
X907618Y-1044608D02*
X917618D01*
X940501Y-1148694D02*
Y-1130944D01*
X884501Y-1148694D02*
X940501D01*
Y-1130944D02*
Y-940344D01*
X884501Y-1148694D02*
Y-940344D01*
X940501Y-940344D01*
X849118Y-1049609D02*
Y-1039609D01*
X844116Y-1044611D02*
X854116D01*
X821278Y-932690D02*
Y-914940D01*
X877278Y-914940D01*
X821278Y-1173940D02*
Y-932690D01*
X877278Y-1173940D02*
Y-914940D01*
X821278Y-1173940D02*
X877278Y-1173940D01*
X664668Y-1166411D02*
Y-1151411D01*
X677668Y-1158911D02*
X682668D01*
X664668Y-1166411D02*
X690668D01*
X677668Y-1158911D02*
Y-1153911D01*
X690668Y-1166411D02*
Y-1151411D01*
X672668Y-1158911D02*
X677668D01*
Y-1163911D02*
Y-1158911D01*
X664668Y-1151411D02*
X690668D01*
X665218Y-1113311D02*
X665218Y-1128311D01*
X678218Y-1120811D02*
X683218D01*
X665218Y-1128311D02*
X691218D01*
X678218Y-1120811D02*
Y-1115811D01*
X691218Y-1113311D02*
X691218Y-1128311D01*
X673218Y-1120811D02*
X678218D01*
Y-1125811D02*
Y-1120811D01*
X665218Y-1113311D02*
X691218D01*
X665768Y-1090211D02*
Y-1075211D01*
X678768Y-1082711D02*
X683768D01*
X665768Y-1090211D02*
X691768D01*
X678768Y-1082711D02*
Y-1077711D01*
X691768Y-1090211D02*
Y-1075211D01*
X673768Y-1082711D02*
X678768D01*
Y-1087711D02*
Y-1082711D01*
X665768Y-1075211D02*
X691768D01*
X665218Y-1052111D02*
X665218Y-1037111D01*
X678218Y-1044611D02*
X683218D01*
X665218Y-1052111D02*
X691218Y-1052111D01*
X678218Y-1044611D02*
Y-1039611D01*
X691218Y-1052111D02*
Y-1037111D01*
X673218Y-1044611D02*
X678218D01*
Y-1049611D02*
Y-1044611D01*
X665218Y-1037111D02*
X691218D01*
X664668Y-1014011D02*
Y-999011D01*
X677668Y-1006511D02*
X682668D01*
X664668Y-1014011D02*
X690668D01*
X677668Y-1006511D02*
Y-1001511D01*
X690668Y-1014011D02*
Y-999011D01*
X672668Y-1006511D02*
X677668D01*
Y-1011511D02*
Y-1006511D01*
X664668Y-999011D02*
X690668D01*
X665218Y-975911D02*
Y-960911D01*
X678218Y-968411D02*
X683218D01*
X665218Y-975911D02*
X691218D01*
X678218Y-968411D02*
Y-963411D01*
X691218Y-975911D02*
Y-960911D01*
X673218Y-968411D02*
X678218Y-968411D01*
X678218Y-973411D01*
X665218Y-960911D02*
X691218D01*
X665218Y-937811D02*
Y-922811D01*
X678218Y-930311D02*
X683218D01*
X665218Y-937811D02*
X691218D01*
X678218Y-930311D02*
Y-925311D01*
X691218Y-937811D02*
Y-922811D01*
X673218Y-930311D02*
X678218D01*
Y-935311D02*
Y-930311D01*
X665218Y-922811D02*
X691218D01*
X665218Y-884711D02*
X665218Y-899711D01*
X678218Y-892211D02*
X683218D01*
X665218Y-899711D02*
X691218D01*
X678218Y-892211D02*
Y-887211D01*
X691218Y-899711D02*
Y-884711D01*
X673218Y-892211D02*
X678218D01*
Y-897211D02*
Y-892211D01*
X665218Y-884711D02*
X691218Y-884711D01*
X675169Y-1177960D02*
X680169D01*
X691670Y-1184459D02*
Y-1171459D01*
X663670Y-1184459D02*
X691670D01*
X663670Y-1171459D02*
X691670D01*
X663670D02*
X663670Y-1184459D01*
X677669Y-1180460D02*
Y-1175460D01*
X675719Y-1139860D02*
X680719D01*
X692220Y-1146359D02*
Y-1133359D01*
X664220Y-1146359D02*
X692220Y-1146359D01*
X664220Y-1133359D02*
X692220D01*
X664220Y-1146359D02*
Y-1133359D01*
X678219Y-1142360D02*
Y-1137360D01*
X676269Y-1101760D02*
X681269D01*
X692770Y-1108259D02*
Y-1095259D01*
X664770Y-1108259D02*
X692770Y-1108259D01*
X664770Y-1095259D02*
X692770Y-1095259D01*
X664770Y-1108259D02*
Y-1095259D01*
X678769Y-1104260D02*
Y-1099260D01*
X675719Y-1063660D02*
X680719D01*
X692220Y-1070159D02*
Y-1057159D01*
X664220Y-1070159D02*
X692220D01*
X664220Y-1057159D02*
X692220Y-1057159D01*
X664220Y-1070159D02*
Y-1057159D01*
X678219Y-1066160D02*
Y-1061160D01*
X675169Y-1025560D02*
X680169D01*
X691670Y-1032059D02*
Y-1019059D01*
X663670Y-1032059D02*
X691670Y-1032059D01*
X663670Y-1019059D02*
X691670D01*
X663670Y-1032059D02*
X663670Y-1019059D01*
X677669Y-1028060D02*
Y-1023060D01*
X675719Y-987460D02*
X680719D01*
X692220Y-993959D02*
Y-980959D01*
X664220Y-993959D02*
X692220Y-993959D01*
X664220Y-980959D02*
X692220D01*
X664220D02*
X664220Y-993959D01*
X678219Y-989960D02*
Y-984960D01*
X675719Y-949360D02*
X680719D01*
X692220Y-955859D02*
Y-942859D01*
X664220Y-955859D02*
X692220D01*
X664220Y-942859D02*
X692220D01*
X664220D02*
X664220Y-955859D01*
X678219Y-951860D02*
Y-946860D01*
X675719Y-911260D02*
X680719D01*
X692220Y-904759D02*
X692220Y-917759D01*
X664220D02*
X692220D01*
X664220Y-904759D02*
X692220D01*
X664220Y-917759D02*
Y-904759D01*
X678219Y-913760D02*
Y-908760D01*
X-222511Y-926980D02*
Y-911980D01*
X-209511Y-919480D02*
X-204511D01*
X-222511Y-926980D02*
X-196511D01*
X-209511Y-919480D02*
Y-914480D01*
X-196511Y-926980D02*
X-196511Y-911980D01*
X-214511Y-919480D02*
X-209511D01*
Y-924480D02*
Y-919480D01*
X-222511Y-911980D02*
X-196511D01*
X-222511Y-892930D02*
X-222511Y-907930D01*
X-209511Y-900430D02*
X-204511D01*
X-222511Y-907930D02*
X-196511D01*
X-209511Y-900430D02*
Y-895430D01*
X-196511Y-907930D02*
Y-892930D01*
X-214511Y-900430D02*
X-209511D01*
Y-905430D02*
Y-900430D01*
X-222511Y-892930D02*
X-196511D01*
X-107611Y-907930D02*
Y-892930D01*
X-125611Y-900430D02*
X-120611D01*
X-133611Y-892930D02*
X-107611D01*
X-120611Y-905430D02*
Y-900430D01*
X-133611Y-907930D02*
Y-892930D01*
X-120611Y-900430D02*
X-115611D01*
X-120611D02*
Y-895430D01*
X-133611Y-907930D02*
X-107611D01*
Y-926980D02*
Y-911980D01*
X-125611Y-919480D02*
X-120611D01*
X-133611Y-911980D02*
X-107611D01*
X-120611Y-924480D02*
Y-919480D01*
X-133611Y-926980D02*
Y-911980D01*
X-120611Y-919480D02*
X-115611D01*
X-120611D02*
Y-914480D01*
X-133611Y-926980D02*
X-107611D01*
Y-1153280D02*
X-107611Y-1168280D01*
X-125611Y-1160780D02*
X-120611D01*
X-133611Y-1153280D02*
X-107611D01*
X-120611Y-1165780D02*
Y-1160780D01*
X-133611Y-1168280D02*
Y-1153280D01*
X-120611Y-1160780D02*
X-115611D01*
X-120611D02*
Y-1155780D01*
X-133611Y-1168280D02*
X-107611Y-1168280D01*
X-107611Y-1187330D02*
Y-1172330D01*
X-125611Y-1179830D02*
X-120611D01*
X-133611Y-1172330D02*
X-107611D01*
X-120611Y-1184830D02*
Y-1179830D01*
X-133611Y-1187330D02*
Y-1172330D01*
X-120611Y-1179830D02*
X-115611D01*
X-120611D02*
Y-1174830D01*
X-133611Y-1187330D02*
X-107611D01*
X-222511D02*
Y-1172330D01*
X-209511Y-1179830D02*
X-204511D01*
X-222511Y-1187330D02*
X-196511D01*
X-209511Y-1179830D02*
Y-1174830D01*
X-196511Y-1187330D02*
X-196511Y-1172330D01*
X-214511Y-1179830D02*
X-209511D01*
Y-1184830D02*
Y-1179830D01*
X-222511Y-1172330D02*
X-196511D01*
X-222511Y-1168280D02*
Y-1153280D01*
X-209511Y-1160780D02*
X-204511D01*
X-222511Y-1168280D02*
X-196511Y-1168280D01*
X-209511Y-1160780D02*
Y-1155780D01*
X-196511Y-1153280D02*
X-196511Y-1168280D01*
X-214511Y-1160780D02*
X-209511D01*
Y-1165780D02*
Y-1160780D01*
X-222511Y-1153280D02*
X-196511D01*
X-290311Y-1038080D02*
Y-1004080D01*
X-264906D02*
X-230311D01*
Y-1038080D02*
Y-1004080D01*
X-290311Y-1038080D02*
X-230311D01*
X-290311Y-1004080D02*
X-286061D01*
X-264906D01*
X-262811Y-1021080D02*
X-260311D01*
X-260311Y-1023580D02*
X-260311Y-1021080D01*
X-257811D01*
X-260311D02*
X-260311Y-1018580D01*
X-230311Y-1076180D02*
Y-1042180D01*
X-290311Y-1076180D02*
X-255716D01*
X-290311D02*
Y-1042180D01*
X-230311D01*
X-234561Y-1076180D02*
X-230311D01*
X-255716D02*
X-234561D01*
X-260311Y-1059180D02*
X-257811D01*
X-260311D02*
X-260311Y-1056680D01*
X-262811Y-1059180D02*
X-260311D01*
X-260311Y-1061680D02*
X-260311Y-1059180D01*
X-290311Y-999980D02*
Y-965980D01*
X-264906D02*
X-230311D01*
Y-999980D02*
Y-965980D01*
X-290311Y-999980D02*
X-230311D01*
X-290311Y-965980D02*
X-286061D01*
X-264906D01*
X-262811Y-982980D02*
X-260311D01*
X-260311Y-985480D02*
X-260311Y-982980D01*
X-257811D01*
X-260311D02*
X-260311Y-980480D01*
X-230311Y-1114280D02*
Y-1080280D01*
X-290311Y-1114280D02*
X-255716D01*
X-290311D02*
Y-1080280D01*
X-230311D01*
X-234561Y-1114280D02*
X-230311D01*
X-255716D02*
X-234561D01*
X-260311Y-1097280D02*
X-257811D01*
X-260311D02*
X-260311Y-1094780D01*
X-262811Y-1097280D02*
X-260311D01*
X-260311Y-1099780D02*
X-260311Y-1097280D01*
X-290311Y-927880D02*
X-290311Y-961880D01*
X-264906Y-927880D02*
X-230311D01*
Y-961880D02*
Y-927880D01*
X-290311Y-961880D02*
X-230311D01*
X-290311Y-927880D02*
X-286061Y-927880D01*
X-264906Y-927880D01*
X-262811Y-944880D02*
X-260311D01*
X-260311Y-947380D02*
X-260311Y-944880D01*
X-257811D01*
X-260311D02*
X-260311Y-942380D01*
X-230311Y-1152380D02*
Y-1118380D01*
X-290311Y-1152380D02*
X-255716D01*
X-290311D02*
Y-1118380D01*
X-230311D01*
X-234561Y-1152380D02*
X-230311D01*
X-255716D02*
X-234561D01*
X-260311Y-1135380D02*
X-257811D01*
X-260311D02*
X-260311Y-1132880D01*
X-262811Y-1135380D02*
X-260311D01*
X-260311Y-1137880D02*
X-260311Y-1135380D01*
X-290311Y-923780D02*
Y-889780D01*
X-264906D02*
X-230311D01*
Y-923780D02*
Y-889780D01*
X-290311Y-923780D02*
X-230311D01*
X-290311Y-889780D02*
X-286061Y-889780D01*
X-264906Y-889780D01*
X-262811Y-906780D02*
X-260311D01*
X-260311Y-909280D02*
X-260311Y-906780D01*
X-257811D01*
X-260311D02*
X-260311Y-904280D01*
X-230311Y-1156480D02*
X-230311Y-1190480D01*
X-290311Y-1190480D02*
X-255716D01*
X-290311D02*
Y-1156480D01*
X-230311D01*
X-234561Y-1190480D02*
X-230311Y-1190480D01*
X-255716Y-1190480D02*
X-234561Y-1190480D01*
X-260311Y-1173480D02*
X-257811D01*
X-260311D02*
X-260311Y-1170980D01*
X-262811Y-1173480D02*
X-260311D01*
X-260311Y-1175980D02*
X-260311Y-1173480D01*
X-76163Y-1045128D02*
X-76163Y-1035128D01*
X-81160Y-1040132D02*
X-71160D01*
X-104043Y-953796D02*
Y-936046D01*
X-48043Y-936046D01*
X-104043Y-1144396D02*
Y-953796D01*
X-48043Y-1144396D02*
Y-936046D01*
X-104043Y-1144396D02*
X-48043D01*
X-12660Y-1045131D02*
Y-1035131D01*
X-17658Y-1040129D02*
X-7658D01*
X15180Y-1152050D02*
X15180Y-1169800D01*
X-40820D02*
X15180D01*
X15180Y-1152050D02*
Y-910800D01*
X-40820Y-1169800D02*
Y-910800D01*
X15180Y-910800D01*
X171790Y-933329D02*
Y-918329D01*
X153790Y-925829D02*
X158790D01*
X145790Y-918329D02*
X171790D01*
X158790Y-930829D02*
Y-925829D01*
X145790Y-933329D02*
Y-918329D01*
X158790Y-925829D02*
X163790D01*
X158790D02*
Y-920829D01*
X145790Y-933329D02*
X171790D01*
X171240Y-971429D02*
Y-956429D01*
X153240Y-963929D02*
X158240D01*
X145240Y-956429D02*
X171240D01*
X158240Y-968929D02*
Y-963929D01*
X145240Y-971429D02*
Y-956429D01*
X158240Y-963929D02*
X163240D01*
X158240D02*
Y-958929D01*
X145240Y-971429D02*
X171240D01*
X170690Y-1009529D02*
Y-994529D01*
X152690Y-1002029D02*
X157690D01*
X144690Y-994529D02*
X170690D01*
X157690Y-1007029D02*
Y-1002029D01*
X144690Y-1009529D02*
Y-994529D01*
X157690Y-1002029D02*
X162690D01*
X157690D02*
Y-997029D01*
X144690Y-1009529D02*
X170690D01*
X171240Y-1047629D02*
Y-1032629D01*
X153240Y-1040129D02*
X158240D01*
X145240Y-1032629D02*
X171240D01*
X158240Y-1045129D02*
Y-1040129D01*
X145240Y-1047629D02*
Y-1032629D01*
X158240Y-1040129D02*
X163240D01*
X158240D02*
Y-1035129D01*
X145240Y-1047629D02*
X171240D01*
X171790Y-1085729D02*
Y-1070729D01*
X153790Y-1078229D02*
X158790D01*
X145790Y-1070729D02*
X171790D01*
X158790Y-1083229D02*
Y-1078229D01*
X145790Y-1085729D02*
Y-1070729D01*
X158790Y-1078229D02*
X163790D01*
X158790D02*
Y-1073229D01*
X145790Y-1085729D02*
X171790D01*
X171240Y-1123829D02*
Y-1108829D01*
X153240Y-1116329D02*
X158240D01*
X145240Y-1108829D02*
X171240D01*
X158240Y-1121329D02*
Y-1116329D01*
X145240Y-1123829D02*
Y-1108829D01*
X158240Y-1116329D02*
X163240D01*
X158240D02*
Y-1111329D01*
X145240Y-1123829D02*
X171240D01*
Y-1161929D02*
Y-1146929D01*
X153240Y-1154429D02*
X158240D01*
X145240Y-1146929D02*
X171240D01*
X158240Y-1159429D02*
Y-1154429D01*
X145240Y-1161929D02*
Y-1146929D01*
X158240Y-1154429D02*
X163240D01*
X158240D02*
Y-1149429D01*
X145240Y-1161929D02*
X171240D01*
Y-1200029D02*
Y-1185029D01*
X153240Y-1192529D02*
X158240D01*
X145240Y-1185029D02*
X171240D01*
X158240Y-1197529D02*
Y-1192529D01*
X145240Y-1200029D02*
Y-1185029D01*
X158240Y-1192529D02*
X163240D01*
X158240D02*
Y-1187529D01*
X145240Y-1200029D02*
X171240D01*
X156289Y-906780D02*
X161289D01*
X144788Y-913281D02*
X144788Y-900281D01*
X172788D01*
X144788Y-913281D02*
X172788Y-913281D01*
Y-900281D01*
X158789Y-909280D02*
Y-904280D01*
X155739Y-944880D02*
X160739D01*
X144238Y-951381D02*
Y-938381D01*
X172238Y-938381D01*
X144238Y-951381D02*
X172238D01*
X172238Y-938381D01*
X158239Y-947380D02*
Y-942380D01*
X155189Y-982980D02*
X160189D01*
X143688Y-989481D02*
Y-976481D01*
X171688D01*
X143688Y-989481D02*
X171688D01*
X171688Y-976481D02*
X171688Y-989481D01*
X157689Y-985480D02*
Y-980480D01*
X155739Y-1021080D02*
X160739D01*
X144238Y-1027581D02*
Y-1014581D01*
X172238D01*
X144238Y-1027581D02*
X172238D01*
X172238Y-1014581D01*
X158239Y-1023580D02*
Y-1018580D01*
X156289Y-1059180D02*
X161289D01*
X144788Y-1065681D02*
Y-1052681D01*
X172788D01*
X144788Y-1065681D02*
X172788D01*
Y-1052681D01*
X158789Y-1061680D02*
Y-1056680D01*
X155739Y-1097280D02*
X160739D01*
X144238Y-1103781D02*
X144238Y-1090781D01*
X172238D01*
X144238Y-1103781D02*
X172238Y-1103781D01*
Y-1090781D01*
X158239Y-1099780D02*
Y-1094780D01*
X155739Y-1135380D02*
X160739D01*
X144238Y-1141881D02*
X144238Y-1128881D01*
X172238D01*
X144238Y-1141881D02*
X172238Y-1141881D01*
Y-1128881D01*
X158239Y-1137880D02*
Y-1132880D01*
X155739Y-1173480D02*
X160739D01*
X144238Y-1179981D02*
Y-1166981D01*
X172238Y-1166981D01*
X144238Y-1179981D02*
X172238D01*
X172238Y-1166981D01*
X158239Y-1175980D02*
Y-1170980D01*
X1127319Y-245600D02*
Y-211600D01*
X1067319Y-245600D02*
X1101914D01*
X1067319D02*
Y-211600D01*
X1127319D01*
X1123069Y-245600D02*
X1127319D01*
X1101914D02*
X1123069D01*
X1097319Y-228600D02*
X1099819D01*
X1097319D02*
X1097319Y-226100D01*
X1094819Y-228600D02*
X1097319D01*
X1097319Y-231100D02*
X1097319Y-228600D01*
X1127319Y-561830D02*
Y-527830D01*
X1067319Y-561830D02*
X1101914D01*
X1067319D02*
Y-527830D01*
X1127319D01*
X1123069Y-561830D02*
X1127319D01*
X1101914D02*
X1123069D01*
X1097319Y-544830D02*
X1099819D01*
X1097319D02*
X1097319Y-542330D01*
X1094819Y-544830D02*
X1097319D01*
X1097319Y-547330D02*
X1097319Y-544830D01*
X1127319Y-878060D02*
Y-844060D01*
X1067319Y-878060D02*
X1101914D01*
X1067319D02*
Y-844060D01*
X1127319D01*
X1123069Y-878060D02*
X1127319D01*
X1101914D02*
X1123069D01*
X1097319Y-861060D02*
X1099819D01*
X1097319D02*
X1097319Y-858560D01*
X1094819Y-861060D02*
X1097319D01*
X1097319Y-863560D02*
X1097319Y-861060D01*
X-290191Y-604890D02*
Y-570890D01*
X-264786D02*
X-230191D01*
Y-604890D02*
Y-570890D01*
X-290191Y-604890D02*
X-230191D01*
X-290191Y-570890D02*
X-285941D01*
X-264786D01*
X-262691Y-587890D02*
X-260191D01*
X-260191Y-590390D02*
X-260191Y-587890D01*
X-257691D01*
X-260191D02*
Y-585390D01*
X-290152Y-288660D02*
Y-254660D01*
X-264747D02*
X-230152D01*
Y-288660D02*
Y-254660D01*
X-290152Y-288660D02*
X-230152D01*
X-290152Y-254660D02*
X-285902D01*
X-264747D01*
X-262652Y-271660D02*
X-260152D01*
X-260152Y-274160D02*
X-260152Y-271660D01*
X-257652D01*
X-260152D02*
Y-269160D01*
X-290191Y27570D02*
Y61570D01*
X-264786D02*
X-230191D01*
Y27570D02*
Y61570D01*
X-290191Y27570D02*
X-230191D01*
X-290191Y61570D02*
X-285941D01*
X-264786D01*
X-262691Y44570D02*
X-260191D01*
X-260191Y42070D02*
X-260191Y44570D01*
X-257691D01*
X-260191D02*
Y47070D01*
X-290191Y343800D02*
Y377800D01*
X-264786D02*
X-230191D01*
Y343800D02*
Y377800D01*
X-290191Y343800D02*
X-230191D01*
X-290191Y377800D02*
X-285941D01*
X-264786D01*
X-262691Y360800D02*
X-260191D01*
X-260191Y358300D02*
X-260191Y360800D01*
X-257691D01*
X-260191D02*
Y363300D01*
X1067319Y21100D02*
Y55100D01*
X1092724D02*
X1127319D01*
Y21100D02*
Y55100D01*
X1067319Y21100D02*
X1127319D01*
X1067319Y55100D02*
X1071569D01*
X1092724D01*
X1094819Y38100D02*
X1097319D01*
X1097319Y35600D02*
X1097319Y38100D01*
X1099819D01*
X1097319D02*
X1097319Y40600D01*
X1067319Y-295130D02*
Y-261130D01*
X1092724D02*
X1127319D01*
Y-295130D02*
Y-261130D01*
X1067319Y-295130D02*
X1127319D01*
X1067319Y-261130D02*
X1071569D01*
X1092724D01*
X1094819Y-278130D02*
X1097319D01*
X1097319Y-280630D02*
X1097319Y-278130D01*
X1099819D01*
X1097319D02*
X1097319Y-275630D01*
X1067319Y-611360D02*
Y-577360D01*
X1092724D02*
X1127319D01*
Y-611360D02*
Y-577360D01*
X1067319Y-611360D02*
X1127319D01*
X1067319Y-577360D02*
X1071569D01*
X1092724D01*
X1094819Y-594360D02*
X1097319D01*
X1097319Y-596860D02*
X1097319Y-594360D01*
X1099819D01*
X1097319D02*
X1097319Y-591860D01*
X-230191Y-871590D02*
Y-837590D01*
X-290191Y-871590D02*
X-255596D01*
X-290191D02*
Y-837590D01*
X-230191D01*
X-234441Y-871590D02*
X-230191Y-871590D01*
X-255596D02*
X-234441Y-871590D01*
X-260191Y-854590D02*
X-257691D01*
X-260191D02*
X-260191Y-852090D01*
X-262691Y-854590D02*
X-260191D01*
X-260191Y-857090D02*
X-260191Y-854590D01*
X-230152Y-555360D02*
Y-521360D01*
X-290152Y-555360D02*
X-255557D01*
X-290152Y-521360D02*
X-290152Y-555360D01*
X-290152Y-521360D02*
X-230152D01*
X-234402Y-555360D02*
X-230152Y-555360D01*
X-255557D02*
X-234402Y-555360D01*
X-260152Y-538360D02*
X-257652D01*
X-260152D02*
X-260152Y-535860D01*
X-262652Y-538360D02*
X-260152D01*
X-260152Y-540860D02*
X-260152Y-538360D01*
X-230191Y-239130D02*
Y-205130D01*
X-290191Y-239130D02*
X-255596D01*
X-290191D02*
Y-205130D01*
X-230191D01*
X-234441Y-239130D02*
X-230191Y-239130D01*
X-255596D02*
X-234441Y-239130D01*
X-260191Y-222130D02*
X-257691D01*
X-260191D02*
X-260191Y-219630D01*
X-262691Y-222130D02*
X-260191D01*
X-260191Y-224630D02*
X-260191Y-222130D01*
X-230191Y77100D02*
Y111100D01*
X-290191Y77100D02*
X-255596D01*
X-290191D02*
Y111100D01*
X-230191D01*
X-234441Y77100D02*
X-230191Y77100D01*
X-255596D02*
X-234441Y77100D01*
X-260191Y94100D02*
X-257691D01*
X-260191D02*
X-260191Y96600D01*
X-262691Y94100D02*
X-260191D01*
X-260191Y91600D02*
X-260191Y94100D01*
X1127319Y-207500D02*
Y-173500D01*
X1067319Y-207500D02*
X1101914D01*
X1067319D02*
Y-173500D01*
X1127319D01*
X1123069Y-207500D02*
X1127319D01*
X1101914D02*
X1123069D01*
X1097319Y-190500D02*
X1099819D01*
X1097319D02*
X1097319Y-188000D01*
X1094819Y-190500D02*
X1097319D01*
X1097319Y-193000D02*
X1097319Y-190500D01*
X1127319Y-523730D02*
Y-489730D01*
X1067319Y-523730D02*
X1101914D01*
X1067319D02*
Y-489730D01*
X1127319D01*
X1123069Y-523730D02*
X1127319D01*
X1101914D02*
X1123069D01*
X1097319Y-506730D02*
X1099819D01*
X1097319D02*
X1097319Y-504230D01*
X1094819Y-506730D02*
X1097319D01*
X1097319Y-509230D02*
X1097319Y-506730D01*
X1127319Y-839960D02*
Y-805960D01*
X1067319Y-839960D02*
X1101914D01*
X1067319D02*
Y-805960D01*
X1127319D01*
X1123069Y-839960D02*
X1127319D01*
X1101914D02*
X1123069D01*
X1097319Y-822960D02*
X1099819D01*
X1097319D02*
X1097319Y-820460D01*
X1094819Y-822960D02*
X1097319D01*
X1097319Y-825460D02*
X1097319Y-822960D01*
X-290191Y-642990D02*
Y-608990D01*
X-264786D02*
X-230191D01*
Y-642990D02*
Y-608990D01*
X-290191Y-642990D02*
X-230191D01*
X-290191Y-608990D02*
X-285941Y-608990D01*
X-264786Y-608990D01*
X-262691Y-625990D02*
X-260191D01*
X-260191Y-628490D02*
X-260191Y-625990D01*
X-257691D01*
X-260191D02*
X-260191Y-623490D01*
X-290152Y-326760D02*
Y-292760D01*
X-264747D02*
X-230152D01*
Y-326760D02*
Y-292760D01*
X-290152Y-326760D02*
X-230152D01*
X-290152Y-292760D02*
X-285902Y-292760D01*
X-264747Y-292760D01*
X-262652Y-309760D02*
X-260152D01*
X-260152Y-312260D02*
X-260152Y-309760D01*
X-257652D01*
X-260152D02*
X-260152Y-307260D01*
X-290191Y-10530D02*
Y23470D01*
X-264786D02*
X-230191D01*
Y-10530D02*
Y23470D01*
X-290191Y-10530D02*
X-230191D01*
X-290191Y23470D02*
X-285941Y23470D01*
X-264786Y23470D01*
X-262691Y6470D02*
X-260191D01*
X-260191Y3970D02*
X-260191Y6470D01*
X-257691D01*
X-260191D02*
X-260191Y8970D01*
X-290191Y305700D02*
Y339700D01*
X-264786D02*
X-230191D01*
Y305700D02*
Y339700D01*
X-290191Y305700D02*
X-230191D01*
X-290191Y339700D02*
X-285941Y339700D01*
X-264786Y339700D01*
X-262691Y322700D02*
X-260191D01*
X-260191Y320200D02*
X-260191Y322700D01*
X-257691D01*
X-260191D02*
X-260191Y325200D01*
X1067319Y-17000D02*
Y17000D01*
X1092724D02*
X1127319D01*
Y-17000D02*
Y17000D01*
X1067319Y-17000D02*
X1127319D01*
X1067319Y17000D02*
X1071569D01*
X1092724D01*
X1094819Y0D02*
X1097319D01*
X1097319Y-2500D02*
X1097319Y0D01*
X1099819D01*
X1097319D02*
X1097319Y2500D01*
X1067319Y-333230D02*
Y-299230D01*
X1092724D02*
X1127319D01*
Y-333230D02*
Y-299230D01*
X1067319Y-333230D02*
X1127319D01*
X1067319Y-299230D02*
X1071569D01*
X1092724D01*
X1094819Y-316230D02*
X1097319D01*
X1097319Y-318730D02*
X1097319Y-316230D01*
X1099819D01*
X1097319D02*
X1097319Y-313730D01*
X1067319Y-649460D02*
Y-615460D01*
X1092724D02*
X1127319D01*
Y-649460D02*
Y-615460D01*
X1067319Y-649460D02*
X1127319D01*
X1067319Y-615460D02*
X1071569D01*
X1092724D01*
X1094819Y-632460D02*
X1097319D01*
X1097319Y-634960D02*
X1097319Y-632460D01*
X1099819D01*
X1097319D02*
X1097319Y-629960D01*
X-230191Y-833490D02*
Y-799490D01*
X-290191Y-833490D02*
X-255596D01*
X-290191D02*
Y-799490D01*
X-230191D01*
X-234441Y-833490D02*
X-230191D01*
X-255596D02*
X-234441D01*
X-260191Y-816490D02*
X-257691D01*
X-260191D02*
X-260191Y-813990D01*
X-262691Y-816490D02*
X-260191D01*
X-260191Y-818990D02*
X-260191Y-816490D01*
X-230152Y-517260D02*
Y-483260D01*
X-290152Y-517260D02*
X-255557D01*
X-290152D02*
Y-483260D01*
X-230152D01*
X-234402Y-517260D02*
X-230152D01*
X-255557D02*
X-234402D01*
X-260152Y-500260D02*
X-257652D01*
X-260152D02*
Y-497760D01*
X-262652Y-500260D02*
X-260152D01*
X-260152Y-502760D02*
X-260152Y-500260D01*
X-230191Y-201030D02*
Y-167030D01*
X-290191Y-201030D02*
X-255596D01*
X-290191D02*
Y-167030D01*
X-230191D01*
X-234441Y-201030D02*
X-230191D01*
X-255596D02*
X-234441D01*
X-260191Y-184030D02*
X-257691D01*
X-260191D02*
X-260191Y-181530D01*
X-262691Y-184030D02*
X-260191D01*
X-260191Y-186530D02*
X-260191Y-184030D01*
X-230191Y115200D02*
Y149200D01*
X-290191Y115200D02*
X-255596D01*
X-290191D02*
Y149200D01*
X-230191D01*
X-234441Y115200D02*
X-230191D01*
X-255596D02*
X-234441D01*
X-260191Y132200D02*
X-257691D01*
X-260191D02*
X-260191Y134700D01*
X-262691Y132200D02*
X-260191D01*
X-260191Y129700D02*
X-260191Y132200D01*
X1127319Y-169400D02*
Y-135400D01*
X1067319Y-169400D02*
X1101914D01*
X1067319D02*
Y-135400D01*
X1127319D01*
X1123069Y-169400D02*
X1127319D01*
X1101914D02*
X1123069D01*
X1097319Y-152400D02*
X1099819D01*
X1097319D02*
X1097319Y-149900D01*
X1094819Y-152400D02*
X1097319D01*
X1097319Y-154900D02*
X1097319Y-152400D01*
X1127319Y-485630D02*
Y-451630D01*
X1067319Y-485630D02*
X1101914D01*
X1067319D02*
Y-451630D01*
X1127319D01*
X1123069Y-485630D02*
X1127319D01*
X1101914D02*
X1123069D01*
X1097319Y-468630D02*
X1099819D01*
X1097319D02*
X1097319Y-466130D01*
X1094819Y-468630D02*
X1097319D01*
X1097319Y-471130D02*
X1097319Y-468630D01*
X1127319Y-801860D02*
Y-767860D01*
X1067319Y-801860D02*
X1101914D01*
X1067319D02*
Y-767860D01*
X1127319D01*
X1123069Y-801860D02*
X1127319D01*
X1101914D02*
X1123069D01*
X1097319Y-784860D02*
X1099819D01*
X1097319D02*
X1097319Y-782360D01*
X1094819Y-784860D02*
X1097319D01*
X1097319Y-787360D02*
X1097319Y-784860D01*
X-290191Y-681090D02*
Y-647090D01*
X-264786D02*
X-230191D01*
Y-681090D02*
Y-647090D01*
X-290191Y-681090D02*
X-230191D01*
X-290191Y-647090D02*
X-285941Y-647090D01*
X-264786Y-647090D01*
X-262691Y-664090D02*
X-260191D01*
X-260191Y-666590D02*
X-260191Y-664090D01*
X-257691D01*
X-260191D02*
X-260191Y-661590D01*
X-290152Y-364860D02*
Y-330860D01*
X-264747D02*
X-230152D01*
Y-364860D02*
Y-330860D01*
X-290152Y-364860D02*
X-230152D01*
X-290152Y-330860D02*
X-285902Y-330860D01*
X-264747Y-330860D01*
X-262652Y-347860D02*
X-260152D01*
X-260152Y-350360D02*
X-260152Y-347860D01*
X-257652D01*
X-260152D02*
X-260152Y-345360D01*
X-290191Y-48630D02*
Y-14630D01*
X-264786D02*
X-230191D01*
Y-48630D02*
Y-14630D01*
X-290191Y-48630D02*
X-230191D01*
X-290191Y-14630D02*
X-285941Y-14630D01*
X-264786Y-14630D01*
X-262691Y-31630D02*
X-260191D01*
X-260191Y-34130D02*
X-260191Y-31630D01*
X-257691D01*
X-260191D02*
X-260191Y-29130D01*
X-290191Y267600D02*
Y301600D01*
X-264786D02*
X-230191D01*
Y267600D02*
Y301600D01*
X-290191Y267600D02*
X-230191D01*
X-290191Y301600D02*
X-285941Y301600D01*
X-264786Y301600D01*
X-262691Y284600D02*
X-260191D01*
X-260191Y282100D02*
X-260191Y284600D01*
X-257691D01*
X-260191D02*
X-260191Y287100D01*
X1067319Y-55100D02*
Y-21100D01*
X1092724D02*
X1127319D01*
Y-55100D02*
Y-21100D01*
X1067319Y-55100D02*
X1127319D01*
X1067319Y-21100D02*
X1071569D01*
X1092724D01*
X1094819Y-38100D02*
X1097319D01*
X1097319Y-40600D02*
X1097319Y-38100D01*
X1099819D01*
X1097319D02*
X1097319Y-35600D01*
X1067319Y-371330D02*
Y-337330D01*
X1092724D02*
X1127319D01*
Y-371330D02*
Y-337330D01*
X1067319Y-371330D02*
X1127319D01*
X1067319Y-337330D02*
X1071569D01*
X1092724D01*
X1094819Y-354330D02*
X1097319D01*
X1097319Y-356830D02*
X1097319Y-354330D01*
X1099819D01*
X1097319D02*
X1097319Y-351830D01*
X1067319Y-687560D02*
Y-653560D01*
X1092724D02*
X1127319D01*
Y-687560D02*
Y-653560D01*
X1067319Y-687560D02*
X1127319D01*
X1067319Y-653560D02*
X1071569D01*
X1092724D01*
X1094819Y-670560D02*
X1097319D01*
X1097319Y-673060D02*
X1097319Y-670560D01*
X1099819D01*
X1097319D02*
X1097319Y-668060D01*
X-230191Y-795390D02*
Y-761390D01*
X-290191Y-795390D02*
X-255596D01*
X-290191D02*
Y-761390D01*
X-230191D01*
X-234441Y-795390D02*
X-230191D01*
X-255596D02*
X-234441D01*
X-260191Y-778390D02*
X-257691D01*
X-260191D02*
X-260191Y-775890D01*
X-262691Y-778390D02*
X-260191D01*
X-260191Y-780890D02*
X-260191Y-778390D01*
X-230152Y-479160D02*
Y-445160D01*
X-290152Y-479160D02*
X-255557D01*
X-290152D02*
X-290152Y-445160D01*
X-230152D01*
X-234402Y-479160D02*
X-230152D01*
X-255557D02*
X-234402D01*
X-260152Y-462160D02*
X-257652D01*
X-260152D02*
X-260152Y-459660D01*
X-262652Y-462160D02*
X-260152D01*
X-260152Y-464660D02*
X-260152Y-462160D01*
X-230191Y-162930D02*
Y-128930D01*
X-290191Y-162930D02*
X-255596D01*
X-290191D02*
Y-128930D01*
X-230191D01*
X-234441Y-162930D02*
X-230191D01*
X-255596D02*
X-234441D01*
X-260191Y-145930D02*
X-257691D01*
X-260191D02*
X-260191Y-143430D01*
X-262691Y-145930D02*
X-260191D01*
X-260191Y-148430D02*
X-260191Y-145930D01*
X-230191Y153300D02*
Y187300D01*
X-290191Y153300D02*
X-255596D01*
X-290191D02*
Y187300D01*
X-230191D01*
X-234441Y153300D02*
X-230191D01*
X-255596D02*
X-234441D01*
X-260191Y170300D02*
X-257691D01*
X-260191D02*
X-260191Y172800D01*
X-262691Y170300D02*
X-260191D01*
X-260191Y167800D02*
X-260191Y170300D01*
X1127319Y-131300D02*
Y-97300D01*
X1067319Y-131300D02*
X1101914D01*
X1067319D02*
Y-97300D01*
X1127319D01*
X1123069Y-131300D02*
X1127319D01*
X1101914D02*
X1123069D01*
X1097319Y-114300D02*
X1099819D01*
X1097319D02*
X1097319Y-111800D01*
X1094819Y-114300D02*
X1097319D01*
X1097319Y-116800D02*
X1097319Y-114300D01*
X1127319Y-447530D02*
Y-413530D01*
X1067319Y-447530D02*
X1101914D01*
X1067319D02*
Y-413530D01*
X1127319D01*
X1123069Y-447530D02*
X1127319D01*
X1101914D02*
X1123069D01*
X1097319Y-430530D02*
X1099819D01*
X1097319D02*
X1097319Y-428030D01*
X1094819Y-430530D02*
X1097319D01*
X1097319Y-433030D02*
X1097319Y-430530D01*
X1127319Y-763760D02*
Y-729760D01*
X1067319Y-763760D02*
X1101914D01*
X1067319D02*
Y-729760D01*
X1127319D01*
X1123069Y-763760D02*
X1127319D01*
X1101914D02*
X1123069D01*
X1097319Y-746760D02*
X1099819D01*
X1097319D02*
X1097319Y-744260D01*
X1094819Y-746760D02*
X1097319D01*
X1097319Y-749260D02*
X1097319Y-746760D01*
X-290191Y-719190D02*
Y-685190D01*
X-264786D02*
X-230191D01*
Y-719190D02*
Y-685190D01*
X-290191Y-719190D02*
X-230191D01*
X-290191Y-685190D02*
X-285941D01*
X-264786D01*
X-262691Y-702190D02*
X-260191D01*
Y-704690D02*
Y-702190D01*
X-257691D01*
X-260191D02*
X-260191Y-699690D01*
X-290152Y-402960D02*
Y-368960D01*
X-264747D02*
X-230152D01*
Y-402960D02*
Y-368960D01*
X-290152Y-402960D02*
X-230152D01*
X-290152Y-368960D02*
X-285902D01*
X-264747D01*
X-262652Y-385960D02*
X-260152D01*
X-260152Y-388460D02*
X-260152Y-385960D01*
X-257652D01*
X-260152D02*
X-260152Y-383460D01*
X-290191Y-86730D02*
Y-52730D01*
X-264786D02*
X-230191D01*
Y-86730D02*
Y-52730D01*
X-290191Y-86730D02*
X-230191D01*
X-290191Y-52730D02*
X-285941D01*
X-264786D01*
X-262691Y-69730D02*
X-260191D01*
Y-72230D02*
Y-69730D01*
X-257691D01*
X-260191D02*
X-260191Y-67230D01*
X-290191Y229500D02*
Y263500D01*
X-264786D02*
X-230191D01*
Y229500D02*
Y263500D01*
X-290191Y229500D02*
X-230191D01*
X-290191Y263500D02*
X-285941D01*
X-264786D01*
X-262691Y246500D02*
X-260191D01*
Y244000D02*
Y246500D01*
X-257691D01*
X-260191D02*
X-260191Y249000D01*
X1067319Y-93200D02*
Y-59200D01*
X1092724D02*
X1127319D01*
Y-93200D02*
Y-59200D01*
X1067319Y-93200D02*
X1127319D01*
X1067319Y-59200D02*
X1071569D01*
X1092724D01*
X1094819Y-76200D02*
X1097319D01*
X1097319Y-78700D02*
X1097319Y-76200D01*
X1099819D01*
X1097319D02*
X1097319Y-73700D01*
X1067319Y-409430D02*
Y-375430D01*
X1092724D02*
X1127319D01*
Y-409430D02*
Y-375430D01*
X1067319Y-409430D02*
X1127319D01*
X1067319Y-375430D02*
X1071569D01*
X1092724D01*
X1094819Y-392430D02*
X1097319D01*
X1097319Y-394930D02*
X1097319Y-392430D01*
X1099819D01*
X1097319D02*
X1097319Y-389930D01*
X1067319Y-725660D02*
Y-691660D01*
X1092724D02*
X1127319D01*
Y-725660D02*
Y-691660D01*
X1067319Y-725660D02*
X1127319D01*
X1067319Y-691660D02*
X1071569D01*
X1092724D01*
X1094819Y-708660D02*
X1097319D01*
X1097319Y-711160D02*
X1097319Y-708660D01*
X1099819D01*
X1097319D02*
X1097319Y-706160D01*
X-230191Y-757290D02*
Y-723290D01*
X-290191Y-757290D02*
X-255596Y-757290D01*
X-290191Y-757290D02*
Y-723290D01*
X-230191D01*
X-234441Y-757290D02*
X-230191Y-757290D01*
X-255596Y-757290D02*
X-234441D01*
X-260191Y-740290D02*
X-257691D01*
X-260191D02*
X-260191Y-737790D01*
X-262691Y-740290D02*
X-260191D01*
X-260191Y-742790D02*
X-260191Y-740290D01*
X-230152Y-441060D02*
Y-407060D01*
X-290152Y-441060D02*
X-255557Y-441060D01*
X-290152Y-441060D02*
Y-407060D01*
X-230152D01*
X-234402Y-441060D02*
X-230152Y-441060D01*
X-255557Y-441060D02*
X-234402D01*
X-260152Y-424060D02*
X-257652D01*
X-260152D02*
X-260152Y-421560D01*
X-262652Y-424060D02*
X-260152D01*
X-260152Y-426560D02*
X-260152Y-424060D01*
X-230191Y-124830D02*
Y-90830D01*
X-290191Y-124830D02*
X-255596Y-124830D01*
X-290191Y-124830D02*
Y-90830D01*
X-230191D01*
X-234441Y-124830D02*
X-230191Y-124830D01*
X-255596Y-124830D02*
X-234441D01*
X-260191Y-107830D02*
X-257691D01*
X-260191D02*
X-260191Y-105330D01*
X-262691Y-107830D02*
X-260191D01*
X-260191Y-110330D02*
X-260191Y-107830D01*
X-230191Y191400D02*
Y225400D01*
X-290191Y191400D02*
X-255596Y191400D01*
X-290191Y191400D02*
Y225400D01*
X-230191D01*
X-234441Y191400D02*
X-230191Y191400D01*
X-255596Y191400D02*
X-234441D01*
X-260191Y208400D02*
X-257691D01*
X-260191D02*
X-260191Y210900D01*
X-262691Y208400D02*
X-260191D01*
X-260191Y205900D02*
X-260191Y208400D01*
X424219Y209549D02*
X429219D01*
X412718Y203048D02*
Y216048D01*
X440718Y216048D01*
X412718Y203048D02*
X440718Y203048D01*
Y216048D01*
X426719Y207049D02*
Y212049D01*
X171360Y67551D02*
Y82551D01*
X153360Y75051D02*
X158360D01*
X145360Y82551D02*
X171360D01*
X158360Y70051D02*
Y75051D01*
X145360Y67551D02*
Y82551D01*
X158360Y75051D02*
X163360D01*
X158360D02*
Y80051D01*
X145360Y67551D02*
X171360D01*
Y143751D02*
Y158751D01*
X153360Y151251D02*
X158360D01*
X145360Y158751D02*
X171360D01*
X158360Y146251D02*
Y151251D01*
X145360Y143751D02*
Y158751D01*
X158360Y151251D02*
X163360D01*
X158360D02*
Y156251D01*
X145360Y143751D02*
X171360D01*
X171910Y334251D02*
Y349251D01*
X153910Y341751D02*
X158910D01*
X145910Y349251D02*
X171910D01*
X158910Y336751D02*
Y341751D01*
X145910Y334251D02*
Y349251D01*
X158910Y341751D02*
X163910D01*
X158910D02*
Y346751D01*
X145910Y334251D02*
X171910D01*
X171360Y296151D02*
Y311151D01*
X153360Y303651D02*
X158360D01*
X145360Y311151D02*
X171360D01*
X158360Y298651D02*
Y303651D01*
X145360Y296151D02*
Y311151D01*
X158360Y303651D02*
X163360D01*
X158360D02*
Y308651D01*
X145360Y296151D02*
X171360D01*
Y219951D02*
Y234951D01*
X153360Y227451D02*
X158360D01*
X145360Y234951D02*
X171360D01*
X158360Y222451D02*
Y227451D01*
X145360Y219951D02*
Y234951D01*
X158360Y227451D02*
X163360D01*
X158360D02*
Y232451D01*
X145360Y219951D02*
X171360D01*
Y105651D02*
Y120651D01*
X153360Y113151D02*
X158360D01*
X145360Y120651D02*
X171360D01*
X158360Y108151D02*
Y113151D01*
X145360Y105651D02*
Y120651D01*
X158360Y113151D02*
X163360D01*
X158360D02*
Y118151D01*
X145360Y105651D02*
X171360D01*
X171910Y181851D02*
Y196851D01*
X153910Y189351D02*
X158910D01*
X145910Y196851D02*
X171910D01*
X158910Y184351D02*
Y189351D01*
X145910Y181851D02*
Y196851D01*
X158910Y189351D02*
X163910D01*
X158910D02*
Y194351D01*
X145910Y181851D02*
X171910D01*
X170810Y258051D02*
Y273051D01*
X152810Y265551D02*
X157810D01*
X144810Y273051D02*
X170810D01*
X157810Y260551D02*
Y265551D01*
X144810Y258051D02*
Y273051D01*
X157810Y265551D02*
X162810D01*
X157810D02*
Y270551D01*
X144810Y258051D02*
X170810D01*
X913171Y-732712D02*
Y-722712D01*
X908168Y-727708D02*
X918168D01*
X941051Y-831794D02*
Y-814044D01*
X885051Y-831794D02*
X941051D01*
Y-814044D02*
Y-623444D01*
X885051Y-831794D02*
Y-623444D01*
X941051D01*
X171949Y-298209D02*
Y-283209D01*
X153949Y-290709D02*
X158949D01*
X145949Y-283209D02*
X171949D01*
X158949Y-295709D02*
Y-290709D01*
X145949Y-298209D02*
Y-283209D01*
X158949Y-290709D02*
X163949D01*
X158949D02*
Y-285709D01*
X145949Y-298209D02*
X171949D01*
X-222391Y58420D02*
X-222391Y43420D01*
X-209391Y50920D02*
X-204391D01*
X-222391Y43420D02*
X-196391D01*
X-209391Y50920D02*
Y55920D01*
X-196391Y58420D02*
X-196391Y43420D01*
X-214391Y50920D02*
X-209391D01*
Y45920D02*
Y50920D01*
X-222391Y58420D02*
X-196391D01*
X171910Y-134379D02*
Y-119379D01*
X153910Y-126879D02*
X158910D01*
X145910Y-119379D02*
X171910D01*
X158910Y-131879D02*
Y-126879D01*
X145910Y-134379D02*
Y-119379D01*
X158910Y-126879D02*
X163910D01*
X158910D02*
Y-121879D01*
X145910Y-134379D02*
X171910D01*
X-222391Y340600D02*
Y355600D01*
X-209391Y348100D02*
X-204391D01*
X-222391Y340600D02*
X-196391D01*
X-209391Y348100D02*
Y353100D01*
X-196391Y340600D02*
Y355600D01*
X-214391Y348100D02*
X-209391D01*
Y343100D02*
Y348100D01*
X-222391Y355600D02*
X-196391D01*
X171910Y18021D02*
Y33021D01*
X153910Y25521D02*
X158910D01*
X145910Y33021D02*
X171910D01*
X158910Y20521D02*
Y25521D01*
X145910Y18021D02*
Y33021D01*
X158910Y25521D02*
X163910D01*
X158910D02*
Y30521D01*
X145910Y18021D02*
X171910D01*
X170849Y-374409D02*
Y-359409D01*
X152849Y-366909D02*
X157849D01*
X144849Y-359409D02*
X170849D01*
X157849Y-371909D02*
Y-366909D01*
X144849Y-374409D02*
Y-359409D01*
X157849Y-366909D02*
X162849D01*
X157849D02*
Y-361909D01*
X144849Y-374409D02*
X170849D01*
X-107491Y-201930D02*
X-107491Y-216930D01*
X-125491Y-209430D02*
X-120491D01*
X-133491Y-201930D02*
X-107491D01*
X-120491Y-214430D02*
Y-209430D01*
X-133491Y-216930D02*
Y-201930D01*
X-120491Y-209430D02*
X-115491D01*
X-120491D02*
Y-204430D01*
X-133491Y-216930D02*
X-107491Y-216930D01*
X171360Y-210579D02*
Y-195579D01*
X153360Y-203079D02*
X158360D01*
X145360Y-195579D02*
X171360D01*
X158360Y-208079D02*
Y-203079D01*
X145360Y-210579D02*
Y-195579D01*
X158360Y-203079D02*
X163360D01*
X158360D02*
Y-198079D01*
X145360Y-210579D02*
X171360D01*
X171399Y-564909D02*
Y-549909D01*
X153399Y-557409D02*
X158399D01*
X145399Y-549909D02*
X171399D01*
X158399Y-562409D02*
Y-557409D01*
X145399Y-564909D02*
Y-549909D01*
X158399Y-557409D02*
X163399D01*
X158399D02*
Y-552409D01*
X145399Y-564909D02*
X171399D01*
X-107491Y114300D02*
X-107491Y99300D01*
X-125491Y106800D02*
X-120491D01*
X-133491Y114300D02*
X-107491D01*
X-120491Y101800D02*
Y106800D01*
X-133491Y99300D02*
Y114300D01*
X-120491Y106800D02*
X-115491D01*
X-120491D02*
Y111800D01*
X-133491Y99300D02*
X-107491Y99300D01*
X171399Y-336309D02*
Y-321309D01*
X153399Y-328809D02*
X158399D01*
X145399Y-321309D02*
X171399D01*
X158399Y-333809D02*
Y-328809D01*
X145399Y-336309D02*
Y-321309D01*
X158399Y-328809D02*
X163399D01*
X158399D02*
Y-323809D01*
X145399Y-336309D02*
X171399D01*
X171360Y-20079D02*
Y-5079D01*
X153360Y-12579D02*
X158360D01*
X145360Y-5079D02*
X171360D01*
X158360Y-17579D02*
Y-12579D01*
X145360Y-20079D02*
Y-5079D01*
X158360Y-12579D02*
X163360D01*
X158360D02*
Y-7579D01*
X145360Y-20079D02*
X171360D01*
X-107491Y359650D02*
Y374650D01*
X-125491Y367150D02*
X-120491D01*
X-133491Y374650D02*
X-107491D01*
X-120491Y362150D02*
Y367150D01*
X-133491Y359650D02*
Y374650D01*
X-120491Y367150D02*
X-115491D01*
X-120491D02*
Y372150D01*
X-133491Y359650D02*
X-107491D01*
X171399Y-488709D02*
Y-473709D01*
X153399Y-481209D02*
X158399D01*
X145399Y-473709D02*
X171399D01*
X158399Y-486209D02*
Y-481209D01*
X145399Y-488709D02*
Y-473709D01*
X158399Y-481209D02*
X163399D01*
X158399D02*
Y-476209D01*
X145399Y-488709D02*
X171399D01*
X-222391Y-216930D02*
Y-201930D01*
X-209391Y-209430D02*
X-204391D01*
X-222391Y-216930D02*
X-196391Y-216930D01*
X-209391Y-209430D02*
Y-204430D01*
X-196391Y-201930D02*
X-196391Y-216930D01*
X-214391Y-209430D02*
X-209391D01*
Y-214430D02*
Y-209430D01*
X-222391Y-201930D02*
X-196391D01*
X-222352Y-533160D02*
X-222352Y-518160D01*
X-209352Y-525660D02*
X-204352D01*
X-222352Y-533160D02*
X-196352Y-533160D01*
X-209352Y-525660D02*
Y-520660D01*
X-196352Y-533160D02*
Y-518160D01*
X-214352Y-525660D02*
X-209352D01*
Y-530660D02*
Y-525660D01*
X-222352Y-518160D02*
X-196352D01*
X171360Y-172479D02*
Y-157479D01*
X153360Y-164979D02*
X158360D01*
X145360Y-157479D02*
X171360D01*
X158360Y-169979D02*
Y-164979D01*
X145360Y-172479D02*
Y-157479D01*
X158360Y-164979D02*
X163360D01*
X158360D02*
Y-159979D01*
X145360Y-172479D02*
X171360D01*
X171399Y-526809D02*
Y-511809D01*
X153399Y-519309D02*
X158399D01*
X145399Y-511809D02*
X171399D01*
X158399Y-524309D02*
Y-519309D01*
X145399Y-526809D02*
Y-511809D01*
X158399Y-519309D02*
X163399D01*
X158399D02*
Y-514309D01*
X145399Y-526809D02*
X171399D01*
X171360Y-96279D02*
Y-81279D01*
X153360Y-88779D02*
X158360D01*
X145360Y-81279D02*
X171360D01*
X158360Y-93779D02*
Y-88779D01*
X145360Y-96279D02*
Y-81279D01*
X158360Y-88779D02*
X163360D01*
X158360D02*
Y-83779D01*
X145360Y-96279D02*
X171360D01*
X-107491Y43420D02*
Y58420D01*
X-125491Y50920D02*
X-120491D01*
X-133491Y58420D02*
X-107491D01*
X-120491Y45920D02*
Y50920D01*
X-133491Y43420D02*
Y58420D01*
X-120491Y50920D02*
X-115491D01*
X-120491D02*
Y55920D01*
X-133491Y43420D02*
X-107491D01*
X170810Y-58179D02*
Y-43179D01*
X152810Y-50679D02*
X157810D01*
X144810Y-43179D02*
X170810D01*
X157810Y-55679D02*
Y-50679D01*
X144810Y-58179D02*
Y-43179D01*
X157810Y-50679D02*
X162810D01*
X157810D02*
Y-45679D01*
X144810Y-58179D02*
X170810D01*
X171399Y-412509D02*
Y-397509D01*
X153399Y-405009D02*
X158399D01*
X145399Y-397509D02*
X171399D01*
X158399Y-410009D02*
Y-405009D01*
X145399Y-412509D02*
Y-397509D01*
X158399Y-405009D02*
X163399D01*
X158399D02*
Y-400009D01*
X145399Y-412509D02*
X171399D01*
X-222352Y-552210D02*
Y-537210D01*
X-209352Y-544710D02*
X-204352D01*
X-222352Y-552210D02*
X-196352D01*
X-209352Y-544710D02*
Y-539710D01*
X-196352Y-552210D02*
Y-537210D01*
X-214352Y-544710D02*
X-209352D01*
Y-549710D02*
Y-544710D01*
X-222352Y-537210D02*
X-196352D01*
X-107491Y-235980D02*
X-107491Y-220980D01*
X-125491Y-228480D02*
X-120491D01*
X-133491Y-220980D02*
X-107491Y-220980D01*
X-120491Y-233480D02*
Y-228480D01*
X-133491Y-235980D02*
Y-220980D01*
X-120491Y-228480D02*
X-115491D01*
X-120491D02*
Y-223480D01*
X-133491Y-235980D02*
X-107491D01*
X-222391D02*
Y-220980D01*
X-209391Y-228480D02*
X-204391D01*
X-222391Y-235980D02*
X-196391D01*
X-209391Y-228480D02*
Y-223480D01*
X-196391Y-235980D02*
Y-220980D01*
X-214391Y-228480D02*
X-209391D01*
Y-233480D02*
Y-228480D01*
X-222391Y-220980D02*
X-196391D01*
X-107491Y340600D02*
Y355600D01*
X-125491Y348100D02*
X-120491D01*
X-133491Y355600D02*
X-107491D01*
X-120491Y343100D02*
Y348100D01*
X-133491Y340600D02*
Y355600D01*
X-120491Y348100D02*
X-115491D01*
X-120491D02*
Y353100D01*
X-133491Y340600D02*
X-107491D01*
X-222391Y114300D02*
X-222391Y99300D01*
X-209391Y106800D02*
X-204391D01*
X-222391Y99300D02*
X-196391Y99300D01*
X-209391Y106800D02*
Y111800D01*
X-196391Y114300D02*
X-196391Y99300D01*
X-214391Y106800D02*
X-209391D01*
Y101800D02*
Y106800D01*
X-222391Y114300D02*
X-196391D01*
X-222391Y24370D02*
Y39370D01*
X-209391Y31870D02*
X-204391D01*
X-222391Y24370D02*
X-196391D01*
X-209391Y31870D02*
Y36870D01*
X-196391Y24370D02*
Y39370D01*
X-214391Y31870D02*
X-209391D01*
Y26870D02*
Y31870D01*
X-222391Y39370D02*
X-196391D01*
X-222391Y80250D02*
Y95250D01*
X-209391Y87750D02*
X-204391D01*
X-222391Y80250D02*
X-196391D01*
X-209391Y87750D02*
Y92750D01*
X-196391Y80250D02*
Y95250D01*
X-214391Y87750D02*
X-209391D01*
Y82750D02*
Y87750D01*
X-222391Y95250D02*
X-196391D01*
X171949Y-450609D02*
Y-435609D01*
X153949Y-443109D02*
X158949D01*
X145949Y-435609D02*
X171949D01*
X158949Y-448109D02*
Y-443109D01*
X145949Y-450609D02*
Y-435609D01*
X158949Y-443109D02*
X163949D01*
X158949D02*
Y-438109D01*
X145949Y-450609D02*
X171949D01*
X171360Y-248679D02*
Y-233679D01*
X153360Y-241179D02*
X158360D01*
X145360Y-233679D02*
X171360D01*
X158360Y-246179D02*
Y-241179D01*
X145360Y-248679D02*
Y-233679D01*
X158360Y-241179D02*
X163360D01*
X158360D02*
Y-236179D01*
X145360Y-248679D02*
X171360D01*
X-222391Y359650D02*
Y374650D01*
X-209391Y367150D02*
X-204391D01*
X-222391Y359650D02*
X-196391D01*
X-209391Y367150D02*
Y372150D01*
X-196391Y359650D02*
Y374650D01*
X-214391Y367150D02*
X-209391D01*
Y362150D02*
Y367150D01*
X-222391Y374650D02*
X-196391D01*
X-107491Y80250D02*
Y95250D01*
X-125491Y87750D02*
X-120491D01*
X-133491Y95250D02*
X-107491Y95250D01*
X-120491Y82750D02*
Y87750D01*
X-133491Y80250D02*
Y95250D01*
X-120491Y87750D02*
X-115491D01*
X-120491D02*
Y92750D01*
X-133491Y80250D02*
X-107491Y80250D01*
X-107491Y24370D02*
Y39370D01*
X-125491Y31870D02*
X-120491D01*
X-133491Y39370D02*
X-107491D01*
X-120491Y26870D02*
Y31870D01*
X-133491Y24370D02*
Y39370D01*
X-120491Y31870D02*
X-115491D01*
X-120491D02*
Y36870D01*
X-133491Y24370D02*
X-107491D01*
X-222391Y-608090D02*
Y-593090D01*
X-209391Y-600590D02*
X-204391D01*
X-222391Y-608090D02*
X-196391D01*
X-209391Y-600590D02*
Y-595590D01*
X-196391Y-608090D02*
Y-593090D01*
X-214391Y-600590D02*
X-209391D01*
Y-605590D02*
Y-600590D01*
X-222391Y-593090D02*
X-196391D01*
X-107491Y-834390D02*
X-107491Y-849390D01*
X-125491Y-841890D02*
X-120491D01*
X-133491Y-834390D02*
X-107491D01*
X-120491Y-846890D02*
Y-841890D01*
X-133491Y-849390D02*
Y-834390D01*
X-120491Y-841890D02*
X-115491D01*
X-120491D02*
Y-836890D01*
X-133491Y-849390D02*
X-107491Y-849390D01*
X-107491Y-608090D02*
Y-593090D01*
X-125491Y-600590D02*
X-120491D01*
X-133491Y-593090D02*
X-107491D01*
X-120491Y-605590D02*
Y-600590D01*
X-133491Y-608090D02*
Y-593090D01*
X-120491Y-600590D02*
X-115491D01*
X-120491D02*
Y-595590D01*
X-133491Y-608090D02*
X-107491D01*
X-222391Y-868440D02*
Y-853440D01*
X-209391Y-860940D02*
X-204391D01*
X-222391Y-868440D02*
X-196391D01*
X-209391Y-860940D02*
Y-855940D01*
X-196391Y-868440D02*
Y-853440D01*
X-214391Y-860940D02*
X-209391D01*
Y-865940D02*
Y-860940D01*
X-222391Y-853440D02*
X-196391D01*
X665218Y-697111D02*
Y-682111D01*
X678218Y-689611D02*
X683218D01*
X665218Y-697111D02*
X691218D01*
X678218Y-689611D02*
Y-684611D01*
X691218Y-697111D02*
Y-682111D01*
X673218Y-689611D02*
X678218D01*
Y-694611D02*
Y-689611D01*
X665218Y-682111D02*
X691218D01*
X665768Y-659011D02*
Y-644011D01*
X678768Y-651511D02*
X683768D01*
X665768Y-659011D02*
X691768D01*
X678768Y-651511D02*
Y-646511D01*
X691768Y-659011D02*
Y-644011D01*
X673768Y-651511D02*
X678768D01*
Y-656511D02*
Y-651511D01*
X665768Y-644011D02*
X691768D01*
X-222391Y-849390D02*
Y-834390D01*
X-209391Y-841890D02*
X-204391D01*
X-222391Y-849390D02*
X-196391Y-849390D01*
X-209391Y-841890D02*
Y-836890D01*
X-196391Y-834390D02*
X-196391Y-849390D01*
X-214391Y-841890D02*
X-209391D01*
Y-846890D02*
Y-841890D01*
X-222391Y-834390D02*
X-196391D01*
X665768Y-735211D02*
Y-720211D01*
X678768Y-727711D02*
X683768D01*
X665768Y-735211D02*
X691768D01*
X678768Y-727711D02*
Y-722711D01*
X691768Y-735211D02*
Y-720211D01*
X673768Y-727711D02*
X678768D01*
Y-732711D02*
Y-727711D01*
X665768Y-720211D02*
X691768D01*
X-107491Y-868440D02*
X-107491Y-853440D01*
X-125491Y-860940D02*
X-120491D01*
X-133491Y-853440D02*
X-107491Y-853440D01*
X-120491Y-865940D02*
Y-860940D01*
X-133491Y-868440D02*
Y-853440D01*
X-120491Y-860940D02*
X-115491D01*
X-120491D02*
Y-855940D01*
X-133491Y-868440D02*
X-107491D01*
X665768Y-811411D02*
Y-796411D01*
X678768Y-803911D02*
X683768D01*
X665768Y-811411D02*
X691768D01*
X678768Y-803911D02*
Y-798911D01*
X691768Y-811411D02*
Y-796411D01*
X673768Y-803911D02*
X678768D01*
Y-808911D02*
Y-803911D01*
X665768Y-796411D02*
X691768D01*
X665218Y-849511D02*
Y-834511D01*
X678218Y-842011D02*
X683218D01*
X665218Y-849511D02*
X691218D01*
X678218Y-842011D02*
Y-837011D01*
X691218Y-849511D02*
Y-834511D01*
X673218Y-842011D02*
X678218D01*
Y-847011D02*
Y-842011D01*
X665218Y-834511D02*
X691218D01*
X-222391Y-574040D02*
X-222391Y-589040D01*
X-209391Y-581540D02*
X-204391D01*
X-222391Y-589040D02*
X-196391D01*
X-209391Y-581540D02*
Y-576540D01*
X-196391Y-574040D02*
X-196391Y-589040D01*
X-214391Y-581540D02*
X-209391D01*
Y-586540D02*
Y-581540D01*
X-222391Y-574040D02*
X-196391D01*
X665768Y-620911D02*
Y-605911D01*
X678768Y-613411D02*
X683768D01*
X665768Y-620911D02*
X691768D01*
X678768Y-613411D02*
Y-608411D01*
X691768Y-620911D02*
Y-605911D01*
X673768Y-613411D02*
X678768D01*
Y-618411D02*
Y-613411D01*
X665768Y-605911D02*
X691768D01*
X665768Y-582811D02*
Y-567811D01*
X678768Y-575311D02*
X683768D01*
X665768Y-582811D02*
X691768D01*
X678768Y-575311D02*
Y-570311D01*
X691768Y-582811D02*
Y-567811D01*
X673768Y-575311D02*
X678768D01*
Y-580311D02*
Y-575311D01*
X665768Y-567811D02*
X691768D01*
X-107491Y-589040D02*
Y-574040D01*
X-125491Y-581540D02*
X-120491D01*
X-133491Y-574040D02*
X-107491D01*
X-120491Y-586540D02*
Y-581540D01*
X-133491Y-589040D02*
Y-574040D01*
X-120491Y-581540D02*
X-115491D01*
X-120491D02*
Y-576540D01*
X-133491Y-589040D02*
X-107491D01*
X666318Y-773311D02*
Y-758311D01*
X679318Y-765811D02*
X684318D01*
X666318Y-773311D02*
X692318D01*
X679318Y-765811D02*
Y-760811D01*
X692318Y-773311D02*
Y-758311D01*
X674318Y-765811D02*
X679318D01*
Y-770811D02*
Y-765811D01*
X666318Y-758311D02*
X692318D01*
X913171Y-100252D02*
Y-90252D01*
X908168Y-95248D02*
X918168D01*
X941051Y-199334D02*
Y-181584D01*
X885051Y-199334D02*
X941051D01*
Y-181584D02*
Y9016D01*
X885051Y-199334D02*
Y9016D01*
X941051D01*
X684530Y145850D02*
X689530D01*
X679530D02*
X684530D01*
Y150850D01*
Y140850D02*
Y145850D01*
X697530Y138350D02*
Y153350D01*
X671530Y138350D02*
Y153350D01*
X697530D01*
X671530Y138350D02*
X697530D01*
X320090Y-147250D02*
X335090D01*
X327590Y-165250D02*
Y-160250D01*
X320090Y-173250D02*
Y-147250D01*
X327590Y-160250D02*
X332590D01*
X320090Y-173250D02*
X335090D01*
X327590Y-160250D02*
Y-155250D01*
X322590Y-160250D02*
X327590D01*
X335090Y-173250D02*
Y-147250D01*
X642620Y99060D02*
X647620D01*
X637620D02*
X642620D01*
Y104060D01*
Y94060D02*
Y99060D01*
X655620Y91560D02*
Y106560D01*
X629620Y91560D02*
Y106560D01*
X655620D01*
X629620Y91560D02*
X655620D01*
X394900Y-83420D02*
Y-78420D01*
Y-73420D01*
Y-78420D02*
X399900D01*
X389900D02*
X394900D01*
X387400Y-91420D02*
X402400D01*
X387400Y-65420D02*
X402400D01*
Y-91420D02*
Y-65420D01*
X387400Y-91420D02*
Y-65420D01*
X287140Y220680D02*
X302140D01*
X294640Y233680D02*
Y238680D01*
X302140Y220680D02*
Y246680D01*
X289640Y233680D02*
X294640D01*
X287140Y246680D02*
X302140D01*
X294640Y228680D02*
Y233680D01*
X299640D01*
X287140Y220680D02*
Y246680D01*
X699890Y141740D02*
X714890Y141740D01*
X707390Y154740D02*
Y159740D01*
X714890Y141740D02*
Y167740D01*
X702390Y154740D02*
X707390D01*
X699890Y167740D02*
X714890Y167740D01*
X707390Y149740D02*
Y154740D01*
X712390D01*
X699890Y141740D02*
Y167740D01*
X350250Y-55750D02*
X355250D01*
X345250D02*
X350250D01*
Y-50750D01*
Y-60750D02*
Y-55750D01*
X363250Y-63250D02*
Y-48250D01*
X337250Y-63250D02*
Y-48250D01*
X363250D01*
X337250Y-63250D02*
X363250D01*
X521750Y-447250D02*
X536750D01*
X529250Y-434250D02*
Y-429250D01*
X536750Y-447250D02*
Y-421250D01*
X524250Y-434250D02*
X529250D01*
X521750Y-421250D02*
X536750D01*
X529250Y-439250D02*
Y-434250D01*
X534250D01*
X521750Y-447250D02*
Y-421250D01*
X642620Y82550D02*
X647620D01*
X637620D02*
X642620D01*
Y87550D01*
Y77550D02*
Y82550D01*
X655620Y75050D02*
Y90050D01*
X629620Y75050D02*
Y90050D01*
X655620D01*
X629620Y75050D02*
X655620D01*
X519430Y-860980D02*
Y-855980D01*
Y-850980D01*
Y-855980D02*
X524430D01*
X514430D02*
X519430D01*
X511930Y-868980D02*
X526930D01*
X511930Y-842980D02*
X526930D01*
Y-868980D02*
Y-842980D01*
X511930Y-868980D02*
Y-842980D01*
X344220Y285150D02*
X345970Y288900D01*
X344220Y292650D02*
X345970Y288900D01*
X344220Y296400D02*
X382220D01*
X344220Y262150D02*
X382220D01*
Y296400D01*
X344220Y262150D02*
Y296400D01*
X363220Y279400D02*
Y284400D01*
Y274400D02*
Y279400D01*
X368220D01*
X358220D02*
X363220D01*
X641470Y108720D02*
X656470D01*
X648970Y121720D02*
Y126720D01*
X656470Y108720D02*
Y134720D01*
X643970Y121720D02*
X648970D01*
X641470Y134720D02*
X656470D01*
X648970Y116720D02*
Y121720D01*
X653970D01*
X641470Y108720D02*
Y134720D01*
X426720Y234950D02*
X431720D01*
X421720D02*
X426720D01*
Y239950D01*
Y229950D02*
Y234950D01*
X439720Y227450D02*
Y242450D01*
X413720Y227450D02*
Y242450D01*
X439720D01*
X413720Y227450D02*
X439720D01*
X1061720Y327660D02*
X1066720D01*
X1056720D02*
X1061720D01*
Y332660D01*
Y322660D02*
Y327660D01*
X1074720Y320160D02*
Y335160D01*
X1048720Y320160D02*
Y335160D01*
X1074720D01*
X1048720Y320160D02*
X1074720D01*
X483870Y-1035050D02*
Y-1030050D01*
Y-1040050D02*
Y-1035050D01*
X478870D02*
X483870D01*
X488870D01*
X476370Y-1022050D02*
X491370D01*
X476370Y-1048050D02*
X491370D01*
X476370D02*
Y-1022050D01*
X491370Y-1048050D02*
Y-1022050D01*
X340360Y-1015920D02*
Y-1010920D01*
Y-1005920D01*
Y-1010920D02*
X345360D01*
X335360D02*
X340360D01*
X332860Y-1023920D02*
X347860D01*
X332860Y-997920D02*
X347860D01*
Y-1023920D02*
Y-997920D01*
X332860Y-1023920D02*
Y-997920D01*
X1183760Y143210D02*
X1198760D01*
X1191260Y156210D02*
Y161210D01*
X1198760Y143210D02*
Y169210D01*
X1186260Y156210D02*
X1191260D01*
X1183760Y169210D02*
X1198760D01*
X1191260Y151210D02*
Y156210D01*
X1196260D01*
X1183760Y143210D02*
Y169210D01*
X486530Y-842980D02*
X501530D01*
X494030Y-860980D02*
Y-855980D01*
X486530Y-868980D02*
Y-842980D01*
X494030Y-855980D02*
X499030D01*
X486530Y-868980D02*
X501530D01*
X494030Y-855980D02*
Y-850980D01*
X489030Y-855980D02*
X494030D01*
X501530Y-868980D02*
Y-842980D01*
X519430Y-915379D02*
X524430D01*
X514430D02*
X519430D01*
Y-910379D01*
Y-920379D02*
Y-915379D01*
X532430Y-922879D02*
Y-907879D01*
X506430Y-922879D02*
Y-907879D01*
X532430D01*
X506430Y-922879D02*
X532430D01*
X544790Y-439270D02*
Y-434270D01*
Y-429270D01*
Y-434270D02*
X549790D01*
X539790D02*
X544790D01*
X537290Y-447270D02*
X552290D01*
X537290Y-421270D02*
X552290D01*
Y-447270D02*
Y-421270D01*
X537290Y-447270D02*
Y-421270D01*
X391160Y269320D02*
Y274320D01*
Y279320D01*
Y274320D02*
X396160D01*
X386160D02*
X391160D01*
X383660Y261320D02*
X398660D01*
X383660Y287320D02*
X398660D01*
Y261320D02*
Y287320D01*
X383660Y261320D02*
Y287320D01*
X323500Y-83250D02*
Y-78250D01*
Y-73250D01*
Y-78250D02*
X328500D01*
X318500D02*
X323500D01*
X316000Y-91250D02*
X331000D01*
X316000Y-65250D02*
X331000D01*
Y-91250D02*
Y-65250D01*
X316000Y-91250D02*
Y-65250D01*
X427990Y-490220D02*
X431525Y-486684D01*
X424454Y-493755D02*
X427990Y-490220D01*
X424454Y-486684D02*
X427990Y-490220D01*
X431525Y-493755D01*
X431879Y-475724D02*
X442486Y-486331D01*
X413494Y-494109D02*
X424101Y-504716D01*
X413494Y-494109D02*
X431879Y-475724D01*
X424101Y-504716D02*
X442486Y-486331D01*
X439420Y-501650D02*
X442956Y-498115D01*
X435885Y-505186D02*
X439420Y-501650D01*
X435885Y-498115D02*
X439420Y-501650D01*
X442956Y-505186D01*
X443309Y-487154D02*
X453916Y-497761D01*
X424924Y-505539D02*
X435531Y-516146D01*
X424924Y-505539D02*
X443309Y-487154D01*
X435531Y-516146D02*
X453916Y-497761D01*
X420490Y-1137620D02*
X435490D01*
X427990Y-1155620D02*
Y-1150620D01*
X420490Y-1163620D02*
Y-1137620D01*
X427990Y-1150620D02*
X432990D01*
X420490Y-1163620D02*
X435490D01*
X427990Y-1150620D02*
Y-1145620D01*
X422990Y-1150620D02*
X427990D01*
X435490Y-1163620D02*
Y-1137620D01*
X1061720Y344170D02*
X1066720D01*
X1056720D02*
X1061720D01*
Y349170D01*
Y339170D02*
Y344170D01*
X1074720Y336670D02*
Y351670D01*
X1048720Y336670D02*
Y351670D01*
X1074720D01*
X1048720Y336670D02*
X1074720D01*
X356870Y-322580D02*
X360406Y-326115D01*
X353335Y-319044D02*
X356870Y-322580D01*
X360406Y-319044D01*
X353335Y-326115D02*
X356870Y-322580D01*
X360759Y-337076D02*
X371366Y-326469D01*
X342374Y-318691D02*
X352981Y-308084D01*
X371366Y-326469D01*
X342374Y-318691D02*
X360759Y-337076D01*
X403980Y-1137620D02*
X418980D01*
X411480Y-1155620D02*
Y-1150620D01*
X403980Y-1163620D02*
Y-1137620D01*
X411480Y-1150620D02*
X416480D01*
X403980Y-1163620D02*
X418980D01*
X411480Y-1150620D02*
Y-1145620D01*
X406480Y-1150620D02*
X411480D01*
X418980Y-1163620D02*
Y-1137620D01*
X694810Y108720D02*
X709810D01*
X702310Y121720D02*
Y126720D01*
X709810Y108720D02*
Y134720D01*
X697310Y121720D02*
X702310D01*
X694810Y134720D02*
X709810D01*
X702310Y116720D02*
Y121720D01*
X707310D01*
X694810Y108720D02*
Y134720D01*
X482874Y-332466D02*
X486410Y-328930D01*
X489945Y-325395D01*
X486410Y-328930D02*
X489945Y-332466D01*
X482874Y-325395D02*
X486410Y-328930D01*
X471914Y-332819D02*
X482521Y-343426D01*
X490299Y-314434D02*
X500906Y-325041D01*
X482521Y-343426D02*
X500906Y-325041D01*
X471914Y-332819D02*
X490299Y-314434D01*
X1048720Y354450D02*
Y369450D01*
X1061720Y361950D02*
X1066720D01*
X1048720Y354450D02*
X1074720D01*
X1061720Y361950D02*
Y366950D01*
X1074720Y354450D02*
Y369450D01*
X1056720Y361950D02*
X1061720D01*
Y356950D02*
Y361950D01*
X1048720Y369450D02*
X1074720D01*
X294250Y-46000D02*
X309250D01*
X301750Y-64000D02*
Y-59000D01*
X294250Y-72000D02*
Y-46000D01*
X301750Y-59000D02*
X306750D01*
X294250Y-72000D02*
X309250D01*
X301750Y-59000D02*
Y-54000D01*
X296750Y-59000D02*
X301750D01*
X309250Y-72000D02*
Y-46000D01*
X311310Y-848310D02*
Y-833310D01*
X324310Y-840810D02*
X329310D01*
X311310Y-848310D02*
X337310D01*
X324310Y-840810D02*
Y-835810D01*
X337310Y-848310D02*
Y-833310D01*
X319310Y-840810D02*
X324310D01*
Y-845810D02*
Y-840810D01*
X311310Y-833310D02*
X337310D01*
X385929Y-149750D02*
X400929D01*
X393429Y-167750D02*
Y-162750D01*
X385929Y-175750D02*
Y-149750D01*
X393429Y-162750D02*
X398429D01*
X385929Y-175750D02*
X400929D01*
X393429Y-162750D02*
Y-157750D01*
X388429Y-162750D02*
X393429D01*
X400929Y-175750D02*
Y-149750D01*
X302250Y-823750D02*
Y-818750D01*
Y-813750D01*
Y-818750D02*
X307250D01*
X297250D02*
X302250D01*
X294750Y-831750D02*
X309750D01*
X294750Y-805750D02*
X309750D01*
Y-831750D02*
Y-805750D01*
X294750Y-831750D02*
Y-805750D01*
X421500Y172500D02*
X426500D01*
X431500D01*
X426500Y167500D02*
Y172500D01*
Y177500D01*
X413500Y165000D02*
Y180000D01*
X439500Y165000D02*
Y180000D01*
X413500Y165000D02*
X439500D01*
X413500Y180000D02*
X439500D01*
X368149Y-149750D02*
X383149D01*
X375649Y-167750D02*
Y-162750D01*
X368149Y-175750D02*
Y-149750D01*
X375649Y-162750D02*
X380649D01*
X368149Y-175750D02*
X383149D01*
X375649Y-162750D02*
Y-157750D01*
X370649Y-162750D02*
X375649D01*
X383149Y-175750D02*
Y-149750D01*
X1048720Y372230D02*
Y387230D01*
X1061720Y379730D02*
X1066720D01*
X1048720Y372230D02*
X1074720D01*
X1061720Y379730D02*
Y384730D01*
X1074720Y372230D02*
Y387230D01*
X1056720Y379730D02*
X1061720D01*
Y374730D02*
Y379730D01*
X1048720Y387230D02*
X1074720D01*
X372750Y41750D02*
Y56750D01*
X354750Y49250D02*
X359750D01*
X346750Y56750D02*
X372750D01*
X359750Y44250D02*
Y49250D01*
X346750Y41750D02*
Y56750D01*
X359750Y49250D02*
X364750D01*
X359750D02*
Y54250D01*
X346750Y41750D02*
X372750D01*
X537330Y-842980D02*
X552330D01*
X544830Y-860980D02*
Y-855980D01*
X537330Y-868980D02*
Y-842980D01*
X544830Y-855980D02*
X549830D01*
X537330Y-868980D02*
X552330D01*
X544830Y-855980D02*
Y-850980D01*
X539830Y-855980D02*
X544830D01*
X552330Y-868980D02*
Y-842980D01*
X311310Y-833070D02*
Y-818070D01*
X324310Y-825570D02*
X329310D01*
X311310Y-833070D02*
X337310D01*
X324310Y-825570D02*
Y-820570D01*
X337310Y-833070D02*
Y-818070D01*
X319310Y-825570D02*
X324310D01*
Y-830570D02*
Y-825570D01*
X311310Y-818070D02*
X337310D01*
X651590Y145850D02*
X656590D01*
X661590D01*
X656590Y140850D02*
Y145850D01*
Y150850D01*
X643590Y153350D02*
X643590Y138350D01*
X669590D02*
Y153350D01*
X643590Y138350D02*
X669590D01*
X643590Y153350D02*
X669590D01*
X467320Y-1035050D02*
Y-1030050D01*
Y-1040050D02*
Y-1035050D01*
X462320D02*
X467320D01*
X472320D01*
X459820Y-1022050D02*
X474820D01*
X459820Y-1048050D02*
X474820D01*
X459820D02*
Y-1022050D01*
X474820Y-1048050D02*
Y-1022050D01*
X1183760Y198420D02*
X1198760D01*
X1191260Y180420D02*
Y185420D01*
X1183760Y172420D02*
Y198420D01*
X1191260Y185420D02*
X1196260D01*
X1183760Y172420D02*
X1198760D01*
X1191260Y185420D02*
Y190420D01*
X1186260Y185420D02*
X1191260D01*
X1198760Y172420D02*
Y198420D01*
X413750Y181500D02*
Y196500D01*
X426750Y189000D02*
X431750D01*
X413750Y181500D02*
X439750D01*
X426750Y189000D02*
Y194000D01*
X439750Y181500D02*
Y196500D01*
X421750Y189000D02*
X426750D01*
Y184000D02*
Y189000D01*
X413750Y196500D02*
X439750D01*
X388620Y-811530D02*
Y-806530D01*
Y-816530D02*
Y-811530D01*
X383620D02*
X388620D01*
X393620D01*
X381120Y-798530D02*
X396120D01*
X381120Y-824530D02*
X396120D01*
X381120D02*
Y-798530D01*
X396120Y-824530D02*
Y-798530D01*
X330200Y-447040D02*
X333736Y-443504D01*
X326665Y-450575D02*
X330200Y-447040D01*
X326665Y-443504D02*
X330200Y-447040D01*
X333736Y-450575D01*
X334089Y-432544D02*
X344696Y-443151D01*
X315704Y-450929D02*
X326311Y-461536D01*
X315704Y-450929D02*
X334089Y-432544D01*
X326311Y-461536D02*
X344696Y-443151D01*
X-76043Y-83778D02*
X-76043Y-93778D01*
X-81040Y-88782D02*
X-71040D01*
X-103923Y-2446D02*
Y15304D01*
X-47923Y15304D01*
X-103923Y-193046D02*
Y-2446D01*
X-47923Y-193046D02*
Y15304D01*
X-103923Y-193046D02*
X-47923D01*
X1059519Y-539630D02*
Y-524630D01*
X1041519Y-532130D02*
X1046519D01*
X1033519Y-524630D02*
X1059519D01*
X1046519Y-537130D02*
Y-532130D01*
X1033519Y-539630D02*
Y-524630D01*
X1046519Y-532130D02*
X1051519D01*
X1046519D02*
Y-527130D01*
X1033519Y-539630D02*
X1059519D01*
X1059519Y-558680D02*
Y-543680D01*
X1041519Y-551180D02*
X1046519D01*
X1033519Y-543680D02*
X1059519D01*
X1046519Y-556180D02*
Y-551180D01*
X1033519Y-558680D02*
Y-543680D01*
X1046519Y-551180D02*
X1051519D01*
X1046519D02*
Y-546180D01*
X1033519Y-558680D02*
X1059519D01*
X665768Y-495181D02*
Y-480181D01*
X678768Y-487681D02*
X683768D01*
X665768Y-495181D02*
X691768D01*
X678768Y-487681D02*
Y-482681D01*
X691768Y-495181D02*
Y-480181D01*
X673768Y-487681D02*
X678768D01*
Y-492681D02*
Y-487681D01*
X665768Y-480181D02*
X691768D01*
X944619Y-298330D02*
Y-283330D01*
X957619Y-290830D02*
X962619D01*
X944619Y-298330D02*
X970619D01*
X957619Y-290830D02*
Y-285830D01*
X970619Y-298330D02*
Y-283330D01*
X952619Y-290830D02*
X957619D01*
Y-295830D02*
Y-290830D01*
X944619Y-283330D02*
X970619D01*
X944619Y-242450D02*
Y-227450D01*
X957619Y-234950D02*
X962619D01*
X944619Y-242450D02*
X970619D01*
X957619Y-234950D02*
Y-229950D01*
X970619Y-242450D02*
Y-227450D01*
X952619Y-234950D02*
X957619D01*
Y-239950D02*
Y-234950D01*
X944619Y-227450D02*
X970619D01*
X665218Y-217051D02*
Y-202051D01*
X678218Y-209551D02*
X683218D01*
X665218Y-217051D02*
X691218D01*
X678218Y-209551D02*
Y-204551D01*
X691218Y-217051D02*
Y-202051D01*
X673218Y-209551D02*
X678218D01*
Y-214551D02*
Y-209551D01*
X665218Y-202051D02*
X691218D01*
X485285Y-1141737D02*
X495285D01*
X490268Y-1146725D02*
Y-1136725D01*
X436826Y-1169621D02*
X454576D01*
X436826D02*
Y-1113621D01*
X454576Y-1169621D02*
X543361D01*
X436826Y-1113621D02*
X543361D01*
Y-1169621D02*
Y-1113621D01*
X944619Y-223400D02*
Y-208400D01*
X957619Y-215900D02*
X962619D01*
X944619Y-223400D02*
X970619D01*
X957619Y-215900D02*
Y-210900D01*
X970619Y-223400D02*
Y-208400D01*
X952619Y-215900D02*
X957619D01*
Y-220900D02*
Y-215900D01*
X944619Y-208400D02*
X970619D01*
X944619Y-558680D02*
Y-543680D01*
X957619Y-551180D02*
X962619D01*
X944619Y-558680D02*
X970619D01*
X957619Y-551180D02*
Y-546180D01*
X970619Y-558680D02*
Y-543680D01*
X952619Y-551180D02*
X957619D01*
Y-556180D02*
Y-551180D01*
X944619Y-543680D02*
X970619D01*
X1059519Y-298330D02*
Y-283330D01*
X1041519Y-290830D02*
X1046519D01*
X1033519Y-283330D02*
X1059519D01*
X1046519Y-295830D02*
Y-290830D01*
X1033519Y-298330D02*
Y-283330D01*
X1046519Y-290830D02*
X1051519D01*
X1046519D02*
Y-285830D01*
X1033519Y-298330D02*
X1059519D01*
X944619Y17900D02*
Y32900D01*
X957619Y25400D02*
X962619D01*
X944619Y17900D02*
X970619D01*
X957619Y25400D02*
Y30400D01*
X970619Y17900D02*
Y32900D01*
X952619Y25400D02*
X957619D01*
Y20400D02*
Y25400D01*
X944619Y32900D02*
X970619D01*
X1059519Y36950D02*
Y51950D01*
X1041519Y44450D02*
X1046519D01*
X1033519Y51950D02*
X1059519D01*
X1046519Y39450D02*
Y44450D01*
X1033519Y36950D02*
Y51950D01*
X1046519Y44450D02*
X1051519D01*
X1046519D02*
Y49450D01*
X1033519Y36950D02*
X1059519D01*
X-12539Y-726241D02*
Y-716241D01*
X-17537Y-721239D02*
X-7538D01*
X15300Y-850910D02*
Y-833160D01*
X-40700Y-850910D02*
X15300Y-850910D01*
Y-833160D02*
Y-591910D01*
X-40700Y-850910D02*
Y-591910D01*
X15300Y-591910D01*
X-76043Y232452D02*
X-76043Y222452D01*
X-81040Y227448D02*
X-71040D01*
X-103923Y313784D02*
Y331534D01*
X-47923Y331534D01*
X-103923Y123184D02*
Y313784D01*
X-47923Y123184D02*
Y331534D01*
X-103923Y123184D02*
X-47923D01*
X1059519Y-223400D02*
Y-208400D01*
X1041519Y-215900D02*
X1046519D01*
X1033519Y-208400D02*
X1059519D01*
X1046519Y-220900D02*
Y-215900D01*
X1033519Y-223400D02*
Y-208400D01*
X1046519Y-215900D02*
X1051519D01*
X1046519D02*
Y-210900D01*
X1033519Y-223400D02*
X1059519D01*
X665218Y-533281D02*
Y-518281D01*
X678218Y-525781D02*
X683218D01*
X665218Y-533281D02*
X691218D01*
X678218Y-525781D02*
Y-520781D01*
X691218Y-533281D02*
Y-518281D01*
X673218Y-525781D02*
X678218D01*
Y-530781D02*
Y-525781D01*
X665218Y-518281D02*
X691218D01*
X665768Y-418981D02*
Y-403981D01*
X678768Y-411481D02*
X683768D01*
X665768Y-418981D02*
X691768D01*
X678768Y-411481D02*
Y-406481D01*
X691768Y-418981D02*
Y-403981D01*
X673768Y-411481D02*
X678768D01*
Y-416481D02*
Y-411481D01*
X665768Y-403981D02*
X691768D01*
X1059519Y-279280D02*
Y-264280D01*
X1041519Y-271780D02*
X1046519D01*
X1033519Y-264280D02*
X1059519D01*
X1046519Y-276780D02*
Y-271780D01*
X1033519Y-279280D02*
Y-264280D01*
X1046519Y-271780D02*
X1051519D01*
X1046519D02*
Y-266780D01*
X1033519Y-279280D02*
X1059519D01*
X665768Y-304681D02*
Y-289681D01*
X678768Y-297181D02*
X683768D01*
X665768Y-304681D02*
X691768D01*
X678768Y-297181D02*
Y-292181D01*
X691768Y-304681D02*
Y-289681D01*
X673768Y-297181D02*
X678768D01*
Y-302181D02*
Y-297181D01*
X665768Y-289681D02*
X691768D01*
X944619Y-595510D02*
Y-580510D01*
X957619Y-588010D02*
X962619D01*
X944619Y-595510D02*
X970619D01*
X957619Y-588010D02*
Y-583010D01*
X970619Y-595510D02*
Y-580510D01*
X952619Y-588010D02*
X957619D01*
Y-593010D02*
Y-588010D01*
X944619Y-580510D02*
X970619D01*
X1059519Y-874910D02*
Y-859910D01*
X1041519Y-867410D02*
X1046519D01*
X1033519Y-859910D02*
X1059519D01*
X1046519Y-872410D02*
Y-867410D01*
X1033519Y-874910D02*
Y-859910D01*
X1046519Y-867410D02*
X1051519D01*
X1046519D02*
Y-862410D01*
X1033519Y-874910D02*
X1059519D01*
X1059519Y-855860D02*
Y-840860D01*
X1041519Y-848360D02*
X1046519D01*
X1033519Y-840860D02*
X1059519D01*
X1046519Y-853360D02*
Y-848360D01*
X1033519Y-855860D02*
Y-840860D01*
X1046519Y-848360D02*
X1051519D01*
X1046519D02*
Y-843360D01*
X1033519Y-855860D02*
X1059519D01*
X665768Y-26551D02*
Y-11551D01*
X678768Y-19051D02*
X683768D01*
X665768Y-26551D02*
X691768D01*
X678768Y-19051D02*
Y-14051D01*
X691768Y-26551D02*
Y-11551D01*
X673768Y-19051D02*
X678768D01*
Y-24051D02*
Y-19051D01*
X665768Y-11551D02*
X691768D01*
X665768Y-102751D02*
Y-87751D01*
X678768Y-95251D02*
X683768D01*
X665768Y-102751D02*
X691768D01*
X678768Y-95251D02*
Y-90251D01*
X691768Y-102751D02*
Y-87751D01*
X673768Y-95251D02*
X678768D01*
Y-100251D02*
Y-95251D01*
X665768Y-87751D02*
X691768D01*
X1059519Y-595510D02*
Y-580510D01*
X1041519Y-588010D02*
X1046519D01*
X1033519Y-580510D02*
X1059519D01*
X1046519Y-593010D02*
Y-588010D01*
X1033519Y-595510D02*
Y-580510D01*
X1046519Y-588010D02*
X1051519D01*
X1046519D02*
Y-583010D01*
X1033519Y-595510D02*
X1059519D01*
X-76043Y-716238D02*
X-76043Y-726238D01*
X-81040Y-721242D02*
X-71040D01*
X-103923Y-634906D02*
Y-617156D01*
X-47923Y-617156D01*
X-103923Y-825506D02*
Y-634906D01*
X-47923Y-825506D02*
Y-617156D01*
X-103923Y-825506D02*
X-47923D01*
X335425Y-1141737D02*
X345425D01*
X340408Y-1146725D02*
Y-1136725D01*
X286966Y-1169621D02*
X304716D01*
X286966D02*
Y-1113621D01*
X304716Y-1169621D02*
X393501D01*
X286966Y-1113621D02*
X393501D01*
Y-1169621D02*
Y-1113621D01*
X666318Y-140851D02*
Y-125851D01*
X679318Y-133351D02*
X684318D01*
X666318Y-140851D02*
X692318D01*
X679318Y-133351D02*
Y-128351D01*
X692318Y-140851D02*
Y-125851D01*
X674318Y-133351D02*
X679318D01*
Y-138351D02*
Y-133351D01*
X666318Y-125851D02*
X692318D01*
X665768Y11549D02*
Y26549D01*
X678768Y19049D02*
X683768D01*
X665768Y11549D02*
X691768D01*
X678768Y19049D02*
Y24049D01*
X691768Y11549D02*
Y26549D01*
X673768Y19049D02*
X678768D01*
Y14049D02*
Y19049D01*
X665768Y26549D02*
X691768D01*
X666318Y-457081D02*
Y-442081D01*
X679318Y-449581D02*
X684318D01*
X666318Y-457081D02*
X692318D01*
X679318Y-449581D02*
Y-444581D01*
X692318Y-457081D02*
Y-442081D01*
X674318Y-449581D02*
X679318D01*
Y-454581D02*
Y-449581D01*
X666318Y-442081D02*
X692318D01*
X1059519Y-614560D02*
Y-599560D01*
X1041519Y-607060D02*
X1046519D01*
X1033519Y-599560D02*
X1059519D01*
X1046519Y-612060D02*
Y-607060D01*
X1033519Y-614560D02*
Y-599560D01*
X1046519Y-607060D02*
X1051519D01*
X1046519D02*
Y-602060D01*
X1033519Y-614560D02*
X1059519D01*
X665218Y-64651D02*
Y-49651D01*
X678218Y-57151D02*
X683218D01*
X665218Y-64651D02*
X691218D01*
X678218Y-57151D02*
Y-52151D01*
X691218Y-64651D02*
Y-49651D01*
X673218Y-57151D02*
X678218D01*
Y-62151D02*
Y-57151D01*
X665218Y-49651D02*
X691218D01*
X944619Y36950D02*
Y51950D01*
X957619Y44450D02*
X962619D01*
X944619Y36950D02*
X970619D01*
X957619Y44450D02*
Y49450D01*
X970619Y36950D02*
Y51950D01*
X952619Y44450D02*
X957619D01*
Y39450D02*
Y44450D01*
X944619Y51950D02*
X970619D01*
X-12539Y222449D02*
Y232449D01*
X-17537Y227451D02*
X-7538D01*
X15300Y97780D02*
Y115530D01*
X-40700Y97780D02*
X15300D01*
Y115530D02*
Y356780D01*
X-40700Y97780D02*
Y356780D01*
X15300Y356780D01*
X665218Y-380881D02*
Y-365881D01*
X678218Y-373381D02*
X683218D01*
X665218Y-380881D02*
X691218D01*
X678218Y-373381D02*
Y-368381D01*
X691218Y-380881D02*
Y-365881D01*
X673218Y-373381D02*
X678218D01*
Y-378381D02*
Y-373381D01*
X665218Y-365881D02*
X691218D01*
X-76004Y-400008D02*
X-76004Y-410008D01*
X-81001Y-405012D02*
X-71001D01*
X-103884Y-318676D02*
X-103884Y-300926D01*
X-47884D01*
X-103884Y-509276D02*
Y-318676D01*
X-47884Y-509276D02*
Y-300926D01*
X-103884Y-509276D02*
X-47884D01*
X944619Y-874910D02*
Y-859910D01*
X957619Y-867410D02*
X962619D01*
X944619Y-874910D02*
X970619D01*
X957619Y-867410D02*
Y-862410D01*
X970619Y-874910D02*
Y-859910D01*
X952619Y-867410D02*
X957619D01*
Y-872410D02*
Y-867410D01*
X944619Y-859910D02*
X970619D01*
X944619Y-539630D02*
Y-524630D01*
X957619Y-532130D02*
X962619D01*
X944619Y-539630D02*
X970619D01*
X957619Y-532130D02*
Y-527130D01*
X970619Y-539630D02*
Y-524630D01*
X952619Y-532130D02*
X957619D01*
Y-537130D02*
Y-532130D01*
X944619Y-524630D02*
X970619D01*
X-12501Y-410011D02*
Y-400011D01*
X-17499Y-405009D02*
X-7499D01*
X15339Y-534680D02*
Y-516930D01*
X-40661Y-534680D02*
X15339Y-534680D01*
Y-516930D02*
Y-275680D01*
X-40661Y-534680D02*
Y-275680D01*
X15339Y-275680D01*
X1059519Y-242450D02*
Y-227450D01*
X1041519Y-234950D02*
X1046519D01*
X1033519Y-227450D02*
X1059519D01*
X1046519Y-239950D02*
Y-234950D01*
X1033519Y-242450D02*
Y-227450D01*
X1046519Y-234950D02*
X1051519D01*
X1046519D02*
Y-229950D01*
X1033519Y-242450D02*
X1059519D01*
X944619Y-614560D02*
Y-599560D01*
X957619Y-607060D02*
X962619D01*
X944619Y-614560D02*
X970619D01*
X957619Y-607060D02*
Y-602060D01*
X970619Y-614560D02*
Y-599560D01*
X952619Y-607060D02*
X957619D01*
Y-612060D02*
Y-607060D01*
X944619Y-599560D02*
X970619D01*
X944619Y-279280D02*
Y-264280D01*
X957619Y-271780D02*
X962619D01*
X944619Y-279280D02*
X970619D01*
X957619Y-271780D02*
Y-266780D01*
X970619Y-279280D02*
Y-264280D01*
X952619Y-271780D02*
X957619D01*
Y-276780D02*
Y-271780D01*
X944619Y-264280D02*
X970619D01*
X665768Y-342781D02*
Y-327781D01*
X678768Y-335281D02*
X683768D01*
X665768Y-342781D02*
X691768D01*
X678768Y-335281D02*
Y-330281D01*
X691768Y-342781D02*
Y-327781D01*
X673768Y-335281D02*
X678768D01*
Y-340281D02*
Y-335281D01*
X665768Y-327781D02*
X691768D01*
X944619Y-855860D02*
Y-840860D01*
X957619Y-848360D02*
X962619D01*
X944619Y-855860D02*
X970619D01*
X957619Y-848360D02*
Y-843360D01*
X970619Y-855860D02*
Y-840860D01*
X952619Y-848360D02*
X957619D01*
Y-853360D02*
Y-848360D01*
X944619Y-840860D02*
X970619D01*
X665768Y49649D02*
Y64649D01*
X678768Y57149D02*
X683768D01*
X665768Y49649D02*
X691768D01*
X678768Y57149D02*
Y62149D01*
X691768Y49649D02*
Y64649D01*
X673768Y57149D02*
X678768D01*
Y52149D02*
Y57149D01*
X665768Y64649D02*
X691768D01*
X665768Y-178951D02*
Y-163951D01*
X678768Y-171451D02*
X683768D01*
X665768Y-178951D02*
X691768D01*
X678768Y-171451D02*
Y-166451D01*
X691768Y-178951D02*
Y-163951D01*
X673768Y-171451D02*
X678768D01*
Y-176451D02*
Y-171451D01*
X665768Y-163951D02*
X691768D01*
X-12539Y-93781D02*
Y-83781D01*
X-17537Y-88779D02*
X-7538D01*
X15300Y-218450D02*
Y-200700D01*
X-40700Y-218450D02*
X15300Y-218450D01*
Y-200700D02*
Y40550D01*
X-40700Y-218450D02*
Y40550D01*
X15300Y40550D01*
X665768Y-266581D02*
Y-251581D01*
X678768Y-259081D02*
X683768D01*
X665768Y-266581D02*
X691768D01*
X678768Y-259081D02*
Y-254081D01*
X691768Y-266581D02*
Y-251581D01*
X673768Y-259081D02*
X678768D01*
Y-264081D02*
Y-259081D01*
X665768Y-251581D02*
X691768D01*
X1059519Y17900D02*
Y32900D01*
X1041519Y25400D02*
X1046519D01*
X1033519Y32900D02*
X1059519D01*
X1046519Y20400D02*
Y25400D01*
X1033519Y17900D02*
Y32900D01*
X1046519Y25400D02*
X1051519D01*
X1046519D02*
Y30400D01*
X1033519Y17900D02*
X1059519D01*
X913171Y-416482D02*
Y-406482D01*
X908168Y-411478D02*
X918168D01*
X941051Y-515564D02*
Y-497814D01*
X885051Y-515564D02*
X941051D01*
Y-497814D02*
Y-307214D01*
X885051Y-515564D02*
Y-307214D01*
X941051D01*
X-107452Y-552210D02*
X-107452Y-537210D01*
X-125452Y-544710D02*
X-120452D01*
X-133452Y-537210D02*
X-107452D01*
X-120452Y-549710D02*
Y-544710D01*
X-133452Y-537210D02*
X-133452Y-552210D01*
X-120452Y-544710D02*
X-115452D01*
X-120452D02*
Y-539710D01*
X-133452Y-552210D02*
X-107452D01*
X171910Y-766839D02*
Y-751839D01*
X153910Y-759339D02*
X158910D01*
X145910Y-751839D02*
X171910D01*
X158910Y-764339D02*
Y-759339D01*
X145910Y-766839D02*
Y-751839D01*
X158910Y-759339D02*
X163910D01*
X158910D02*
Y-754339D01*
X145910Y-766839D02*
X171910D01*
X170810Y-690639D02*
Y-675639D01*
X152810Y-683139D02*
X157810D01*
X144810Y-675639D02*
X170810D01*
X157810Y-688139D02*
Y-683139D01*
X144810Y-690639D02*
Y-675639D01*
X157810Y-683139D02*
X162810D01*
X157810D02*
Y-678139D01*
X144810Y-690639D02*
X170810D01*
X171910Y-614439D02*
Y-599439D01*
X153910Y-606939D02*
X158910D01*
X145910Y-599439D02*
X171910D01*
X158910Y-611939D02*
Y-606939D01*
X145910Y-614439D02*
Y-599439D01*
X158910Y-606939D02*
X163910D01*
X158910D02*
Y-601939D01*
X145910Y-614439D02*
X171910D01*
X-222352Y-291860D02*
Y-276860D01*
X-209352Y-284360D02*
X-204352D01*
X-222352Y-291860D02*
X-196352D01*
X-209352Y-284360D02*
Y-279360D01*
X-196352Y-291860D02*
Y-276860D01*
X-214352Y-284360D02*
X-209352D01*
Y-289360D02*
Y-284360D01*
X-222352Y-276860D02*
X-196352D01*
X171360Y-728739D02*
Y-713739D01*
X153360Y-721239D02*
X158360D01*
X145360Y-713739D02*
X171360D01*
X158360Y-726239D02*
Y-721239D01*
X145360Y-728739D02*
Y-713739D01*
X158360Y-721239D02*
X163360D01*
X158360D02*
Y-716239D01*
X145360Y-728739D02*
X171360D01*
X-222352Y-272810D02*
Y-257810D01*
X-209352Y-265310D02*
X-204352D01*
X-222352Y-272810D02*
X-196352Y-272810D01*
X-209352Y-265310D02*
Y-260310D01*
X-196352Y-257810D02*
X-196352Y-272810D01*
X-214352Y-265310D02*
X-209352D01*
Y-270310D02*
Y-265310D01*
X-222352Y-257810D02*
X-196352D01*
X171360Y-843039D02*
Y-828039D01*
X153360Y-835539D02*
X158360D01*
X145360Y-828039D02*
X171360D01*
X158360Y-840539D02*
Y-835539D01*
X145360Y-843039D02*
Y-828039D01*
X158360Y-835539D02*
X163360D01*
X158360D02*
Y-830539D01*
X145360Y-843039D02*
X171360D01*
X-107452Y-272810D02*
Y-257810D01*
X-125452Y-265310D02*
X-120452D01*
X-133452Y-257810D02*
X-107452D01*
X-120452Y-270310D02*
Y-265310D01*
X-133452Y-272810D02*
Y-257810D01*
X-120452Y-265310D02*
X-115452D01*
X-120452D02*
Y-260310D01*
X-133452Y-272810D02*
X-107452D01*
X171360Y-804939D02*
Y-789939D01*
X153360Y-797439D02*
X158360D01*
X145360Y-789939D02*
X171360D01*
X158360Y-802439D02*
Y-797439D01*
X145360Y-804939D02*
Y-789939D01*
X158360Y-797439D02*
X163360D01*
X158360D02*
Y-792439D01*
X145360Y-804939D02*
X171360D01*
Y-652539D02*
Y-637539D01*
X153360Y-645039D02*
X158360D01*
X145360Y-637539D02*
X171360D01*
X158360Y-650039D02*
Y-645039D01*
X145360Y-652539D02*
Y-637539D01*
X158360Y-645039D02*
X163360D01*
X158360D02*
Y-640039D01*
X145360Y-652539D02*
X171360D01*
X-107452Y-291860D02*
Y-276860D01*
X-125452Y-284360D02*
X-120452D01*
X-133452Y-276860D02*
X-107452D01*
X-120452Y-289360D02*
Y-284360D01*
X-133452Y-291860D02*
Y-276860D01*
X-120452Y-284360D02*
X-115452D01*
X-120452D02*
Y-279360D01*
X-133452Y-291860D02*
X-107452D01*
Y-533160D02*
Y-518160D01*
X-125452Y-525660D02*
X-120452D01*
X-133452Y-518160D02*
X-107452D01*
X-120452Y-530660D02*
Y-525660D01*
X-133452Y-533160D02*
Y-518160D01*
X-120452Y-525660D02*
X-115452D01*
X-120452D02*
Y-520660D01*
X-133452Y-533160D02*
X-107452D01*
X171360Y-881139D02*
Y-866139D01*
X153360Y-873639D02*
X158360D01*
X145360Y-866139D02*
X171360D01*
X158360Y-878639D02*
Y-873639D01*
X145360Y-881139D02*
Y-866139D01*
X158360Y-873639D02*
X163360D01*
X158360D02*
Y-868639D01*
X145360Y-881139D02*
X171360D01*
X849668Y-416479D02*
Y-406479D01*
X844666Y-411481D02*
X854665D01*
X821828Y-299560D02*
Y-281810D01*
X877828D01*
X821828Y-540810D02*
Y-299560D01*
X877828Y-540810D02*
Y-281810D01*
X821828Y-540810D02*
X877828D01*
X849668Y-100249D02*
Y-90249D01*
X844666Y-95251D02*
X854665D01*
X821828Y16670D02*
Y34420D01*
X877828D01*
X821828Y-224580D02*
Y16670D01*
X877828Y-224580D02*
Y34420D01*
X821828Y-224580D02*
X877828D01*
X849668Y-732709D02*
Y-722709D01*
X844666Y-727711D02*
X854665D01*
X821828Y-615790D02*
Y-598040D01*
X877828D01*
X821828Y-857040D02*
Y-615790D01*
X877828Y-857040D02*
Y-598040D01*
X821828Y-857040D02*
X877828D01*
X309960Y-1050290D02*
X314960D01*
X319960D01*
X314960Y-1055290D02*
Y-1050290D01*
Y-1045290D01*
X277960Y-1077790D02*
Y-1022540D01*
X351960Y-1077790D02*
Y-1022540D01*
X277960Y-1077790D02*
X351960D01*
X277960Y-1022540D02*
X351960D01*
X277960Y-1027490D02*
X279710Y-1031240D01*
X277960Y-1034990D02*
X279710Y-1031240D01*
X375280Y-131210D02*
X379280Y-132960D01*
X371280Y-132960D02*
X375280Y-131210D01*
X367530Y-132960D02*
Y-92460D01*
X401780Y-132960D02*
Y-92460D01*
X367530D02*
X401780D01*
X367530Y-132960D02*
X401780D01*
X379780Y-112710D02*
X384780D01*
X389780D01*
X384780D02*
Y-107710D01*
Y-117710D02*
Y-112710D01*
X362500Y9250D02*
X366500Y7500D01*
X370500Y9250D01*
X374250Y-31250D02*
Y9250D01*
X340000Y-31250D02*
Y9250D01*
Y-31250D02*
X374250D01*
X340000Y9250D02*
X374250D01*
X357000Y-11000D02*
X362000D01*
X352000D02*
X357000D01*
Y-16000D02*
Y-11000D01*
Y-6000D01*
X411140Y172550D02*
Y246550D01*
X305140Y172550D02*
Y246550D01*
Y172550D02*
X411140D01*
X305140Y246550D02*
X411140D01*
X499180Y-883500D02*
X500930Y-879500D01*
X499180Y-875500D02*
X500930Y-879500D01*
X499180Y-871750D02*
X539680D01*
X499180Y-906000D02*
X539680D01*
Y-871750D01*
X499180Y-906000D02*
Y-871750D01*
X519430Y-889000D02*
Y-884000D01*
Y-894000D02*
Y-889000D01*
X524430D01*
X514430D02*
X519430D01*
X405540Y-868200D02*
X408265Y-869950D01*
X402815D02*
X405540Y-868200D01*
X397540Y-869950D02*
Y-806450D01*
X432790Y-869950D02*
Y-806450D01*
X397540D02*
X432790D01*
X397540Y-869950D02*
X432790D01*
X410290Y-838200D02*
X415290D01*
X420290D01*
X415290D02*
Y-833200D01*
Y-843200D02*
Y-838200D01*
X304160Y-131210D02*
X308160Y-132960D01*
X300160Y-132960D02*
X304160Y-131210D01*
X296410Y-132960D02*
Y-92460D01*
X330660Y-132960D02*
Y-92460D01*
X296410D02*
X330660D01*
X296410Y-132960D02*
X330660D01*
X308660Y-112710D02*
X313660D01*
X318660D01*
X313660D02*
Y-107710D01*
Y-117710D02*
Y-112710D01*
X681140Y134550D02*
X685140Y132800D01*
X689140Y134550D01*
X692890Y94050D02*
Y134550D01*
X658640Y94050D02*
Y134550D01*
Y94050D02*
X692890D01*
X658640Y134550D02*
X692890D01*
X675640Y114300D02*
X680640D01*
X670640D02*
X675640D01*
Y109300D02*
Y114300D01*
Y119300D01*
X675719Y-228600D02*
X680719D01*
X692220Y-235099D02*
Y-222099D01*
X664220Y-235099D02*
X692220D01*
X664220Y-222099D02*
X692220D01*
X664220Y-235099D02*
Y-222099D01*
X678219Y-231100D02*
Y-226100D01*
X675719Y-544830D02*
X680719D01*
X692220Y-551329D02*
Y-538329D01*
X664220Y-551329D02*
X692220D01*
X664220Y-538329D02*
X692220D01*
X664220Y-551329D02*
Y-538329D01*
X678219Y-547330D02*
Y-542330D01*
X675719Y-861060D02*
X680719D01*
X692220Y-867559D02*
Y-854559D01*
X664220Y-867559D02*
X692220D01*
X664220Y-854559D02*
X692220D01*
X664220Y-867559D02*
Y-854559D01*
X678219Y-863560D02*
Y-858560D01*
X156409Y-587890D02*
X161409D01*
X144908Y-594391D02*
X144908Y-581391D01*
X172908D01*
X144908Y-594391D02*
X172908Y-594391D01*
Y-581391D01*
X158909Y-590390D02*
Y-585390D01*
X156448Y-271660D02*
X161448D01*
X144947Y-278161D02*
X144947Y-265161D01*
X172947D01*
X144947Y-278161D02*
X172947Y-278161D01*
Y-265161D01*
X158948Y-274160D02*
Y-269160D01*
X156409Y44570D02*
X161409D01*
X144908Y38069D02*
X144908Y51069D01*
X172908D01*
X144908Y38069D02*
X172908Y38069D01*
Y51069D01*
X158909Y42070D02*
Y47070D01*
X156409Y360800D02*
X161409D01*
X144908Y354299D02*
Y367299D01*
X172908Y367299D01*
X144908Y354299D02*
X172908Y354299D01*
Y367299D01*
X158909Y358300D02*
Y363300D01*
X676269Y-190500D02*
X681269D01*
X692770Y-196999D02*
Y-183999D01*
X664770Y-196999D02*
X692770D01*
X664770Y-183999D02*
X692770D01*
X664770Y-196999D02*
Y-183999D01*
X678769Y-193000D02*
Y-188000D01*
X676269Y-506730D02*
X681269D01*
X692770Y-513229D02*
Y-500229D01*
X664770Y-513229D02*
X692770D01*
X664770Y-500229D02*
X692770D01*
X664770Y-513229D02*
Y-500229D01*
X678769Y-509230D02*
Y-504230D01*
X676269Y-822960D02*
X681269D01*
X692770Y-829459D02*
Y-816459D01*
X664770Y-829459D02*
X692770D01*
X664770Y-816459D02*
X692770D01*
X664770Y-829459D02*
Y-816459D01*
X678769Y-825460D02*
Y-820460D01*
X155859Y-625990D02*
X160859D01*
X144358Y-632491D02*
Y-619491D01*
X172358Y-619491D01*
X144358Y-632491D02*
X172358D01*
X172358Y-619491D01*
X158359Y-628490D02*
Y-623490D01*
X155898Y-309760D02*
X160898D01*
X144397Y-316261D02*
Y-303261D01*
X172397Y-303261D01*
X144397Y-316261D02*
X172397D01*
X172397Y-303261D01*
X158398Y-312260D02*
Y-307260D01*
X155859Y6470D02*
X160859D01*
X144358Y-31D02*
Y12969D01*
X172358Y12969D01*
X144358Y-31D02*
X172358D01*
X172358Y12969D01*
X158359Y3970D02*
Y8970D01*
X155859Y322700D02*
X160859D01*
X144358Y316199D02*
Y329199D01*
X172358Y329199D01*
X144358Y316199D02*
X172358Y316199D01*
Y329199D01*
X158359Y320200D02*
Y325200D01*
X676819Y-152400D02*
X681819D01*
X693320Y-158899D02*
Y-145899D01*
X665320Y-158899D02*
X693320D01*
X665320Y-145899D02*
X693320D01*
X665320Y-158899D02*
Y-145899D01*
X679319Y-154900D02*
Y-149900D01*
X676819Y-468630D02*
X681819D01*
X693320Y-475129D02*
Y-462129D01*
X665320Y-475129D02*
X693320D01*
X665320Y-462129D02*
X693320D01*
X665320Y-475129D02*
Y-462129D01*
X679319Y-471130D02*
Y-466130D01*
X676819Y-784860D02*
X681819D01*
X693320Y-791359D02*
Y-778359D01*
X665320Y-791359D02*
X693320D01*
X665320Y-778359D02*
X693320D01*
X665320Y-791359D02*
Y-778359D01*
X679319Y-787360D02*
Y-782360D01*
X155309Y-664090D02*
X160309D01*
X143808Y-670591D02*
Y-657591D01*
X171808D01*
X143808Y-670591D02*
X171808D01*
X171808Y-657591D02*
X171808Y-670591D01*
X157809Y-666590D02*
Y-661590D01*
X155348Y-347860D02*
X160348D01*
X143847Y-354361D02*
Y-341361D01*
X171847D01*
X143847Y-354361D02*
X171847D01*
Y-341361D01*
X157848Y-350360D02*
Y-345360D01*
X155309Y-31630D02*
X160309D01*
X143808Y-38131D02*
Y-25131D01*
X171808D01*
X143808Y-38131D02*
X171808D01*
X171808Y-25131D02*
X171808Y-38131D01*
X157809Y-34130D02*
Y-29130D01*
X155309Y284600D02*
X160309D01*
X143808Y278099D02*
X143808Y291099D01*
X171808Y291099D01*
X143808Y278099D02*
X171808D01*
X171808Y291099D01*
X157809Y282100D02*
Y287100D01*
X676269Y-114300D02*
X681269D01*
X692770Y-120799D02*
Y-107799D01*
X664770Y-120799D02*
X692770D01*
X664770Y-107799D02*
X692770D01*
X664770Y-120799D02*
Y-107799D01*
X678769Y-116800D02*
Y-111800D01*
X676269Y-430530D02*
X681269D01*
X692770Y-437029D02*
Y-424029D01*
X664770Y-437029D02*
X692770D01*
X664770Y-424029D02*
X692770D01*
X664770Y-437029D02*
Y-424029D01*
X678769Y-433030D02*
Y-428030D01*
X676269Y-746760D02*
X681269D01*
X692770Y-753259D02*
Y-740259D01*
X664770Y-753259D02*
X692770D01*
X664770Y-740259D02*
X692770D01*
X664770Y-753259D02*
Y-740259D01*
X678769Y-749260D02*
Y-744260D01*
X155859Y-702190D02*
X160859D01*
X144358Y-708691D02*
Y-695691D01*
X172358D01*
X144358Y-708691D02*
X172358D01*
Y-695691D01*
X158359Y-704690D02*
Y-699690D01*
X155898Y-385960D02*
X160898D01*
X144397Y-392461D02*
X144397Y-379461D01*
X172397D01*
X144397Y-392461D02*
X172397D01*
Y-379461D01*
X158398Y-388460D02*
Y-383460D01*
X155859Y-69730D02*
X160859D01*
X144358Y-76231D02*
Y-63231D01*
X172358D01*
X144358Y-76231D02*
X172358D01*
Y-63231D01*
X158359Y-72230D02*
Y-67230D01*
X155859Y246500D02*
X160859D01*
X144358Y239999D02*
Y252999D01*
X172358D01*
X144358Y239999D02*
X172358Y239999D01*
X172358Y252999D01*
X158359Y244000D02*
Y249000D01*
X675719Y-76200D02*
X680719D01*
X692220Y-82699D02*
Y-69699D01*
X664220Y-82699D02*
X692220D01*
X664220Y-69699D02*
X692220D01*
X664220Y-82699D02*
Y-69699D01*
X678219Y-78700D02*
Y-73700D01*
X675719Y-392430D02*
X680719D01*
X692220Y-398929D02*
Y-385929D01*
X664220Y-398929D02*
X692220D01*
X664220Y-385929D02*
X692220D01*
X664220Y-398929D02*
Y-385929D01*
X678219Y-394930D02*
Y-389930D01*
X675719Y-708660D02*
X680719D01*
X692220Y-715159D02*
Y-702159D01*
X664220Y-715159D02*
X692220D01*
X664220Y-702159D02*
X692220D01*
X664220Y-715159D02*
Y-702159D01*
X678219Y-711160D02*
Y-706160D01*
X156409Y-740290D02*
X161409D01*
X144908Y-746791D02*
Y-733791D01*
X172908D01*
X144908Y-746791D02*
X172908D01*
Y-733791D01*
X158909Y-742790D02*
Y-737790D01*
X156448Y-424060D02*
X161448D01*
X144947Y-417561D02*
X144947Y-430561D01*
X144947Y-417561D02*
X172947D01*
X144947Y-430561D02*
X172947D01*
Y-417561D01*
X158948Y-426560D02*
Y-421560D01*
X156409Y-107830D02*
X161409D01*
X144908Y-114331D02*
Y-101331D01*
X172908D01*
X144908Y-114331D02*
X172908D01*
Y-101331D01*
X158909Y-110330D02*
Y-105330D01*
X156409Y208400D02*
X161409D01*
X144908Y201899D02*
Y214899D01*
X172908Y214899D01*
X144908Y201899D02*
X172908Y201899D01*
Y214899D01*
X158909Y205900D02*
Y210900D01*
X676269Y-38100D02*
X681269D01*
X692770Y-44599D02*
Y-31599D01*
X664770Y-44599D02*
X692770D01*
X664770Y-31599D02*
X692770D01*
X664770Y-44599D02*
Y-31599D01*
X678769Y-40600D02*
Y-35600D01*
X676269Y-354330D02*
X681269D01*
X692770Y-360829D02*
Y-347829D01*
X664770Y-360829D02*
X692770D01*
X664770Y-347829D02*
X692770D01*
X664770Y-360829D02*
Y-347829D01*
X678769Y-356830D02*
Y-351830D01*
X676269Y-670560D02*
X681269D01*
X692770Y-677059D02*
Y-664059D01*
X664770Y-677059D02*
X692770D01*
X664770Y-664059D02*
X692770D01*
X664770Y-677059D02*
Y-664059D01*
X678769Y-673060D02*
Y-668060D01*
X155859Y-778390D02*
X160859Y-778390D01*
X144358Y-784891D02*
Y-771891D01*
X172358D01*
X144358Y-784891D02*
X172358D01*
Y-771891D01*
X158359Y-775890D02*
X158359Y-780890D01*
X155898Y-462160D02*
X160898D01*
X144397Y-455661D02*
X144397Y-468661D01*
X144397Y-455661D02*
X172397D01*
X144397Y-468661D02*
X172397D01*
Y-455661D01*
X158398Y-464660D02*
Y-459660D01*
X155859Y-145930D02*
X160859Y-145930D01*
X144358Y-152431D02*
Y-139431D01*
X172358D01*
X144358Y-152431D02*
X172358D01*
Y-139431D01*
X158359Y-143430D02*
X158359Y-148430D01*
X155859Y170300D02*
X160859D01*
X144358Y163799D02*
Y176799D01*
X172358Y176799D01*
X144358Y163799D02*
X172358Y163799D01*
Y176799D01*
X158359Y167800D02*
Y172800D01*
X676269Y-0D02*
X681269D01*
X692770Y-6499D02*
Y6501D01*
X664770Y-6499D02*
X692770D01*
X664770Y6501D02*
X692770D01*
X664770Y-6499D02*
Y6501D01*
X678769Y-2500D02*
Y2500D01*
X676269Y-316230D02*
X681269D01*
X692770Y-322729D02*
Y-309729D01*
X664770Y-322729D02*
X692770D01*
X664770Y-309729D02*
X692770D01*
X664770Y-322729D02*
Y-309729D01*
X678769Y-318730D02*
Y-313730D01*
X676269Y-632460D02*
X681269D01*
X692770Y-638959D02*
Y-625959D01*
X664770Y-638959D02*
X692770D01*
X664770Y-625959D02*
X692770D01*
X664770Y-638959D02*
Y-625959D01*
X678769Y-634960D02*
Y-629960D01*
X155859Y-816490D02*
X160859D01*
X144358Y-822991D02*
X144358Y-809991D01*
X172358D01*
X144358Y-822991D02*
X172358Y-822991D01*
Y-809991D01*
X158359Y-818990D02*
Y-813990D01*
X155898Y-500260D02*
X160898D01*
X144397Y-506761D02*
X144397Y-493761D01*
X172397D01*
X144397Y-506761D02*
X172397Y-506761D01*
Y-493761D01*
X158398Y-502760D02*
Y-497760D01*
X155859Y-184030D02*
X160859D01*
X144358Y-190531D02*
X144358Y-177531D01*
X172358D01*
X144358Y-190531D02*
X172358Y-190531D01*
Y-177531D01*
X158359Y-186530D02*
Y-181530D01*
X155859Y132200D02*
X160859D01*
X144358Y125699D02*
Y138699D01*
X172358Y138699D01*
X144358Y125699D02*
X172358Y125699D01*
Y138699D01*
X158359Y129700D02*
Y134700D01*
X676269Y38100D02*
X681269D01*
X692770Y31601D02*
Y44601D01*
X664770Y31601D02*
X692770D01*
X664770Y44601D02*
X692770D01*
X664770Y31601D02*
Y44601D01*
X678769Y35600D02*
Y40600D01*
X676269Y-278130D02*
X681269D01*
X692770Y-284629D02*
Y-271629D01*
X664770Y-284629D02*
X692770D01*
X664770Y-271629D02*
X692770D01*
X664770Y-284629D02*
Y-271629D01*
X678769Y-280630D02*
Y-275630D01*
X676269Y-594360D02*
X681269D01*
X692770Y-600859D02*
Y-587859D01*
X664770Y-600859D02*
X692770D01*
X664770Y-587859D02*
X692770D01*
X664770Y-600859D02*
Y-587859D01*
X678769Y-596860D02*
Y-591860D01*
X155859Y-854590D02*
X160859D01*
X144358Y-861091D02*
Y-848091D01*
X172358Y-848091D01*
X144358Y-861091D02*
X172358D01*
X172358Y-848091D01*
X158359Y-857090D02*
Y-852090D01*
X155898Y-538360D02*
X160898D01*
X144397Y-544861D02*
Y-531861D01*
X172397Y-531861D01*
X144397Y-544861D02*
X172397D01*
X172397Y-531861D01*
X158398Y-540860D02*
Y-535860D01*
X155859Y-222130D02*
X160859D01*
X144358Y-228631D02*
Y-215631D01*
X172358Y-215631D01*
X144358Y-228631D02*
X172358D01*
X172358Y-215631D01*
X158359Y-224630D02*
Y-219630D01*
X155859Y94100D02*
X160859D01*
X144358Y87599D02*
X144358Y100599D01*
X172358Y100599D01*
X144358Y87599D02*
X172358D01*
Y100599D01*
X158359Y91600D02*
Y96600D01*
M02*
